<?xml version="1.0" encoding="utf-8"?>
<!-- Generator: Adobe Illustrator 16.0.0, SVG Export Plug-In . SVG Version: 6.00 Build 0)  -->
<!DOCTYPE svg PUBLIC "-//W3C//DTD SVG 1.1//EN" "http://www.w3.org/Graphics/SVG/1.1/DTD/svg11.dtd">
<svg version="1.1" id="Capa_1" xmlns="http://www.w3.org/2000/svg" xmlns:xlink="http://www.w3.org/1999/xlink" x="0px" y="0px"
	 width="425.2px" height="425.2px" viewBox="0 0 425.2 425.2" enable-background="new 0 0 425.2 425.2" xml:space="preserve">
<rect x="0.002" y="0.002" fill="#FFFFFF" width="425.196" height="425.196"/>
<g>
	<g>
		<path fill="#5C79BC" d="M82.337,67.829c0,0,2.478-2.274,7.2,1.841l2.195-3.414C91.732,66.256,86.429,62.062,82.337,67.829z"/>
		<path fill="#5C79BC" d="M90.986,57.861c0,0-2.931,3.64,1.29,7.788l-2.848,2.875C89.428,68.524,82.9,60.524,90.986,57.861z"/>
	</g>
	<path fill="#A4DEF6" d="M78.962,155.962c5.136-7.946,13.208-10.1,13.208-10.1l19.341-7.167h18.462l19.335,7.167
		c0,0,8.071,2.154,13.208,10.1H78.962z"/>
	<path fill="#46C6E6" d="M145.961,193.597h29.88c0-5.104-0.333-12.376-0.333-12.376c-1.756-30.555-24.024-35.359-24.024-35.359
		c-17.363-4.204-7.899,22.652-7.899,22.652C143.131,174.986,144.094,183.692,145.961,193.597z"/>
	<g>
		<rect x="108.069" y="120.56" fill="#A4DEF6" width="25.347" height="24.713"/>
	</g>
	<g>
		<path fill="#6FCFF3" d="M133.416,132.047V120.56h-25.347v5.689C115.299,132.267,124.008,133.03,133.416,132.047z"/>
	</g>
	<path fill="#5C79BC" d="M160.4,193.597c0.485-13.325,0.337-16.985,0.218-21.53c-0.265-10.125-2.429-18.681-9.103-26.197
		c-0.014-0.004-0.031-0.008-0.031-0.008l-18.07-5.892c0,0,3.8,6.65-12.807,6.65c0,0-10.941-0.426-12.538-6.65l-18.351,5.892
		c0,0-15.687,3.858-18.377,20.37l9.223,16.956l-0.329,10.409H160.4z"/>
	<g>
		<path fill="#5C79BC" d="M153.115,89.671c0.72-5.684-0.49-11.128-0.431-16.73c0.041-3.759-0.693-9.432-5.367-9.908
			c-6.477-0.662-8.475,10.522-8.857,15.368c-0.527,6.681,1.13,13.902,2.418,20.438c0.464,2.361,0.416,7.08,3.074,8.22
			c2.273,0.974,4.597-1.322,5.759-3.029C152.512,99.91,152.517,94.429,153.115,89.671z"/>
		<path fill="#A4DEF6" d="M148.312,117.121c-2.562,10.024-7.073,12.787-7.073,12.787l-6.052,1.181
			c-3.482-0.441-9.487-1.86-9.487-1.86c-13.823-4.699-17.828-5.968-19.971-11.222c-0.09-0.223-10.896-37.731-10.896-37.731
			c-1.768-19.306,18.44-23.323,21.491-23.827c3.018-0.696,22.259-6.043,27.943,12.49C144.266,68.938,152.662,90.413,148.312,117.121
			z"/>
		<path fill="#5C79BC" d="M154.666,50.258c1.095,5.994,0.07,14.29-4.574,18.117c-5.043,4.153-9.371,3.024-15.44,4.372
			c-6.31,1.401-12.766,1.957-19.106,3.184c-4.441,0.86-9.567,1.352-11.611,6.063c-2.701,6.225-3.234,14.349-1.414,20.416
			c1.513,5.053,1.977,9.967,3.639,16.546c-5.733-4.744-10.185-11.663-10.185-11.663c-2.857-5.027-2.857-5.027-6.081-13.772
			c-1.89-5.125-3.522-9.634-3.767-14.919c-0.314-6.816,2.992-9.788,6.631-16.047c3.418-5.885,8.218-9.958,14.475-11.824
			c0,0,31.723,1.782,31.127-5.464c0,0,7.618,1.945,6.169,7.012c0,0,7.971-1.456,6.28-7.012
			C150.808,45.267,154.032,46.785,154.666,50.258z"/>
		<path fill="#A4DEF6" d="M103.792,101.107c0,0-3.417-7.445-8.787-3.034c0,0-2.445,1.908,0.566,6.89c0,0,4.374,7.162,9.613,3.193
			L103.792,101.107z"/>
		<path fill="#5C79BC" d="M103.257,83.746c0,0,0.022,13.327,2.471,20.396l-2.597,0.515c0,0-1.366-9.14-6.071-9.248L103.257,83.746z"
			/>
	</g>
	<path fill="#46C6E6" d="M96.975,193.597c0,0-27.912,0-27.931,0c0.009,0,0.097-6.63,0.112-7.101
		c0.209-6.519,0.622-13.086,1.797-19.512c1.679-9.185,6.139-17.329,15.956-19.663c4.493-1.068,8.488,1.651,10.921,5.349
		C97.831,152.669,102.275,158.149,96.975,193.597z"/>
</g>
<g>
	<path fill="#5C79BC" d="M312.719,136.531c-4.603-1.67-7.504-5.517-12.967-5.036c-9.719,0.858-16.614,11.782-25.967,4.371
		c-11.32-8.976-8.347-62.967-3.439-75.196c4.162-10.372,11.835-0.232,22.785-3.717c12.721-4.048,23.688,5.99,30.266,16.413
		c6.846,10.854,10.371,24.673,9.36,37.406C331.824,122.535,329.698,142.696,312.719,136.531z"/>
	<g>
		<path fill="#46C6E6" d="M356.145,193.597H332.29l-4.265-17.223c0,0-3.467-26.143,14.46-26.508c0,0,9.304,6.523,11.84,21.866
			C354.325,171.732,356.332,183.995,356.145,193.597z"/>
	</g>
	<g>
		<path fill="#46C6E6" d="M273.295,193.597l3.218-12.992c0,0,3.468-26.142-14.46-26.507c0,0-10.75,7.831-9.809,39.5H273.295"/>
	</g>
	<g>
		<rect x="291.313" y="112.071" fill="#A4DEF6" width="21.765" height="31.862"/>
	</g>
	<g>
		<path fill="#6FCFF3" d="M313.077,125.075v-13.004h-21.765v18.732C298.493,130.584,307.011,129.285,313.077,125.075z"/>
	</g>
	<path fill="#A4DEF6" d="M262.465,154.096c4.884-7.555,12.559-9.605,12.559-9.605l18.395-6.813h17.555l22.49,6.813
		c0,0,7.678,2.05,12.561,9.605H262.465z"/>
	<path fill="#46C6E6" d="M266.97,193.597h72.466l-0.463-13.614l10.656-16.124c-2.368-15.699-16.166-19.368-16.166-19.368
		l-17.712-5.042c0,0,1.056,5.766-13.557,5.766c0,0-11.74,0-13.144-5.922l-14.027,5.197c0,0-10.277,3.142-15.891,13.531l7.837,21.961
		V193.597z"/>
	<path fill="#A4DEF6" d="M315.448,114.609c-0.745,1.721-1.78,3.314-3.231,4.713c-3.607,3.478-7.838,6.296-12.477,8.201
		c-5.691,2.335-14.283,2.634-18.806-2.055c-3.665-3.8-5.676-9.555-7.267-14.489c-3.094-9.596-3.055-20.08-2.268-30.044
		c0.18-2.272,0.409-4.548,0.788-6.797c3.541-21.735,22.137-21.687,22.137-21.687c14.043-0.611,26.86,6.024,29.019,20.823
		c0.829,5.667-0.264,11.753-0.549,17.42c-0.209,4.164-0.72,8.32-2.053,12.291C319.385,107.04,317.141,110.697,315.448,114.609z"/>
	<path fill="#5C79BC" d="M269.896,93.749c-5.249-16.251-1.015-35.359,5.259-41.337c17.769-16.951,50.586-10.5,60.613,16
		c3.097,8.184,1.644,38.705,0.239,48.086c-1.879,12.568-6.501,21.18-16.045,21.18c0.255-10.364-0.54-21.845,0.378-34.516
		c0.913-12.571-0.76-12.88-11.221-18.729c-5.205-2.913-8.228-5.947-11.46-10.669c-4-5.846-0.991-7.892-8.909-7.626
		C288.751,66.138,270.347,65.51,269.896,93.749z"/>
	<path fill="#A4DEF6" d="M317.263,98.038c0,0,1.856-7.734,7.805-4.538c0,0,2.685,1.359,0.75,6.669c0,0-2.822,7.64-8.561,4.846
		L317.263,98.038z"/>
</g>
<g>
	<path fill="#A4DEF6" d="M78.962,344.528c5.136-7.946,13.208-10.101,13.208-10.101l19.341-7.167h18.462l19.335,7.167
		c0,0,8.071,2.154,13.208,10.101H78.962z"/>
	<path fill="#46C6E6" d="M145.961,382.163h29.88c0-5.104-0.333-12.376-0.333-12.376c-1.756-30.556-24.024-35.359-24.024-35.359
		c-17.363-4.204-7.899,22.652-7.899,22.652C143.131,363.552,144.094,372.258,145.961,382.163z"/>
	<g>
		<rect x="108.069" y="309.127" fill="#A4DEF6" width="25.347" height="24.713"/>
	</g>
	<g>
		<path fill="#6FCFF3" d="M133.416,320.613v-11.486h-25.347v5.688C115.299,320.833,124.008,321.597,133.416,320.613z"/>
	</g>
	<path fill="#46C6E6" d="M160.4,382.163c0.485-13.325,0.337-16.985,0.218-21.53c-0.265-10.124-2.429-18.681-9.103-26.196
		c-0.014-0.005-0.031-0.009-0.031-0.009l-18.07-5.892c0,0,3.8,6.65-12.807,6.65c0,0-10.941-0.426-12.538-6.65l-18.351,5.892
		c0,0-15.687,3.858-18.377,20.37l9.223,16.956l-0.329,10.409H160.4z"/>
	<g>
		<path fill="#5C79BC" d="M150.917,272.313c0-5.874-0.25-11.735-0.111-17.603c0.089-3.75,0.435-2.784-3.909-3.194
			c-6.02-0.572-8.032,10.609-8.454,15.448c-0.582,6.67,0.862,13.849,1.972,20.35c0.399,2.349,0.291,7.055,2.75,8.156
			c2.103,0.94,4.297-1.381,5.402-3.099c2.538-3.953,2.09-9.997,2.257-14.483C150.892,276.028,150.917,274.17,150.917,272.313z"/>
		<path fill="#A4DEF6" d="M148.312,305.688c-2.562,10.023-7.073,12.786-7.073,12.786l-6.052,1.181
			c-3.482-0.441-9.487-1.86-9.487-1.86c-13.823-4.699-17.828-5.967-19.971-11.221c-0.09-0.224-10.896-37.731-10.896-37.731
			c-1.768-19.306,18.44-23.323,21.491-23.827c3.018-0.696,22.259-6.043,27.943,12.49
			C144.266,257.505,152.662,278.979,148.312,305.688z"/>
		<path fill="#4F69A3" d="M92.757,251.121c-6.716,3.236-6.945,9.23-6.631,16.047c0.244,5.285,1.877,9.793,3.767,14.919
			c3.224,8.744,3.224,8.744,6.081,13.772c0,0,4.451,6.918,10.185,11.662c-1.662-6.578-2.126-11.493-3.639-16.546
			c-1.82-6.066-1.287-14.19,1.414-20.415c0,0,1.53-4.146,7.813-5.329c6.283-1.183,0,0,0,0L92.757,251.121"/>
		<path fill="#A4DEF6" d="M103.792,289.673c0,0-3.417-7.444-8.787-3.033c0,0-2.445,1.907,0.566,6.89c0,0,4.374,7.161,9.613,3.193
			L103.792,289.673z"/>
		<path fill="#4F69A3" d="M103.257,272.313c0,0,0.022,13.327,2.471,20.396l-2.597,0.515c0,0-1.366-9.14-6.071-9.248L103.257,272.313
			z"/>
		<path fill="#5C79BC" d="M154.239,243.771c21.602,22-43.768,21.776-43.768,21.776s-6.857,3.171-17.714-14.427
			c0,0-2.928-13.764,27.982-18.098C120.74,233.023,141.172,230.519,154.239,243.771z"/>
	</g>
	<path fill="#46C6E6" d="M96.975,382.163c0,0-27.912,0-27.931,0c0.009,0,0.097-6.631,0.112-7.101
		c0.209-6.52,0.622-13.086,1.797-19.512c1.679-9.186,6.139-17.33,15.956-19.664c4.493-1.068,8.488,1.651,10.921,5.349
		C97.831,341.235,102.275,346.715,96.975,382.163z"/>
</g>
<g>
	<path fill="#5C79BC" d="M285.909,238.834c0,0-23.323,7.011-21.124,43.935v79.575h26.527L285.909,238.834z"/>
	<path fill="#5C79BC" d="M283.258,262.695v114.319h50.727v-96.3c0,0,3.332-36.943-20.907-41.48
		C313.077,239.234,283.258,233.833,283.258,262.695z"/>
	<rect x="281.984" y="335.895" fill="#A4DEF6" width="35.272" height="17.463"/>
	<path fill="#A4DEF6" d="M356.145,382.163H332.29l-4.265-17.223c0,0-3.467-26.143,14.46-26.508c0,0,9.304,6.523,11.84,21.865
		C354.325,360.298,356.332,372.562,356.145,382.163z"/>
	<path fill="#A4DEF6" d="M273.295,382.163l3.218-12.992c0,0,5.702-29.015-12.226-29.38c0,0-12.984,10.703-12.043,42.372H273.295"/>
	<rect x="291.313" y="300.637" fill="#A4DEF6" width="21.765" height="31.862"/>
	<path fill="#6FCFF3" d="M313.077,313.642v-13.005h-21.765v18.732C298.493,319.15,307.011,317.852,313.077,313.642z"/>
	<path fill="#A4DEF6" d="M262.465,342.662c4.884-7.556,12.559-9.605,12.559-9.605l18.395-6.813h17.555l22.49,6.813
		c0,0,7.678,2.05,12.561,9.605H262.465z"/>
	<path fill="#46C6E6" d="M266.97,368.549v13.614h70.636l-0.829-15.81c-0.876-30.459,2.528-30.468,2.528-30.468
		c-3.184-2.121-5.842-2.829-5.842-2.829l-17.712-5.041c0,0-3.839,16.513-18.451,16.513c0,0-11.315-6.096-8.249-16.668l-14.027,5.196
		c0,0-5.561,1.7-10.736,6.734C264.287,339.791,266.789,341.324,266.97,368.549z"/>
	<path fill="#A4DEF6" d="M315.448,303.176c-0.745,1.721-1.78,3.314-3.231,4.713c-3.607,3.478-7.838,6.297-12.477,8.201
		c-5.691,2.335-14.283,2.634-18.806-2.055c-3.665-3.8-5.676-9.555-7.267-14.489c-3.094-9.597-3.055-20.08-2.268-30.044
		c0.18-2.273,0.409-4.549,0.788-6.798c3.541-21.735,22.137-21.687,22.137-21.687c14.043-0.611,26.86,6.023,29.019,20.823
		c0.829,5.667-0.264,11.753-0.549,17.42c-0.209,4.165-0.72,8.32-2.053,12.291C319.385,295.606,317.141,299.264,315.448,303.176z"/>
	<path fill="#A4DEF6" d="M317.263,286.604c0,0,1.856-7.733,7.805-4.538c0,0,2.685,1.359,0.75,6.669c0,0-2.822,7.641-8.561,4.847
		L317.263,286.604z"/>
	<path fill="#5C79BC" d="M269.984,265.19c-1-29.833,27.315-28.417,27.315-28.417c27.833,1.143,29.218,13.75,29.218,13.75
		c3.368,16-1.45,31.543-1.45,31.543c-5.917-1.291-6.917,6.624-6.917,6.624c0.62-12.683-0.42-13.447-0.42-13.447
		c-9.031-0.095-15.535-1.063-15.535-1.063l-0.399-8.844l-2.176,8.379c0,0-12.8-0.285-26.095-3.441c0,0-3.541,0.25-3.541,11.02
		V265.19z"/>
</g>
</svg>
