<?xml version="1.0" encoding="utf-8"?>
<!-- Generator: Adobe Illustrator 16.0.0, SVG Export Plug-In . SVG Version: 6.00 Build 0)  -->
<!DOCTYPE svg PUBLIC "-//W3C//DTD SVG 1.1//EN" "http://www.w3.org/Graphics/SVG/1.1/DTD/svg11.dtd">
<svg version="1.1" id="Layer_1" xmlns="http://www.w3.org/2000/svg" xmlns:xlink="http://www.w3.org/1999/xlink" x="0px" y="0px"
	 width="4320px" height="1080px" viewBox="0 0 4320 1080" enable-background="new 0 0 4320 1080" xml:space="preserve">
<g>
	<g>
		<path fill="#92A391" d="M2068.348,587.354c0,0,37.33-9.429,81.656-11.452c43.059-1.965,101.708,18.082,101.708,18.082
			s-50.771,31.991-102.901,24.708C2092.658,610.847,2068.348,587.354,2068.348,587.354z"/>
		<path opacity="0.65" fill="#92A391" d="M2201.342,589.264c0,0-31.669-1.123-55.31,0c-16.085,0.764-35.336,2.411-41.204,2.898
			c-5.867,0.486,0.053,5.156,0.053,5.156s-11.295,1.422-9.166,3.025s1.438,5.752,24.541,4.943c13.86-0.484,3.187-7.316,3.187-7.316
			s37.839-2.441,43.362-3.986c0,0,10.785,19.553,40.703,15.508c23.441-3.169,29.822-13.77,29.822-13.77
			S2221.701,588.244,2201.342,589.264z"/>
		<g>
			<path fill="#ABC0C8" d="M2169.447,532.07c0,0,5.71,27.453,1.957,50.854c-0.058,0.357-0.508,0.495-0.754,0.229
				c-1.854-2.009-8.158-10.243-22.575-40.829l-7.858,2.539c0,0,19.648,37.533,31.814,44.297c0.422,0.234,0.948,0.059,1.105-0.397
				c0.939-2.72,3.168-12.998,3.785-28.675c0.67-17.059,0.67-31.242,0.67-31.242L2169.447,532.07z"/>
			<path opacity="0.65" fill="#8CA9B4" d="M2142.491,544.488c5.758,10.363,18.937,36.157,28.391,41.414
				c0.421,0.234,0.948,0.058,1.104-0.398c0.939-2.72,2.707-11.954,3.322-27.631c0.413-10.487-0.061-20.199,0-25.884l-4.137,1.169
				c0.872,4.836,3.334,17.025,2.684,31.328c-0.187,4.086-0.863,15.74-2.451,20.521c-0.114,0.344-0.508,0.496-0.754,0.23
				c-1.854-2.01-10.815-10.207-25.231-40.792L2142.491,544.488z"/>
			<path fill="#7D9EAA" d="M2153.55,553.668c-1.681-3.395-3.499-7.152-5.475-11.344l-7.858,2.539c0,0,2.67,5.098,6.645,11.867
				C2148.825,555.351,2151.168,554.311,2153.55,553.668z"/>
			<path fill="#7D9EAA" d="M2171.951,549.995c1.748-0.768,3.532-1.42,5.357-1.946c0.227-8.971,0.272-15.879,0.281-18.28
				l-8.143,2.302c0,0,1.549,7.466,2.504,17.922C2171.951,549.992,2171.951,549.994,2171.951,549.995z"/>
			<path fill="#ABC0C8" d="M2115.636,536.095l-3.45,24.438l-3.594,0.719c0,0-0.862-20.27-1.293-24.15
				C2106.868,533.22,2115.636,536.095,2115.636,536.095z"/>
			<path fill="#7D9EAA" d="M2113.644,550.205l1.992-14.11c0,0-8.769-2.875-8.337,1.006c0.187,1.68,0.454,6.434,0.698,11.283
				C2109.93,548.658,2111.865,549.29,2113.644,550.205z"/>
			<g>
				<path fill="#36393B" d="M2124.121,567.292c-0.74-2.781-5.264-13.708-14.663-15.042c-7.403-1.05-20.342,7.814-17.148,28.668
					c2.699,17.619,16.821,23.736,21.835,21.659C2118.525,600.763,2130.083,589.68,2124.121,567.292z"/>
				<path fill="#1C2023" d="M2124.121,567.292c-0.715-2.788-5.264-13.708-14.663-15.042c-1.322-0.188-2.822-0.053-4.375,0.404
					c3.396,2.581,5.728,6.555,6.901,11.283c1.969,7.934,3.847,18.883,1.043,26.778c-1.544,4.349-4.511,7.7-8.2,10.07
					c3.693,2.117,7.266,2.64,9.317,1.791C2118.525,600.763,2129.868,589.68,2124.121,567.292z"/>
				<path opacity="0.75" fill="#A6A8A9" d="M2102.479,570.549c-3.278,0.359-6.565,0.6-9.859,0.6c-0.209,0-0.413-0.004-0.62-0.006
					c-0.304,2.908-0.245,6.156,0.31,9.775c0.075,0.49,0.162,0.969,0.252,1.441c3.522-0.118,7.183,0.151,10.628-0.262
					C2102.404,578.389,2102.41,574.539,2102.479,570.549z"/>
				<path fill="#0E1214" d="M2121.33,568.928c-0.465-2.133-3.669-10.46-9.851-11.619c-4.87-0.912-13.209,5.592-10.784,21.428
					c2.049,13.379,10.832,18.219,14.085,16.727C2117.623,594.158,2125.553,588.291,2121.33,568.928z"/>
				<path fill="#D7D8D8" d="M2112.798,562.381c-1.531-0.932-3.485-0.618-4.732,0.669c-2.061,2.126-4.806,6.706-3.176,15.278
					c1.312,6.9,4.612,9.792,6.804,10.977c1.213,0.656,2.715,0.438,3.684-0.546c1.916-1.944,4.788-6.118,4.016-13.199
					C2118.576,568.061,2115.482,564.016,2112.798,562.381z"/>
				<path fill="#C1C2C2" d="M2119.393,575.56c-0.817-7.499-3.911-11.544-6.595-13.179c-0.333-0.203-0.688-0.336-1.049-0.424
					c0.397,6.27,1.609,21.262-6.076,19.4c1.571,4.75,4.184,6.954,6.021,7.947c1.213,0.656,2.715,0.438,3.684-0.546
					C2117.293,586.814,2120.165,582.641,2119.393,575.56z"/>
				<path opacity="0.65" fill="#585B5D" d="M2119.393,575.56c-0.817-7.499-3.911-11.544-6.595-13.179
					c-1.437-0.875-3.239-0.641-4.487,0.454c1.117-0.514,2.43-0.495,3.529,0.173c2.685,1.635,5.778,5.68,6.595,13.18
					c0.772,7.08-2.1,11.254-4.016,13.199c-0.016,0.016-0.035,0.028-0.052,0.045c0.37-0.155,0.716-0.374,1.01-0.673
					C2117.293,586.814,2120.165,582.641,2119.393,575.56z"/>
				<path fill="#222426" d="M2112.887,569.781c-0.756-0.461-1.721-0.306-2.337,0.33c-1.018,1.05-2.374,3.311-1.568,7.545
					c0.648,3.408,2.278,4.836,3.36,5.42c0.599,0.324,1.341,0.217,1.819-0.27c0.946-0.96,2.365-3.021,1.983-6.518
					C2115.74,572.586,2114.212,570.588,2112.887,569.781z"/>
				<path fill="#A6A8A9" d="M2098.427,562.972c0,0-3.93-0.92-3.261,1.798c0.325,1.32,2.61,1.643,3.903,1.073
					C2100.438,565.239,2100.75,563.682,2098.427,562.972z"/>
				<path fill="#A6A8A9" d="M2099.11,561.65c0.622-0.059,0.902-0.528,0.605-1.117c-0.261-0.519-1.21-0.716-1.705-0.158
					C2097.657,560.773,2097.797,561.772,2099.11,561.65z"/>
			</g>
			<path fill="#ABC0C8" d="M2134.18,545.486c0,0-19.569,27.969-21.548,31.449c0,0-0.079,0.73,0.201,1.278
				c0.575,1.126,1.551,0.481,1.551,0.481c4.406-5.127,23.488-27.371,25.33-30.166C2139.714,548.529,2138.42,542.013,2134.18,545.486
				z"/>
			<path fill="#7D9EAA" d="M2133.817,546.005c-0.177,0.253-0.414,0.593-0.707,1.013c-0.035,0.049-0.068,0.098-0.104,0.148
				c-1.186,1.699-3.164,4.535-5.439,7.811c-0.006,0.008-0.012,0.016-0.018,0.025c1.929,0.184,3.834,0.777,5.559,1.689
				c3.358-4.01,5.979-7.211,6.606-8.162c0,0-1.294-6.517-5.534-3.043c0,0-0.031,0.044-0.074,0.106
				C2134.047,545.676,2133.945,545.822,2133.817,546.005z"/>
			<g>
				<path fill="#F9A04B" d="M2202.766,454.229l-15.789,6.708c0,0-2.348,1.629-0.814,4.552c1.533,2.923,3.021,2.495,4.41,1.968
					c1.39-0.527,14.757-7.861,14.757-7.861S2207.725,454.768,2202.766,454.229z"/>
				<path opacity="0.75" fill="#DC693A" d="M2190.783,464.27c-0.086,0.936-0.242,1.858-0.428,2.778
					c1.875-0.809,14.639-7.812,14.639-7.812s0.377-0.777,0.518-1.74C2204.043,458.21,2196.04,461.892,2190.783,464.27z"/>
				<path fill="#C34E27" d="M2192.596,464.111c0-2.083-1.682-3.772-3.756-3.772c-0.203,0-0.4,0.029-0.595,0.06l-1.269,0.539
					c0,0-2.348,1.629-0.814,4.552c1.495,2.849,2.945,2.514,4.305,2.007C2191.723,466.886,2192.596,465.605,2192.596,464.111z"/>
				<path fill="#ABC0C8" d="M2188.633,462.718c0,0-6.16,3.155-6.83,3.73c-0.672,0.575-18.305,26.833-18.305,26.833l6.924,1.917
					c0,0,13.584-25.587,14.088-25.947c0.371-0.265,3.286-2.585,5.426-4.061c0.426-0.293,0.447-1.234,0.019-1.833
					C2189.586,462.844,2188.799,462.635,2188.633,462.718z"/>
				<path fill="#7A9BA8" d="M2181.909,467.165c-0.075-0.241-0.109-0.472-0.124-0.697c-0.826,0.813-18.287,26.814-18.287,26.814
					l6.924,1.917c0,0,13.584-25.587,14.088-25.947c0.008-0.006,0.035-0.027,0.046-0.035
					C2183.388,469.166,2182.242,468.228,2181.909,467.165z"/>
				<path opacity="0.55" fill="#98A4B2" d="M2182.293,467.89c-3.388,6.126-14.092,22.521-15.488,25.199l2.74,0.311
					c0,0,11.01-19.187,14.008-24.447C2183.047,468.717,2182.609,468.334,2182.293,467.89z"/>
				<path opacity="0.45" fill="#908F8F" d="M2167.326,487.591c-2.238,3.322-3.828,5.69-3.828,5.69l6.924,1.917
					c0,0,1.466-2.761,3.448-6.474C2171.69,488.476,2169.498,488.061,2167.326,487.591z"/>
			</g>
			<g>
				<path fill="#F9A04B" d="M2225.408,471.768c0,0-2.66,1.797-1.438,4.672c1.221,2.875,2.859,3.075,3.793,2.787l18.668-6.668
					c0,0,2.91-3.881-1.689-5.511L2225.408,471.768z"/>
				<path opacity="0.75" fill="#DC693A" d="M2229.953,475.03c-0.254,0.054-0.467,0.093-0.662,0.125
					c-0.301,1.042-0.648,2.068-0.865,3.142c0.254,0.012,0.488-0.02,0.687-0.081l16.966-6.061c0,0,0.879-1.179,0.816-2.46
					C2243.224,471.029,2233.746,474.233,2229.953,475.03z"/>
				<path fill="#C34E27" d="M2227.675,479.245c1.734-0.6,2.659-2.657,2.064-4.69c-0.54-1.847-2.146-3.04-3.772-2.923l-0.559,0.136
					c0,0-2.66,1.797-1.438,4.672C2225.156,479.23,2226.729,479.495,2227.675,479.245z"/>
				<path fill="#ABC0C8" d="M2226.391,473.9c0,0-7.619,2.492-8.482,3.45c-0.861,0.958-23.096,22.233-23.096,22.233l6.229,1.342
					c0,0,19.022-20.944,19.263-20.966c0.239-0.021,7.331-3.52,7.331-3.52S2228.354,474.571,2226.391,473.9z"/>
				<path fill="#7A9BA8" d="M2217.973,477.297c-0.018,0.017-0.049,0.037-0.064,0.053c-0.861,0.958-23.096,22.233-23.096,22.233
					l6.229,1.341c0,0,17.677-19.462,19.159-20.877C2218.877,479.942,2218.027,478.663,2217.973,477.297z"/>
				<path opacity="0.55" fill="#98A4B2" d="M2197.229,498.999l3.383,0.729c0,0,14.803-16.299,18.448-20.146
					c-0.296-0.232-0.544-0.53-0.724-0.883C2215.213,481.774,2201.583,494.83,2197.229,498.999z"/>
				<path opacity="0.45" fill="#908F8F" d="M2201.947,492.749c-3.979,3.814-7.135,6.834-7.135,6.834l6.229,1.341
					c0,0,2.673-2.942,6.022-6.618C2205.34,493.907,2203.637,493.358,2201.947,492.749z"/>
			</g>
			<linearGradient id="SVGID_1_" gradientUnits="userSpaceOnUse" x1="2176.915" y1="493.4619" x2="2128.0398" y2="517.612">
				<stop  offset="0.0428" style="stop-color:#05AEC7"/>
				<stop  offset="1" style="stop-color:#089CB6"/>
			</linearGradient>
			<path fill="url(#SVGID_1_)" d="M2077.039,499.08c0,0,12.866,26.282,15.07,35.291c0,0,16.915,9.377,47.605,17.866
				c0,0,29.445-15.183,46.407-19.591c0,0,9.215-14.825,15.891-31.721l-40.088-7.954L2077.039,499.08z"/>
			<path opacity="0.32" fill="#08849B" d="M2191.703,515.624c-6.311,5.557-13.875,10.089-21.86,12.768
				c-11.044,3.705-24.863,6.118-36.211,5.596c0.644,8.913,5.209,16.481,6.034,16.709c0,0,29.36-14.894,45.723-19.146
				c0,0,5.336-8.587,10.733-20.034C2194.635,513.02,2193.096,514.398,2191.703,515.624z"/>
			<path opacity="0.55" fill="#088EA7" d="M2161.924,492.97l-33.207,7.487l3.881,24.859c0,0,6.726-0.8,10.446-2.254
				c7.356-2.876,44.5-12.772,56.51-16.253c0.842-1.919,1.667-3.887,2.457-5.885L2161.924,492.97z"/>
			<linearGradient id="SVGID_2_" gradientUnits="userSpaceOnUse" x1="2106.1851" y1="504.1455" x2="2119.4102" y2="542.0955">
				<stop  offset="0.0695" style="stop-color:#088EA7"/>
				<stop  offset="1" style="stop-color:#05749C"/>
			</linearGradient>
			<path fill="url(#SVGID_2_)" d="M2130.54,507.733c0.362-3.605-0.866-8.506-0.079-12.499l-53.422,3.845
				c0,0,12.866,26.282,15.07,35.291c0,0,16.48,9.13,46.403,17.527C2131.209,543.57,2128.608,526.965,2130.54,507.733z"/>
			<path opacity="0.55" fill="#088EA7" d="M2127.777,519.718c-0.603-0.844-1.116-1.833-1.516-3.031
				c-1.68-5.039-3.949-10.231-4.468-15.571h-42.238c1.067,2.298,2.167,4.607,2.937,6.976c19.433,7.338,35.912,13.949,39.3,14.997
				c0.423,1.361,1.218,4.09,1.557,5.261c0.554,1.914,1.101,3.829,1.746,5.704c-6.031-1.222-11.725-4.03-16.566-5.862
				c-7.815-2.958-15.8-5.448-21.763-11.46c-0.274-0.276-0.528-0.566-0.781-0.856c3.127,6.77,6.264,14.039,7.244,17.921
				c0,0,14.944,8.025,42.172,15.723C2135.4,549.518,2129.34,541.318,2127.777,519.718z"/>
			<g>
				<path fill="#05AEC7" d="M2160.271,491.748c0,0-42.287,3.81-54.745,4.289c-12.458,0.479-32.624,1.274-32.655,4.336
					c-0.018,1.719,0.843,1.687,5.462,2.947c4.719,1.288,11.958,4.059,21.826,7.667c22.808,8.337,25.291,12.386,35.449,10.551
					c9.473-1.712,7.771-4.489,34.653-11.174c26.881-6.684,29.554-7.236,34.715-7.619c3.881-0.288,1.15-4.097-6.612-5.391
					C2187.266,495.504,2162.082,491.564,2160.271,491.748z"/>
				<path opacity="0.75" fill="#E0E9EF" d="M2163.088,506.798c-0.776,1.979-3.057,6.302-3.057,6.302
					c0.79-0.229,1.63-0.467,2.504-0.708c0,0,2.215-4.337,3.055-6.28C2164.758,506.355,2163.924,506.586,2163.088,506.798z"/>
				<path opacity="0.75" fill="#E0E9EF" d="M2078.333,503.32c0.62,0.169,1.289,0.367,1.996,0.585
					c2.202-2.356,4.488-4.632,6.789-6.898c-7.82,0.635-14.229,1.641-14.247,3.366C2072.853,502.092,2073.714,502.06,2078.333,503.32
					z"/>
				<path opacity="0.75" fill="#E0E9EF" d="M2123.582,494.841c-2.916,2.002-6.161,3.57-8.463,6.297
					c-1.994,2.362-4.755,1.783-6.42,0.057c-2.121,1.947-4.213,3.924-6.291,5.918c-1.178,1.132-2.422,2.24-3.684,3.347
					c0.473,0.173,0.943,0.346,1.435,0.526c1.355,0.495,2.623,0.972,3.832,1.434c1.105-1.299,2.154-2.65,3.367-3.843
					c2.73-2.686,4.907-3.277,8.139-3.186c2.027-0.337,4.269-0.497,6.365-0.156c2.386-1.325,4.802-2.557,7.303-3.515
					c2.185-2.553,4.302-5.163,6.337-7.838C2131.537,494.212,2127.463,494.541,2123.582,494.841z"/>
				<path opacity="0.75" fill="#E0E9EF" d="M2128.394,514.476c-2.692,1.599-5.411,3.146-8.162,4.634
					c6.177,2.576,9.492,3.491,15.376,2.428c0.314-0.057,0.613-0.115,0.904-0.174c0.802-1.614,1.674-3.197,2.583-4.772
					c0.471-0.816,0.921-1.648,1.365-2.484C2136.924,514.713,2131.841,515.396,2128.394,514.476z"/>
				<path opacity="0.75" fill="#E0E9EF" d="M2155.455,497.737c2.003-0.118,3.983-0.212,5.956-0.213
					c1.175-1.819,2.477-3.611,3.866-5.257c-2.705-0.359-4.562-0.563-5.007-0.519c0,0-2.163,0.195-5.646,0.501
					c-0.991,1.32-2.017,2.619-2.992,3.954c-0.358,0.49-0.718,0.979-1.077,1.469C2152.18,497.782,2153.812,497.834,2155.455,497.737z
					"/>
				<path opacity="0.75" fill="#E0E9EF" d="M2153.155,513.454c0.437-0.893,1.056-1.886,1.648-2.901
					c-0.538,0.084-1.079,0.161-1.627,0.215c-0.862,0.341-1.734,0.65-2.61,0.949c-1.133,1.826-2.194,3.742-3.194,5.698
					c1.324-0.544,2.876-1.146,4.772-1.813C2152.482,514.887,2152.807,514.166,2153.155,513.454z"/>
				<path opacity="0.75" fill="#E0E9EF" d="M2186.003,502.249c-1.331,1.742-2.687,3.455-3.987,5.206
					c1.26-0.309,2.445-0.6,3.542-0.867c0.796-1.018,1.591-2.037,2.386-3.056c1.773-2.272,3.487-4.718,5.357-7.007
					c-1.012-0.164-2.084-0.336-3.176-0.51C2188.697,498.054,2187.486,500.309,2186.003,502.249z"/>
				<path opacity="0.75" fill="#E0E9EF" d="M2201.52,498.097c-0.969,1.875-2.025,3.708-3.092,5.54
					c2.875-0.563,4.523-0.742,6.549-0.892C2208.271,502.501,2206.787,499.724,2201.52,498.097z"/>
			</g>
			<path fill="#034D66" d="M2083.963,500.349c0,0,73.6-5.247,77.242-5.151s38.451,5.307,34.766,6.169
				c-3.685,0.863-60.341,15.654-63.708,15.657C2127.567,517.028,2081.376,501.403,2083.963,500.349z"/>
			<path fill="#00364D" d="M2161.205,495.198c-0.031-0.001-0.08,0-0.121,0c-1.301,5.416-2.772,10.786-4.309,16.139
				c17.057-4.271,37.056-9.468,39.196-9.969C2199.656,500.505,2164.847,495.294,2161.205,495.198z"/>
			<path fill="#034D66" d="M2083.963,500.349c0,0,73.6-5.247,77.242-5.151s38.451,5.307,34.766,6.169
				c-3.685,0.863-60.341,15.654-63.708,15.657C2127.567,517.028,2081.376,501.403,2083.963,500.349z"/>
			<path fill="#034D66" d="M2083.963,500.349c0,0,73.6-5.247,77.242-5.151s38.451,5.307,34.766,6.169
				c-3.685,0.863-60.341,15.654-63.708,15.657C2127.567,517.028,2081.376,501.403,2083.963,500.349z"/>
			<g>
				<linearGradient id="SVGID_3_" gradientUnits="userSpaceOnUse" x1="2117.1768" y1="494.7324" x2="2116.3684" y2="528.4506">
					<stop  offset="0.0695" style="stop-color:#F15D3C"/>
					<stop  offset="0.5187" style="stop-color:#F2643C"/>
					<stop  offset="1" style="stop-color:#EA4E26"/>
				</linearGradient>
				<path fill="url(#SVGID_3_)" d="M2120.858,516.791c3.431,1.533,6.268,1.47,9.925,1.392c0.028,0,0.054,0.004,0.082,0.003
					c1.133-10.902,3.45-26.37,7.732-30.724c0,0-28.163,11.029-42.494,0c0,0,4.606,15.19,6.108,21.85
					C2108.65,511.116,2114.83,514.098,2120.858,516.791z"/>
				<path opacity="0.55" fill="#D66242" d="M2115.942,514.575c-0.719-0.722-1.371-1.539-1.934-2.463
					c-2.149-3.527-3.213-7.546-3.781-11.606c-0.327-2.334-0.26-4.802-0.595-7.158c-4.443-0.457-8.698-1.74-12.111-4.367
					c0,0,4.411,14.549,5.749,20.618C2107.6,510.903,2111.811,512.717,2115.942,514.575z"/>
				<path opacity="0.55" fill="#C46142" d="M2119.746,498.97c4.358,0,15.078-3.636,15.218-4.091
					c1.015-3.311,2.216-5.975,3.634-7.417c0,0-29.388,4.946-42.321,0.096c0,0,0.936,3.88,2.306,8.29
					C2098.752,496.396,2106.727,498.972,2119.746,498.97z"/>
				<path fill="#F26244" d="M2092.947,485.307l1.54,4.388c0,0,16.32,3.31,22.248,2.925c5.928-0.385,22.94-3.641,22.94-3.641
					l1.771-4.904L2092.947,485.307z"/>
				<path opacity="0.65" fill="#D66A4C" d="M2108.529,484.911l-15.582,0.396l1.54,4.388c0,0,8.904,1.805,15.947,2.594
					C2109.731,489.847,2109.102,487.387,2108.529,484.911z"/>
				<path opacity="0.65" fill="#D66A4C" d="M2129.947,484.367l-4.891,0.124c-0.2,2.518-0.854,4.946-1.711,7.318
					c1.508-0.227,3.096-0.483,4.669-0.746C2128.795,488.862,2129.558,486.648,2129.947,484.367z"/>
				<path fill="#F6906A" d="M2141.446,484.075c0,0-12.664-3.253-26.636-2.964c-13.972,0.289-21.863,4.195-21.863,4.195
					s18.976,2.791,26.136,2.675C2126.242,487.866,2141.446,484.075,2141.446,484.075z"/>
				<path fill="#D1442C" d="M2136.577,484.229c0,0-11.547-2.136-18.938-2.194c-7.39-0.058-18.533,2.504-18.533,2.504
					s14.781,1.884,19.168,1.71C2122.662,486.077,2136.577,484.229,2136.577,484.229z"/>
				<path fill="#F6906A" d="M2139.675,488.777c0,0-17.05,3.178-22.989,3.314c-6.659,0.152-22.199-2.598-22.199-2.598l-1.47-4.188
					l-0.07,0.002l1.54,4.388c0,0,16.32,3.31,22.248,2.925c5.928-0.385,22.94-3.641,22.94-3.641l1.771-4.904l-0.074,0.002
					L2139.675,488.777z"/>
				<path fill="#A1B23A" d="M2108.267,464.291c-0.491-1.261,0.053-2.428,1.39-2.698c1.165-0.235,1.684,0.595,2.078,1.521
					c-0.168-1.146-0.24-2.308,1.075-2.769c1.376-0.482,4.155,0.251,4.542,1.561h-0.077c-0.107,0.009-0.142,0.027-0.239-0.08
					c-0.049-1.288,1.553-2.062,2.765-1.921c1.593,0.184,1.373,1.23,1.788,2.44c0.227-1.197,0.586-2.24,2.057-1.978
					c1.51,0.269,1.48,1.46,1.482,2.748c0.056-2.06,1.915-3.238,3.641-1.978c1.061,0.774,1.01,2.854,0.278,3.895
					c0.7-0.768,1.839-2.265,3.01-1.204c0.979,0.887,0.266,2.716-0.693,3.237h-0.077c0.819-0.573,2.686-0.863,3.295,0.154
					c0.608,1.016-0.21,2.209-0.9,2.898c0.764-0.637,2.459-1.275,3.094-0.127c0.54,0.978-0.208,2.609-1.153,3.008
					c1.025-0.47,2.363-1.091,3.15,0.072c0.977,1.442-0.508,2.774-1.79,3.233l-0.077,0.154c1.445-0.229,3.896-0.816,4.623,1.078
					c0.885,2.306-1.937,2.695-3.523,2.695c1.464-0.159,2.523,1.664,1.291,2.636c-0.896,0.708-3.174,0.894-2.929-0.866l0.077-0.154
					c-0.003,0.848-0.209,2.131-1.074,2.542c-1.131,0.538-1.501-0.887-2.086-1.515c0.013,1.042-0.881,1.849-1.921,1.821
					c-1.207-0.033-0.934-1.001-1.368-1.765c-0.02,1.159-1.056,2.04-2.113,2.286c-1.539,0.358-2.11-0.631-2.523-1.961
					c-0.188,1.082-0.635,2.246-1.869,2.444c-1.142,0.183-1.69-0.952-1.901-1.905c-0.393,1.34-1.138,2.178-2.602,2.211
					c-1.339,0.03-1.401-1.218-1.557-2.288c-0.093,2.299-4.333,3.592-4,0.389c-0.458,1.206-1.337,1.889-2.681,1.899
					c-1.345,0.009-1.482-1.202-1.557-2.288c0.007,1.312-1.347,1.913-2.482,1.901c-1.544-0.016-1.847-0.945-1.824-2.359
					c-0.474,0.964-0.951,1.874-2.143,2.055c-1.285,0.195-1.51-0.925-1.48-1.982c-0.215,1.197-1.459,2.512-2.848,2.136
					c-0.58-0.157-1.005-0.895-1.08-1.462c-0.108-0.833,0.549-1.356,1.224-1.748c-0.629,1.286-2.714,1.961-3.439,0.362
					c-0.799-1.761,1.585-3.26,3.114-2.618c-0.872-0.088-3.137-1.364-3.12-2.086c-0.054-0.036,1.736-0.067,1.676-0.092
					c0.059-0.19,0.149,0.017,0.004-0.156c0.106-1.349,0.078-1.984,1.306-1.887c-0.012,0.035-0.036,0.056-0.071,0.064
					c-0.186-0.051-0.438-0.253-0.546-0.506c-0.021,0.046-0.022,0.091-0.004,0.134c-0.378-0.47-1.17-1.495-0.902-2.01
					c-0.035-0.082-0.066-0.166-0.095-0.25c0.16-0.25,0.436-0.568,0.636-0.86c0.824-0.438,1.848-0.542,2.843-0.506
					c0.038-0.056,0.067-0.116,0.088-0.18c0.045,0.137,0.14,0.125,0.214,0.171l-0.154,0.231c-0.541-0.64-1.72-1.73-1.374-2.699
					c0.418-1.173,2.425-1.161,3.037-0.253c-0.544-0.889-1.397-1.44-0.664-2.492c0.763-1.095,2.044-1.08,2.93-0.203
					c-0.041-0.551-0.389-0.871-0.388-1.436c0.001-0.752,0.447-1.159,0.994-1.455c0.718-0.389,1.864-0.718,2.684-0.414
					c0.616,0.228,0.767,0.866,1.249,1.175H2108.267z"/>
				<path fill="#47813C" d="M2121.507,461.981c-0.968-0.49-1.553-2.002-1.79-3.002c-0.347-1.467-0.017-2.91-0.12-4.38
					c1.295,0.819,2.442,1.864,2.677,3.457C2122.43,459.106,2122.658,461.648,2121.507,461.981z"/>
				<path fill="#599B43" d="M2122.662,461.827c-0.51-1.144-0.808-2.723-0.327-3.928c0.556-1.395,1.769-2.42,2.606-3.61
					c-0.716,1.685,0.34,2.852,0.416,4.459c0.091,1.944-1.432,2.743-2.973,3.395C2122.427,462.093,2122.628,461.883,2122.662,461.827
					z"/>
				<path fill="#599B43" d="M2133.316,470.874c-3.322-1.505,0.095-4.93,0.073-7.286c0.827,1.082,1.526,2.324,1.543,3.745
					C2134.951,468.896,2133.896,470.047,2133.316,470.874z"/>
				<path fill="#47813C" d="M2132.958,471.036c0.166-0.665,0.136-1.312,0.447-1.982c0.396-0.853,0.958-1.612,1.644-2.258
					c1.285-1.21,2.516-1.208,4.033-1.665c-1.74,0.819-0.977,3.134-1.839,4.43C2136.562,470.584,2134.083,471.96,2132.958,471.036z"
					/>
				<path fill="#599B43" d="M2133.593,471.296c1.187-0.843,2.08-1.828,3.691-1.771c0.632,0.022,1.104,0.116,1.625,0.52
					c0.438,0.339,0.948,1.187,1.582,0.627c-0.509,0.533-0.458,1.332-0.968,1.854c-0.523,0.537-1.532,0.689-2.251,0.616
					C2135.842,472.999,2134.829,471.591,2133.593,471.296z"/>
				<path fill="#599B43" d="M2106.462,464.041c-0.754-1.244-1.768-2.019-2.017-3.578c-0.199-1.244,0.27-2.94-0.634-3.934
					c1.586,0.319,3.746,1.027,3.938,2.827c0.09,0.844-0.168,1.617-0.438,2.389C2107.045,462.506,2106.72,463.406,2106.462,464.041z"
					/>
				<path fill="#47813C" d="M2106.496,463.213c-0.707-0.764-2.359-1.519-3.464-1.157c-1.613,0.529-0.803,2.373-2.209,3.164
					c1.258-0.528,2.163,1.447,3.52,0.384C2105.455,464.731,2104.928,463.24,2106.496,463.213z"/>
				<path fill="#599B43" d="M2112.885,469.448c-0.14-1.182,0.536-2.325,1.617-2.791c0.833-0.359,2.096-0.357,2.644-1.048
					c-0.839,0.933,0.05,2.297-0.893,3.146C2115.656,469.293,2112.99,470.333,2112.885,469.448z"/>
				<path fill="#599B43" d="M2112.577,469.833c-1.005-0.716-2.478-0.924-3.466-0.021c-0.928,0.848-0.023,2.636-1.284,3.181
					c1.249-0.059,2.126,0.656,3.133-0.542C2111.564,471.732,2111.556,470.022,2112.577,469.833z"/>
				<path fill="#47813C" d="M2112.962,469.833c-0.352-0.969,0.06-2.166-1.076-2.771c-0.907-0.484-1.896-0.089-2.545-1.127
					c0.112,0.578,0.288,1.049,0.311,1.666c0.027,0.705-0.109,1.185,0.464,1.676C2110.894,469.943,2112.17,469.833,2112.962,469.833z
					"/>
				<path fill="#599B43" d="M2097.643,481.688c-0.148-1.141-1.551-2.664-2.694-2.771c-1.606-0.151-2.803,0.333-4.376-0.451
					c0.897,1.35,1.482,3.141,3.067,3.856C2095.46,483.145,2096.006,481.583,2097.643,481.688z"/>
				<path fill="#599B43" d="M2106.65,485.153c-0.97-1.192-2.844-0.741-3.77,0.152c-1.006,0.97-0.422,3.306-2.131,3.616
					c1.353,1.045,3.548,1.278,4.592-0.319C2106.111,487.423,2104.701,485.533,2106.65,485.153z"/>
				<path fill="#47813C" d="M2106.496,484.999c-0.52,1.123-0.585,2.484,0.212,3.542c0.653,0.866,1.804,1.259,2.413,2.125
					c-1.27-1.109,0.519-2.399,0.225-3.743c-0.138-0.632-0.709-1.122-1.25-1.442C2107.657,485.221,2106.667,485.249,2106.496,484.999
					z"/>
				<path fill="#47813C" d="M2105.418,483.844c-0.191-1.205-1.29-2.516-2.463-2.946c-1.084-0.397-2.32-0.034-3.437-0.448
					c0.59,0.72,0.856,1.076,1.033,1.949c0.159,0.781,0.488,1.583,1.251,2.005c0.632,0.349,1.211,0.199,1.846-0.118
					C2104.463,483.879,2104.513,483.668,2105.418,483.844z"/>
				<path fill="#599B43" d="M2114.81,483.151c-2.379,1.804-1.605,4.692-0.481,6.905c0.437-1.552,2.025-2.142,1.944-3.886
					c-0.031-0.66-0.162-1.315-0.518-1.882C2115.446,483.797,2114.917,483.737,2114.81,483.151z"/>
				<path fill="#47813C" d="M2124.509,483.074c-0.672-1.114-2.173-2.174-3.541-1.924c-0.815,0.148-0.974,0.762-1.462,1.37
					c-0.458,0.57-0.887,0.773-1.513,1.093c1.386,0.703,2.398,1.728,3.974,0.692C2122.892,483.698,2123.224,482.676,2124.509,483.074
					z"/>
				<path fill="#599B43" d="M2124.433,483.151c-1.184,0.197-2.159,0.405-2.773,1.54c-0.542,1.001-0.692,3.092-1.823,3.622
					c1.621-0.026,3.771,0.276,4.673-1.387c0.35-0.645,0.384-1.457,0.173-2.158C2124.521,484.234,2124.052,483.661,2124.433,483.151z
					"/>
				<path fill="#47813C" d="M2124.664,483.074c-0.708,1.039-0.119,3.066,0.924,3.697c0.839,0.508,2.397-0.1,2.929,0.822
					c0.103-1.026-0.159-2.757-0.854-3.518C2126.751,483.08,2125.827,483.4,2124.664,483.074z"/>
				<path fill="#47813C" d="M2125.818,477.917c-0.972-0.401-2.344-1.362-2.717-2.391c-0.333-0.917,0.381-1.708,0.344-2.663
					c0.807,0.723,1.955,1.397,2.217,2.513C2125.773,475.848,2125.354,477.915,2125.818,477.917z"/>
				<path fill="#599B43" d="M2125.741,477.917c-1.76-1.514-3.297-0.227-4.896,0.616c0.922,0.523,1.59,1.642,2.802,1.385
					C2124.884,479.656,2124.878,478.594,2125.741,477.917z"/>
				<path fill="#599B43" d="M2125.664,477.993c-1.622,1.623-0.493,3.081,0.466,4.515c-0.441-1.116,1.149-1.616,1.151-2.744
					c0.001-0.543-0.25-1.042-0.695-1.371C2126.241,478.138,2125.813,478.211,2125.664,477.993z"/>
				<path fill="#599B43" d="M2133.979,481.842c-0.91,1.029-1.313,1.682-1.309,3.137c0.003,1.11,0.316,2.298,0.826,3.247
					c0.867-1.381,1.939-2.119,1.871-3.901C2135.328,483.351,2134.764,482.271,2133.979,481.842z"/>
				<path fill="#599B43" d="M2138.059,476.762c0.618-1.094,0.989-2.035,2.138-2.694c1.072-0.616,2.455-0.678,3.454-1.395
					c-0.61,0.511-0.519,1.597-0.796,2.302c-0.327,0.828-0.689,1.563-1.486,2.018c-0.601,0.344-1.403,0.514-2.079,0.325
					C2138.771,477.172,2138.574,476.892,2138.059,476.762z"/>
				<path fill="#47813C" d="M2137.52,481.073c0.285,1.383,1.452,3.283,3.08,3.079c1.275-0.16,2.005-1.886,3.359-1.689
					c-1.055-0.607-1.879-1.539-3.279-1.317c-0.68,0.108-1.252,0.55-1.929,0.624C2138.425,481.805,2137.14,481.43,2137.52,481.073z"
					/>
				<path fill="#47813C" d="M2099.105,473.375c-0.997-0.706-1.854-1.652-2.226-2.884c-0.453-1.496,0.522-3,0.021-4.356
					c0.966,1.437,2.592,1.649,2.904,3.66C2099.956,470.77,2098.503,473.058,2099.105,473.375z"/>
				<path fill="#599B43" d="M2099.105,472.682c-0.858-0.297-2.451-1.183-3.352-0.926c-1.264,0.359-1.559,1.783-3.222,1.87
					c0.72,1.04,3.213,2.44,4.495,1.743C2098.054,474.811,2097.791,472.538,2099.105,472.682z"/>
				<ellipse opacity="0.65" fill="#D66A4C" cx="2126.159" cy="503.167" rx="3.146" ry="2.541"/>
				<path fill="#EF507C" d="M2114.117,460.903c-0.995-0.527-1.495-1.584-1.386-2.694c0.133-1.36,1.569-2.146,2.848-2.305
					c1.284-0.161,2.377,0.749,2.08,2.151C2117.419,459.193,2115.031,460.611,2114.117,460.903z"/>
				<path fill="#EF507C" d="M2115.271,460.441c0.628-1.008,1.289-2.226,2.539-2.62c1.09-0.343,2.432-0.156,2.947,0.984
					c0.552,1.224-0.4,2.283-1.636,2.486C2118.397,461.412,2115.498,460.907,2115.271,460.441z"/>
				<path fill="#EF507C" d="M2115.657,461.134c1.219-0.305,2.866-0.462,3.943,0.362c1.028,0.786,1.548,2.274,0.676,3.333
					c-0.955,1.16-2.744,1.103-4.003,0.483c-1.314-0.646-1.752-2-1.848-3.349C2114.408,461.73,2115.729,461.34,2115.657,461.134z"/>
				<path fill="#EF507C" d="M2114.579,462.135c0.593,0.838,0.221,2.991-0.328,3.849c-0.661,1.035-2.109,1.51-3.291,1.099
					c-1.416-0.493-1.062-2.068-0.383-3.006C2111.692,462.538,2112.896,462.613,2114.579,462.135z"/>
				<path fill="#EF507C" d="M2114.04,462.366c-1.453,0.401-2.435,1.177-4.082,1.155c-1.155-0.016-2.809-0.84-2.463-2.312
					c0.328-1.396,2.579-1.829,3.774-1.769c0.585,0.029,1.183,0.114,1.698,0.443C2113.583,460.277,2113.544,461.973,2114.04,462.366z
					"/>
				<path fill="#EF507C" d="M2124.895,467.678c-1.176-0.627-2.072-0.898-2.602-2.386c-0.499-1.4,0.209-2.691,1.755-2.694
					c1.235-0.003,1.923,0.649,2.158,1.848c0.117,0.597,0.092,1.189-0.06,1.771c-0.067,0.256-0.136,0.464-0.25,0.693
					C2125.775,467.148,2124.635,467.708,2124.895,467.678z"/>
				<path fill="#EF507C" d="M2125.664,467.37c0.26-2.058,4.286-2.783,5.023-0.71c0.432,1.216-0.178,1.869-1.422,2.002
					C2127.82,468.816,2126.898,467.707,2125.664,467.37z"/>
				<path fill="#EF507C" d="M2124.895,467.601c-1.197-1.446-4.732-3.025-5.793-0.541c-0.522,1.224-0.288,2.902,1.078,3.41
					C2122.247,471.239,2123.756,468.952,2124.895,467.601z"/>
				<path fill="#EF507C" d="M2124.664,468.14c-0.877,0.111-2.361,1.47-2.75,2.232c-0.57,1.117-0.28,2.223,0.826,2.791
					c1.375,0.706,3.271,0.385,3.792-1.174C2127.134,470.19,2124.967,469.678,2124.664,468.14z"/>
				<path fill="#EF507C" d="M2125.664,468.371c-0.159,2.272,2.28,5.402,4.621,3.387c0.98-0.844,0.38-2.229-0.635-2.754
					C2128.567,468.443,2126.752,468.775,2125.664,468.371z"/>
				<path fill="#EF507C" d="M2100.876,469.525c-2.084-0.755-2.919-4.431-0.154-4.772c1.181-0.146,2.07,0.761,2.001,1.926
					c-0.032,0.543-0.291,1.089-0.541,1.555C2101.955,468.658,2100.956,469.398,2100.876,469.525z"/>
				<path fill="#EF507C" d="M2101.338,470.218c-0.881-2.104,3.356-5.039,5.156-3.753c1.074,0.767,0.308,2.135-0.456,2.833
					C2104.934,470.307,2102.776,470.218,2101.338,470.218z"/>
				<path fill="#EF507C" d="M2102.262,470.449c1.044-0.867,3.278-1.54,4.615-1.229c1,0.231,2.155,1.329,1.854,2.461
					C2108.027,474.322,2103.119,472.286,2102.262,470.449z"/>
				<path fill="#EF507C" d="M2102.416,471.142c1.041,0.794,2.149,1.812,2.233,3.173c0.084,1.37-0.377,2.329-1.752,2.697
					c-1.096,0.293-2.602,0.266-3.194-0.866C2098.585,474.013,2100.882,472.284,2102.416,471.142z"/>
				<path fill="#EF507C" d="M2100.876,471.604c-0.216,1.998-3.575,5.671-5.867,4.695c-1.702-0.724-0.264-3.076,0.649-3.866
					C2097.093,471.192,2099.05,471.604,2100.876,471.604z"/>
				<path fill="#EF507C" d="M2100.799,470.218c-1.506,0.526-2.848,0.929-4.469,0.847c-1.21-0.062-2.934-0.615-2.234-2.232
					c0.477-1.104,2.337-2.427,3.546-1.982c1.323,0.487,1.854,2.019,2.935,2.696c-0.064,0.135-0.034,0.135-0.118,0.225
					C2100.621,469.858,2100.647,470.149,2100.799,470.218z"/>
				<path fill="#EF507C" d="M2112.423,477.07c-1.132-2.181,0.901-5.291,3.541-4.696c2.546,0.573-0.722,4.517-2.155,4.542
					L2112.423,477.07z"/>
				<path fill="#EF507C" d="M2113.963,477.07c1.23-1.25,2.854-2.783,4.617-3.154c1.267-0.267,3.192-0.524,3.699,1.076
					C2123.305,478.229,2115.601,477.81,2113.963,477.07z"/>
				<path fill="#EF507C" d="M2114.887,477.146c2.283,0.007,5.943,1.203,5.023,4.234c-0.413,1.358-2.095,1.751-3.171,1.078
					c-1.396-0.873-2.028-2.907-2.929-4.234L2114.887,477.146z"/>
				<path fill="#EF507C" d="M2114.04,478.686c0.954,1.865,0.707,5.055-1.848,5.466c-1.198,0.192-1.885-0.503-2.097-1.613
					C2109.723,480.6,2112.655,479.649,2114.04,478.686z"/>
				<path fill="#EF507C" d="M2112.346,479.148c-0.945,0.868-1.681,2.299-2.848,2.865c-0.917,0.445-2.068,0.277-2.313-0.864
					c-0.303-1.409,0.435-2.07,1.561-2.69c1.64-0.904,2.938-0.63,4.679-0.774L2112.346,479.148z"/>
				<path fill="#EF507C" d="M2112.5,477.993c-1.251,0.055-3.195-0.017-4.313-0.633c-1.249-0.688-1.312-2.146-0.135-2.908
					c1.159-0.75,2.857-1.215,3.851-0.152C2112.908,475.375,2111.726,476.911,2112.5,477.993z"/>
				<path fill="#EF507C" d="M2132.285,477.146c-0.92-2.628,1.357-4.984,4.098-4.138c1.36,0.42,1.939,1.575,0.985,2.675
					C2136.191,477.04,2133.856,476.643,2132.285,477.146z"/>
				<path fill="#EF507C" d="M2132.9,477.686c1.386-0.408,2.667-1.393,4.174-1c1.195,0.311,2.003,1.36,2.062,2.542
					c0.081,1.646-1.603,1.851-2.942,1.634c-0.728-0.118-1.251-0.435-1.752-0.939C2133.836,479.311,2133.36,478.405,2132.9,477.686z"
					/>
				<path fill="#EF507C" d="M2133.286,478.07c0.19,0.522,0.887,1.068,1.214,1.617c0.305,0.512,0.522,0.97,0.633,1.54
					c0.232,1.185,0.235,2.174-1.078,2.637c-1.392,0.49-2.28-0.401-2.602-1.712c-0.111-0.452-0.149-1.066-0.092-1.541
					C2131.505,479.413,2132.934,479.134,2133.286,478.07z"/>
				<path fill="#EF507C" d="M2132.516,478.532c-0.697,1.231-1.371,3.076-2.541,3.926c-0.841,0.611-2.497,0.795-3.062-0.246
					C2125.14,478.94,2130.534,478.532,2132.516,478.532z"/>
				<path fill="#EF507C" d="M2132.054,478.532c-1.26,0.352-2.907,0.603-4.236,0.389c-1.094-0.176-2.11-1.525-1.697-2.7
					c0.485-1.381,3.326-1.862,4.475-1.401C2131.745,475.282,2132.159,477.369,2132.054,478.532z"/>
				<path fill="#F7ADB2" d="M2114.232,460.961c-0.514-0.03-0.681-1.535-0.692-1.963c-0.026-0.938,0.717-1.35,1.546-1.456
					C2117.378,457.247,2115.581,461.04,2114.232,460.961z"/>
				<path fill="#F7ADB2" d="M2114.868,461.019c-1.372-0.31-3.935-1.48-5.01,0.173c-0.701,1.078,0.242,1.91,1.36,1.722
					C2112.583,462.684,2113.888,461.87,2114.868,461.019z"/>
				<path fill="#F7ADB2" d="M2114.175,461.539c-0.859,0.226-3.449,2.598-1.847,3.394c0.992,0.493,1.814-0.522,1.977-1.373
					C2114.47,462.693,2114.255,462.335,2114.175,461.539z"/>
				<path fill="#F7ADB2" d="M2114.232,461.77c-0.119,1.466,2.439,3.286,3.479,1.79c0.542-0.781-0.149-1.542-0.88-1.863
					C2116.012,461.337,2115.065,461.628,2114.232,461.77z"/>
				<path fill="#F7ADB2" d="M2114.81,461.308c0.934,0.081,5.043-0.304,3.913-2.079c-0.488-0.766-1.502-0.282-2.052,0.128
					C2115.846,459.972,2115.231,460.398,2114.81,461.308z"/>
				<path fill="#F7ADB2" d="M2101.184,470.372c0.468-0.75,0.731-1.61,1.457-2.149c0.52-0.386,1.694-0.914,2.296-0.406
					c0.788,0.666-0.398,1.5-0.965,1.761C2103.045,470.004,2102.075,470.102,2101.184,470.372z"/>
				<path fill="#F7ADB2" d="M2101.126,470.083c-0.628-0.358-1.044-1.351-1.285-2.018c-0.332-0.922-0.103-1.541,0.882-1.867
					c0.81-0.268,1.448,0.271,1.442,1.115C2102.159,468.235,2101.151,469.381,2101.126,470.083z"/>
				<path fill="#F7ADB2" d="M2100.78,469.91c-0.451-0.447-1.119-1.239-1.934-1.387c0.023-0.003,0.037-0.016,0.04-0.04
					c-1.024-0.256-2.84-0.652-2.667,1.078C2096.432,471.697,2099.727,470.529,2100.78,469.91z"/>
				<path fill="#F7ADB2" d="M2100.549,470.199c-1.189-0.061-4.804,1.494-4.057,3.178c0.557,1.257,2.379,0.13,2.976-0.466
					C2100.529,471.851,2100.055,471.438,2100.549,470.199z"/>
				<path fill="#F7ADB2" d="M2100.434,470.314c-0.573,0.479-0.533,2.132-0.392,2.816c0.194,0.94,1.003,1.664,2.025,1.286
					c1.261-0.466,1.052-2.013,0.329-2.832C2101.813,470.924,2100.997,470.565,2100.434,470.314z"/>
				<path fill="#F7ADB2" d="M2100.491,470.257c0.853,0.586,1.572,1.059,2.643,1.285c0.634,0.133,2.096,0.247,2.207-0.65
					c0.1-0.807-1.166-1.143-1.778-1.212C2102.647,469.577,2101.167,469.66,2100.491,470.257z"/>
				<path fill="#F7ADB2" d="M2125.318,468.236c-0.657-0.374-1.332-0.486-1.777-1.167c-0.453-0.695-0.678-1.761,0.043-2.354
					c0.868-0.714,2.225-0.581,2.368,0.633C2126.112,466.697,2126.165,467.324,2125.318,468.236z"/>
				<path fill="#F7ADB2" d="M2125.203,468.121c0.059-1.329,3.334-2.845,3.58-0.995
					C2129.047,469.129,2126.174,468.651,2125.203,468.121z"/>
				<path fill="#F7ADB2" d="M2125.029,468.236c-1.135-0.545-3.377-2.122-4.433-0.506c-0.672,1.028,0.474,1.912,1.416,1.95
					C2123.11,469.723,2124.247,468.934,2125.029,468.236z"/>
				<path fill="#F7ADB2" d="M2124.625,468.178c-0.815,0.529-1.233,1.121-1.327,2.093c-0.076,0.79,0.019,1.578,1.038,1.546
					c0.908-0.029,1.453-1.004,1.387-1.834C2125.682,469.463,2125.224,468.247,2124.625,468.178z"/>
				<path fill="#F7ADB2" d="M2124.914,468.409c-0.14,1.137,2.114,3.502,3.246,2.659c0.786-0.585,0.372-1.706-0.301-2.142
					C2126.881,468.293,2125.965,468.348,2124.914,468.409z"/>
				<path fill="#F7ADB2" d="M2113.136,477.3c-0.931-1.289-0.363-3.958,1.632-3.752c0.908,0.093,1.061,1.101,0.664,1.86
					C2114.981,476.271,2113.835,476.684,2113.136,477.3z"/>
				<path fill="#F7ADB2" d="M2113.424,477.243c0.54-0.854,4.542-3.341,4.606-0.981
					C2118.079,478.061,2114.475,477.797,2113.424,477.243z"/>
				<path fill="#F7ADB2" d="M2113.193,477.243c-0.338-0.872-2.661-3.001-3.594-1.792c-0.528,0.685,0.169,1.622,0.805,1.922
					C2111.324,477.807,2112.282,477.601,2113.193,477.243z"/>
				<path fill="#F7ADB2" d="M2112.962,477.243c-1.021-0.029-3.568,1.043-3.349,2.369c0.354,2.132,3.966-2.283,4.272-2.888
					L2112.962,477.243z"/>
				<path fill="#F7ADB2" d="M2113.366,477.243c-0.763,0.654-3.275,4.346-0.823,4.33
					C2114.816,481.558,2114.346,478.271,2113.366,477.243z"/>
				<path fill="#F7ADB2" d="M2113.482,477.474c0.044,0.837,1.147,2.324,1.792,2.832c0.85,0.671,2.467,0.728,2.423-0.694
					c-0.034-1.1-1.092-1.771-2.007-2.067c-0.472-0.153-0.951-0.209-1.441-0.256C2113.997,477.264,2113.274,477.245,2113.482,477.474
					z"/>
				<path fill="#F7ADB2" d="M2132.419,477.878c-0.504-1.499,0.999-4.186,2.771-3.062
					C2137.595,476.341,2132.653,478.572,2132.419,477.878z"/>
				<path fill="#F7ADB2" d="M2132.188,477.993c1.13,0.033,2.438-0.948,3.568-0.404c0.542,0.261,1.29,1.062,1.097,1.732
					c-0.255,0.889-1.523,0.785-2.182,0.534C2133.55,479.428,2132.923,478.768,2132.188,477.993z"/>
				<path fill="#F7ADB2" d="M2132.362,478.224c-0.522-1.446-1.946-2.937-3.652-2.136c-1.091,0.512-0.587,1.919,0.419,2.237
					C2130.297,478.695,2131.206,478.192,2132.362,478.224z"/>
				<path fill="#F7ADB2" d="M2132.419,478.34c-1.121-0.078-3.558,0.437-3.464,1.979c0.073,1.191,1.444,1.001,2.194,0.507
					C2132.047,480.233,2132.208,479.315,2132.419,478.34z"/>
				<path fill="#F7ADB2" d="M2132.535,478.397c-0.735,0.455-0.595,2.351-0.46,3.106c0.168,0.944,1.05,1.37,1.918,0.877
					c0.96-0.544,1.092-2.029,0.403-2.829C2133.909,478.988,2133.272,478.475,2132.535,478.397z"/>
				<path fill="#FCDADC" d="M2115.772,460.557c-0.25-0.614-1.538-0.624-2.07-0.472c-0.654,0.187-1.528,0.897-1.048,1.626
					C2113.524,463.031,2116.419,462.148,2115.772,460.557z"/>
				<path fill="#FCDADC" d="M2125.818,466.831c-0.879-0.275-2.358,0.188-2.811,1.002c-0.487,0.875-0.071,1.726,0.933,1.81
					c1.007,0.084,2.152-0.366,2.388-1.418C2126.506,467.431,2126.62,467.082,2125.818,466.831z"/>
				<path fill="#FCDADC" d="M2133.979,477.108c-0.782-0.531-2.081-0.348-2.743,0.279c-0.639,0.606-1.051,1.753,0.056,2.041
					c0.892,0.231,2.244,0.095,2.87-0.662C2134.717,478.094,2134.688,477.59,2133.979,477.108z"/>
				<path fill="#FCDADC" d="M2114.694,475.992c-1.573-1.22-4.551,1.994-2.551,2.571c0.936,0.271,2.256-0.048,2.742-0.926
					c0.173-0.313,0.242-0.67,0.185-1.029C2114.997,476.14,2115.058,476.274,2114.694,475.992z"/>
				<path fill="#FCDADC" d="M2101.8,469.525c-0.585-0.529-1.319-0.586-2.032-0.259c-0.722,0.331-1.248,1.316-0.585,1.953
					C2100.484,472.468,2103.206,470.796,2101.8,469.525z"/>
				<path fill="#599B43" d="M2107.535,477.993c-0.775-0.294-1.208-0.897-2.136-0.866c-1.066,0.036-2.11,1.047-3.171,1.338
					c0.501,0.951,2.105,1.537,3.113,1.161c0.557-0.208,0.918-0.717,1.343-1.099C2107.17,478.089,2107.036,478.188,2107.535,477.993z
					"/>
			</g>
			<g>
				<linearGradient id="SVGID_4_" gradientUnits="userSpaceOnUse" x1="2153.3936" y1="498.667" x2="2150.646" y2="523.6899">
					<stop  offset="0.0856" style="stop-color:#F68B50"/>
					<stop  offset="0.5294" style="stop-color:#F78E45"/>
					<stop  offset="1" style="stop-color:#F57F3A"/>
				</linearGradient>
				<path fill="url(#SVGID_4_)" d="M2163.822,510.883c0.928-4.476,2.336-8.957,4.5-12.152l-29.765-0.981
					c0,0,2.882,8.428,4.543,17.525C2149.863,513.37,2156.941,512.325,2163.822,510.883z"/>
				<path opacity="0.55" fill="#DA8C4B" d="M2138.557,497.75c0,0,0.696,2.036,1.601,5.181c0.085,0.297,5.955,2.48,7.335,2.731
					c5.054,0.918,11.285,0.609,16.022-1.563c0.904-0.414,1.789-0.876,2.686-1.31c0.613-1.485,1.313-2.864,2.121-4.058
					L2138.557,497.75z"/>
				<path opacity="0.55" fill="#DA8C4B" d="M2149.565,513.692c-0.489-2.75-0.693-5.524-1.097-8.286
					c-0.272-1.864-0.604-3.728-0.826-5.601l-7.774-0.256c0,0,2.528,7.395,4.052,15.5
					C2145.783,514.545,2147.667,514.1,2149.565,513.692z"/>
				<path fill="#F68B50" d="M2136.597,495.752l1.149,3.437c0,0,9.446,4.187,16.708,4.056c7.261-0.131,15.046-4.056,15.046-4.056
					l0.851-3.029L2136.597,495.752z"/>
				<path fill="#FAA968" d="M2136.597,495.752c0,0,8.146,6.336,19.688,5.268c11.542-1.067,14.065-4.861,14.065-4.861
					S2154.589,492.25,2136.597,495.752z"/>
				<path fill="#DC6E32" d="M2139.492,496.268c0,0,6.75,4.675,16.312,3.888c9.562-0.788,11.652-3.587,11.652-3.587
					S2154.398,493.684,2139.492,496.268z"/>
				
					<ellipse transform="matrix(0.9952 0.0976 -0.0976 0.9952 59.897 -208.2155)" opacity="0.55" fill="#F2706F" cx="2159.148" cy="508.396" rx="2.012" ry="1.521"/>
				<g>
					<path fill="#57B063" d="M2142.833,491.472c1.181,2.313,3.971,6.38,4.914,8.19c0.466,0.134,0.928,0.273,1.393,0.401
						c-1.168-2.372-1.212-4.815-1.891-8.399c-0.726-3.832-2.654-13.776-5.559-17.042c-2.905-3.265-3.557-7.584-4.071-6.46
						c-0.514,1.123,1.775,6.714,1.628,11.002C2139.101,483.453,2141.292,488.453,2142.833,491.472z"/>
					<path fill="#259145" d="M2142.833,491.472c1.181,2.313,3.971,6.38,4.914,8.19c0.05,0.014,0.099,0.029,0.149,0.043
						c-2.384-5.114-4.742-10.375-5.554-15.874c-0.532-3.597-1.009-6.67-2.426-10.04c-0.69-1.642-1.713-3.394-2.347-5.176
						c0.081,1.735,1.811,6.674,1.678,10.548C2139.101,483.453,2141.292,488.453,2142.833,491.472z"/>
				</g>
				<g>
					<path fill="#57B063" d="M2150.957,500.535c0.013,0.035,0.03,0.061,0.045,0.09c0.37,0.011,0.74,0.018,1.111,0.024
						c0.18-0.115,0.307-0.227,0.307-0.227c-0.487-1.874,1.478-10.139,1.118-13.896c-0.36-3.757-0.341-9.855-4.348-15.45
						s-2.591-10.855-4.111-4.231c-1.521,6.625,1.919,14.86,3.158,17.288S2150.957,500.535,2150.957,500.535z"/>
					<path fill="#259145" d="M2150.957,500.535c0.014,0.037,0.034,0.06,0.051,0.09c0.074,0.002,0.147,0.005,0.221,0.007
						c0.274-2.474,0.864-11.046,0.34-13.391c-0.632-2.829-1.85-5.305-3.141-7.874c-1.414-2.815-1.793-5.498-2.001-8.599
						c-0.148-2.196-0.729-4.742-0.469-7c-0.172-0.11-0.343,0.744-0.879,3.077c-1.521,6.625,1.919,14.86,3.158,17.288
						S2150.957,500.535,2150.957,500.535z"/>
				</g>
				<g>
					<path fill="#57B063" d="M2158.272,500.1c-0.375-2.171-0.776-3.994-1.154-4.736c-1.239-2.427-4.679-10.663-3.158-17.287
						c1.521-6.624,0.105-1.364,4.111,4.231c4.007,5.595,3.988,11.693,4.347,15.45c0.043,0.45,0.053,0.966,0.037,1.527
						C2161.068,499.574,2159.675,499.831,2158.272,500.1z"/>
					<path fill="#259145" d="M2158.272,500.1c-0.375-2.171-0.776-3.994-1.154-4.736c-1.239-2.427-4.679-10.663-3.158-17.287
						c0.536-2.333,0.707-3.188,0.879-3.077c-0.259,2.257,0.321,4.803,0.469,6.999c0.208,3.101,0.588,5.784,2.001,8.599
						c1.291,2.57,2.508,5.045,3.141,7.874c0.067,0.3,0.115,0.707,0.148,1.185C2159.826,499.804,2159.05,499.951,2158.272,500.1z"/>
				</g>
				<g>
					<path fill="#57B063" d="M2150.288,488.119c-0.156,2.593,0.185,7.512,0.08,9.551c0.333,0.351,0.661,0.706,0.997,1.052
						c0.197-2.637,1.398-4.764,2.632-8.197c1.318-3.67,4.702-13.218,3.855-17.506c-0.847-4.287,0.782-8.34-0.23-7.633
						s-1.876,6.686-4.179,10.307C2151.14,479.314,2150.491,484.734,2150.288,488.119z"/>
					<path fill="#259145" d="M2150.288,488.119c-0.156,2.593,0.185,7.512,0.08,9.551c0.036,0.037,0.071,0.075,0.106,0.112
						c0.54-5.616,1.177-11.346,3.267-16.497c1.367-3.369,2.515-6.26,3.003-9.883c0.238-1.765,0.245-3.793,0.604-5.651
						c-0.81,1.537-1.825,6.67-3.905,9.941C2151.14,479.314,2150.491,484.734,2150.288,488.119z"/>
				</g>
				<g>
					<path fill="#57B063" d="M2161.003,491.303c-0.011,0.03-0.026,0.053-0.04,0.079c-0.327,0.01-0.654,0.016-0.98,0.021
						c-0.159-0.102-0.271-0.2-0.271-0.2c0.43-1.654,0.253-4.084,0.572-7.401c0.318-3.317,0.301-8.702,3.839-13.643
						c3.538-4.94,2.288-9.585,3.631-3.736s-1.694,13.122-2.789,15.265C2163.87,483.832,2161.003,491.303,2161.003,491.303z"/>
					<path fill="#259145" d="M2161.004,491.303c-0.013,0.033-0.031,0.053-0.046,0.08c-0.065,0.002-0.13,0.004-0.195,0.006
						c-0.241-2.185,0.796-4.885,1.259-6.956c0.559-2.498,1.634-4.684,2.773-6.953c1.248-2.486,1.584-4.854,1.768-7.593
						c0.131-1.939,0.643-4.187,0.414-6.18c0.152-0.098,0.303,0.657,0.776,2.717c1.343,5.849-1.694,13.122-2.789,15.265
						C2163.87,483.832,2161.004,491.303,2161.004,491.303z"/>
				</g>
				<g>
					<path fill="#84C665" d="M2144.728,499.261c0.158,0.032,0.316,0.063,0.475,0.087c0.008-0.011,0.679,0.048,0.652,0.047
						c0.339,0.007,0.667,0.066,0.976,0.166c0.016-0.007,0.032-0.014,0.048-0.021c-1.269-2.586-5.09-10.416-5.73-12.168
						c-0.769-2.107-0.625-3.141-0.625-3.141l-3.067,1.155c0,0,2.105,1.968,3.875,5.979
						C2142.448,493.896,2143.847,497.179,2144.728,499.261z"/>
					<path fill="#F15B63" d="M2133.846,475.294c0,0-0.314-2.929,0.368-2.849c0.682,0.08,2.311,1.309,2.615,1.984
						C2137.133,475.105,2137.33,478.891,2133.846,475.294z"/>
					<path fill="#EE2B2D" d="M2135.96,475.848c0,0-3.03-3.622-3.335-1.512c-0.306,2.11-0.655,6.354,1.42,8.255
						c2.075,1.901,3.543,3.728,5.244,2.884C2140.991,484.632,2137.871,478.181,2135.96,475.848z"/>
					<path fill="#EF3D4C" d="M2136.066,472.178c0,0-1.756,3.625-0.789,7.35c0.968,3.725,1.902,7.155,4.013,5.947
						c2.111-1.207,1.558-1.91,1.737-4.428C2141.281,477.464,2136.596,470.75,2136.066,472.178z"/>
				</g>
				<g>
					<path fill="#5DBB4F" d="M2156.869,477.951c0,0,0.701,1.274,0.53,2.446c-0.134,0.915-3.746,16.559-4.559,20.25
						c0.129,0.022,0.258,0.045,0.387,0.071c0.222,0.045,0.443,0.1,0.666,0.141c0.039-0.007,0.09-0.015,0.169-0.021
						c0.166-0.015,0.328-0.009,0.487,0.008c0.646-3.763,4.004-20.031,4.325-20.518c0.411-0.623,1.254-1.22,1.254-1.22
						L2156.869,477.951z"/>
					<path fill="#D84667" d="M2157.998,471.917c0,0,2.09-5.356,2.346-4.979c0.256,0.377,1.977,5.373,1.977,5.373l-3.485,2.856
						L2157.998,471.917z"/>
					<path fill="#D02A4A" d="M2158.69,467.634c0,0-2.639,3.564-2.976,5.458s-0.133,5.095,2.405,6.288
						c2.539,1.194,2.005-7.116,1.952-7.506C2160.019,471.485,2159.241,466.963,2158.69,467.634z"/>
					<path fill="#E95172" d="M2161.922,467.634c0,0-2.805,1.828-3.983,5.553c-1.178,3.725-0.646,6.432,1.081,6.26
						c1.726-0.172,3.736-2.874,3.935-4.079c0.199-1.206,0.973-2.534-0.248-4.712
						C2162.233,469.811,2161.922,467.634,2161.922,467.634z"/>
				</g>
				<g>
					<path fill="#5DBB4F" d="M2153.909,483.82c0,0,0.701,1.274,0.53,2.446c-0.134,0.914-2.201,10.429-3.014,14.121
						c0.129,0.022,0.258,0.045,0.387,0.071c0.222,0.045,0.443,0.1,0.667,0.141c0.039-0.007,0.09-0.015,0.168-0.021
						c0.166-0.015,0.328-0.009,0.487,0.009c0.646-3.763,2.459-13.902,2.78-14.39c0.41-0.623,1.253-1.22,1.253-1.22L2153.909,483.82z
						"/>
					<path fill="#F7ACB3" d="M2155.037,477.785c0,0,2.123-4.933,2.378-4.556s1.066,4.889,1.066,4.889l-2.608,2.917L2155.037,477.785
						z"/>
					<path fill="#F8B0B5" d="M2155.858,473.869c0,0-2.768,3.198-3.104,5.092c-0.337,1.894-0.134,5.094,2.405,6.288
						c2.539,1.194,2.004-7.116,1.952-7.506C2157.058,477.354,2156.409,473.198,2155.858,473.869z"/>
					<path fill="#FBCDD0" d="M2158.858,473.835c0,0-2.702,1.496-3.879,5.22c-1.178,3.725-0.646,6.432,1.081,6.26
						c1.726-0.171,3.736-2.873,3.936-4.079c0.2-1.206,0.73-3.011-0.49-5.189C2159.031,475.202,2158.858,473.835,2158.858,473.835z"
						/>
				</g>
				<g>
					<path fill="#57B063" d="M2167.543,475.993c-4.063,3.604-5.646,10.559-5.965,12.712c-0.301,2.023-5.188,10.772-5.781,11.828
						c0.463-0.006,0.927-0.008,1.391-0.014c1.403-1.873,5.419-5.531,6.728-7.797c1.508-2.611,4.351-6.57,4.34-12.069
						C2168.244,475.153,2171.605,472.388,2167.543,475.993z"/>
					<path fill="#259145" d="M2167.543,475.992c-4.063,3.605-5.646,10.559-5.965,12.713c-0.301,2.023-5.188,10.773-5.781,11.828
						c0.112-0.001,0.224-0.001,0.335-0.003c1.561-1.792,5.468-6.591,6.171-8.256c0.901-2.134,1.257-4.31,1.61-6.581
						c0.386-2.487,1.383-4.409,2.687-6.523c0.923-1.498,1.726-3.423,2.942-4.771
						C2169.482,474.247,2168.975,474.723,2167.543,475.992z"/>
				</g>
				<g>
					<path fill="#57B063" d="M2150.568,467.822c-1.516,4.415-0.057,11.29,0.544,13.435c0.575,2.054,0.482,14.703,0.467,16.442
						c0.376-0.486,0.747-0.957,1.109-1.423c0.263-3.244,1.599-9.923,1.578-12.827c-0.023-3.155,0.274-7.832-1.645-12.2
						C2150.734,466.956,2151.879,464.003,2150.568,467.822z"/>
					<path fill="#259145" d="M2150.568,467.822c-2.899,8.334-0.057,11.29,0.544,13.435c0.576,2.054,0.482,14.704,0.467,16.442
						c0.091-0.118,0.183-0.234,0.273-0.351c0.454-3.412,1.336-11.266,1.166-13.28c-0.21-2.487-0.795-4.617-1.406-6.784
						c-0.655-2.323-0.673-4.375-0.558-6.614c0.079-1.518-0.066-3.28,0.242-4.659
						C2151.208,465.913,2151.051,466.416,2150.568,467.822z"/>
				</g>
				<g>
					<path fill="#5DBB4F" d="M2142.363,487.179c0.289,0.772,2.527,8.28,3.765,12.466c0.646,0.15,1.289,0.313,1.924,0.505
						c-1.295-3.755-4.474-13.173-4.429-13.744c0.059-0.744,0.511-1.673,0.511-1.673l-3.414,0.557
						C2140.72,485.291,2141.948,486.07,2142.363,487.179z"/>
					<path fill="#F7ACB3" d="M2138.8,479.459c0,0-0.518-5.345-0.112-5.138c0.406,0.208,3.291,3.77,3.291,3.77l-0.879,3.813
						L2138.8,479.459z"/>
					<path fill="#F59098" d="M2137.632,475.632c0,0-0.884,4.136-0.266,5.958c0.618,1.822,2.338,4.528,5.138,4.351
						s-1.673-7.202-1.908-7.518C2140.363,478.108,2137.792,474.78,2137.632,475.632z"/>
					<path fill="#F8BDC1" d="M2140.244,474.157c0,0-1.646,2.612-0.883,6.444c0.764,3.832,2.535,5.947,3.964,4.964
						c1.43-0.982,1.889-4.318,1.482-5.471c-0.406-1.152-0.812-2.99-2.93-4.31C2141.054,475.271,2140.244,474.157,2140.244,474.157z"
						/>
				</g>
				<g>
					<path fill="#E8232A" d="M2168.902,476.016c0,0,1.129-5.066,0.695-5.071s-2.755,1.839-3.631,3.353
						C2165.091,475.813,2164.215,483.851,2168.902,476.016z"/>
					<path fill="#5DBB4F" d="M2159.476,500.128c0.218-1.335,0.735-4.286,1.625-8.13c1.227-5.302,3.519-9.414,3.519-9.414
						l-1.391-0.613c0,0-1.191,2.823-2.992,7.392c-1.521,3.859-2.079,9.383-2.216,11.007
						C2158.521,500.32,2159.006,500.238,2159.476,500.128z"/>
					<path fill="#EE2B2D" d="M2171.008,473.054c0,0-0.848,3.379-0.889,4.237c-0.039,0.857-3.07,6.591-6.547,5.48
						c0,0,2.028-2.755,2.31-3.875C2166.164,477.776,2170.42,472.386,2171.008,473.054z"/>
					<path fill="#EF3D4C" d="M2167.758,470.414c0,0-0.762,4.284-0.826,5.897c-0.063,1.614-2.48,6.885-3.586,6.458
						s-1.829-3.93-0.619-6.682C2163.938,473.333,2167.211,469.497,2167.758,470.414z"/>
				</g>
				<g>
					<path fill="#57B063" d="M2150.947,500.667c0.01,0.026,0.022,0.046,0.034,0.068c0.279,0.008,0.558,0.014,0.837,0.018
						c0.136-0.087,0.231-0.171,0.231-0.171c-0.367-1.412-0.216-3.486-0.488-6.317c-0.272-2.832-0.257-7.428-3.277-11.646
						c-3.02-4.217-1.953-8.182-3.099-3.188c-1.146,4.993,1.447,11.2,2.38,13.03C2148.5,494.29,2150.947,500.667,2150.947,500.667z"
						/>
					<path fill="#259145" d="M2150.947,500.667c0.011,0.028,0.026,0.045,0.039,0.068c0.056,0.001,0.111,0.004,0.167,0.005
						c0.207-1.865-0.679-4.17-1.074-5.938c-0.477-2.132-1.395-3.998-2.367-5.935c-1.065-2.122-1.352-4.144-1.509-6.481
						c-0.111-1.655-0.549-3.574-0.354-5.275c-0.13-0.083-0.259,0.561-0.663,2.319c-1.146,4.993,1.447,11.2,2.38,13.03
						C2148.5,494.29,2150.947,500.667,2150.947,500.667z"/>
				</g>
				<g>
					<path fill="#84C665" d="M2165.834,486.719c0,0-0.465,2.845-2.814,6.545c-1.398,2.203-3.215,4.987-4.458,6.882
						c0.738-0.068,1.475-0.153,2.212-0.245c1.896-3.248,4.626-7.866,5.463-9.01c1.323-1.811,2.263-2.266,2.263-2.266
						L2165.834,486.719z"/>
					<path fill="#F15B63" d="M2172.215,478.106c0,0,2.261-1.89,2.572-1.278c0.313,0.611,0.197,2.649-0.195,3.277
						S2171.163,483.002,2172.215,478.106z"/>
					<path fill="#EE2B2D" d="M2172.931,480.172c0,0,1.326-4.532-0.598-3.612c-1.925,0.919-5.646,2.988-6.071,5.77
						c-0.427,2.782-1.129,5.018,0.518,5.962S2172.055,483.057,2172.931,480.172z"/>
					<path fill="#EF3D4C" d="M2176.04,478.219c0,0-3.989,0.555-6.548,3.431s-4.89,5.559-2.713,6.642
						c2.178,1.083,4.119,0.483,5.992-1.058C2175.545,484.953,2177.521,477.866,2176.04,478.219z"/>
				</g>
				<g>
					<path fill="#57B063" d="M2169.714,484.116c-4.351,2.944-8.733,6.64-9.519,7.883c-0.738,1.169-3.359,7.637-3.666,8.396
						c0.343-0.029,0.687-0.057,1.03-0.082c0.141-0.264,0.216-0.539,0.216-0.539c1.21-3.15,7.229-6.336,8.766-9.542
						C2168.078,487.027,2174.064,481.172,2169.714,484.116z"/>
					<path fill="#259145" d="M2168.945,485.78c-1.643,1.757-3.499,3.312-5.158,5.054c-0.63,0.662-1.604,1.202-2.158,1.864
						c-0.705,0.843-1.212,1.828-1.867,2.712c-1.135,1.532-1.818,3.285-2.732,4.943c0.176-0.014,0.353-0.028,0.529-0.041
						c0.142-0.264,0.216-0.539,0.216-0.539c1.21-3.15,7.229-6.336,8.766-9.542c1.06-2.21,4.232-5.677,4.677-6.655
						C2170.461,484.308,2169.67,485.005,2168.945,485.78z"/>
				</g>
				<g>
					<path fill="#57B063" d="M2156.212,500.504c0.201-0.021,0.402-0.036,0.604-0.038c0.162-0.001,0.327,0.006,0.492,0.018
						c-0.078-2.409-0.216-5.813-0.403-6.717c-0.296-1.44-3.095-6.444-6.129-10.732c-3.033-4.289,0.504,3.301,0.813,6.842
						C2151.857,492.96,2155.307,497.226,2156.212,500.504z"/>
					<path fill="#259145" d="M2156.212,500.504c0.153-0.016,0.306-0.025,0.459-0.03c-0.116-1.13-0.248-2.254-0.563-3.361
						c-0.301-1.058-0.429-2.159-0.791-3.196c-0.285-0.814-1.007-1.664-1.363-2.505c-0.938-2.215-2.127-4.324-3.046-6.547
						c-0.405-0.981-0.9-1.912-1.35-2.862c0.072,1.072,1.818,5.435,2.031,7.876C2151.857,492.96,2155.307,497.226,2156.212,500.504z"
						/>
				</g>
				<g>
					<path fill="#57B063" d="M2171.806,485.876c-1.095,0.164-1.011,1.551-2.452,2.966c-1.469,1.441-2.457,5.551-5.58,6.681
						c-2.414,0.874-4.399,3.275-5.273,4.473c0.118-0.013,0.239-0.021,0.365-0.021c0.115,0,0.227,0.006,0.335,0.017
						c1.984-1.154,4.333-2.367,6.322-2.686c2.316-0.373,5.341-3.193,5.171-5.682
						C2170.521,489.105,2171.806,485.876,2171.806,485.876z"/>
					<path fill="#259145" d="M2171.371,487.158c-1.545,3.487-2.166,7.229-6.093,9.199c-1.847,0.926-4.377,1.206-5.967,2.918
						c-0.215,0.231-0.421,0.469-0.624,0.708c0.059-0.003,0.117-0.009,0.178-0.009c0.116,0,0.228,0.006,0.336,0.017
						c1.984-1.154,4.33-2.366,6.321-2.687c2.316-0.372,5.341-3.192,5.171-5.682C2170.59,490.108,2171.016,488.331,2171.371,487.158z
						"/>
				</g>
				<g>
					<path fill="#57B063" d="M2140.964,496.736c1.29,0.906,2.183,1.647,2.758,2.168c0.402-0.001,0.804,0,1.205,0.01
						c-0.633-0.479-1.392-1.438-2.354-3.791c-1.803-4.409-1.603-4.208-4.025-6.006c-2.422-1.798-2.572-3.386-2.784-3.835
						s-0.779,1.126-0.59,4.671C2135.362,493.499,2138.34,494.896,2140.964,496.736z"/>
					<path fill="#259145" d="M2140.964,496.736c1.29,0.906,2.183,1.647,2.758,2.168c0.18,0,0.36,0,0.541,0
						c-0.48-0.406-0.938-0.814-1.33-1.238c-1.316-1.424-2.46-3.01-3.705-4.498c-1.813-2.169-3.788-4.975-3.467-7.888
						c-0.213-0.439-0.777,1.136-0.589,4.673C2135.362,493.499,2138.34,494.896,2140.964,496.736z"/>
				</g>
				<g>
					<path fill="#E8232A" d="M2142.497,474.013c0,0-0.445-5.481,0.01-5.422c0.456,0.059,2.622,2.331,3.32,4.048
						C2146.525,474.355,2146.272,482.917,2142.497,474.013z"/>
					<path fill="#84C665" d="M2148.853,500.032c0.516,0.088,1.032,0.172,1.549,0.244c0.089-2.357,0.139-7.28-0.759-10.993
						c-1.224-5.057-2.061-8.193-2.061-8.193l-1.55,0.44c0,0,1.806,4.649,2.319,10.391
						C2148.675,495.529,2148.803,498.397,2148.853,500.032z"/>
					<path fill="#EE2B2D" d="M2140.72,470.598c0,0,0.396,3.67,0.313,4.575s2.261,7.364,6.07,6.706c0,0-1.726-3.187-1.857-4.403
						C2145.113,476.26,2141.433,469.983,2140.72,470.598z"/>
					<path fill="#EF3D4C" d="M2144.514,468.302c0,0,0.175,4.606,0.007,6.308c-0.169,1.702,1.598,7.586,2.821,7.299
						c1.223-0.287,2.493-3.856,1.625-6.921C2148.098,471.923,2145.222,467.419,2144.514,468.302z"/>
				</g>
				<g>
					<path fill="#84C665" d="M2154.312,500.427c0.04-0.004,0.079-0.005,0.118-0.01c0.56-0.069,1.146-0.125,1.744-0.184
						c-0.426-2.849-1.699-11.467-1.779-13.332c-0.095-2.241,0.355-3.183,0.355-3.183l-3.272,0.173c0,0,1.411,2.513,1.884,6.871
						C2153.715,494.023,2154.127,498.42,2154.312,500.427z"/>
					<path fill="#F15B63" d="M2151.091,473.178c0,0,0.587-2.887,1.213-2.604c0.625,0.283,1.806,1.947,1.892,2.683
						S2153.323,477.66,2151.091,473.178z"/>
					<path fill="#EE2B2D" d="M2152.939,474.346c0,0-1.792-4.369-2.721-2.45s-2.547,5.857-1.145,8.297
						c1.403,2.44,2.249,4.625,4.125,4.336C2155.075,484.241,2154.054,477.147,2152.939,474.346z"/>
					<path fill="#EF3D4C" d="M2154.15,470.88c0,0-2.771,2.923-2.976,6.767c-0.206,3.843-0.353,7.395,2.024,6.883
						c2.377-0.512,2.063-1.349,2.996-3.695C2157.521,477.497,2155.087,469.68,2154.15,470.88z"/>
				</g>
				<g>
					<path fill="#84C665" d="M2158.233,488.109c-0.278,0.969-3.565,9.9-4.537,12.539c0.607,0.011,1.226,0.019,1.842,0.008
						c1.02-3.256,3.769-11.96,4.167-12.417c0.491-0.563,1.407-1.04,1.407-1.04l-3.075-1.585
						C2158.037,485.614,2158.56,486.971,2158.233,488.109z"/>
					<path fill="#E8232A" d="M2159.966,479.786c0,0,2.767-4.603,2.97-4.194c0.202,0.408,0.399,4.987,0.399,4.987l-2.977,2.541
						L2159.966,479.786z"/>
					<path fill="#EF3D4C" d="M2161.308,476.016c0,0-3.173,2.796-3.762,4.628c-0.588,1.832-0.817,5.031,1.538,6.555
						c2.355,1.524,2.944-6.782,2.944-7.176C2162.027,479.63,2161.943,475.425,2161.308,476.016z"/>
					<path fill="#EE2B2D" d="M2164.284,476.386c0,0-2.878,1.119-4.547,4.651c-1.668,3.533-1.504,6.287,0.229,6.349
						c1.734,0.062,4.088-2.345,4.449-3.513s1.128-2.885,0.212-5.208C2164.271,477.764,2164.284,476.386,2164.284,476.386z"/>
				</g>
				<g>
					<path fill="#57B063" d="M2155.295,498.474c-1.006,0.966-1.687,1.736-2.12,2.27c-0.352,0.053-0.704,0.108-1.053,0.171
						c0.489-0.504,1.023-1.446,1.547-3.634c0.981-4.1,0.833-3.897,2.709-5.797s1.792-3.31,1.917-3.731
						c0.125-0.422,0.833,0.88,1.147,4.006S2157.341,496.509,2155.295,498.474z"/>
					<path fill="#259145" d="M2155.295,498.474c-1.006,0.966-1.687,1.736-2.12,2.27c-0.158,0.023-0.316,0.048-0.473,0.073
						c0.365-0.42,0.71-0.839,0.996-1.263c0.959-1.423,1.745-2.965,2.633-4.435c1.293-2.142,2.641-4.863,1.966-7.369
						c0.127-0.413,0.833,0.889,1.146,4.008C2159.758,494.884,2157.341,496.509,2155.295,498.474z"/>
				</g>
				<g>
					<path fill="#57B063" d="M2146.226,497.512c0.275,0.437,1.238,1.564,2.235,2.694c0.535,0.038,1.067,0.085,1.594,0.152
						c-1.054-2.477-1.491-6.286-2.914-8.052c-1.79-2.222-3.959-8.583-3.332-4.414
						C2144.436,492.061,2145.597,496.514,2146.226,497.512z"/>
					<path fill="#259145" d="M2146.624,494.508c0.262,0.686,0.315,1.579,0.604,2.208c0.367,0.802,0.905,1.51,1.318,2.291
						c0.237,0.447,0.511,0.866,0.801,1.273c0.237,0.023,0.473,0.049,0.708,0.079c-1.054-2.477-1.491-6.286-2.914-8.052
						c-1.233-1.532-2.647-5.029-3.202-5.689c0.268,0.801,0.499,1.615,0.809,2.408
						C2145.453,490.822,2145.937,492.704,2146.624,494.508z"/>
				</g>
				<path fill="#FAA968" d="M2168.813,495.83c-0.346,0.42-0.833,0.732-1.464,0.858c-0.525,0.542-3.166,2.777-11.546,3.467
					c-9.562,0.788-16.312-3.888-16.312-3.888c0.042-0.007,0.083-0.014,0.124-0.02c-0.427-0.199-0.773-0.495-1.036-0.849
					c-0.658,0.109-1.318,0.225-1.982,0.354c0,0,8.146,6.336,19.688,5.268c11.542-1.067,14.065-4.861,14.065-4.861
					S2169.809,496.026,2168.813,495.83z"/>
			</g>
			<g>
				<path fill="#05AEC7" d="M2198.364,497.354c-3.305-0.551-7.859-1.287-12.673-2.044c-0.242,1.146-0.678,2.24-1.297,3.197
					c7.357,1.258,13.199,2.481,11.576,2.86c-3.685,0.863-60.341,15.654-63.708,15.657c-4.696,0.004-50.887-15.621-48.3-16.675
					c0,0,4.597-0.328,11.55-0.818c-0.407-0.937-0.648-1.965-0.722-3.025c-10.81,0.573-21.897,1.597-21.921,3.867
					c-0.018,1.718,0.843,1.687,5.462,2.947c4.719,1.288,11.958,4.059,21.826,7.667c22.808,8.337,25.291,12.386,35.449,10.551
					c9.473-1.712,7.771-4.489,34.653-11.174c26.881-6.684,29.554-7.236,34.715-7.619
					C2208.857,502.458,2206.127,498.648,2198.364,497.354z"/>
				<g>
					<path opacity="0.75" fill="#E0E9EF" d="M2161.545,510.138c-0.775,1.561-1.507,2.948-1.513,2.96
						c0.793-0.23,1.631-0.467,2.504-0.709c0.009-0.018,0.689-1.35,1.437-2.865C2163.162,509.729,2162.353,509.934,2161.545,510.138z
						"/>
					<path opacity="0.75" fill="#E0E9EF" d="M2087.118,497.008c-3.878,0.272-7.967,0.585-11.711,1.688
						c-0.767,0.226-1.698,0.495-2.262,1.095c-0.588,0.627-0.223,1.692,0.449,2.088c0.938,0.553,2.136,0.748,3.178,1.023
						c1.192,0.315,2.379,0.64,3.558,1.004C2082.531,501.549,2084.817,499.274,2087.118,497.008
						C2087.114,497.008,2084.817,499.274,2087.118,497.008z"/>
					<path opacity="0.75" fill="#E0E9EF" d="M2101.671,507.8c-0.958,0.894-1.941,1.779-2.946,2.661
						c0.38,0.14,0.745,0.274,1.134,0.416c0.101,0.037,0.197,0.073,0.3,0.11c0.064,0.023,0.123,0.046,0.187,0.069
						c1.278,0.468,2.492,0.923,3.646,1.364c0.841-0.989,1.67-1.987,2.542-2.943C2104.893,508.919,2103.263,508.357,2101.671,507.8z"
						/>
					<path opacity="0.75" fill="#E0E9EF" d="M2136.512,521.364c0.989-1.99,2.107-3.908,3.178-5.854
						c-2.343,0.546-4.732,1.222-7.128,1.493c-1.99,0.225-4.401-0.782-6.276-1.302c-2.003,1.163-4.018,2.307-6.054,3.409
						c2.538,1.059,5.128,2.108,7.849,2.586C2130.895,522.192,2133.731,521.93,2136.512,521.364
						C2137.314,519.75,2136.222,521.423,2136.512,521.364z"/>
					<path opacity="0.75" fill="#E0E9EF" d="M2153.921,512.049c-1.42,0.354-2.81,0.698-4.157,1.03
						c-0.831,1.412-1.635,2.854-2.391,4.333c1.325-0.545,2.871-1.146,4.772-1.813c0.337-0.715,0.662-1.435,1.009-2.145
						C2153.374,513.008,2153.638,512.537,2153.921,512.049z"/>
					<path opacity="0.75" fill="#E0E9EF" d="M2188.061,503.376c-1.128,0.289-2.354,0.603-3.648,0.936
						c-0.808,1.043-1.611,2.086-2.396,3.142c1.262-0.31,2.439-0.598,3.542-0.866c0.796-1.018,1.591-2.037,2.386-3.056
						C2187.982,503.481,2188.021,503.427,2188.061,503.376z"/>
					<path opacity="0.75" fill="#E0E9EF" d="M2193.301,496.524c-1.012-0.164-2.084-0.336-3.176-0.51
						c-0.712,1.017-1.37,2.088-2.035,3.147c0.984,0.181,1.909,0.357,2.762,0.528
						C2191.651,498.624,2192.457,497.557,2193.301,496.524z"/>
					<path opacity="0.75" fill="#E0E9EF" d="M2206.68,501.918c0.58-1.74-4.029-3.821-5.16-3.821
						c-0.969,1.875-2.025,3.708-3.092,5.539c1.561-0.306,3.129-0.566,4.712-0.731
						C2204.043,502.811,2206.314,503.036,2206.68,501.918z"/>
				</g>
			</g>
		</g>
		<g>
			<path fill="#8BA3AA" d="M2242.714,543.209c-0.462-0.274-0.913-0.633-1.345-1.102c-3.071-3.335-8.179-1.675-10.813,1.047
				c-3.695,3.818-5.744,8.753-7.861,13.559c0.271,2.627,0.53,5.127,0.53,5.127c0.671-4.176,8.267-19.826,11.403-20.523
				c4.666-1.036,7.395,2.31,6.557,7.921c-0.158,1.06-0.329,2.095-0.6,3.079c-3.417,12.467-15.654,22.242-15.654,22.242l0.881,8.173
				c0,0,7.044-6.739,11.5-12.988c4.119-5.776,10.063-17.609,5.654-26.112C2242.891,543.484,2242.797,543.352,2242.714,543.209z"/>
			<g opacity="0.55">
				<path opacity="0.55" fill="#8BA3AA" d="M2242.205,544.201c-0.076-0.147-0.171-0.28-0.254-0.423
					c-0.35-0.208-0.691-0.484-1.025-0.801c3.469,8.405-2.145,19.534-6.102,25.083c-3.263,4.576-7.902,9.403-10.159,11.666
					l0.386,3.574c0,0,7.043-6.738,11.5-12.988C2240.67,564.537,2246.613,552.703,2242.205,544.201z"/>
			</g>
			<path opacity="0.65" fill="#A9B6BD" d="M2227.38,572.859c-1.202,1.138-1.995,1.773-1.995,1.773l0.715,6.632
				c0,0,1.881-1.802,4.167-4.292C2229.326,575.593,2228.131,574.311,2227.38,572.859z"/>
			<path opacity="0.65" fill="#7D929C" d="M2241.186,549.237c-0.133,0.896-0.313,1.755-0.506,2.602
				c1.629,0.538,2.743,1.749,3.332,3.183c0.813-3.927,0.748-7.933-1.045-11.391c-0.076-0.146-0.17-0.279-0.253-0.422
				c-0.462-0.274-0.913-0.633-1.345-1.102c-0.504-0.547-1.067-0.949-1.662-1.244c-0.018,0.295-2.92-0.293-3.006,0
				c-0.027,0.098,1.923,0.584,2.686,1.342C2240.961,543.529,2241.669,546.003,2241.186,549.237z"/>
			<path fill="#94A9B0" d="M2243.617,544.979c-1.848-4.848-5.232-6.312-8.541-6.272c-3.053,0.037-7.01,2.532-8.728,5.113
				c-1.098,1.647-4.287,6.747-4.273,6.903c0,0.002,1.15,11.117,1.15,11.117c0.553-3.443,6.466-13.814,9.972-18.002
				c1.063-1.269,2.533-2.185,4.177-2.377C2240.268,541.124,2242.443,542.904,2243.617,544.979z"/>
			<g>
				<path fill="#B3C2C7" d="M2235.076,538.706c-3.053,0.037-7.01,2.532-8.728,5.113c-1.098,1.647-4.287,6.747-4.273,6.903
					c0,0,0.115,1.113,0.272,2.633h1.365c-0.004-0.031-0.535,4.744-0.535,4.744c-0.015-0.16,4.189-8.486,5.271-10.199
					c3.303-5.229,5.7-7.076,8.882-7.113c1.739-0.02,3.422,0.652,4.984,1.651C2240.397,539.605,2237.715,538.675,2235.076,538.706z"
					/>
				<path fill="#B3C2C7" d="M2243.432,544.674c0.063,0.102,0.127,0.202,0.186,0.305c-0.034-0.09-0.072-0.171-0.108-0.26
					C2243.483,544.704,2243.457,544.689,2243.432,544.674z"/>
			</g>
			<path opacity="0.65" fill="#A9B6BD" d="M2224.558,553.783c0.585-1.156,1.312-2.684,2.2-3.828
				c-0.518-1.008-1.203-1.912-2.157-2.43c-0.95,1.506-2.003,3.218-1.996,3.296c0.001,0.001,0.339,3.272,0.593,5.724
				C2223.634,555.621,2224.092,554.705,2224.558,553.783z"/>
			<g opacity="0.55">
				<path fill="#D8DFE2" d="M2234.529,539.804c-2.55,0.03-5.855,2.116-7.291,4.271c-0.253,0.38-0.641,0.982-1.066,1.654
					c0.52,0.364,0.976,0.833,1.35,1.428c0.092,0.147,0.186,0.3,0.28,0.456c0.19-0.318,0.358-0.6,0.491-0.816
					c4.504-7.381,8.729-6.446,9.037-6.423C2236.209,539.775,2235.74,539.789,2234.529,539.804z"/>
			</g>
			<path fill="#7D929C" d="M2196.488,539.556c0,0,2.516-17.106,7.402-19.766l1.995-0.611l-2.552-0.754l-2.611,0.381l-1,0.481
				c0,0-6.685,5.534-8.338,20.844L2196.488,539.556z"/>
			<path opacity="0.65" fill="#7D929C" d="M2191.801,537.103c-0.158,0.967-0.302,1.969-0.416,3.028l5.104-0.575
				c0,0,0.152-1.04,0.455-2.643C2194.979,536.643,2193.685,536.643,2191.801,537.103z"/>
			<path opacity="0.65" fill="#7D929C" d="M2203.334,518.425l-2.611,0.381l-1,0.481c0,0-1.947,1.633-4,5.522
				c0.1-0.042,0.188-0.093,0.29-0.133c1.409-0.551,2.927-0.349,4.224,0.321c1.016-2.438,2.234-4.435,3.654-5.208l1.995-0.611
				L2203.334,518.425z"/>
			<linearGradient id="SVGID_5_" gradientUnits="userSpaceOnUse" x1="2208.9668" y1="543.1738" x2="2201.6833" y2="606.6156">
				<stop  offset="0.0802" style="stop-color:#D1E0E6"/>
				<stop  offset="0.5027" style="stop-color:#CFD4D4"/>
				<stop  offset="1" style="stop-color:#AFC0CC"/>
			</linearGradient>
			<path fill="url(#SVGID_5_)" d="M2186.785,541.928l-11.285,57.284c0,0,13.857,10.925,32.085,7.763s21.966-7.619,21.966-7.619
				l-7.476-58.074c0,0-3.81-3.839-18.112-3.839C2191.959,537.442,2186.785,541.928,2186.785,541.928z"/>
			<linearGradient id="SVGID_6_" gradientUnits="userSpaceOnUse" x1="2208.2119" y1="546.1826" x2="2201.3835" y2="605.6607">
				<stop  offset="0.0802" style="stop-color:#D1E0E6"/>
				<stop  offset="0.5027" style="stop-color:#CFD4D4"/>
				<stop  offset="1" style="stop-color:#AFC0CC"/>
			</linearGradient>
			<path opacity="0.55" fill="url(#SVGID_6_)" d="M2200.539,586.387c-7.733-1.176-13.996-4.724-19.594-9.816l-4.425,22.152
				c0,0,13.153,10.229,30.455,7.268s20.85-7.133,20.85-7.133l-2.767-21.205C2222.276,582.889,2209.51,587.751,2200.539,586.387z"/>
			<path fill="#A3B6BD" d="M2203.963,537.442c-12.004,0-17.178,4.486-17.178,4.486l-0.385,1.95
				c6.238,4.483,14.316,4.638,17.961,4.638c6.908,0,14.049-2.538,17.962-5.311l-0.248-1.924
				C2222.075,541.281,2218.266,537.442,2203.963,537.442z"/>
			<linearGradient id="SVGID_7_" gradientUnits="userSpaceOnUse" x1="2191.2646" y1="541.1396" x2="2183.981" y2="604.5845">
				<stop  offset="0.0802" style="stop-color:#D1E0E6"/>
				<stop  offset="0.5027" style="stop-color:#CFD4D4"/>
				<stop  offset="1" style="stop-color:#AFC0CC"/>
			</linearGradient>
			<path fill="url(#SVGID_7_)" d="M2191.357,571.939c0.531-2.422,0.721-6.967-1.57-8.725c-0.494-0.379-3.432,0.757-4.908,1.305
				c0.304,1.734,0.6,3.477,1.33,5.168C2186.877,571.229,2190.273,576.88,2191.357,571.939z"/>
			<linearGradient id="SVGID_8_" gradientUnits="userSpaceOnUse" x1="2193.2803" y1="541.3721" x2="2185.9968" y2="604.8138">
				<stop  offset="0.0802" style="stop-color:#D1E0E6"/>
				<stop  offset="0.5027" style="stop-color:#CFD4D4"/>
				<stop  offset="1" style="stop-color:#AFC0CC"/>
			</linearGradient>
			<path fill="url(#SVGID_8_)" d="M2193.039,599.113c-2.136-4.529-4.273-9.162-6.15-13.811c-0.461,0.094-0.919,0.195-1.373,0.302
				c-0.911,1.886-2.244,3.417-4.533,4.68c-1.363,0.752-2.75,1.466-4.148,2.16l-1.334,6.768c0,0,8.687,6.84,21.347,8.125
				C2195.85,604.451,2194.236,601.655,2193.039,599.113z"/>
			<linearGradient id="SVGID_9_" gradientUnits="userSpaceOnUse" x1="2181.2871" y1="564.8428" x2="2213.6311" y2="595.6055">
				<stop  offset="0.0963" style="stop-color:#48616E"/>
				<stop  offset="0.4973" style="stop-color:#84959E"/>
				<stop  offset="1" style="stop-color:#8697A0"/>
			</linearGradient>
			<path opacity="0.55" fill="url(#SVGID_9_)" d="M2192.237,539.193c-0.365,2.243-10.491,59.2-11.661,63.165
				c1.229,0.645,2.651,1.323,4.256,1.971c1.622-12.654,6.135-57.035,9.1-65.649C2193.326,538.842,2192.762,539.016,2192.237,539.193
				z"/>
			<path opacity="0.55" fill="#84959E" d="M2184.238,583.639c-1.776,9.613-3.256,17.346-3.662,18.719
				c1.229,0.645,2.651,1.323,4.256,1.971c0.54-4.211,1.4-11.939,2.417-20.689H2184.238z"/>
			<linearGradient id="SVGID_10_" gradientUnits="userSpaceOnUse" x1="2195.4697" y1="549.9316" x2="2227.8135" y2="580.6942">
				<stop  offset="0.0963" style="stop-color:#48616E"/>
				<stop  offset="0.4973" style="stop-color:#84959E"/>
				<stop  offset="1" style="stop-color:#8697A0"/>
			</linearGradient>
			<path opacity="0.55" fill="url(#SVGID_10_)" d="M2216.787,540.181c-1.102,0.164-1.094,0.136-2.204,0.326
				c0.515,4.25,5.944,62.722,6.015,63.351c1.756-0.58,3.178-1.146,4.338-1.67C2223.67,598.058,2216.787,540.181,2216.787,540.181z"
				/>
			<linearGradient id="SVGID_11_" gradientUnits="userSpaceOnUse" x1="2208.0625" y1="550.9385" x2="2205.1875" y2="594.4471">
				<stop  offset="0.0963" style="stop-color:#48616E"/>
				<stop  offset="0.4973" style="stop-color:#84959E"/>
				<stop  offset="1" style="stop-color:#8697A0"/>
			</linearGradient>
			<path opacity="0.55" fill="url(#SVGID_11_)" d="M2207.889,544.871c-0.084-1.039-0.168-2.076-0.237-3.115
				c-1.555,0.314-3.165,0.47-4.771,0.503c-0.16,0.003-0.324,0.004-0.49,0.003c-0.098,1.345-0.216,2.688-0.344,4.03
				c-0.641,6.721-3.223,48.771-5.523,61.01c3.424,0.376,7.139,0.354,11.062-0.327c1.679-0.291,3.215-0.594,4.648-0.902
				C2212.154,601.405,2208.328,560.627,2207.889,544.871z"/>
			<path fill="#E7ECEE" d="M2204.896,547.9c5.861-0.01,12.795-1.668,17.336-5.588l-0.157-1.031c0,0-3.81-3.839-18.112-3.839
				c-12.004,0-17.178,4.486-17.178,4.486l-0.191,0.972C2192.135,546.871,2197.254,547.914,2204.896,547.9z"/>
			<path fill="#535757" d="M2206.164,537.479c-1.193,0.714-2.541,1.041-4.035,1.455c-4.281,1.188-1.793,4.952,0.606,6.223
				c0.709,0.375,1.388,0.648,2.071,0.885c1.006,0.275,2.015,0.542,3.017,0.829c0.104,0.03,0.177,0.086,0.26,0.133
				c7.522-0.718,11.708-3.509,13.978-5.735C2221.918,541.129,2218.389,537.839,2206.164,537.479z"/>
			<path fill="#8EA2AD" d="M2200.992,543.293c-3.354-3.208,2.992-4.625,7.797-5.69c-1.457-0.102-3.061-0.161-4.826-0.161
				c-12.004,0-17.178,4.486-17.178,4.486l-0.01,0.051c3.044,2.344,8.834,5.373,18.338,5.196c3.198-0.06,5.873-0.476,8.125-1.091
				C2210.049,545.953,2203.771,545.953,2200.992,543.293z"/>
			<path fill="#C7D1D2" d="M2218.481,547.175c0,0-0.487-15.599-7.104-25.286c-1.867-2.734-5.103-4.208-8.373-3.692
				c-1.238,0.195-2.451,0.529-3.281,1.091c0,0,4.384-1.006,6.899,1.509s7.403,16.316,7.619,26.378
				C2214.241,547.175,2217.029,546.063,2218.481,547.175z"/>
			<path opacity="0.55" fill="#A3B6BD" d="M2214.49,545.447c0.038,0.52,0.074,1.038,0.084,1.537c0,0,2.339-0.933,3.558,0
				c0,0-0.019-0.568-0.097-1.533C2217.062,544.92,2215.383,544.809,2214.49,545.447z"/>
			<ellipse fill="#B7B8BB" cx="2216.085" cy="550.199" rx="4.122" ry="3.969"/>
			<ellipse fill="#E3E4E5" cx="2216.361" cy="549.654" rx="3.846" ry="3.701"/>
			<ellipse fill="#91A2A3" cx="2216.361" cy="549.654" rx="2.12" ry="2.041"/>
			<path opacity="0.55" fill="#91A2A3" d="M2216.361,547.613c-0.562,0-1.068,0.214-1.447,0.557c0.336-0.215,0.738-0.342,1.171-0.342
				c1.171,0,2.12,0.914,2.12,2.042c0,0.587-0.261,1.112-0.672,1.483c0.57-0.365,0.948-0.989,0.948-1.699
				C2218.481,548.527,2217.532,547.613,2216.361,547.613z"/>
			<path fill="#91A2AC" d="M2172.77,566.484l14.949-4.695c0,0,2.013-0.383,2.779,1.15c0.768,1.533-0.383,2.635-0.383,2.635
				l-16.1,3.498L2172.77,566.484z"/>
			<path opacity="0.65" fill="#5F747F" d="M2174.639,567.62l0.404,0.841l14.683-3.189c0,0,0.847-0.827,0.491-2.02
				C2187.383,564.223,2176.914,566.912,2174.639,567.62z"/>
			
				<ellipse transform="matrix(0.9941 0.1083 -0.1083 0.9941 76.2893 -233.3395)" fill="#687C87" cx="2185.688" cy="585.46" rx="4.498" ry="8.434"/>
			<path fill="#8BA3AA" d="M2156.368,558.052c0,0,16.929,24.054,27.47,33.542c0,0,3.234-0.623,4.097-6.134s-1.581-7.163-1.581-7.163
				l-25.516-24.294L2156.368,558.052z"/>
			<linearGradient id="SVGID_12_" gradientUnits="userSpaceOnUse" x1="2158.897" y1="568.1289" x2="2187.6953" y2="568.1289">
				<stop  offset="0.0802" style="stop-color:#D1E0E6"/>
				<stop  offset="1" style="stop-color:#AFC0CC"/>
			</linearGradient>
			<path fill="url(#SVGID_12_)" d="M2187.695,581.657c-0.521-1.55-1.342-2.114-1.342-2.114l-25.516-24.295l-1.941-0.646
				C2161.051,556.167,2181.766,577.793,2187.695,581.657z"/>
			<path opacity="0.65" fill="#6E818C" d="M2156.416,555.021l-0.302,1.645c0,0,16.929,24.054,27.47,33.541
				c0,0,2.152-0.5,3.162-3.543C2186.746,586.664,2159.901,559.455,2156.416,555.021z"/>
			<path fill="#6E818C" d="M2158.187,541.89l3.093,12.533c0,0,0.229,1.856-0.801,3.532c-0.757,1.233-2.485,2.371-2.485,2.371
				l-13.615,1.42L2158.187,541.89z"/>
			<path fill="#C7D1D2" d="M2159.891,544.158c-0.256-1.825-1.643-3.246-3.44-3.663c-2.79-0.646-7.776-0.383-12.773,6.887
				c-3.287,4.781-4.105,12.252-1.333,14.308c1.605,1.19,4.388,0.893,7.087-0.702
				C2155.225,557.563,2160.659,549.629,2159.891,544.158z"/>
			<path fill="#B1BEC1" d="M2158.514,544.728c-0.224-1.6-1.438-2.844-3.013-3.208c-2.444-0.566-6.811-0.336-11.188,6.031
				c-2.878,4.188-3.595,10.73-1.168,12.531c1.406,1.043,3.843,0.781,6.208-0.615
				C2154.428,556.467,2159.187,549.519,2158.514,544.728z"/>
			<path opacity="0.55" fill="#B1BEC1" d="M2146.102,552.729c-1.447-0.865-2.458-1.985-3.164-3.27
				c-2.286,4.376-2.655,10.104-0.351,11.813c1.494,1.108,4.083,0.832,6.595-0.653c3.514-2.077,6.875-5.937,8.599-9.783
				C2154.911,553.652,2149.709,554.887,2146.102,552.729z"/>
			<g>
				<path fill="#6E818C" d="M2155.984,544.004c-0.025,0.447-0.417,0.819-0.874,0.83c-0.458,0.011-0.81-0.346-0.785-0.795
					c0.026-0.45,0.419-0.822,0.878-0.83C2155.66,543.2,2156.009,543.557,2155.984,544.004z"/>
				<path fill="#6E818C" d="M2156.415,548.396c-0.025,0.447-0.415,0.823-0.872,0.84c-0.457,0.017-0.808-0.334-0.782-0.783
					c0.025-0.45,0.418-0.826,0.875-0.84C2156.092,547.599,2156.44,547.949,2156.415,548.396z"/>
				<path fill="#6E818C" d="M2153.673,552.924c-0.026,0.451-0.422,0.835-0.885,0.857c-0.464,0.023-0.821-0.326-0.795-0.779
					c0.026-0.453,0.425-0.838,0.889-0.857C2153.345,552.124,2153.699,552.473,2153.673,552.924z"/>
				<path fill="#6E818C" d="M2149.02,553.293c-0.026,0.457-0.433,0.846-0.909,0.869c-0.477,0.023-0.843-0.33-0.816-0.789
					c0.026-0.459,0.436-0.849,0.913-0.869C2148.683,552.482,2149.046,552.836,2149.02,553.293z"/>
				<path fill="#6E818C" d="M2151.811,549.098c-0.026,0.453-0.426,0.835-0.895,0.853c-0.47,0.018-0.83-0.337-0.804-0.792
					c0.026-0.456,0.429-0.838,0.898-0.854C2151.479,548.289,2151.837,548.645,2151.811,549.098z"/>
				<path fill="#6E818C" d="M2150.903,545.115c-0.026,0.453-0.429,0.832-0.899,0.844c-0.472,0.013-0.834-0.348-0.808-0.804
					s0.431-0.835,0.903-0.845C2150.569,544.301,2150.929,544.66,2150.903,545.115z"/>
				<path fill="#6E818C" d="M2149.669,556.84c-0.026,0.457-0.431,0.85-0.905,0.877c-0.476,0.029-0.84-0.32-0.813-0.779
					c0.026-0.458,0.434-0.852,0.909-0.877C2149.333,556.035,2149.696,556.384,2149.669,556.84z"/>
				<path fill="#6E818C" d="M2147.176,549.262c-0.027,0.459-0.438,0.846-0.918,0.863c-0.482,0.019-0.853-0.342-0.826-0.803
					s0.44-0.848,0.922-0.864C2146.835,548.442,2147.202,548.802,2147.176,549.262z"/>
				<path fill="#6E818C" d="M2145.16,553.998c-0.027,0.463-0.442,0.857-0.928,0.881c-0.488,0.025-0.862-0.331-0.835-0.795
					c0.027-0.465,0.445-0.859,0.933-0.882C2144.815,553.18,2145.187,553.536,2145.16,553.998z"/>
				<path fill="#6E818C" d="M2145.328,558.344c-0.027,0.462-0.441,0.861-0.927,0.892c-0.487,0.03-0.861-0.321-0.833-0.785
					s0.445-0.863,0.932-0.892C2144.984,557.53,2145.355,557.882,2145.328,558.344z"/>
			</g>
			<g>
				<path fill="#80959F" d="M2207.585,603.551c-16.037,2.783-28.686-5.336-31.495-7.328l-0.59,2.989c0,0,13.857,10.925,32.085,7.763
					s21.966-7.619,21.966-7.619l-0.393-3.053C2227.826,597.434,2222.669,600.935,2207.585,603.551z"/>
				<path fill="#DAE4E7" d="M2207.585,604.803c-16.509,2.864-29.421-5.819-31.712-7.484l-0.206,1.047
					c1.614,1.206,14.849,10.598,31.918,7.636c16.499-2.862,21.126-6.785,21.854-7.503l-0.137-1.069
					C2228.234,598.396,2223.293,602.078,2207.585,604.803z"/>
			</g>
			<path opacity="0.65" fill="#8E9EA9" d="M2199.723,604.09c-12.189-0.365-21.303-6.215-23.633-7.867l-0.326,1.655l-0.097,0.487
				l-0.167,0.847c0,0,10.786,8.496,25.842,8.329C2200.681,606.447,2200.145,605.297,2199.723,604.09z"/>
			<path opacity="0.55" fill="#C7D1D2" d="M2158.716,550.376c0.343-0.776,0.621-1.549,0.827-2.311
				c-3.414-1.478-7.337-2.376-10.77-3.573c-0.688-0.24-1.382-0.473-2.073-0.709c-0.455,0.434-0.914,0.92-1.375,1.458
				C2149.795,546.936,2154.25,548.668,2158.716,550.376z"/>
			<path opacity="0.55" fill="#C7D1D2" d="M2159.935,545.657c0.026-0.514,0.024-1.019-0.043-1.499
				c-0.256-1.825-1.643-3.246-3.44-3.663c-1.761-0.408-4.398-0.448-7.36,1.402C2152.696,543.171,2156.294,544.462,2159.935,545.657z
				"/>
			<path opacity="0.55" fill="#E3E4E5" d="M2213.196,550.186c2.063-0.888,4.031-1.954,6.014-2.998
				c-0.704-0.752-1.714-1.234-2.849-1.234c-2.123,0-3.846,1.656-3.846,3.701c0,0.262,0.03,0.518,0.084,0.764
				C2212.798,550.338,2213,550.27,2213.196,550.186z"/>
			<path opacity="0.55" fill="#E3E4E5" d="M2215.214,553.055c-0.055,0.023-0.11,0.042-0.165,0.065
				c0.411,0.144,0.85,0.235,1.313,0.235c1.764,0,3.233-1.148,3.688-2.707C2218.46,551.498,2216.869,552.343,2215.214,553.055z"/>
			
				<ellipse transform="matrix(0.9912 0.1326 -0.1326 0.9912 93.1077 -286.3096)" opacity="0.55" fill="#F6F6F7" cx="2195.614" cy="555.717" rx="3.582" ry="3.137"/>
			
				<ellipse transform="matrix(0.9854 0.1705 -0.1705 0.9854 127.9233 -366.0636)" opacity="0.55" fill="#F6F6F7" cx="2195.866" cy="561.976" rx="1.713" ry="1.26"/>
			
				<ellipse transform="matrix(0.9683 0.2497 -0.2497 0.9683 205.2581 -536.189)" opacity="0.55" fill="#F6F6F7" cx="2215.777" cy="540.838" rx="1.214" ry="1.05"/>
		</g>
	</g>
	<radialGradient id="SVGID_13_" cx="2166.6729" cy="517.8755" r="95.3342" gradientUnits="userSpaceOnUse">
		<stop  offset="0" style="stop-color:#FFE69C"/>
		<stop  offset="1" style="stop-color:#825C82"/>
	</radialGradient>
	<path opacity="0.32" fill="url(#SVGID_13_)" d="M2227.955,586.959l-0.725-5.627c2.283-2.294,6.855-7.063,10.082-11.589
		c3.208-4.498,7.5-12.666,7.17-20.077c-0.01-0.219-0.015-0.438-0.032-0.654c-0.022-0.271-0.058-0.537-0.094-0.805
		c-0.038-0.289-0.082-0.575-0.136-0.86c-0.045-0.229-0.092-0.458-0.146-0.686c-0.08-0.336-0.179-0.667-0.284-0.997
		c-0.058-0.18-0.108-0.361-0.175-0.539c-0.047-0.129-0.1-0.258-0.15-0.386c0.049,0.081,0.106,0.157,0.152,0.239
		c-0.034-0.09-0.072-0.171-0.108-0.26l0,0c-0.726-1.801-1.671-3.115-2.745-4.046c-0.014-0.012-0.027-0.023-0.041-0.035
		c-0.543-0.464-1.117-0.832-1.714-1.116c-0.026-0.013-0.053-0.026-0.079-0.038c-0.292-0.135-0.588-0.252-0.889-0.35
		c-0.023-0.007-0.047-0.013-0.07-0.021c-0.283-0.088-0.568-0.161-0.856-0.219c-0.032-0.006-0.063-0.015-0.095-0.021
		c-0.291-0.056-0.584-0.095-0.879-0.122c-0.059-0.006-0.119-0.01-0.179-0.014c-0.295-0.022-0.591-0.035-0.886-0.032
		c-3.053,0.037-7.01,2.532-8.728,5.113c-0.7,1.052-2.251,3.506-3.278,5.187l-0.86-6.678c0.007-0.006,0.016-0.01,0.022-0.016
		l-0.157-1.031c0,0-0.021-0.021-0.059-0.054c-0.021-0.021-0.055-0.047-0.097-0.081c-0.017-0.014-0.027-0.023-0.048-0.039
		c-0.054-0.043-0.124-0.095-0.205-0.153c-0.017-0.012-0.027-0.021-0.045-0.033c-0.206-0.145-0.485-0.324-0.862-0.529
		c-0.025-0.014-0.057-0.029-0.083-0.042c-0.159-0.085-0.329-0.172-0.52-0.263c-0.097-0.046-0.212-0.095-0.317-0.143
		c-0.136-0.061-0.268-0.122-0.418-0.185c-0.143-0.059-0.303-0.119-0.459-0.179c-0.137-0.052-0.269-0.104-0.416-0.158
		c-0.186-0.066-0.387-0.132-0.59-0.199c-0.126-0.042-0.246-0.083-0.379-0.124c-0.902-5.257-2.688-12.068-6.201-17.212
		c-1.867-2.734-5.103-4.208-8.373-3.692c-1.238,0.195-2.451,0.529-3.281,1.091c0,0-1.947,1.633-4,5.522l0,0l0,0
		c-1.487,2.82-3.025,6.826-3.922,12.294l0,0v0c-0.039,0.239-0.074,0.486-0.111,0.731c-0.08,0.529-0.154,1.072-0.223,1.628
		c-3.193,1.19-4.682,2.465-4.682,2.465l-0.191,0.972l0,0l-0.193,0.979l0,0l-3.848,19.534l-5.905,1.854
		c0.108-1.655,0.203-3.377,0.274-5.179c0.167-4.25,0.293-8.321,0.387-12.039l0,0c0-0.006,0-0.01,0-0.016
		c0.014-0.522,0.025-1.037,0.038-1.545c0.003-0.15,0.007-0.296,0.011-0.443c0.008-0.352,0.016-0.699,0.023-1.043
		c0.004-0.182,0.008-0.359,0.012-0.539c0.007-0.322,0.014-0.642,0.02-0.957c0.004-0.163,0.007-0.325,0.01-0.486
		c0.006-0.29,0.012-0.576,0.018-0.86c0.004-0.201,0.008-0.403,0.012-0.601c0.006-0.352,0.012-0.695,0.018-1.036
		c0.002-0.072,0.003-0.148,0.004-0.219c0.008-0.429,0.015-0.846,0.021-1.255c0.002-0.153,0.004-0.3,0.006-0.45
		c0.004-0.242,0.008-0.483,0.012-0.718c0.002-0.171,0.004-0.338,0.007-0.505c0.003-0.24,0.007-0.475,0.01-0.706
		c0.001-0.135,0.003-0.269,0.005-0.4c0.003-0.215,0.006-0.425,0.008-0.633c0.002-0.092,0.002-0.189,0.004-0.279
		c3.053-1.096,5.963-2.032,8.576-2.711c0,0,8.151-13.116,14.676-28.735c0.006-0.016,0.013-0.031,0.02-0.047
		c0.096-0.229,0.189-0.459,0.284-0.688c0.663-0.101,1.327-0.193,1.994-0.264c0.024-0.003,0.049-0.005,0.073-0.008
		c0.822-0.079,2.684,0.074,3.328-0.686c0.006-0.006,0.008-0.014,0.014-0.02c0.045-0.049,0.078-0.102,0.108-0.156
		c0.022-0.041,0.048-0.081,0.062-0.124c0.018-0.053,0.021-0.11,0.027-0.167c0.004-0.043,0.021-0.084,0.018-0.13
		c0.016-1.155-1.963-2.393-3.543-3.05c0.059-0.064,0.113-0.124,0.174-0.19c0.012-0.013,0.023-0.026,0.035-0.04
		c0.292-0.321,0.611-0.671,0.941-1.035c0.451-0.496,0.934-1.025,1.443-1.584c0.086-0.095,0.172-0.189,0.26-0.285
		c0.078-0.086,0.156-0.172,0.236-0.259c0.175-0.193,0.355-0.392,0.536-0.589c0.086-0.094,0.171-0.187,0.257-0.282l0,0
		c0.041-0.045,0.083-0.09,0.124-0.136c0.19-0.209,0.384-0.421,0.578-0.634c0.097-0.107,0.195-0.214,0.294-0.322
		c0.231-0.254,0.465-0.51,0.701-0.769c0.021-0.023,0.041-0.046,0.063-0.069c0.281-0.309,0.566-0.62,0.852-0.933
		c0.008-0.01,0.018-0.02,0.026-0.03c0.207-0.226,0.415-0.454,0.622-0.681c0.151-0.166,0.303-0.332,0.455-0.498
		c0.139-0.152,0.277-0.304,0.416-0.456c0.137-0.15,0.275-0.301,0.412-0.451c0.199-0.218,0.398-0.436,0.597-0.652
		c0.077-0.085,0.155-0.17,0.233-0.255c0.201-0.219,0.399-0.437,0.598-0.653c0.104-0.113,0.209-0.228,0.313-0.34
		c0.144-0.157,0.285-0.311,0.427-0.466c0.157-0.172,0.315-0.345,0.471-0.514c0.081-0.088,0.16-0.174,0.24-0.262
		c0.187-0.204,0.374-0.407,0.556-0.605c0.127-0.138,0.25-0.271,0.373-0.406c0.125-0.135,0.25-0.271,0.371-0.404
		c0.106-0.115,0.207-0.225,0.311-0.337c0.163-0.177,0.327-0.355,0.483-0.524c0.011-0.012,0.021-0.023,0.032-0.035
		c0.219-0.237,0.431-0.466,0.635-0.687c0.036-0.04,0.07-0.076,0.105-0.115c1.248-1.35,2.203-2.37,2.656-2.833
		c0.002-0.003,0.006-0.007,0.01-0.01c0.072-0.075,0.131-0.133,0.177-0.176c0.06-0.056,0.101-0.095,0.11-0.096
		c0.135-0.012,2.456-1.133,4.451-2.106c0.06,0.083,0.117,0.182,0.178,0.257c0.067,0.083,0.135,0.142,0.203,0.215
		c0.101,0.109,0.201,0.226,0.303,0.314c0.08,0.069,0.159,0.117,0.238,0.174c0.089,0.063,0.178,0.135,0.265,0.184
		c0.095,0.054,0.187,0.087,0.278,0.126c0.07,0.029,0.14,0.066,0.208,0.087c0.11,0.035,0.216,0.053,0.321,0.07
		c0.046,0.007,0.092,0.021,0.137,0.025c0.125,0.013,0.242,0.012,0.357,0.005c0.02-0.001,0.041,0,0.061-0.001
		c0.132-0.012,0.255-0.033,0.37-0.064l0,0l0,0c0.028-0.007,0.062-0.01,0.089-0.019l18.668-6.668c0,0,2.91-3.881-1.689-5.511
		l-19.334,4.72c0,0-1.689,1.147-1.752,3.07c-2.278,0.81-5.229,1.937-5.748,2.512c-0.215,0.24-1.767,1.749-3.973,3.878
		c-2.48,2.396-5.791,5.575-8.958,8.615c-0.704,0.675-1.401,1.344-2.08,1.995c-0.321,0.308-0.638,0.611-0.95,0.911l0,0
		c-1.775,1.703-3.385,3.244-4.625,4.433c-0.048-0.008-0.097-0.016-0.145-0.024c-0.142-0.023-0.289-0.048-0.435-0.072
		c-0.301-0.049-0.606-0.1-0.922-0.151c-0.124-0.021-0.25-0.041-0.376-0.062c-0.352-0.058-0.709-0.116-1.074-0.175
		c-0.123-0.02-0.244-0.04-0.367-0.06c-6.633-1.077-15.496-2.468-22.49-3.493c0.602-1.132,1.411-2.651,2.342-4.395
		c4.061-7.605,10.315-19.258,10.654-19.5c0.228-0.163,1.418-1.103,2.797-2.144c0.037,0.035,0.073,0.063,0.109,0.095
		c0.051,0.044,0.102,0.091,0.152,0.13c0.043,0.034,0.085,0.061,0.128,0.09c0.05,0.034,0.099,0.07,0.148,0.1
		c0.044,0.026,0.089,0.047,0.133,0.07c0.048,0.024,0.095,0.05,0.142,0.07c0.047,0.02,0.092,0.034,0.139,0.05
		c0.045,0.016,0.09,0.033,0.135,0.045c0.047,0.013,0.094,0.021,0.142,0.031c0.043,0.009,0.087,0.019,0.13,0.025
		c0.049,0.007,0.098,0.01,0.146,0.013c0.041,0.003,0.082,0.007,0.123,0.008c0.05,0.001,0.1-0.001,0.148-0.003
		c0.04-0.001,0.08-0.002,0.119-0.006c0.051-0.004,0.103-0.012,0.153-0.019c0.037-0.005,0.075-0.01,0.112-0.017
		c0.053-0.01,0.106-0.021,0.16-0.033c0.033-0.007,0.067-0.015,0.102-0.023c0.057-0.014,0.113-0.03,0.17-0.047
		c0.029-0.008,0.059-0.017,0.088-0.025c0.063-0.02,0.125-0.04,0.188-0.061c0.021-0.007,0.043-0.015,0.064-0.022
		c0.111-0.039,0.224-0.08,0.334-0.122c1.39-0.527,14.757-7.861,14.757-7.861s2.396-4.828-2.563-5.367l-14.521,6.169l0,0
		l-1.269,0.539c0,0-1.549,1.075-1.309,3.046c0.01,0.082,0.031,0.168,0.049,0.253c-1.695,0.895-3.563,1.909-3.914,2.211
		c-0.004,0.003-0.014,0.016-0.018,0.02l0,0c0,0-0.001,0.001-0.001,0.001c-0.314,0.312-2.956,4.148-6.145,8.834
		c-0.011,0.016-0.022,0.033-0.033,0.049c-0.312,0.458-0.629,0.925-0.95,1.397c-0.256-0.099-0.783,0.167-1.295,0.505
		c-0.059-0.634-0.324-1.031-1.028-0.694c-0.656,0.313-1.521,0.764-2.394,1.327c0.109-0.268,0.175-0.479,0.18-0.596
		c0.041-0.857,0.889-4.237,0.889-4.237c-0.215-0.244-0.92,0.323-1.739,1.19c0.284-1.462,0.59-3.297,0.329-3.3
		c-0.219-0.002-0.919,0.467-1.672,1.127c0.237-1.89,0.242-3.837-0.173-5.648c-0.097-0.418-0.177-0.77-0.249-1.084
		c-0.036-0.16-0.07-0.306-0.102-0.44c-0.019-0.077-0.039-0.164-0.055-0.233c-0.041-0.169-0.078-0.313-0.111-0.436
		c-0.012-0.047-0.023-0.084-0.035-0.124c-0.022-0.075-0.043-0.14-0.063-0.192c-0.011-0.03-0.022-0.063-0.033-0.086
		c-0.025-0.057-0.049-0.099-0.072-0.117c-0.008-0.005-0.016,0-0.021-0.001c-0.012-0.002-0.023-0.01-0.035-0.002
		c0,0.005,0,0.01,0.001,0.015c-0.28,0.174-0.562,3.234-2.855,6.438c-0.362,0.505-0.678,1.016-0.97,1.528
		c-0.105-0.324-0.238-0.662-0.445-1.031c-0.474-0.846-0.785-3.022-0.785-3.022s-0.407,0.266-0.976,0.8
		c-0.282-0.765-0.52-1.374-0.603-1.496c-0.105-0.156-0.523,0.666-0.977,1.682c-0.224-0.739-0.467-1.242-0.677-0.985
		c0,0-0.483,0.654-1.062,1.548c0.14-2.53,0.687-4.282-0.007-3.797c-0.695,0.486-1.321,3.457-2.39,6.444
		c-0.4-0.863-0.805-1.302-1.081-0.95c0,0-0.295,0.314-0.699,0.865c-0.361-0.511-0.779-0.962-1.088-1.132
		c-0.938-2.438-0.929-4.31-1.078-4.525c0.005-0.024,0.005-0.052,0.011-0.076c-0.058-0.065-0.147,0.137-0.338,0.677
		c-0.006,0.016-0.013,0.037-0.019,0.054c-0.039,0.111-0.083,0.237-0.13,0.377c-0.07,0.204-0.148,0.432-0.241,0.702
		c-0.494,1.42-0.811,2.673-1.011,3.804c-0.122-0.183-0.237-0.367-0.367-0.549c-2.596-3.625-2.916-7.104-3.232-7.308l0,0l0,0
		c-0.042-0.027-0.084,0.006-0.132,0.103c-0.002,0.003-0.004,0.007-0.005,0.011c-0.047,0.101-0.101,0.266-0.164,0.502
		c-0.002,0.007-0.004,0.016-0.006,0.023c-0.031,0.116-0.064,0.248-0.101,0.398c-0.002,0.007-0.003,0.014-0.005,0.021
		c-0.084,0.35-0.186,0.792-0.31,1.337c-0.049,0.214-0.1,0.436-0.156,0.682c-0.103,0.447-0.179,0.903-0.238,1.362
		c-0.132-0.031-0.245-0.008-0.326,0.094c0,0,0.039,1.034,0.063,2.301c-0.842-1.083-1.787-1.976-2.07-2.012
		c-0.274-0.036-0.222,1.935-0.137,3.51c-0.733-1.03-1.39-1.728-1.65-1.503c0,0,0.188,1.736,0.278,3.115
		c-0.01,0.003-0.018,0.009-0.028,0.012c-0.426-0.575-0.796-1.161-1.114-1.731c0.192-0.447,0.279-0.948,0.635-1.321
		c-0.633,0.56-1.144-0.288-1.582-0.627c-0.008-0.007-0.017-0.01-0.025-0.017c-0.6-1.346-0.918-2.248-1.173-2.005
		c0.159-1.133,0.208-2.346,1.37-2.893c-1.517,0.457-2.748,0.455-4.033,1.665c-0.06,0.056-0.104,0.125-0.162,0.183
		c-0.119-1.272-0.742-2.402-1.498-3.392c0.008,0.904-0.489,1.966-0.918,3.016c-0.303,0.056-0.594,0.146-0.841,0.262
		c0.81-0.681,1.307-2.24,0.424-3.041c-1.17-1.061-2.31,0.436-3.01,1.204c0.732-1.042,0.783-3.121-0.278-3.895
		c-1.656-1.209-3.417-0.163-3.607,1.743c-0.012-0.006-0.022-0.014-0.034-0.02c-0.003-0.822-0.046-1.576-0.536-2.048
		c0.495-0.509,0.81-1.158,0.768-2.062c-0.075-1.607-1.132-2.774-0.416-4.459c-0.837,1.19-2.05,2.215-2.606,3.61
		c-0.023,0.059-0.037,0.123-0.057,0.183c-0.001-0.008-0.002-0.02-0.003-0.027c-0.234-1.593-1.381-2.637-2.677-3.457
		c0.075,1.069-0.075,2.125-0.031,3.185c-0.553-0.17-1.188-0.141-1.757,0.039c-0.047,0.015-0.088,0.039-0.133,0.056
		c0.168-1.298-0.87-2.127-2.098-1.974c-1.279,0.159-2.715,0.945-2.848,2.305c-0.074,0.751,0.152,1.465,0.602,2.021
		c-0.029,0.003-0.052,0.013-0.08,0.017c-0.079-0.154-0.168-0.287-0.287-0.363c-0.515-0.329-1.112-0.414-1.698-0.443
		c-1.195-0.06-3.446,0.373-3.774,1.769c-0.172,0.732,0.151,1.303,0.661,1.694c-0.077,0.291-0.086,0.61-0.018,0.945
		c-0.219-0.285-0.424-0.59-0.813-0.734c-0.147-0.055-0.313-0.068-0.476-0.085c0.158-0.427,0.318-0.875,0.461-1.285
		c0.27-0.772,0.529-1.545,0.438-2.389c-0.193-1.8-2.353-2.508-3.938-2.827c0.904,0.993,0.435,2.69,0.634,3.934
		c0.124,0.776,0.438,1.358,0.814,1.9c-0.729-0.339-1.573-0.521-2.228-0.307c-1.364,0.447-1.007,1.829-1.711,2.726
		c-0.189-0.037-0.387-0.055-0.598-0.029c-2.104,0.26-2.121,2.449-1.091,3.814c-0.019,0.006-0.035,0.015-0.053,0.022
		c-0.556-0.675-1.081-1.424-1.936-1.739c-0.044-0.016-0.094-0.014-0.14-0.025c-0.214-0.203-0.421-0.421-0.602-0.69
		c0.078,0.21,0.112,0.425,0.13,0.642c-1.15,0.052-2.532,1.126-2.934,2.056c-0.7,1.618,1.024,2.171,2.234,2.232
		c0.271,0.014,0.525-0.004,0.783-0.016c0.065,0.143,0.126,0.287,0.203,0.42c-0.109,0.085-0.209,0.173-0.304,0.264
		c-0.083,0.023-0.167,0.043-0.248,0.071c-0.375-0.091-0.729-0.13-1.012-0.05c-1.264,0.359-1.559,1.783-3.222,1.87
		c0.312,0.45,0.96,0.959,1.693,1.345c-0.05,0.56,0.146,1.059,0.783,1.329c0.62,0.264,1.318,0.18,2.011-0.111
		c-0.156,0.315-0.176,0.808-0.229,1.476c0.145,0.173,0.055-0.034-0.004,0.156c0.06,0.025-1.73,0.056-1.676,0.092
		c-0.014,0.61,1.596,1.609,2.623,1.959c-0.337-0.045-0.69-0.013-1.029,0.086c-0.519-0.557-1.17-0.986-1.757-1.041
		c-1.606-0.151-2.803,0.333-4.376-0.451c0.897,1.35,1.482,3.141,3.067,3.856c0.587,0.265,1.036,0.27,1.437,0.174
		c0.015,0.04,0.023,0.079,0.041,0.119c0.463,1.02,1.475,1.109,2.313,0.711c-0.049,0.114-0.088,0.234-0.102,0.365
		c-2.87,0.865-4.381,1.613-4.382,1.614h0l0,0l0,0l1.54,4.388c0,0,0.06,0.012,0.149,0.03c0.299,0.06,1.057,0.21,2.13,0.413l0,0
		c0.048,0.009,0.097,0.019,0.146,0.028c0.123,0.412,0.256,0.861,0.398,1.343c0.354,1.279,0.783,2.769,1.268,4.33
		c0.045,0.157,0.091,0.317,0.137,0.477c-1.291,0.058-2.604,0.122-3.925,0.191l0,0c-0.005,0-0.011,0-0.017,0.001
		c-0.655,0.035-1.311,0.071-1.966,0.109c-0.021,0.001-0.043,0.002-0.064,0.004c-0.659,0.039-1.315,0.079-1.968,0.122
		c-0.029,0.002-0.058,0.004-0.087,0.006c-0.611,0.04-1.218,0.082-1.82,0.125c-0.056,0.004-0.112,0.008-0.167,0.012
		c-0.533,0.039-1.063,0.08-1.585,0.122v0c-0.001,0-0.003,0-0.004,0c-3.564,0.25-7.302,0.543-10.79,1.443
		c-0.044,0.011-0.09,0.021-0.134,0.032c-0.085,0.021-0.162,0.044-0.245,0.065c-0.003,0-0.007,0.001-0.01,0.002
		c-0.081,0.021-0.163,0.042-0.241,0.064c-0.097,0.027-0.194,0.053-0.287,0.081c-0.06,0.017-0.116,0.035-0.174,0.053
		c-0.565,0.167-1.184,0.373-1.683,0.712c-0.03,0.019-0.054,0.039-0.082,0.059c-0.027,0.019-0.061,0.037-0.086,0.056
		c-0.008,0.006-0.013,0.013-0.021,0.02c-0.038,0.029-0.064,0.059-0.098,0.088c-0.041,0.036-0.084,0.071-0.118,0.107l0,0l0,0
		c-0.039,0.042-0.067,0.084-0.098,0.126c-0.021,0.028-0.041,0.056-0.057,0.085c-0.014,0.024-0.034,0.048-0.045,0.073
		c-0.027,0.058-0.035,0.117-0.046,0.176c-0.066,0.246-0.05,0.508,0.031,0.757c0.115,0.505,0.435,0.809,1.128,1.091
		c0.85,0.382,1.831,0.57,2.71,0.802c0.003,0.001,0.007,0.002,0.01,0.002c0.815,0.216,1.623,0.453,2.432,0.687
		c0.435,0.914,0.916,1.93,1.436,3.037c0.189,0.404,0.384,0.819,0.582,1.244c0.792,1.698,1.648,3.552,2.521,5.476
		c0.218,0.481,0.438,0.966,0.657,1.455c3.295,7.328,6.671,15.346,7.704,19.568c0,0,5.357,2.97,15.511,7.079
		c0.002,0.041,0.004,0.079,0.007,0.121c0.007,0.121,0.015,0.248,0.022,0.373c0.009,0.15,0.018,0.301,0.027,0.456
		c0.009,0.154,0.018,0.313,0.027,0.472c0.007,0.125,0.015,0.252,0.022,0.38c0.009,0.162,0.018,0.327,0.027,0.491
		c0.007,0.135,0.015,0.27,0.022,0.406c0.01,0.178,0.02,0.355,0.029,0.535c0.007,0.133,0.014,0.268,0.021,0.402
		c0.009,0.164,0.018,0.328,0.026,0.494c0.007,0.137,0.014,0.275,0.021,0.413c0.042,0.786,0.083,1.587,0.123,2.392l0,0
		c0.064,1.275,0.126,2.554,0.185,3.788c-0.263,0.001-0.53,0.013-0.802,0.037c-0.01,0.001-0.019,0.001-0.029,0.002
		c-0.361,0.032-0.728,0.087-1.101,0.158c-0.013,0.003-0.025,0.005-0.038,0.008c-0.371,0.073-0.747,0.165-1.126,0.276h-0.002l0,0
		c-5.629,1.657-11.948,7.633-13.083,18.488l0,0l0,0c-0.15,1.437-0.212,2.954-0.167,4.563c0.002,0.069,0.007,0.141,0.009,0.211
		c0.022,0.666,0.064,1.348,0.124,2.044c0.016,0.185,0.03,0.369,0.049,0.556c0.077,0.785,0.169,1.58,0.295,2.402
		c0.075,0.49,0.162,0.969,0.252,1.441c0,0,0.001,0,0.002,0c0.001,0.009,0.002,0.018,0.004,0.025
		c-14.882,2.611-24.222,4.97-24.222,4.97s24.311,23.492,80.462,31.338c52.129,7.283,102.901-24.708,102.901-24.708
		S2242.166,590.723,2227.955,586.959z M2150.003,575.902c-8.404,0.384-16.554,1.035-24.249,1.836
		c-0.122-3.159-0.618-6.627-1.629-10.428c3.459-4.063,7.156-8.426,10.099-11.957c0.07-0.082,0.138-0.165,0.207-0.247
		c0.328-0.394,0.645-0.776,0.951-1.146c0.037-0.043,0.075-0.09,0.111-0.133c0.339-0.41,0.664-0.804,0.973-1.18
		c0.047-0.058,0.091-0.111,0.138-0.168c0.249-0.303,0.485-0.592,0.71-0.869c0.011-0.014,0.023-0.028,0.034-0.041
		c0.781,0.223,1.566,0.443,2.366,0.666c0,0,0.734-0.379,2.033-1.032c-1.539,4.253-1.506,8.927,0.597,10.486
		c1.497,1.11,4.02,0.911,6.543-0.415l0.653-0.068c2.911,4.775,6.252,9.95,9.658,14.594
		C2156.075,575.739,2153,575.766,2150.003,575.902z M2172.68,565.278l-11.4-10.855l-1.649-6.684c0.234-0.96,0.346-1.893,0.317-2.776
		c-0.004-0.273-0.019-0.543-0.056-0.805c-0.064-0.455-0.199-0.887-0.393-1.283c-0.016-0.031-0.037-0.06-0.053-0.091
		c3.557-1.597,7.317-3.221,11.044-4.726c0.476,3.086,1.028,7.186,1.459,11.906C2172.373,554.609,2172.68,559.84,2172.68,565.278z
		 M2138.626,489.177c0.664-0.125,1.048-0.198,1.048-0.198l0.166-0.459c0.489,0.798,1.001,1.736,1.491,2.845
		c0.272,0.618,0.562,1.28,0.856,1.959c-0.113,0.009-0.226,0.019-0.339,0.029C2140.786,490.776,2140.584,490.63,2138.626,489.177z
		 M2147.566,492.461c0.057,0.112,0.121,0.243,0.188,0.387c-0.081,0.007-0.165,0.014-0.246,0.021
		c-0.021-0.035-0.043-0.064-0.064-0.098c-0.048-0.288-0.101-0.585-0.157-0.889C2147.39,492.102,2147.486,492.303,2147.566,492.461z
		 M2135.627,492.898c0.061-0.166,0.12-0.333,0.182-0.495c0.009-0.024,0.019-0.046,0.029-0.07c0.163,0.297,0.349,0.577,0.559,0.839
		c0.115,0.144,0.236,0.283,0.363,0.417c0.057,0.061,0.118,0.117,0.177,0.176c-0.477,0.04-0.954,0.079-1.434,0.119l0.001-0.001
		c-0.074,0.006-0.149,0.012-0.223,0.019C2135.394,493.56,2135.509,493.223,2135.627,492.898z M2157.993,560.326
		c2.362,3.273,7.025,9.627,12.161,16.037c-1.51-0.121-3.016-0.225-4.514-0.311c-2.143-3.467-4.986-8.462-8.675-15.619
		L2157.993,560.326z M2180.684,572.898l-4.303-4.098c0.008-0.084,0.016-0.162,0.022-0.247l5.366-1.166L2180.684,572.898z
		 M2233.197,543.838c1.063-1.269,2.533-2.185,4.177-2.377c0.233-0.026,0.453-0.019,0.677-0.02c0.108,0.039,0.221,0.072,0.325,0.119
		c0.01,0.005,0.02,0.01,0.029,0.015c0.196,0.091,0.386,0.193,0.564,0.31c0.002,0.002,0.005,0.003,0.007,0.004
		c0.145,0.095,0.277,0.205,0.408,0.315c0.001,0.001,0.002,0.001,0.002,0.001c0.584,0.49,1.047,1.141,1.376,1.928
		c0.015,0.035,0.026,0.072,0.04,0.107c0.086,0.217,0.162,0.444,0.228,0.682c0.021,0.072,0.038,0.148,0.056,0.224
		c0.051,0.208,0.094,0.423,0.129,0.645c0.015,0.097,0.029,0.194,0.041,0.294c0.027,0.214,0.044,0.435,0.057,0.66
		c0.006,0.11,0.014,0.22,0.016,0.334c0.006,0.236-0.002,0.482-0.012,0.73c-0.005,0.107-0.004,0.21-0.012,0.319
		c-0.024,0.359-0.062,0.728-0.119,1.109c-0.133,0.896-0.313,1.754-0.506,2.602c0.005,0.001,0.009,0.005,0.014,0.006
		c-0.038,0.156-0.064,0.317-0.107,0.472c-2.739,9.995-11.143,18.254-14.369,21.139l-1.905-14.801
		C2226.295,554.085,2230.47,547.096,2233.197,543.838z M2137.645,469.553c-0.116-0.012-0.233-0.023-0.36-0.027
		c-0.009,0-0.017,0.001-0.025,0.001c0.135-0.212,0.223-0.454,0.292-0.707C2137.564,469.029,2137.599,469.279,2137.645,469.553z
		 M2131.199,549.756c-0.152,0.219-0.312,0.447-0.472,0.678c-0.023,0.034-0.047,0.068-0.071,0.102
		c-0.182,0.261-0.367,0.527-0.559,0.803c-0.068,0.098-0.137,0.195-0.207,0.297c-0.448,0.643-0.917,1.316-1.406,2.021
		c-0.066,0.095-0.133,0.191-0.2,0.288c-0.223,0.32-0.449,0.646-0.679,0.977c-0.013,0.019-0.026,0.037-0.039,0.057
		c-0.006,0.008-0.012,0.016-0.018,0.025l0,0c-1.684,2.424-3.526,5.08-5.33,7.695c-1.756-3.315-4.715-7.32-9.023-9.316l1.308-9.264
		C2119.336,545.914,2124.91,547.832,2131.199,549.756z M2213.098,538.089c-0.243-0.039-0.498-0.074-0.754-0.11
		c-0.17-0.024-0.348-0.046-0.523-0.068c-0.428-0.056-0.865-0.108-1.326-0.155c-0.17-0.017-0.349-0.031-0.521-0.047
		c-0.393-0.036-0.771-0.076-1.188-0.105c0.002,0,0.003,0,0.004,0c-0.117-0.008-0.249-0.012-0.367-0.019
		c-0.125-0.008-0.258-0.013-0.385-0.02c-0.182-0.01-0.369-0.02-0.557-0.029c-0.327-0.016-0.635-0.039-0.977-0.05
		c-0.104-0.003-0.22-0.003-0.324-0.006c-0.006,0-0.01,0-0.016-0.001v0c-0.709-0.021-1.434-0.037-2.201-0.037
		c-2.771,0-5.163,0.246-7.227,0.613c0.059-0.336,0.127-0.718,0.208-1.143l0,0c0.569-3.016,1.672-8.028,3.292-11.915l0,0
		c0.377-0.907,0.783-1.751,1.217-2.496c0.017-0.027,0.033-0.053,0.049-0.08c0.121-0.204,0.243-0.399,0.367-0.586
		c0.039-0.058,0.078-0.112,0.117-0.167c0.104-0.151,0.21-0.295,0.316-0.433c0.05-0.063,0.1-0.125,0.149-0.185
		c0.101-0.122,0.204-0.236,0.307-0.346c0.054-0.057,0.107-0.116,0.162-0.169c0.108-0.106,0.218-0.202,0.329-0.294
		c0.051-0.042,0.1-0.088,0.149-0.126c0.161-0.123,0.325-0.234,0.491-0.325l0.749-0.229c0.709,0.261,1.397,0.65,1.982,1.235
		C2208.428,522.601,2211.453,530.215,2213.098,538.089z M2121.688,461.873c-0.038,0.152-0.072,0.309-0.102,0.47
		c-0.045-0.13-0.08-0.258-0.113-0.384c0.012,0.006,0.022,0.016,0.034,0.022C2121.578,461.961,2121.628,461.909,2121.688,461.873z
		 M2103.885,465.857c0.07,0.172,0.135,0.349,0.151,0.562c-0.432-0.428-0.957-0.646-1.471-0.635
		c-0.033-0.076-0.068-0.151-0.111-0.221C2102.908,465.81,2103.366,466.033,2103.885,465.857z M2097.855,475.741
		c0.021,0.013,0.041,0.025,0.061,0.036c-0.038-0.001-0.078-0.002-0.113-0.001C2097.821,475.765,2097.837,475.752,2097.855,475.741z"
		/>
</g>
</svg>
