<svg width="287" height="187" viewBox="0 0 287 187" fill="none" xmlns="http://www.w3.org/2000/svg">
<g clip-path="url(#clip0_2_2)">
<path d="M12.3463 145.705C12.1484 144.275 14.2351 138.19 14.8147 136.85C18.2275 128.958 30.2216 98.8711 15.3802 86.5999C-1.39238 72.717 -9.78432 42.0785 18.5243 29.6319C40.344 20.0411 54.1816 -15.848 95.5843 8.08659C136.987 32.0212 164.77 3.77751 183.114 5.21387C201.459 6.65022 239.197 6.17239 247.581 35.3717C255.964 64.571 307.857 77.0204 275.884 116.755C243.911 156.489 273.794 174.681 235.007 181.857C196.22 189.034 201.988 176.112 161.105 178.507C120.223 180.902 118.128 185.689 76.7194 186.167C37.9039 186.619 14.2831 159.718 12.3463 145.705Z" fill="#CFE0C3" fill-opacity="0.1"/>
<path d="M22.3188 116.102L275.694 117.108L282.288 107.003C282.288 107.003 257.904 85.3671 230.24 94.562C206.546 102.445 177.737 87.9853 164.659 87.4509C132.964 86.1559 124.425 105.96 105.404 105.96C86.3837 105.96 78.5431 86.3171 56.9949 89.4613C35.4468 92.6054 22.3188 116.102 22.3188 116.102Z" fill="#70A9A1" fill-opacity="0.4"/>
<path d="M82.691 116.144C82.691 116.144 87.0651 116.427 87.7805 116.144C88.4958 115.861 87.5373 115.104 86.084 115.104C84.6307 115.104 83.9493 115.081 83.2198 115.262C83.1253 115.282 83.0359 115.321 82.9573 115.377C82.8787 115.433 82.8125 115.505 82.7628 115.588C82.7132 115.67 82.6812 115.763 82.6688 115.858C82.6565 115.954 82.664 116.051 82.691 116.144Z" fill="#CFE0C3"/>
<path d="M84.2122 114.945C84.2122 114.945 82.25 113.09 83.0445 113.037C83.839 112.983 84.5826 113.461 84.6872 113.831C84.7919 114.202 84.7947 112.451 85.3234 112.505C85.8522 112.559 86.1179 113.141 85.9059 113.885C85.9059 113.885 86.5958 113.303 87.232 113.303C87.8681 113.303 87.7635 114.097 87.3903 114.363C87.0171 114.629 85.9059 115.319 85.9059 115.319H84.1557L84.2122 114.945Z" fill="#CFE0C3"/>
<path d="M222.959 116.515C222.959 116.515 227.333 116.797 228.049 116.515C228.764 116.232 227.805 115.474 226.352 115.474C224.899 115.474 224.217 115.451 223.488 115.632C223.393 115.652 223.304 115.691 223.225 115.747C223.147 115.804 223.081 115.875 223.031 115.958C222.981 116.041 222.949 116.133 222.937 116.229C222.925 116.325 222.932 116.422 222.959 116.515Z" fill="#CFE0C3"/>
<path d="M224.48 115.316C224.48 115.316 222.518 113.461 223.313 113.407C224.107 113.353 224.851 113.831 224.955 114.202C225.06 114.572 225.063 112.822 225.592 112.876C226.12 112.929 226.386 113.512 226.174 114.255C226.174 114.255 226.864 113.673 227.5 113.673C228.136 113.673 228.032 114.467 227.658 114.733C227.285 114.999 226.174 115.689 226.174 115.689H224.424L224.48 115.316Z" fill="#CFE0C3"/>
<path d="M50.9498 116.701C50.9498 116.701 55.3239 116.984 56.0393 116.701C56.7546 116.418 55.7961 115.661 54.3428 115.661C52.8895 115.661 52.208 115.638 51.4785 115.819C51.3841 115.839 51.2947 115.878 51.2161 115.934C51.1375 115.99 51.0713 116.062 51.0216 116.145C50.972 116.227 50.94 116.32 50.9276 116.415C50.9153 116.511 50.9228 116.608 50.9498 116.701V116.701Z" fill="#CFE0C3"/>
<path d="M52.471 115.499C52.471 115.499 50.5087 113.645 51.3033 113.591C52.0978 113.537 52.8414 114.015 52.946 114.385C53.0506 114.756 53.0535 113.006 53.5822 113.059C54.1109 113.113 54.3767 113.696 54.1647 114.439C54.1647 114.439 54.8546 113.857 55.4907 113.857C56.1269 113.857 56.0223 114.651 55.6491 114.917C55.2759 115.183 54.1647 115.873 54.1647 115.873H52.4144L52.471 115.499Z" fill="#CFE0C3"/>
<path d="M242.675 116.933C242.675 116.933 247.049 117.216 247.765 116.933C248.48 116.65 247.521 115.892 246.068 115.892C244.615 115.892 243.933 115.87 243.204 116.051C243.109 116.071 243.02 116.11 242.941 116.166C242.863 116.222 242.797 116.294 242.747 116.377C242.697 116.459 242.665 116.551 242.653 116.647C242.641 116.743 242.648 116.84 242.675 116.933V116.933Z" fill="#CFE0C3"/>
<path d="M244.196 115.734C244.196 115.734 242.234 113.879 243.029 113.826C243.823 113.772 244.567 114.25 244.671 114.62C244.776 114.991 244.779 113.24 245.308 113.294C245.836 113.348 246.102 113.93 245.89 114.674C245.89 114.674 246.58 114.091 247.216 114.091C247.852 114.091 247.748 114.886 247.374 115.152C247.001 115.417 245.89 116.107 245.89 116.107H244.14L244.196 115.734Z" fill="#CFE0C3"/>
<path d="M33.0773 116.235C33.0773 116.235 37.4515 116.517 38.1668 116.235C38.8822 115.952 37.9236 115.194 36.4703 115.194C35.017 115.194 34.3356 115.171 33.6061 115.352C33.5116 115.372 33.4223 115.412 33.3436 115.468C33.265 115.524 33.1988 115.595 33.1492 115.678C33.0995 115.761 33.0675 115.853 33.0552 115.949C33.0428 116.045 33.0504 116.142 33.0773 116.235V116.235Z" fill="#CFE0C3"/>
<path d="M34.5985 115.036C34.5985 115.036 32.6363 113.181 33.4308 113.127C34.2253 113.073 34.9689 113.551 35.0735 113.922C35.1782 114.292 35.181 112.542 35.7097 112.596C36.2385 112.649 36.5042 113.232 36.2922 113.975C36.2922 113.975 36.9821 113.393 37.6183 113.393C38.2545 113.393 38.1498 114.188 37.7766 114.453C37.4034 114.719 36.2922 115.409 36.2922 115.409H34.542L34.5985 115.036Z" fill="#CFE0C3"/>
<path d="M253.883 117.018C253.883 117.018 258.257 117.301 258.973 117.018C259.688 116.735 258.73 115.977 257.276 115.977C255.823 115.977 255.141 115.955 254.412 116.136C254.317 116.156 254.228 116.195 254.15 116.251C254.071 116.307 254.005 116.379 253.955 116.461C253.905 116.544 253.873 116.636 253.861 116.732C253.849 116.828 253.856 116.925 253.883 117.018Z" fill="#CFE0C3"/>
<path d="M255.404 115.819C255.404 115.819 253.442 113.964 254.237 113.91C255.031 113.857 255.775 114.335 255.879 114.705C255.984 115.075 255.987 113.325 256.516 113.379C257.044 113.433 257.31 114.015 257.098 114.759C257.098 114.759 257.788 114.176 258.424 114.176C259.06 114.176 258.956 114.971 258.583 115.237C258.209 115.502 257.098 116.192 257.098 116.192H255.348L255.404 115.819Z" fill="#CFE0C3"/>
<path d="M200.314 116.772L200.054 108.501C200.054 108.501 189.912 108.029 194.249 100.104C194.249 100.104 195.295 99.954 195.295 98.6082C195.295 97.2623 192.903 97.2623 192.75 96.366C192.598 95.4697 192.601 93.5385 194.993 91.8816C197.385 90.2247 192.001 86.5094 191.854 85.9015C191.707 85.2936 191.854 83.8092 193.5 82.3134C195.145 80.8177 195.592 79.1749 195.442 77.6792C195.292 76.1835 191.255 74.241 193.05 72.7452C194.846 71.2495 198.584 70.0535 198.88 68.8575C199.177 67.6615 198.731 62.2779 202.319 63.6238C205.907 64.9697 213.832 63.3241 215.478 63.474C216.613 63.5501 217.716 63.8862 218.701 64.4564C219.686 65.0266 220.527 65.8155 221.158 66.7623C222.954 69.307 224.15 67.5088 224.896 69.307C225.642 71.1053 224 76.9412 225.346 78.4285C226.691 79.9157 228.784 81.1202 227.89 83.8007C226.997 86.4811 223.703 88.138 223.703 89.1729C223.703 90.2077 225.199 93.8071 225.199 94.8533C225.199 95.8994 224.599 97.545 222.806 97.8447C221.014 98.1444 220.864 99.0407 220.864 100.983C220.864 102.926 219.518 101.433 219.518 101.433L219.818 116.235H217.576C217.576 116.235 217.576 102.629 217.126 101.133H215.63L215.78 116.235H213.985L213.835 102.779C213.835 102.779 211.593 100.087 210.696 99.9512C209.8 99.8155 211.296 116.548 211.296 116.548H209.65L209.201 101.297C209.201 101.297 208.454 104.289 207.705 104.289C206.956 104.289 208.005 116.399 208.005 116.399H206.359L205.76 104.139C205.76 104.139 204.863 102.493 204.114 104.588C203.365 106.683 202.83 104.998 202.983 105.895C203.136 106.791 203.178 116.769 203.178 116.769L200.314 116.772Z" fill="#CFE0C3"/>
<path d="M71.76 115.929L74.1379 116.011L74.0192 107.665C74.0192 107.665 76.2557 105.428 77.7458 105.578C79.2359 105.728 82.6628 106.471 84.6024 104.535C86.542 102.598 85.0491 100.511 86.0925 100.511C87.1358 100.511 85.199 98.1275 85.199 97.0841C85.199 96.4112 87.1924 85.7742 82.8268 86.8204C78.9927 87.728 77.251 80.7074 73.0663 83.3878C69.761 85.5056 65.3162 84.2615 65.0108 86.3397C64.2729 91.3246 60.0119 89.7468 60.6283 92.6111C61.5217 96.7844 60.911 98.5742 62.6951 99.021C64.4793 99.4677 62.2484 101.405 62.992 102.897C63.7356 104.39 63.1419 105.878 65.2286 105.878C67.3152 105.878 68.6555 106.474 69.9985 106.771C71.3416 107.068 71.6384 107.814 71.6384 107.814L71.76 115.929Z" fill="#CFE0C3"/>
<path d="M262.971 116.826L265.349 116.908L265.23 108.561C265.23 108.561 267.466 106.324 268.957 106.474C270.447 106.624 273.873 107.368 275.813 105.431C277.753 103.494 276.26 101.407 277.303 101.407C278.347 101.407 276.41 99.0238 276.41 97.9804C276.41 97.3075 278.403 86.6705 274.037 87.7167C270.203 88.6243 268.462 81.6037 264.277 84.2841C260.972 86.4019 256.527 85.1578 256.222 87.236C255.484 92.2209 251.223 90.6431 251.839 93.5074C252.732 97.6807 252.122 99.4705 253.906 99.9173C255.69 100.364 253.459 102.301 254.203 103.794C254.946 105.287 254.353 106.774 256.439 106.774C258.526 106.774 259.866 107.37 261.209 107.667C262.552 107.964 262.849 108.711 262.849 108.711L262.971 116.826Z" fill="#CFE0C3"/>
<path d="M45.8208 115.909L48.1987 116.011L48.0828 105.68C48.0828 105.68 50.3193 102.912 51.8094 103.098C53.2994 103.285 56.7263 104.204 58.666 101.806C60.6056 99.4083 59.1127 96.824 60.1561 96.824C61.1994 96.824 59.2626 93.8721 59.2626 92.5828C59.2626 91.7487 61.256 78.5981 56.8903 79.8761C53.0563 81.0071 51.3146 72.3098 47.1299 75.6349C43.8246 78.256 39.3798 76.7178 39.0744 79.288C38.3365 85.4576 34.0755 83.5066 34.6918 87.0523C35.5853 92.2181 34.9746 94.4348 36.7587 94.989C38.5429 95.5432 36.312 97.9409 37.0556 99.7957C37.7992 101.651 37.2055 103.471 39.2921 103.471C41.3788 103.471 42.719 104.209 44.0621 104.577C45.4051 104.945 45.702 105.869 45.702 105.869L45.8208 115.909Z" fill="#CFE0C3"/>
<path d="M61.6829 115.929L64.9232 116.02V74.3088C64.9232 74.3088 73.4876 75.7226 74.4376 73.8338C75.3877 71.9451 75.2293 71.2891 78.0851 71.2891C80.9408 71.2891 82.0435 71.1308 80.6298 68.5917C79.2161 66.0526 77.1407 68.9084 79.2161 66.047C81.2914 63.1856 85.5411 61.4636 82.6854 59.7106C79.8296 57.9576 75.0738 61.1243 75.0738 57.8077C75.0738 54.4911 73.6601 55.1103 74.4405 51.7824C75.2208 48.4544 75.5517 48.7683 75.3933 45.4375C75.235 42.1067 75.5517 40.5205 75.71 39.5705C75.8683 38.6205 73.4904 36.8731 71.7515 35.1314C70.0126 33.3896 69.6903 31.1729 66.3595 31.6423C63.0288 32.1116 61.9204 32.2756 62.8704 35.1314C63.8205 37.9871 59.5397 35.7647 58.912 36.7176C58.2843 37.6704 59.387 38.6205 57.4982 39.2623C55.6095 39.9041 56.2287 39.7373 58.2899 41.0069C60.3512 42.2764 58.9233 43.3848 57.4982 43.3848C56.0732 43.3848 54.4842 40.529 54.1675 41.7985C53.8508 43.0681 51.9479 42.4319 53.2146 45.921C54.4813 49.4101 54.4842 48.7768 53.848 49.4101C53.2118 50.0435 53.0563 50.0435 53.848 50.8238C54.6397 51.6042 50.2005 50.1905 50.2005 51.935C50.2005 53.6796 49.8838 57.0103 50.9922 59.3883C52.1006 61.7662 46.5531 59.8633 46.7114 60.9745C46.8698 62.0857 47.0281 63.194 48.1252 63.5192C49.2222 63.8444 52.2476 63.8359 50.3447 64.6304C48.4418 65.4249 44.4777 67.9612 44.4777 68.5889C44.4777 69.2166 44.6361 70.6501 46.6973 71.2863C48.7585 71.9224 46.8556 74.142 48.7585 74.3004C50.6614 74.4587 53.3588 74.3003 55.5784 73.5087C57.798 72.717 60.6537 72.5558 61.1287 73.8253C61.6037 75.0949 62.5425 74.142 62.5425 74.142L61.6829 115.929Z" fill="#70A9A1"/>
<path d="M239.613 116.975L236.698 117.055V80.3257C236.698 80.3257 228.996 81.5839 228.139 79.9072C227.282 78.2305 227.427 77.6735 224.859 77.6735C222.292 77.6735 221.294 77.535 222.577 75.2985C223.861 73.0619 225.716 75.5812 223.861 73.0648C222.006 70.5483 221.192 68.6624 223.759 67.1271C226.327 65.5917 225.374 66.0781 225.374 63.146C225.374 60.2139 228.852 63.4287 228.139 60.4966C227.427 57.5645 224.907 57.8982 225.052 54.9661C225.196 52.034 227.141 50.5807 227 49.7437C226.858 48.9068 228.996 47.3687 230.565 45.8334C232.134 44.298 232.42 42.3414 235.414 42.7599C238.409 43.1783 239.409 43.3254 238.553 45.8334C237.696 48.3413 241.55 46.3988 242.118 47.2301C242.686 48.0614 241.691 48.9068 243.402 49.4638C245.112 50.0208 244.533 49.8823 242.689 50.9991C240.846 52.116 242.124 53.0943 243.402 53.0943C244.68 53.0943 246.113 50.5807 246.399 51.6975C246.685 52.8144 248.395 52.263 247.247 55.328C246.099 58.393 246.116 57.8416 246.682 58.4015C247.247 58.9613 247.394 58.967 246.682 59.6597C245.969 60.3524 249.962 59.0942 249.962 60.638C249.962 62.1818 250.244 65.1082 249.249 67.2006C248.254 69.2929 253.244 67.619 253.1 68.5973C252.956 69.5756 252.817 70.5511 251.816 70.831C250.815 71.111 248.107 71.1138 249.82 71.8094C251.534 72.5049 251.423 73.9893 251.423 74.5492C251.423 75.109 252.588 77.026 250.733 77.5859C248.879 78.1457 252.959 80.19 251.248 80.3285C249.178 80.4962 247.095 80.259 245.115 79.6301C243.119 78.9318 240.549 78.7819 240.122 79.9129C239.695 81.0439 238.838 80.1956 238.838 80.1956L239.613 116.975Z" fill="#70A9A1"/>
<path d="M90.574 127.627V134.412H200.563V127.909L90.574 127.627Z" fill="#9EC1A3"/>
<path d="M102.449 104.441L102.274 128.003H105.579L105.56 104.441H102.449Z" fill="#9EC1A3"/>
<path d="M185.577 104.441L185.823 128.155H188.984L188.97 104.441H185.577Z" fill="#9EC1A3"/>
<path d="M96.5145 104.441C96.5145 104.441 97.3628 101.331 99.6248 101.331L191.026 101.354C191.334 101.354 191.637 101.43 191.908 101.577C192.68 101.993 194.209 102.991 194.628 104.441H96.5145Z" fill="#70A9A1"/>
<path d="M96.0197 107.891V110.515L194.537 110.591L194.461 108.046L96.0197 107.891Z" fill="#70A9A1"/>
<path d="M96.0197 113.546V116.17L194.537 116.246L194.461 113.701L96.0197 113.546Z" fill="#70A9A1"/>
<path d="M96.0197 120.049V122.673L194.537 122.749L194.461 120.204L96.0197 120.049Z" fill="#70A9A1"/>
<path d="M96.0197 125.138V127.762L194.537 127.839L194.461 125.294L96.0197 125.138Z" fill="#70A9A1"/>
<path d="M100.569 134.429L100.648 151.558H108.441L108.67 134.429H100.569Z" fill="#70A9A1"/>
<path d="M182.967 134.429L183.12 151.79H191.297L191.144 134.353L182.967 134.429Z" fill="#70A9A1"/>
<path d="M104.29 50.1763C108.269 50.1763 111.494 46.9508 111.494 42.9719C111.494 38.9931 108.269 35.7675 104.29 35.7675C100.311 35.7675 97.0857 38.9931 97.0857 42.9719C97.0857 46.9508 100.311 50.1763 104.29 50.1763Z" fill="#CFE0C3"/>
<g clip-path="url(#clip1_2_2)">
<path d="M154.727 130.06C153.914 128.71 153.267 128.352 151.256 128.297C149.245 128.241 146.573 128.269 146.573 128.269L146.545 131.12C146.545 131.12 148.763 132.401 149.947 133.035C150.016 133.076 150.209 133.186 150.347 133.269C150.553 133.365 150.774 133.448 150.994 133.503C152.165 133.751 153.226 133.627 153.983 132.87C154.823 132.029 155.54 131.409 154.727 130.06Z" fill="#4B49BB"/>
<path d="M139.562 127.525C139.493 127.58 139.314 127.718 139.19 127.815C139.025 127.966 138.873 128.145 138.736 128.324C138.074 129.316 137.785 130.349 138.212 131.341C138.68 132.429 138.997 133.338 140.54 133.076C142.083 132.814 142.675 132.346 143.474 130.514C144.273 128.682 145.251 126.175 145.237 126.175L142.606 125.087C142.606 125.087 140.595 126.671 139.562 127.525Z" fill="#4B49BB"/>
<path d="M146.752 128.393C146.752 128.393 146.793 131.272 146.325 131.341C145.857 131.409 139.397 130.473 136.821 130.335C134.245 130.197 128.405 128.531 125.54 125.294C123.061 122.498 123.447 119.399 125.278 119.399C127.11 119.399 128.791 117.842 133.446 120.06C138.102 122.277 143.033 122.649 145.802 122.429C148.57 122.209 156.325 120.776 156.931 120.335C157.537 119.895 160.443 118.627 164.493 119.068C168.542 119.509 166.628 122.718 165.774 123.958C164.575 125.68 161.738 127.525 159.369 127.608C157 127.691 146.752 128.393 146.752 128.393Z" fill="url(#paint0_linear_2_2)"/>
<path d="M141.959 78.0495C140.595 78.5454 138.859 85.2946 138.859 85.2946L138.832 85.267L138.639 86.2036L138.405 87.4295L138.859 94.7572L143.267 96.961L153.391 99.6883L156.187 103.669C156.187 103.669 162.454 110.046 162.495 110.487C162.537 110.928 155.76 113.173 155.113 113.269C153.556 113.503 165.071 110.68 161.38 106.203C159.81 104.289 157.509 98.5313 152.95 94.7159C150.306 92.5121 151.049 86.245 150.113 82.2781C148.942 77.3195 148.226 75.8319 147.055 75.8319C145.994 75.8319 144.521 77.0991 141.959 78.0495Z" fill="url(#paint1_linear_2_2)"/>
<path d="M156.283 94.0685C154.162 92.1264 153.446 91.6581 151.587 92.3192C149.727 92.9804 148.818 93.5864 146.284 93.9997C144.727 94.2751 143.116 94.0685 141.669 93.4349L136.449 93.9583C135.788 93.8757 128.364 107.815 128.185 110.707C128.075 112.484 132.11 115.225 133.24 115.501C133.694 115.611 134.507 111.231 134.769 110.831L133.074 110.308C133.377 109.55 134.397 107.677 135.072 106.672C135.278 106.355 136.89 103.696 137.11 102.677C137.152 102.774 137.386 104.702 137.606 105.322C138.019 106.465 138.584 107.112 138.584 108.021C138.584 108.931 138.474 112.539 137.813 114.165C137.152 115.79 136.187 119.55 136.187 119.55L152.881 119.454C152.881 119.454 152.275 112.278 152.523 109.812C152.523 109.812 152.261 108.82 152.757 107.388C153.57 105.019 153.804 101.493 153.666 100.942C153.46 100.074 158.57 107.415 159.686 109.275C160.154 110.046 153.804 111.41 153.281 112.002C152.73 112.622 153.818 114.302 153.818 114.302C153.818 114.302 164.892 112.952 164.837 111.258C164.782 109.564 158.749 96.3137 156.283 94.0685Z" fill="url(#paint2_linear_2_2)"/>
<path d="M143.295 74.0826C143.295 74.0826 140.196 74.2066 139.3 77.4572C138.405 80.7079 138.281 85.2395 138.253 85.9419C138.226 86.6857 138.57 91.0383 136.904 92.8564C135.471 94.4266 136.05 95.9418 135.691 97.1952L135.526 99.275C135.554 99.523 135.733 99.7296 135.967 99.8122C136.187 99.8811 136.959 99.523 137.096 99.4679C139.025 98.6965 139.025 98.0767 139.755 97.4569C140.361 96.9473 142.027 95.7627 142.523 95.2944C143.019 94.8261 143.364 94.4129 143.391 93.8206C143.487 90.8041 142.964 88.0218 142.303 86.548C141.642 85.0742 140.375 82.5811 141.435 80.9283C142.496 79.2754 144.41 77.6225 144.521 77.2093C144.631 76.7961 144.686 78.8071 145.857 79.5095C147.027 80.212 148.005 81.19 148.363 82.1404C148.666 82.9392 149.066 84.3029 147.964 86.6582C146.862 89.0135 145.967 92.0438 147.523 94.2889C149.08 96.534 152.358 98.9582 152.895 100.088C153.501 101.341 152.923 104.289 152.812 106.066C152.702 107.842 156.283 102.98 156.173 100.666C156.063 98.3522 156.449 97.3605 154.231 93.8068C152.014 90.2532 150.567 84.1651 150.512 82.6913C150.457 81.2175 149.796 77.1267 148.46 75.9559C147.303 74.9642 147.055 74 144.686 74C144.218 74 143.749 74.0275 143.295 74.0826Z" fill="url(#paint3_linear_2_2)"/>
<path opacity="0.07" d="M136.229 123.338L151.876 123.421C151.876 123.421 150.044 124.853 149.162 125.018C148.281 125.184 144.507 127.057 143.102 126.341C142.11 125.804 136.229 123.338 136.229 123.338Z" fill="black"/>
<path opacity="0.07" d="M144.948 88.2009C144.948 88.2009 146.408 88.5728 147.014 87.7188C148.377 85.7904 147.138 88.6967 147.138 88.6967C147.138 88.6967 146.738 89.8262 146.766 90.3909C146.793 90.9556 145.195 88.2835 144.948 88.2009Z" fill="black"/>
<path opacity="0.07" d="M139.107 98.118C138.928 98.3384 138.667 98.5175 138.529 99.0822C138.295 99.9913 138.047 101.011 137.413 101.947C137.041 102.498 137.248 104.633 137.868 105.983C138.047 106.369 138.598 107.374 138.584 107.608L138.543 109.564H140.223C140.223 109.564 141.656 109.716 141.353 108.531C141.091 107.484 139.727 103.586 140.65 102.732C142.386 101.148 140.196 97.9803 141.008 96.961C141.711 96.0795 142.716 95.4459 142.716 95.1567C142.716 95.0465 142.454 95.4046 142.275 95.5286C141.931 95.7765 141.752 95.9693 141.463 96.1622C141.146 96.3688 140.664 96.7131 140.347 96.9473C139.893 97.2916 139.479 97.6773 139.107 98.118Z" fill="black"/>
<path d="M132.565 110.666C132.565 110.666 132.551 109.647 133.557 109.605C134.562 109.564 155.856 109.592 155.856 109.592C155.856 109.592 156.793 109.702 156.821 110.459C156.848 111.217 156.848 122.47 156.848 122.47C156.848 122.47 156.862 123.338 155.939 123.366C155.016 123.393 133.309 123.393 133.309 123.393C133.309 123.393 132.496 123.186 132.51 122.374C132.523 121.561 132.565 110.666 132.565 110.666Z" fill="white"/>
<path d="M144.768 117.415C145.278 117.415 145.691 117.002 145.691 116.492C145.691 115.983 145.278 115.57 144.768 115.57C144.259 115.57 143.846 115.983 143.846 116.492C143.846 117.002 144.259 117.415 144.768 117.415Z" fill="#77C7E8"/>
</g>
</g>
<defs>
<linearGradient id="paint0_linear_2_2" x1="166.979" y1="125.106" x2="123.792" y2="125.106" gradientUnits="userSpaceOnUse">
<stop stop-color="#4B45BD"/>
<stop offset="1" stop-color="#58CAEA"/>
</linearGradient>
<linearGradient id="paint1_linear_2_2" x1="138.405" y1="94.5574" x2="162.496" y2="94.5574" gradientUnits="userSpaceOnUse">
<stop stop-color="#F87B58"/>
<stop offset="0.5" stop-color="#F8C548"/>
<stop offset="1" stop-color="#F89C51"/>
</linearGradient>
<linearGradient id="paint2_linear_2_2" x1="128.183" y1="105.794" x2="164.837" y2="105.794" gradientUnits="userSpaceOnUse">
<stop stop-color="#E5A4ED"/>
<stop offset="1" stop-color="#7A5BF5"/>
</linearGradient>
<linearGradient id="paint3_linear_2_2" x1="135.526" y1="90.224" x2="156.176" y2="90.224" gradientUnits="userSpaceOnUse">
<stop/>
<stop offset="1" stop-color="#4B49BB"/>
</linearGradient>
<clipPath id="clip0_2_2">
<rect width="286.2" height="186.175" fill="white"/>
</clipPath>
<clipPath id="clip1_2_2">
<rect width="60" height="92.34" fill="white" transform="translate(107 74)"/>
</clipPath>
</defs>
</svg>
