<svg width="105" height="147" viewBox="0 0 105 147" fill="none" xmlns="http://www.w3.org/2000/svg">
<path d="M33.9092 2.83398C33.9092 2.83398 10.5862 9.845 12.7852 46.769V126.344H39.3122L33.9092 2.83398Z" fill="#5C79BC"/>
<path d="M31.2581 26.6956V141.015H81.985V44.7146C81.985 44.7146 85.3171 7.77156 61.0781 3.23456C61.0771 3.23456 31.2581 -2.16642 31.2581 26.6956Z" fill="#5C79BC"/>
<path d="M65.2561 99.8955H29.9841V117.359H65.2561V99.8955Z" fill="#A4DEF6"/>
<path d="M104.145 146.164H80.2901L76.0251 128.941C76.0251 128.941 72.5581 102.798 90.4851 102.433C90.4851 102.433 99.7891 108.956 102.325 124.298C102.325 124.299 104.332 136.563 104.145 146.164Z" fill="#A4DEF6"/>
<path d="M21.2951 146.163L24.5131 133.171C24.5131 133.171 30.2151 104.156 12.2871 103.791C12.2871 103.791 -0.696903 114.494 0.244097 146.163H21.2951Z" fill="#A4DEF6"/>
<path d="M61.078 64.6377H39.313V96.4997H61.078V64.6377Z" fill="#A4DEF6"/>
<path d="M61.077 77.6427V64.6377H39.312V83.3697C46.493 83.1507 55.011 81.8527 61.077 77.6427Z" fill="#6FCFF3"/>
<path d="M10.4651 106.662C15.3491 99.1061 23.0241 97.0572 23.0241 97.0572L41.4191 90.2441H58.9741L81.4641 97.0572C81.4641 97.0572 89.1421 99.1071 94.0251 106.662H10.4651Z" fill="#A4DEF6"/>
<path d="M14.9701 132.549V146.163H85.6061L84.7771 130.353C83.9011 99.8944 87.3051 99.8854 87.3051 99.8854C84.1211 97.7644 81.4631 97.0564 81.4631 97.0564L63.7511 92.0154C63.7511 92.0154 59.9121 108.528 45.3001 108.528C45.3001 108.528 33.9851 102.432 37.0511 91.8604L23.0241 97.0564C23.0241 97.0564 17.4631 98.7564 12.2881 103.79C12.2871 103.791 14.7891 105.324 14.9701 132.549Z" fill="#46C6E6"/>
<path d="M63.4481 67.1761C62.7031 68.8971 61.6681 70.4901 60.2171 71.8891C56.6101 75.3671 52.3791 78.1861 47.7401 80.0901C42.0491 82.4251 33.4571 82.7241 28.9341 78.0351C25.2691 74.2351 23.2581 68.4801 21.6671 63.5461C18.5731 53.9491 18.6121 43.4661 19.3991 33.5021C19.5791 31.2291 19.8081 28.9531 20.1871 26.7041C23.7281 4.9691 42.3241 5.01709 42.3241 5.01709C56.3671 4.40609 69.1841 11.0401 71.3431 25.8401C72.1721 31.5071 71.0791 37.5931 70.7941 43.2601C70.5851 47.4251 70.0741 51.5801 68.7411 55.5511C67.3851 59.6061 65.1411 63.2641 63.4481 67.1761Z" fill="#A4DEF6"/>
<path d="M65.2631 50.6047C65.2631 50.6047 67.1191 42.8717 73.0681 46.0667C73.0681 46.0667 75.7531 47.4257 73.8181 52.7357C73.8181 52.7357 70.9961 60.3767 65.2571 57.5827L65.2631 50.6047Z" fill="#A4DEF6"/>
<path d="M17.9841 29.1903C16.9841 -0.642654 45.2991 0.773339 45.2991 0.773339C73.1321 1.91634 74.5171 14.5233 74.5171 14.5233C77.8851 30.5233 73.0671 46.0664 73.0671 46.0664C67.1501 44.7754 66.1501 52.6903 66.1501 52.6903C66.7701 40.0073 65.7301 39.2434 65.7301 39.2434C56.6991 39.1484 50.1951 38.1803 50.1951 38.1803L49.7961 29.3363L47.6201 37.7153C47.6201 37.7153 34.8201 37.4303 21.5251 34.2743C21.5251 34.2743 17.9841 34.5243 17.9841 45.2943V29.1903Z" fill="#5C79BC"/>
</svg>
