<svg width="168" height="155" viewBox="0 0 168 155" fill="none" xmlns="http://www.w3.org/2000/svg">
<path d="M0.000976562 120.541C0.000976562 120.541 32.5 103.776 73.198 101.919C112.733 100.114 167.053 126.097 167.053 126.097C167.053 126.097 111.451 159.372 72.376 154.076C23.125 147.397 0.000976562 120.541 0.000976562 120.541Z" fill="#62656A"/>
<path opacity="0.5" d="M106.376 116.981C104.432 116.549 38.7509 102.089 27.5599 112.026C27.4729 112.104 27.426 112.209 27.428 112.325C27.445 113.577 27.9719 122.811 53.8419 128.934C83.0389 135.844 108.039 126.645 108.039 126.645L109.992 132.187C110.094 132.223 138.812 136.918 138.908 136.868L152.636 129.636C152.878 129.509 152.918 129.178 152.71 129.001C150.098 126.796 135.341 115.592 106.471 116.989C106.437 116.99 106.408 116.989 106.376 116.981Z" fill="#62656A"/>
<path d="M50.3489 20.4355C50.3489 20.4355 34 67.4375 34 110.84C34 110.84 41.3959 113.906 44.4609 113.468C44.4609 113.468 46.6019 123.247 50.3489 125.438C54.0959 127.628 62.7089 39.3145 50.3489 20.4355Z" fill="#F1B61C"/>
<path d="M44.5339 113.777C45.3869 72.9556 50.0289 38.6626 49.9629 21.6416C47.4929 29.4686 34.001 71.4076 34.001 110.839C34.001 110.839 41.3969 113.905 44.4619 113.467C44.4619 113.468 44.4899 113.59 44.5339 113.777Z" fill="#E39C25"/>
<path d="M104.031 20.4355H49.146C49.146 20.4355 53.4268 61.8905 51.6748 84.2735C49.9238 106.656 49.146 125.438 49.146 125.438C49.146 125.438 75.6148 129.427 89.4338 127.286C103.252 125.145 126.413 118.14 126.413 118.14C126.413 118.14 123.287 48.6555 104.031 20.4355Z" fill="#F5D633"/>
<path d="M114.744 44.5696C111.892 35.2736 108.375 26.7996 104.031 20.4346H49.146C49.146 20.4346 50.7469 35.9506 51.5889 53.1226C67.6719 55.9546 93.0699 54.5406 114.744 44.5696Z" fill="#F5D933"/>
<path opacity="0.75" d="M59.595 47.6835C60.597 48.4515 65.6358 45.9016 69.2358 45.5916C75.7048 45.0366 82.1809 44.2565 88.5569 43.0095C96.4449 41.4665 104.496 39.7055 112.398 37.5605C110.02 31.0435 107.254 25.1585 104.032 20.4355H49.147C49.147 20.4355 50.1288 29.2445 50.9878 42.7615C54.4358 47.1475 59.595 47.6835 59.595 47.6835Z" fill="#F6DC40"/>
<path d="M63.3651 31.6494L54.315 33.9854C54.315 33.9854 50.4951 45.3224 59.5941 47.6824L67.671 44.7134L63.3651 31.6494Z" fill="#F2BD1A"/>
<path d="M63.73 36.4914L57.6479 38.7784C57.6479 38.7784 55.945 36.7824 55.459 36.4914C54.972 36.1994 53.6089 41.2594 58.3779 43.4484L65.385 41.0164L63.73 36.4914Z" fill="#E7AB23"/>
<path opacity="0.35" d="M55.399 39.9395C56.165 39.3635 56.9321 39.0565 57.7101 38.8065C57.7161 38.7875 57.719 38.7695 57.725 38.7495L57.649 38.7785C57.649 38.7785 55.9461 36.7825 55.4601 36.4915C55.1611 36.3115 54.5381 38.1495 55.1991 40.1005C55.2661 40.0485 55.33 39.9895 55.399 39.9395Z" fill="#E7AB23"/>
<path d="M49.146 20.4355C49.146 20.4355 65.822 14.7905 112.533 14.5955C112.533 14.5955 121 26.9545 119.929 38.5345C119.929 38.5345 85.284 47.9735 59.594 47.6825C59.594 47.6825 64.4589 41.2095 59.2039 31.1415C54.0139 21.1945 49.146 20.4355 49.146 20.4355Z" fill="#F5D633"/>
<path opacity="0.75" d="M111.712 16.5015C112.119 19.7165 108.257 28.1795 105.413 30.6035C100.193 35.0525 93.1438 36.9645 86.3728 36.8285C78.6538 36.6725 72.6909 35.1684 66.6619 30.2004C63.0929 27.2594 58.7529 21.8305 53.8689 21.4745C53.3869 21.4395 52.912 21.3715 52.447 21.2815C52.264 21.3365 52.1628 21.3694 52.1628 21.3694C52.1628 21.3694 56.712 22.0645 61.562 31.1655C66.473 40.3775 61.926 46.2975 61.926 46.2975C85.932 46.5655 118.304 37.9285 118.304 37.9285C119.184 28.6105 113.174 18.7455 111.712 16.5015Z" fill="#F2BB1A"/>
<path d="M113.126 82.2985C114.097 96.5275 103.036 109.169 88.4481 110.118C73.9181 111.064 62.0509 100 61.8929 85.8174C61.7419 72.0694 72.7151 60.4265 86.4481 59.4365C100.231 58.4435 112.185 68.5085 113.126 82.2985Z" fill="#6CA643"/>
<path d="M109.948 82.5786C110.701 94.3546 101.541 104.774 89.5068 105.565C77.5128 106.353 67.6578 97.2435 67.4638 85.4995C67.2758 74.0545 76.3758 64.3246 87.8198 63.5056C99.3008 62.6836 109.215 71.1046 109.948 82.5786Z" fill="#F8E37A"/>
<path d="M87.0298 77.8024C85.3828 76.4724 83.735 79.4114 85.239 80.3964C86.741 81.3794 88.3968 78.9054 87.0298 77.8024Z" fill="#6CA643"/>
<path d="M86.59 77.1575C86.221 74.8635 85.781 72.6485 86.974 70.4995C87.855 68.9115 90.542 66.3845 92.453 67.9215C94.229 69.3495 93.5601 72.3215 92.4911 73.8035C91.1351 75.6815 88.423 75.8555 86.59 77.1575Z" fill="#6CA643"/>
<path d="M88.1738 77.9665C89.8378 76.7265 97.8218 70.5775 96.4548 77.2345C95.5368 81.7005 89.9518 80.2145 88.1738 77.9665Z" fill="#6CA643"/>
<path d="M85.043 77.5456C85.035 75.2366 84.8539 72.9626 83.2469 71.2436C81.9699 69.8766 79.1121 68.8806 77.6471 70.6596C76.1661 72.4586 77.3119 75.5146 79.1019 76.6096C81.0859 77.8236 83.012 76.8726 85.043 77.5456Z" fill="#6CA643"/>
<path d="M84.3059 79.2415C81.8609 76.5285 74.37 78.2505 75.667 82.7945C76.489 85.6785 80.191 84.9705 81.937 83.6325C83.86 82.1575 84.3059 79.3415 84.3059 79.2415Z" fill="#6CA643"/>
<path d="M85.7459 81.0295C81.9729 83.4445 80.255 89.0715 84.398 88.5275C88.295 88.0175 87.7649 82.6125 85.7459 81.0295Z" fill="#6CA643"/>
<path d="M87.793 80.1144C87.923 81.8194 88.6808 84.3584 89.9778 85.4404C91.2598 86.5104 93.63 86.6894 94.304 84.9854C95.91 80.9234 89.91 79.4814 87.793 80.1144Z" fill="#6CA643"/>
<path d="M87.1958 82.5034C89.7488 87.1774 91.51 93.2474 90.374 98.6844C90.254 99.2594 88.8719 102.598 90.5889 102.038C91.5019 101.741 91.5269 99.0564 91.5969 98.3414C91.8629 95.6154 91.8569 92.8404 91.0469 90.2264C90.2299 87.5934 89.1618 84.2654 87.1958 82.5034Z" fill="#6CA643"/>
<path d="M101.936 74.0344C98.4148 76.8764 96.373 79.5074 95.541 84.0194C94.892 87.5474 94.804 91.6964 92.137 94.4784C96.92 94.7924 100.874 92.0844 101.419 87.2354C101.911 82.8624 99.6508 78.0124 101.936 74.0344Z" fill="#6CA643"/>
<path d="M90.4119 95.6896C90.6629 85.9806 80.1079 91.9666 75.6809 87.2876C75.7929 90.5286 79.4939 94.9906 82.4619 96.0336C85.5919 97.1306 87.7849 94.3276 90.4119 95.6896Z" fill="#6CA643"/>
<path opacity="0.35" d="M88.646 93.4485C75.604 94.5165 58.2248 79.5115 55.1018 71.9895C55.1078 76.3265 54.999 80.4315 54.719 84.0025C53.115 104.498 52.4028 121.697 52.4028 121.697C52.4028 121.697 76.6409 125.349 89.2949 123.389C101.949 121.429 123.156 115.013 123.156 115.013C123.156 115.013 122.48 100.042 119.775 81.6785C114.11 86.2025 102.31 92.3275 88.646 93.4485Z" fill="#E59725"/>
<path opacity="0.35" d="M101.523 124.839C113.722 121.976 126.414 118.138 126.414 118.138C126.414 118.138 125.556 99.1094 121.979 76.9244C121.692 76.9074 121.397 76.8054 121.132 76.5954C118.377 74.4094 118.38 71.7514 117.561 68.5134C116.406 63.9524 115.165 59.3284 113.756 54.8394C112.929 52.2064 110.855 49.0544 111.498 46.2054C111.784 44.9364 113.181 44.2264 114.486 43.7264C114.113 42.5334 113.73 41.3524 113.334 40.1914C117.442 39.2104 119.929 38.5344 119.929 38.5344C120.206 35.5284 119.839 32.4724 119.147 29.5924C117.368 29.3474 115.68 28.7264 113.807 28.4204C114 29.8364 114.37 31.3474 113.738 32.5854C112.516 34.9744 110.523 36.7984 109.283 39.1714C108.286 41.0774 107.35 42.5484 107.018 44.0784C106.436 44.2874 105.968 44.6944 105.369 45.2704C104.557 46.0494 104.265 47.0544 103.414 47.8044C102.631 48.4944 101.616 48.5694 100.884 49.1174C101.861 50.9204 107.62 52.7934 109.429 50.9994C110.294 52.4064 111.086 53.8634 111.679 55.4064C113.948 61.3064 114.588 67.7164 115.983 73.8584C116.694 76.9924 114.404 78.3434 111.779 79.3394C108.393 80.6264 104.82 81.6984 101.291 82.5254C99.345 82.9804 97.1498 82.9844 95.3068 83.7714C93.4098 84.5824 95.713 88.2584 96.073 89.5204C96.383 90.6024 96.1759 92.2244 96.8859 93.1404C98.1349 94.7514 98.3649 94.2194 99.3129 95.1224C102.49 98.1514 101.802 105.001 101.79 108.916C101.77 114.228 101.595 119.531 101.523 124.839Z" fill="#E59725"/>
<path d="M106.42 88.4896L114.473 130.56L137.813 134.285L146.882 129.959L160.448 85.7266L146.882 91.3746L106.42 88.4896Z" fill="#D86142"/>
<path opacity="0.55" d="M144.225 116.894C143.787 116.902 143.352 116.886 142.922 116.852L139.409 131.654L146.233 128.398L150.453 114.636C148.508 115.759 146.529 116.856 144.225 116.894Z" fill="#C64727"/>
<path opacity="0.55" d="M158.157 93.1976L160.448 85.7256L146.882 91.3736L143.32 91.1196L145.634 97.2736C148.146 96.7286 155.467 94.4046 158.157 93.1976Z" fill="#C64727"/>
<path d="M106.42 88.4895L114.473 130.56L137.813 134.285L146.882 91.3745L106.42 88.4895Z" fill="#BE4727"/>
<path opacity="0.55" d="M130.807 118.463C125.309 118.859 119.942 117.721 115.174 114.914C114.485 114.508 113.793 114.103 113.103 113.698L116.022 128.945L136.338 132.188L139.753 116.028C137.022 117.39 133.989 118.234 130.807 118.463Z" fill="#C64727"/>
<path opacity="0.55" d="M145.515 97.8475L146.882 91.3745L106.42 88.4895L107.662 94.9796C113.583 95.1506 138.422 98.5425 145.515 97.8475Z" fill="#C64727"/>
<path d="M101.552 84.2834L128.896 77.2515L164.775 81.3384L162.883 86.8375L129.437 82.2394L107.46 88.5645L101.552 84.2834Z" fill="#AC3E25"/>
<path d="M101.552 84.2834L128.896 77.2515L129.437 82.2394L107.46 88.5645L101.552 84.2834Z" fill="#CD4D29"/>
<path d="M111.622 87.1986C111.721 86.0416 112.919 84.7866 113.746 84.0556C115.032 82.9176 116.568 82.1595 118.317 82.1525C119.314 82.1485 120.266 82.3895 121.243 82.5125C122.181 82.6295 123.132 82.3596 123.975 81.9666C125.116 81.4356 126.138 80.5865 127.331 80.2015C128.633 79.7815 129.994 79.4856 131.369 79.5396C132.384 79.5796 133.627 79.7936 134.481 80.3806C135.262 80.9166 135.82 81.7605 136.718 82.1275C137.896 82.6075 139.209 82.0665 140.426 81.6975C142.979 80.9265 145.756 80.9635 148.303 81.7385C150.818 82.5055 155.429 84.0725 157.157 86.0705C156.237 86.1585 154.997 88.1915 154.126 88.5625C152.74 89.1545 150.676 90.9885 149.242 91.4335C148.104 91.7875 145.992 89.4825 144.975 90.0585C144.104 90.5525 143.469 90.4045 142.473 90.2665C134.457 89.1585 126.39 89.1955 118.375 87.8925C117.008 87.6705 115.687 87.5255 114.322 87.3745C113.537 87.2905 112.231 87.6476 111.622 87.1986Z" fill="#40423F"/>
<path d="M150.292 88.5644L147.06 88.2814C146.827 90.2654 146.488 92.2294 146.148 94.1954L148.37 94.3944L162.673 87.7694L164.777 81.3384L150.292 88.5644Z" fill="#D86142"/>
<path d="M148.369 93.8834L146.232 93.6914C146.203 93.8594 146.176 94.0274 146.147 94.1954L148.369 94.3944L162.672 87.7694L162.889 87.1074L148.369 93.8834Z" fill="#EA875D"/>
<path opacity="0.5" d="M154.694 86.3685C153.248 88.5105 152.151 90.9985 150.845 93.2465L156.493 90.6306C157.117 89.1616 157.764 87.7015 158.389 86.2265C158.685 85.5255 158.972 84.8106 159.257 84.0916L154.694 86.3685Z" fill="#D86142"/>
<path d="M101.552 84.2834L104.016 90.4135L148.369 94.3945L150.292 88.5645L101.552 84.2834Z" fill="#C14727"/>
<path d="M103.809 89.8994L104.016 90.4134L148.369 94.3944L148.546 93.8564L103.809 89.8994Z" fill="#EA875D"/>
<path d="M132.812 63.7254C132.417 72.4984 132.089 80.8314 132.112 83.8604C132.993 83.9234 133.762 84.1604 134.412 84.5344C134.461 82.6584 134.641 75.5514 134.772 67.4104C134.853 67.0454 134.913 66.6764 135.008 66.4314C135.308 65.6634 135.795 64.9954 136.244 64.3294C136.796 63.5114 137.966 62.6304 137.974 61.5884C136.695 62.5664 135.675 63.5974 134.809 64.8994C135.002 51.4154 135.016 36.3454 134.08 37.6834C134.08 37.6834 133.575 47.3714 133.076 57.9844C130.49 55.3044 123.839 43.9055 122.237 43.4065C122.238 43.4055 131.643 57.6944 132.812 63.7254Z" fill="#4BA647"/>
<path d="M120.708 26.1646C121.442 27.0856 121.776 28.3025 122.005 29.4415C122.396 31.3935 122.979 33.3765 124.105 35.0475C125.322 36.8545 126.687 37.7605 128.89 37.8485C130.059 37.8955 131.079 37.3115 132.274 37.4305C132.587 37.4615 132.88 37.5125 133.156 37.6625C133.135 37.1325 133.62 36.5336 133.896 36.1176C134.431 35.3146 134.763 34.5505 135.032 33.6155C135.515 31.9385 135.382 30.2075 134.241 28.8435C133.397 27.8335 131.631 27.6516 130.409 27.5916C128.777 27.5126 127.22 27.7315 125.61 27.5365C123.927 27.3335 120.672 26.1946 120.708 26.1646Z" fill="#599B43"/>
<path opacity="0.32" d="M134.24 28.8444C133.64 28.1264 132.576 27.8293 131.571 27.6953C131.692 28.7833 131.486 29.9003 130.963 30.8693C129.628 33.3423 126.143 34.6253 123.635 33.0663C123.36 32.8963 123.104 32.7033 122.842 32.5153C123.168 33.4053 123.574 34.2613 124.105 35.0483C125.322 36.8553 126.687 37.7614 128.89 37.8494C130.059 37.8964 131.079 37.3123 132.274 37.4313C132.587 37.4623 132.88 37.5133 133.156 37.6633C133.135 37.1333 133.62 36.5343 133.896 36.1183C134.431 35.3153 134.763 34.5513 135.032 33.6163C135.515 31.9393 135.381 30.2084 134.24 28.8444Z" fill="#599B43"/>
<path d="M109.366 43.4226C110.185 43.8106 111.137 44.1726 111.885 43.1856C112.516 42.3496 112.726 41.2896 113.239 40.3826C114.432 38.2786 116.435 36.7436 118.904 36.7456C120.926 36.7476 122.489 37.9176 123.134 39.8456C123.635 41.3406 123.417 43.2836 123.301 44.8496C122.83 43.9906 122.087 43.1566 121.106 42.8276C120.033 42.4676 119.028 43.0356 118.114 43.6056C116.973 44.3166 116.205 44.8686 114.791 44.8536C113.736 44.8436 112.87 44.3506 111.811 44.6156C110.813 44.8636 109.166 44.9196 109.366 43.4226Z" fill="#599B43"/>
<path opacity="0.32" d="M117.94 40.2025C114.981 41.9605 113.054 44.3155 109.797 44.5275C110.319 44.8485 111.19 44.7685 111.81 44.6145C112.87 44.3495 113.736 44.8435 114.79 44.8525C116.204 44.8675 116.973 44.3155 118.113 43.6045C119.027 43.0345 120.032 42.4655 121.105 42.8265C122.086 43.1555 122.83 43.9895 123.3 44.8485C123.353 44.1495 123.421 43.3735 123.441 42.5985C122.848 41.0375 120.708 38.5605 117.94 40.2025Z" fill="#599B43"/>
<path d="M134.837 38.6245C134.454 37.6845 133.185 37.0206 132.286 36.6566C130.72 36.0206 129.098 35.7645 127.429 36.2235C124.087 37.1435 122.049 40.2895 121.839 43.6475C121.726 45.4645 122.44 47.1186 122.677 48.8916C122.868 50.3216 122.494 51.1886 121.986 52.4486C123.029 51.5756 123.66 50.7225 125.045 50.2625C126.608 49.7425 128.007 49.9655 129.605 49.8905C132.082 49.7725 135.599 48.1485 135.123 45.1215C134.922 43.8385 134.265 42.6426 134.077 41.3656C133.953 40.5406 133.738 38.8235 134.837 38.6245Z" fill="#599B43"/>
<path opacity="0.32" d="M134.515 43.0154C132.886 44.1464 131.338 45.2574 129.134 45.1484C126.434 45.0154 123.715 44.1215 122.119 41.9065C121.972 42.4725 121.875 43.0564 121.838 43.6484C121.725 45.4654 122.439 47.1195 122.676 48.8925C122.867 50.3225 122.493 51.1895 121.985 52.4495C123.028 51.5765 123.659 50.7235 125.044 50.2635C126.607 49.7435 128.006 49.9665 129.604 49.8915C132.081 49.7735 135.598 48.1494 135.122 45.1224C135.008 44.4014 134.752 43.7104 134.515 43.0154Z" fill="#599B43"/>
<path d="M140.201 41.2476C139.487 40.4596 138.324 40.1776 137.344 40.5766C135.763 41.2206 134.973 42.5936 134.893 44.2846C134.789 46.5066 136.022 48.6676 137.745 49.9986C139.257 51.1656 141.138 51.4886 142.885 52.1556C143.671 52.4566 144.798 52.9896 145.137 53.8096C145.189 53.1086 145.176 52.4876 145.567 51.8576C146.085 51.0236 146.881 50.3916 147.417 49.5476C148.458 47.9046 148.748 46.0266 148.488 44.1086C148.076 41.0656 145.639 37.2626 142.111 38.9946C141.6 39.2456 141.009 39.6286 140.723 40.1146C140.586 40.3466 140.509 40.5936 140.442 40.8296C140.384 41.0246 140.069 41.3116 140.201 41.2476Z" fill="#599B43"/>
<path opacity="0.32" d="M147.788 41.7324C146.714 43.9424 145.152 45.8274 142.653 46.7274C139.891 47.7214 137.335 47.1084 135.033 45.8124C135.394 47.4634 136.422 48.9764 137.744 49.9984C139.256 51.1654 141.137 51.4884 142.884 52.1554C143.67 52.4564 144.797 52.9894 145.136 53.8094C145.188 53.1084 145.175 52.4874 145.566 51.8574C146.084 51.0234 146.88 50.3914 147.416 49.5474C148.457 47.9044 148.747 46.0264 148.487 44.1084C148.381 43.3314 148.141 42.5054 147.788 41.7324Z" fill="#599B43"/>
<path d="M149.376 55.5245C148.855 55.6765 148.322 55.7155 147.766 55.6885C146.526 55.6295 145.298 55.0474 144.13 54.6314C141.66 53.7534 138.956 54.2054 137.496 56.5824C136.9 57.5524 136.728 59.0024 136.675 60.1004C136.638 60.8584 136.539 62.4655 137.093 62.9615C138.003 63.7775 140.316 64.4244 141.467 64.5874C142.879 64.7874 144.144 65.0025 145.37 64.1835C148.064 62.3855 147.726 58.2114 148.731 56.5824C148.92 56.2754 149.357 55.7424 149.822 55.3384C149.681 55.4114 149.536 55.4785 149.376 55.5245Z" fill="#599B43"/>
<path opacity="0.32" d="M143.991 61.0994C141.041 61.0464 138.865 59.8764 136.993 57.8184C136.79 58.5814 136.709 59.4103 136.675 60.1013C136.638 60.8593 136.539 62.4663 137.093 62.9623C138.003 63.7783 140.316 64.4253 141.467 64.5883C142.879 64.7883 144.144 65.0033 145.37 64.1843C146.813 63.2203 147.385 61.5763 147.761 60.0043C146.635 60.6533 145.268 61.1224 143.991 61.0994Z" fill="#599B43"/>
<path d="M144.256 21.5735C144.256 21.5735 142.318 24.0185 137.354 25.7925C133.963 27.0035 132.332 30.0745 132.453 33.5995C132.518 35.5285 133.338 37.0745 134.014 38.7925C134.6 38.8525 135.183 38.6635 135.808 38.7465C136.593 38.8505 137.377 38.9995 138.162 39.1135C139.682 39.3365 141.053 39.0715 142.481 38.5185C145.45 37.3725 147.089 34.4755 146.521 31.3035C146.197 29.4895 144.838 27.9775 144.033 26.3425C143.495 25.2555 143.342 22.5455 144.256 21.5735Z" fill="#599B43"/>
<path opacity="0.32" d="M139.583 34.3974C138.241 34.0864 136.901 33.4114 135.978 32.3704C135.439 31.7654 135.01 31.2184 134.595 30.5534C134.572 30.5164 134.545 30.4814 134.52 30.4454C134.047 29.9664 134.167 30.0274 134.369 30.2564C134.027 29.8424 133.75 29.3884 133.543 28.9104C132.759 30.2544 132.394 31.8714 132.453 33.5994C132.518 35.5284 133.338 37.0744 134.014 38.7924C134.6 38.8524 135.183 38.6634 135.808 38.7464C136.593 38.8504 137.377 38.9984 138.162 39.1134C139.682 39.3364 141.053 39.0714 142.481 38.5184C145.294 37.4324 146.91 34.7744 146.589 31.8014C144.872 33.8554 142.371 35.0424 139.583 34.3974Z" fill="#599B43"/>
<path d="M142.606 24.9524C142.126 26.4094 141.946 28.0794 141.396 29.5664C140.913 30.8724 140.092 32.2684 139.29 33.3784C138.389 34.6224 137.036 35.4994 135.788 36.3384C135.542 36.5034 134.379 37.1204 134.591 37.4954C134.827 37.9144 136.164 36.9524 136.41 36.8134C138.432 35.6634 140.478 33.8254 141.356 31.6284C142.198 29.5224 142.606 27.2534 142.606 24.9524Z" fill="#407A3A"/>
<path d="M143.858 27.7144C143.858 27.7144 142.764 29.6963 141.632 29.5823C141.396 29.5583 141.692 30.2684 141.692 30.2684C141.692 30.2684 143.749 29.1464 143.858 27.7144Z" fill="#407A3A"/>
<path d="M140.798 26.2114C140.798 26.2114 140.281 29.6534 141.394 30.3834L141.528 29.9004C141.527 29.8994 140.738 27.7884 140.798 26.2114Z" fill="#407A3A"/>
<path d="M143.123 31.8135C143.123 31.8135 140.719 33.6175 139.546 33.3185L139.348 33.9554C139.348 33.9544 142.188 33.4865 143.123 31.8135Z" fill="#407A3A"/>
<path d="M138.711 28.1714C138.711 28.1714 137.976 32.3844 139.248 33.9544L139.539 33.5164C139.539 33.5174 138.592 30.1794 138.711 28.1714Z" fill="#407A3A"/>
<path d="M136.406 30.5195C136.406 30.5195 134.797 34.0745 136.406 36.2985L136.803 35.9905C136.804 35.9905 135.473 34.0205 136.406 30.5195Z" fill="#407A3A"/>
<path d="M142.606 35.7024C142.606 35.7024 139.864 38.4844 136.406 36.4374L136.713 36.0594C136.713 36.0604 139.605 37.4514 142.606 35.7024Z" fill="#407A3A"/>
<path d="M124.086 28.9915C124.086 28.9915 125.735 31.9344 129.273 33.0594C132.127 33.9654 133.307 36.6765 133.307 36.6765C133.307 36.6765 134.081 34.3114 129.71 32.6614C125.338 31.0134 125.516 30.1695 124.086 28.9915Z" fill="#407A3A"/>
<path d="M127.225 29.3445C127.225 29.3445 127.92 30.9565 127.841 32.0085L128.158 32.2845C128.159 32.2845 128.239 30.4965 127.225 29.3445Z" fill="#407A3A"/>
<path d="M127.693 32.0864C127.693 32.0864 126.311 32.9604 124.88 32.7024C124.88 32.7024 126.748 33.1594 128.158 32.2844L127.693 32.0864Z" fill="#407A3A"/>
<path d="M130.107 29.3445C130.107 29.3445 130.961 31.5505 130.305 33.2985L130.722 33.5565C130.723 33.5565 131.498 30.6555 130.107 29.3445Z" fill="#407A3A"/>
<path d="M126.689 34.9474C126.689 34.9474 129.505 34.3355 130.333 33.2195L130.723 33.5555C130.723 33.5565 128.915 35.0264 126.689 34.9474Z" fill="#407A3A"/>
<path d="M132.571 30.2686C132.571 30.2686 133.289 32.7695 132.064 34.4815L132.333 34.8295C132.333 34.8285 133.803 32.6226 132.571 30.2686Z" fill="#407A3A"/>
<path d="M128.226 36.2455C128.226 36.2455 131.465 35.8885 132.101 34.4365L132.489 34.8685C132.489 34.8685 130.924 36.6335 128.226 36.2455Z" fill="#407A3A"/>
<path d="M140.5 41.9225C140.5 41.9225 143.63 45.6575 144.136 51.5005C144.136 51.5005 144.554 48.3014 142.924 45.3404C141.295 42.3804 140.817 41.1875 140.5 41.9225Z" fill="#407A3A"/>
<path d="M140.798 42.0815C140.798 42.0815 137.599 43.2335 137.837 47.1085C137.837 47.1085 138.824 43.0145 140.894 42.4485L140.798 42.0815Z" fill="#407A3A"/>
<path d="M146.72 43.4334C146.72 43.4334 144.727 41.2674 140.894 42.4494L140.625 42.0824C140.625 42.0814 144.904 40.6124 146.72 43.4334Z" fill="#407A3A"/>
<path d="M142.342 44.5955C142.342 44.5955 139.963 46.8305 140.341 49.3145C140.341 49.3145 141.176 45.9575 142.607 44.9835L142.342 44.5955Z" fill="#407A3A"/>
<path d="M146.804 46.6876C146.804 46.6876 144.789 44.5766 142.495 45.0646L142.391 44.6666C142.39 44.6656 145.209 44.1536 146.804 46.6876Z" fill="#407A3A"/>
<path d="M143.525 47.2983C143.525 47.2983 141.501 48.4753 142.341 50.9343C142.341 50.9343 142.269 48.2513 143.671 47.7303L143.525 47.2983Z" fill="#407A3A"/>
<path d="M145.716 49.8604C145.716 49.8604 144.818 47.8483 143.62 47.7513L143.525 47.2983C143.525 47.2983 145.701 47.8194 145.716 49.8604Z" fill="#407A3A"/>
<path d="M114.155 42.3496C114.155 42.3496 114.672 43.6416 116.996 43.8806L117.295 43.7206C117.295 43.7206 115.267 43.3436 114.155 42.3496Z" fill="#407A3A"/>
<path d="M115.724 39.7466C115.724 39.7466 117.911 41.9526 119.659 42.6076L120.156 42.3486C120.156 42.3496 117.012 40.7376 115.724 39.7466Z" fill="#407A3A"/>
<path d="M119.142 38.1775C119.142 38.1775 121.665 40.3825 121.368 42.6085L121.706 42.7875C121.706 42.7865 122.182 39.4285 119.142 38.1775Z" fill="#407A3A"/>
<path d="M133.063 38.4055C133.063 38.4055 124.423 42.8365 123.45 49.5325C123.45 49.5325 127.176 41.4305 133.063 39.1925C133.063 39.1925 133.455 38.9015 133.063 38.4055Z" fill="#407A3A"/>
<path d="M124.98 39.4584C124.98 39.4584 129.133 37.9485 131.319 39.7365L131.577 39.4584C131.577 39.4584 128.915 37.0344 124.98 39.4584Z" fill="#407A3A"/>
<path d="M128.723 41.5645L128.344 41.9815C128.344 41.9815 125.358 41.5646 123.45 42.9356C123.45 42.9366 124.914 41.0675 128.723 41.5645Z" fill="#407A3A"/>
<path d="M126.087 44.7845C126.087 44.7845 124.126 44.5455 123.093 45.7575C123.093 45.7575 125.119 45.0815 125.656 45.3615L126.087 44.7845Z" fill="#407A3A"/>
<path d="M132.563 45.7575C132.563 45.7575 132.75 40.2535 131.319 39.7365L131.577 39.4585C131.577 39.4585 133.967 39.9755 132.563 45.7575Z" fill="#407A3A"/>
<path d="M128.279 42.0816C128.279 42.0816 130.484 44.2866 129.963 47.4466C129.963 47.4466 131.317 44.2456 128.577 41.7256L128.279 42.0816Z" fill="#407A3A"/>
<path d="M125.566 45.2615C125.566 45.2615 126.952 46.2545 126.639 48.5795C126.639 48.5795 127.384 46.5525 125.923 44.8525L125.566 45.2615Z" fill="#407A3A"/>
<path d="M147.814 56.4294C147.814 56.4294 141.197 57.0845 137.243 62.4695C137.243 62.4695 137.362 62.8075 137.502 62.8075C137.64 62.8075 140.362 58.3514 147.814 56.4294Z" fill="#407A3A"/>
<path d="M144 55.5544C144 55.5544 142.986 56.2305 143.046 57.6815L142.628 57.8395C142.628 57.8395 142.633 56.0114 144 55.5544Z" fill="#407A3A"/>
<path d="M146.438 58.7726C146.438 58.7726 143.723 58.9036 142.979 57.7056L142.627 57.8396C142.628 57.8396 144.248 59.6076 146.438 58.7726Z" fill="#407A3A"/>
<path d="M140.806 55.6733C140.806 55.6733 139.792 56.5533 140.597 58.9973L140.209 59.3243C140.209 59.3243 139.255 56.4633 140.806 55.6733Z" fill="#407A3A"/>
<path d="M145.279 61.0386C145.279 61.0386 141.952 61.6646 140.254 59.3246L140.597 58.9976C140.597 58.9976 141.75 60.7846 145.279 61.0386Z" fill="#407A3A"/>
<path d="M137.899 57.3435C137.899 57.3435 137.228 59.5195 138.122 61.3225L138.465 61.1155C138.465 61.1145 137.473 59.1345 137.899 57.3435Z" fill="#407A3A"/>
<path d="M143.562 63.0505C143.562 63.0505 139.94 63.6615 138.122 61.3215L138.361 60.8845C138.361 60.8855 139.554 62.7375 143.562 63.0505Z" fill="#407A3A"/>
<path d="M18.7238 9.57539C18.7238 9.57539 17.7789 -1.55662 9.7739 0.187384C2.4279 1.78838 5.76096 12.4404 5.76096 12.4404L18.7238 9.57539Z" fill="#9C9C9D"/>
<path d="M9.08679 0.374512C2.64579 2.47651 5.76184 12.4406 5.76184 12.4406L13.3888 10.7545C10.5408 8.65552 8.07279 4.18551 9.08679 0.374512Z" fill="#6F6F6F"/>
<path d="M11.001 5.68135C8.36998 6.03935 6.73787 7.41037 5.06787 9.07637C5.23387 10.9584 5.76099 12.4414 5.76099 12.4414L18.7239 9.57637C18.7239 9.57637 18.6008 8.30333 18.0708 6.76033C15.8748 5.79833 13.306 5.36635 11.001 5.68135Z" fill="#424241"/>
<path d="M25.4299 57.1125L18.7249 9.57549C18.7249 9.57549 9.41396 6.12254 5.76196 12.4405L16.314 58.3135L25.4299 57.1125Z" fill="#E79B4F"/>
<path opacity="0.55" d="M8.33179 9.81934C7.34079 10.4043 6.45096 11.2494 5.76196 12.4404L16.314 58.3134L19.615 58.4333L8.33179 9.81934Z" fill="#CE934F"/>
<path opacity="0.55" d="M21.6799 58.9155L23.6218 59.3685L14.479 8.69052C13.24 8.58652 11.8609 8.6185 10.5269 8.9465C11.4759 13.1125 21.4769 56.3355 21.6799 58.9155Z" fill="#E79B4F"/>
<path d="M16.3131 58.3144C16.3131 58.3144 18.968 54.0684 25.429 57.1134C25.429 57.1134 25.02 65.0844 26.14 68.3344C27.259 71.5834 30.317 74.9434 34.888 75.8404C39.459 76.7364 40.422 75.7234 40.867 79.0284C41.311 82.3334 41.5039 109.312 51.5819 127.031C51.5819 127.031 52.4929 129.165 50.0609 128.341C47.6289 127.517 44.25 123.335 41.963 116.399C39.676 109.463 34.8649 88.8344 34.1099 87.9534C33.3549 87.0724 31.485 87.4044 31.408 90.2034C31.331 93.0034 32.486 102.044 35.181 111.892C37.876 121.742 43.257 129.468 43.224 130.929C43.169 133.264 37.0869 131.161 32.2999 120.12C27.9039 109.979 23.28 93.7484 20.993 90.6534C18.706 87.5584 15.869 89.8404 16.668 95.4694C17.432 100.85 26.1201 122.229 32.0731 131.426C32.8831 132.676 32.0599 133.25 31.4239 133.168C29.4539 132.915 26.3341 130.344 23.0511 124.726C18.1551 116.348 12.771 105.861 9.66902 96.6544C7.27302 89.5444 5.11587 81.2274 9.93587 79.9634C14.7559 78.6974 20.623 74.6893 19.637 68.7603C18.651 62.8313 16.3131 58.3144 16.3131 58.3144Z" fill="#343533"/>
<path d="M22.5011 67.1005C22.5011 67.1005 18.927 57.1734 20.993 57.1014C22.116 57.0624 22.4521 65.9365 22.5011 67.1005Z" fill="#727371"/>
<path d="M23.1318 58.4954C23.1318 58.4954 23.0318 57.0564 23.6628 57.0804C24.2938 57.1044 24.2479 59.8274 24.4999 63.3044C24.7509 66.7814 25.0088 68.5364 25.4628 69.7904C25.9168 71.0434 29.5829 74.4364 31.2199 76.3174C32.8569 78.1974 30.21 77.9154 29.52 76.9384C29.157 76.4244 24.2048 70.2954 24.1918 69.8684C24.1788 69.4394 23.1318 58.4954 23.1318 58.4954Z" fill="#727371"/>
<path opacity="0.75" d="M29.3159 80.5145C28.5449 80.7885 27.7518 80.9905 26.9438 81.1665C25.8418 81.4055 24.737 81.3645 23.635 81.4065C22.717 81.4415 21.6918 81.0735 20.8708 81.5725C20.1228 82.0275 19.4398 82.8685 19.9748 83.7645C21.2438 85.8915 24.3649 83.9755 25.9619 83.4035C27.2149 82.9545 28.4308 82.9325 29.7478 82.8235C30.9078 82.7275 32.5409 82.5295 33.5949 81.9815C35.1639 81.1675 34.5799 79.1085 32.9079 78.9695C31.6619 78.8685 30.3529 80.1455 29.3159 80.5145Z" fill="#727371"/>
<path opacity="0.75" d="M49.3589 124.397C49.3589 124.397 42.427 114.307 39.624 95.8344C39.491 94.9534 39.335 94.0704 39.167 93.1964C38.742 91.0034 38.425 88.7534 38.418 86.5334C38.417 85.9654 38.636 82.4084 40.051 83.8534C40.388 84.1974 40.7959 90.5734 40.9209 92.3334C41.4769 100.19 44.2669 112.196 49.3589 124.397Z" fill="#727371"/>
<path opacity="0.75" d="M40.3839 127.741C40.3839 127.741 32.8471 117.876 28.5001 99.1903C28.2981 98.3233 25.8461 90.5333 26.0001 88.3193C26.1531 86.1353 27.9381 85.4343 29.3151 86.9163C30.2781 87.9523 30.6051 93.6343 30.7301 95.3953C31.2871 103.251 33.9619 114.103 40.3839 127.741Z" fill="#727371"/>
<path opacity="0.75" d="M15.2719 97.3193C14.9519 95.5843 12.8259 86.6964 16.0649 84.8914C17.5259 84.0764 15.5458 82.7213 15.5458 82.7213C11.5268 81.7443 11.1338 86.1234 11.7568 89.9044C12.0128 91.6284 14.144 100.083 14.374 100.942C19.22 118.987 28.4909 128.934 28.4909 128.934C22.0709 117.378 16.7019 105.064 15.2719 97.3193Z" fill="#727371"/>
<path d="M60.7458 129.202C58.0638 127.344 56.85 124.155 53.408 123.6C50.26 123.093 49.1178 123.645 46.4968 125.161C42.3798 127.544 38.5709 122.097 34.1729 123.784C32.1469 124.561 30.592 126.913 28.479 127.483C25.788 128.208 24.6439 125.384 22.5369 124.525C20.8629 123.842 18.1458 123.438 16.7578 124.569C15.3288 125.733 13.9868 127.367 13.6318 129.16C15.2398 129.025 18.6249 129.42 19.8469 130.46C20.5439 131.052 20.423 131.734 21.083 132.205C22.121 132.946 24.675 132.862 25.937 133.054C31.122 133.841 35.0799 138.684 40.6179 136.287C42.6249 135.419 43.5768 134.556 45.7478 134.507C47.8248 134.46 50.9368 134.499 52.6938 133.395C53.3568 132.978 53.5069 132.336 54.2439 131.923C55.0489 131.471 56.6408 131.377 57.5278 131.296C58.8658 131.173 61.1219 131.366 61.1479 129.444C60.9309 129.432 60.8508 129.276 60.7458 129.202Z" fill="#40423F"/>
<path d="M63.981 137.908C65.768 137.496 66.3949 136.215 67.8359 135.322C69.2279 134.46 69.566 134.463 71.499 134.465C73.497 134.467 75.5338 134.266 77.4668 134.759C79.0718 135.168 81.2698 136.558 83.0378 135.845C84.7528 135.154 84.8569 134.318 86.2239 133.023C87.6729 131.65 89.1898 131.23 91.2278 131.382C94.5608 131.631 96.1189 133.089 98.4119 135.147C103.43 139.647 113.499 134.258 117.598 140.192C123.313 148.466 104.577 143.276 101.758 144.095C99.8798 144.64 98.1478 146.065 96.4028 146.816C94.1868 147.77 92.0578 147.913 89.6228 148.012C87.0128 148.118 86.4199 147.988 84.4329 146.478C83.1829 145.53 83.0328 145.259 81.4458 145.023C77.9678 144.505 74.418 145.673 70.938 145.712C68.28 145.742 62.0538 145.021 60.7378 142.491C62.0758 141.678 64.2189 140.159 63.2939 138.361C64.3699 137.667 62.765 138.188 63.981 137.908Z" fill="#40423F"/>
<path d="M57.325 140.239C55.847 140.251 52.697 140.644 52.448 142.503C53.907 142.987 54.8238 142.964 54.7468 144.807C55.2688 144.859 58.118 143.407 58.365 142.962C58.962 141.89 58.374 140.23 57.325 140.239Z" fill="#40423F"/>
<path d="M60.2049 133.018C59.0269 133.014 56.761 132.337 55.918 133.317C54.367 135.121 57.483 134.98 58.407 135.276C59.485 135.623 60.687 136.456 61.47 134.735C62.14 133.265 61.3389 133.022 60.2049 133.018Z" fill="#40423F"/>
<path d="M105.987 145.442C105.102 144.943 102.053 144.743 102.036 146.333C102.878 146.655 103.245 147.439 104.15 147.583C105.175 147.747 106.246 147.047 107.338 147.099C108.392 145.271 106.876 145.942 105.987 145.442Z" fill="#40423F"/>
<path d="M121.442 138.709C122.284 138.441 123.139 137.843 124.047 137.673C125.294 137.438 125.548 138.06 126.529 138.402C127.291 138.669 128.315 138.18 128.94 138.429C129.963 138.838 129.976 140.055 128.973 140.589C128.245 140.978 127.411 140.383 126.644 140.392C125.667 140.403 125.418 140.639 124.349 140.511C123.719 140.436 122.372 140.602 121.923 140.055C121.154 139.118 120.448 138.599 121.442 138.709Z" fill="#40423F"/>
<path d="M101.243 129.375C100.407 129.691 97.8899 128.768 98.5149 130.879C99.4259 131.068 100.372 131.516 99.885 132.6C100.741 132.893 102.49 132.743 102.888 131.633C103.213 130.726 101.822 130.17 101.243 129.375Z" fill="#40423F"/>
<path d="M78.3669 147.135C77.3459 146.81 75.5258 146.657 74.8708 147.747C74.5938 148.206 75.1328 148.715 74.8918 149.17C74.7718 149.399 73.9819 149.616 73.7529 149.894C74.4329 150.377 78.1218 151.005 78.8628 150.39C79.2508 150.069 79.5788 148.755 79.4028 148.326C79.1668 147.747 78.2559 147.731 78.3669 147.135Z" fill="#40423F"/>
<path d="M85.176 148.367C83.031 147.61 83.438 149.272 83.053 150.636C85.423 150.774 87.942 149.342 85.176 148.367Z" fill="#40423F"/>
<path d="M14.2588 118.802C12.9678 118.763 9.78606 119.029 9.23907 120.647C8.53706 122.73 12.6919 121.083 13.7679 121.289C14.6289 121.454 14.6721 122.134 15.7911 121.676C16.1351 121.535 17.0579 120.727 17.0189 120.337C16.9859 120.001 14.6038 118.812 14.2588 118.802Z" fill="#40423F"/>
<path opacity="0.32" d="M150.263 118.936L159.35 89.3084L162.672 87.7694L162.889 87.1074L164.776 81.3384L134.572 77.8984C134.636 74.9394 134.711 71.2964 134.773 67.4104C134.854 67.0454 134.914 66.6764 135.009 66.4314C135.309 65.6634 135.796 64.9954 136.245 64.3294C136.511 63.9354 136.918 63.5264 137.27 63.0944C138.005 63.6484 139.333 64.1134 140.425 64.3804C140.818 64.4764 141.178 64.5484 141.466 64.5884C141.643 64.6124 141.817 64.6384 141.988 64.6614C142.333 64.7084 142.669 64.7474 142.998 64.7644C143.491 64.7884 143.971 64.7594 144.44 64.6204C144.753 64.5284 145.062 64.3894 145.369 64.1834C145.544 64.0674 145.705 63.9394 145.855 63.8034C145.905 63.7584 145.947 63.7074 145.995 63.6614C146.091 63.5664 146.187 63.4724 146.273 63.3704C146.322 63.3124 146.365 63.2504 146.411 63.1914C146.486 63.0924 146.562 62.9964 146.631 62.8924C146.673 62.8284 146.711 62.7614 146.75 62.6954C146.813 62.5904 146.877 62.4844 146.934 62.3754C146.968 62.3104 146.999 62.2424 147.031 62.1764C147.087 62.0614 147.141 61.9454 147.19 61.8264C147.216 61.7634 147.241 61.7004 147.265 61.6374C147.315 61.5084 147.363 61.3794 147.408 61.2484C147.426 61.1944 147.443 61.1414 147.461 61.0874C147.508 60.9404 147.553 60.7924 147.595 60.6444C147.605 60.6084 147.615 60.5724 147.624 60.5364C147.673 60.3594 147.718 60.1834 147.76 60.0084C147.76 60.0074 147.761 60.0054 147.761 60.0044C148.086 58.6444 148.266 57.3394 148.732 56.5834C148.921 56.2764 149.358 55.7434 149.823 55.3384C149.682 55.4114 149.537 55.4784 149.377 55.5254C148.856 55.6774 148.323 55.7164 147.767 55.6894C146.527 55.6304 145.299 55.0484 144.131 54.6324C141.661 53.7544 138.957 54.2064 137.497 56.5834C137.275 56.9444 137.127 57.3804 137.007 57.8314C137.003 57.8264 136.999 57.8224 136.994 57.8174C136.976 57.8864 136.971 57.9594 136.954 58.0284C136.893 58.2844 136.846 58.5384 136.808 58.7964C136.793 58.9014 136.774 58.9994 136.762 59.1034C136.721 59.4514 136.692 59.7914 136.676 60.1014C136.666 60.2904 136.654 60.5334 136.648 60.7984C136.635 61.3844 136.665 62.0714 136.843 62.5464C136.074 63.2524 135.404 64.0104 134.812 64.8994C134.901 58.6584 134.952 52.0804 134.888 46.9434C134.997 46.6974 135.082 46.4394 135.126 46.1644C135.134 46.1954 135.145 46.2254 135.153 46.2564C135.179 46.3424 135.204 46.4284 135.233 46.5144C135.28 46.6534 135.331 46.7874 135.386 46.9224C135.425 47.0184 135.468 47.1104 135.511 47.2024C135.57 47.3264 135.625 47.4514 135.691 47.5724C135.789 47.7564 135.895 47.9334 136.008 48.1074C136.069 48.2014 136.135 48.2914 136.199 48.3804C136.29 48.5074 136.383 48.6344 136.481 48.7554C136.543 48.8314 136.607 48.9054 136.671 48.9804C136.78 49.1054 136.894 49.2254 137.01 49.3424C137.069 49.4014 137.126 49.4604 137.186 49.5174C137.365 49.6854 137.549 49.8474 137.742 49.9964C137.743 49.9974 137.743 49.9974 137.744 49.9984C138.689 50.7274 139.778 51.1284 140.889 51.4874C141.555 51.7044 142.229 51.9054 142.884 52.1554C143.67 52.4564 144.797 52.9894 145.136 53.8094C145.188 53.1084 145.175 52.4874 145.566 51.8574C146.084 51.0234 146.88 50.3914 147.416 49.5474C148.197 48.3154 148.555 46.9494 148.576 45.5354C148.583 45.0634 148.552 44.5864 148.487 44.1074C148.075 41.0644 145.638 37.2614 142.11 38.9934C141.599 39.2444 141.008 39.6274 140.722 40.1134C140.585 40.3454 140.508 40.5924 140.441 40.8284C140.4 40.9714 140.224 41.1584 140.182 41.2264C139.465 40.4554 138.317 40.1784 137.344 40.5754C135.793 41.2074 135.008 42.5414 134.903 44.1874C134.894 44.1574 134.884 44.1264 134.875 44.0964C134.861 44.0504 134.848 44.0054 134.833 43.9584C134.774 41.6834 134.682 39.8864 134.545 38.7884C134.662 38.7804 134.778 38.7704 134.897 38.7594C135.194 38.7304 135.496 38.7024 135.808 38.7444C136.149 38.7894 136.489 38.8454 136.829 38.8994C137.273 38.9714 137.718 39.0454 138.162 39.1114C139.682 39.3344 141.053 39.0694 142.481 38.5164C142.842 38.3774 143.182 38.2094 143.503 38.0204C143.614 37.9554 143.71 37.8744 143.816 37.8014C144.015 37.6684 144.215 37.5374 144.395 37.3864C144.513 37.2864 144.613 37.1734 144.722 37.0674C144.868 36.9244 145.019 36.7864 145.149 36.6314C145.256 36.5034 145.346 36.3644 145.442 36.2304C145.55 36.0794 145.663 35.9304 145.756 35.7704C145.845 35.6204 145.916 35.4594 145.991 35.3014C146.067 35.1424 146.146 34.9854 146.209 34.8194C146.273 34.6494 146.32 34.4714 146.37 34.2964C146.417 34.1304 146.465 33.9664 146.498 33.7954C146.534 33.6084 146.554 33.4194 146.574 33.2284C146.592 33.0564 146.608 32.8844 146.613 32.7094C146.618 32.5134 146.609 32.3144 146.596 32.1144C146.589 32.0094 146.599 31.9074 146.587 31.8004C146.581 31.8084 146.574 31.8144 146.567 31.8214C146.549 31.6474 146.549 31.4774 146.518 31.3014C146.194 29.4874 144.835 27.9754 144.03 26.3404C143.493 25.2524 143.34 22.5424 144.253 21.5704C144.253 21.5704 142.316 24.0154 137.352 25.7894C135.812 26.3404 134.654 27.2874 133.839 28.4734C133.815 28.4544 133.786 28.4404 133.761 28.4234C133.715 28.3914 133.667 28.3614 133.618 28.3324C133.458 28.2344 133.29 28.1484 133.11 28.0754C133.083 28.0644 133.058 28.0514 133.031 28.0414C132.809 27.9554 132.579 27.8894 132.343 27.8324C132.323 27.8284 132.305 27.8244 132.285 27.8204C131.639 27.6744 130.966 27.6154 130.406 27.5894C128.774 27.5104 127.217 27.7294 125.607 27.5344C123.924 27.3304 120.669 26.1914 120.706 26.1614C121.44 27.0824 121.774 28.2994 122.003 29.4384C122.21 30.4744 122.48 31.5154 122.848 32.5174C122.845 32.5154 122.843 32.5134 122.84 32.5114C122.905 32.6914 122.99 32.8614 123.063 33.0354C123.167 33.2864 123.262 33.5424 123.382 33.7864C123.594 34.2204 123.831 34.6414 124.103 35.0444C124.635 35.8354 125.202 36.4424 125.849 36.8964C124.676 37.5554 123.737 38.5184 123.06 39.6664C122.515 38.2094 121.429 37.2234 120.011 36.8844C120.015 36.6904 120.021 36.4964 120.02 36.3014C120.019 36.1994 120.014 36.0984 120.012 35.9954C120.006 35.7234 120 35.4494 119.987 35.1764C119.982 35.0904 119.974 35.0034 119.968 34.9164C119.95 34.6274 119.931 34.3384 119.904 34.0494C119.897 33.9814 119.888 33.9124 119.882 33.8454C119.851 33.5354 119.817 33.2284 119.775 32.9204C119.769 32.8754 119.761 32.8304 119.755 32.7834C119.709 32.4544 119.659 32.1254 119.603 31.7994C119.599 31.7724 119.593 31.7444 119.588 31.7184C119.528 31.3734 119.463 31.0304 119.393 30.6884C119.39 30.6754 119.387 30.6634 119.384 30.6504C119.311 30.2954 119.232 29.9424 119.148 29.5914C119.147 29.5904 119.147 29.5904 119.147 29.5894C117.172 21.3704 112.533 14.5924 112.533 14.5924C65.828 14.7874 49.15 20.4304 49.146 20.4324C49.146 20.4324 49.153 20.5064 49.167 20.6384C49.205 21.0164 49.2949 21.9124 49.4199 23.2374C47.0429 30.6044 40.6588 51.6594 36.8928 76.1534C36.3148 76.0814 35.6569 75.9874 34.8889 75.8374C30.3179 74.9414 27.2599 71.5804 26.1409 68.3314C25.0209 65.0814 25.4299 57.1104 25.4299 57.1104L18.7249 9.57343C18.7249 9.57343 17.7799 -1.55857 9.7749 0.185431C9.5339 0.237431 9.30591 0.301382 9.08691 0.372382C9.08591 0.373382 9.08501 0.374396 9.08301 0.374396C8.31001 0.627396 7.67698 0.995403 7.15698 1.4444C7.13598 1.4624 7.11182 1.4794 7.09082 1.4994C6.98782 1.5904 6.89503 1.68743 6.80103 1.78443C6.77203 1.81543 6.73894 1.84541 6.71094 1.87641C6.62594 1.97041 6.54795 2.06739 6.47095 2.16639C6.44095 2.20639 6.40698 2.24343 6.37598 2.28443C6.30498 2.38043 6.2398 2.48143 6.1748 2.58143C6.1458 2.62843 6.11296 2.6734 6.08496 2.7204C6.02396 2.8204 5.96979 2.92341 5.91479 3.02741C5.88879 3.07841 5.85996 3.12744 5.83496 3.17744C5.78396 3.28144 5.73787 3.38741 5.69287 3.49341C5.66987 3.54841 5.6448 3.60044 5.6228 3.65644C5.5808 3.76244 5.54286 3.87044 5.50586 3.97944C5.48586 4.03644 5.46602 4.09341 5.44702 4.15241C5.41302 4.26041 5.38278 4.37044 5.35278 4.47944C5.33578 4.54044 5.31896 4.60038 5.30396 4.66138C5.27796 4.77038 5.25296 4.88244 5.23096 4.99244C5.21696 5.05544 5.20487 5.11843 5.19287 5.18043C5.17187 5.29143 5.15494 5.40243 5.13794 5.51343C5.12794 5.57743 5.11786 5.64139 5.10986 5.70539C5.09486 5.81639 5.08402 5.9284 5.07202 6.0384C5.06602 6.1034 5.05898 6.17042 5.05298 6.23542C5.04398 6.34642 5.03601 6.45743 5.03101 6.56843C5.02701 6.63243 5.024 6.69742 5.021 6.76142C5.016 6.87242 5.01299 6.98443 5.01099 7.09443C5.00999 7.15843 5.00879 7.22238 5.00879 7.28638C5.00879 7.39538 5.00996 7.50541 5.01196 7.61341C5.01296 7.67641 5.01485 7.74143 5.01685 7.80543C5.01985 7.91143 5.02479 8.01738 5.02979 8.12238C5.03379 8.18638 5.03699 8.25042 5.04199 8.31342C5.04799 8.41742 5.05599 8.51938 5.06299 8.62238C5.06799 8.68438 5.07386 8.74544 5.07886 8.80744C5.08686 8.88444 5.09383 8.9624 5.10083 9.0384C5.08983 9.0494 5.07887 9.05938 5.06787 9.07038C5.23387 10.9524 5.76099 12.4354 5.76099 12.4354L16.313 58.3084C16.313 58.3084 18.6529 62.8244 19.6379 68.7514C20.6229 74.6814 14.757 78.6894 9.93701 79.9554C5.11801 81.2204 7.27492 89.5354 9.66992 96.6464C11.4859 102.04 14.0939 107.866 16.9199 113.456C6.34192 117.267 0 120.535 0 120.535C0 120.535 23.124 147.391 72.376 154.069C111.451 159.366 167.053 126.09 167.053 126.09C167.053 126.09 160.486 122.956 150.263 118.936ZM133.308 37.0734C133.321 37.1054 133.334 37.1374 133.347 37.1694C133.326 37.1574 133.303 37.1464 133.281 37.1344C133.29 37.1124 133.3 37.0934 133.308 37.0734ZM129.603 49.8914C130.866 49.8314 132.395 49.3774 133.532 48.5484C133.39 51.4234 133.233 54.6574 133.077 57.9844C131.789 56.6494 129.491 53.1484 127.311 49.9114C128.056 49.8924 128.805 49.9294 129.603 49.8914ZM113.344 40.2184C113.341 40.2094 113.338 40.2004 113.335 40.1924C113.345 40.1894 113.356 40.1874 113.365 40.1854C113.358 40.1954 113.35 40.2064 113.344 40.2184ZM128.896 77.2514L122.3 78.9484C120.573 67.8274 118.165 55.7804 114.834 44.8504C114.994 44.8504 115.147 44.8464 115.292 44.8324C115.609 44.8014 115.895 44.7384 116.162 44.6504C116.833 44.4294 117.4 44.0474 118.113 43.6034C118.227 43.5324 118.343 43.4604 118.46 43.3914C118.577 43.3224 118.695 43.2534 118.815 43.1904C119.294 42.9354 119.794 42.7384 120.313 42.7144C120.443 42.7084 120.574 42.7134 120.706 42.7314C120.839 42.7504 120.972 42.7794 121.105 42.8254C121.351 42.9074 121.581 43.0214 121.796 43.1594C121.827 43.1804 121.853 43.2094 121.884 43.2304C121.869 43.3694 121.846 43.5054 121.837 43.6464C121.724 45.4634 122.438 47.1174 122.675 48.8904C122.866 50.3204 122.492 51.1874 121.984 52.4474C123.027 51.5744 123.658 50.7214 125.043 50.2614C125.434 50.1324 125.814 50.0484 126.19 49.9944C126.231 49.9884 126.272 49.9864 126.314 49.9814C129.011 54.5494 132.166 60.3934 132.811 63.7224C132.582 68.8304 132.374 73.7814 132.246 77.6314L128.896 77.2514ZM35.043 90.7414C34.873 92.4704 34.7218 94.2064 34.5908 95.9464C34.5878 95.9774 34.585 96.0094 34.583 96.0424C34.496 97.1904 34.4198 98.3404 34.3518 99.4904C34.3428 99.6304 34.3349 99.7694 34.3269 99.9094C34.2639 101.009 34.2098 102.109 34.1638 103.209C34.1578 103.374 34.151 103.54 34.145 103.706C34.102 104.808 34.067 105.909 34.043 107.009C34.041 107.128 34.0389 107.247 34.0369 107.366C32.1609 99.3784 31.3439 92.5634 31.4089 90.2004C31.4859 87.4014 33.3558 87.0694 34.1108 87.9504C34.2668 88.1324 34.598 89.1674 35.043 90.7414ZM20.9949 90.6514C22.5879 92.8054 25.3129 101.331 28.3069 109.732C26.1959 110.358 24.1799 110.991 22.2639 111.623C19.3309 104.606 17.0449 98.1094 16.6699 95.4684C15.8699 89.8394 18.7079 87.5574 20.9949 90.6514Z" fill="url(#paint0_radial_10_19617)"/>
<defs>
<radialGradient id="paint0_radial_10_19617" cx="0" cy="0" r="1" gradientUnits="userSpaceOnUse" gradientTransform="translate(90.4666 66.5141) scale(77.9435)">
<stop stop-color="#FAAF75"/>
<stop offset="1" stop-color="#825C82"/>
</radialGradient>
</defs>
</svg>
