<svg width="173" height="175" viewBox="0 0 173 175" fill="none" xmlns="http://www.w3.org/2000/svg">
<path d="M0 146.006C0 146.006 30.146 124.012 81.3 123.775C124.404 123.576 172.834 143.547 172.834 143.547C172.834 143.547 117.551 180.128 74.9922 174.359C21.3492 167.086 0 146.006 0 146.006Z" fill="#BCBDBC"/>
<path opacity="0.65" d="M123.593 132.802C123.593 132.802 66.9172 127.961 54.7412 129.083C45.7502 129.912 54.366 142.109 47.52 144.546C46.721 144.83 20.6831 135.361 20.6831 135.361C17.8291 136.542 14.7871 137.832 14.7871 137.832C19.7691 141.339 48.8821 148.548 46.4131 153.15C43.9441 157.752 27.0771 167.733 82.2671 173.983C82.2671 173.983 97.9442 173.108 105.325 169.358C105.325 169.358 105.446 158.983 102.952 156.233C102.952 156.233 140.833 154.019 160.333 142.126C160.334 142.126 146.603 133.369 123.593 132.802Z" fill="#BCBDBC"/>
<path d="M53.7042 2.54144C53.7042 2.54144 51.6751 -1.36057 49.3861 0.720429C47.0961 2.80143 49.0743 11.7504 51.2853 10.4494C53.4953 9.14843 52.4553 7.37943 54.4843 7.43143C56.5133 7.48343 58.2822 9.30442 63.9532 9.40842C69.6242 9.51242 69.9882 7.32744 72.0172 7.58844C74.0462 7.84844 73.9943 10.9174 76.3873 10.3454C77.3353 10.1184 77.6653 8.67144 77.8263 7.87744C78.1183 6.44044 78.1243 4.91143 77.8573 3.47043C77.6413 2.30543 77.2483 0.782427 76.0983 0.250427C73.9223 -0.755573 72.7832 1.58042 72.5892 1.96942C72.1722 2.80142 70.6123 0.824417 67.7513 0.408417C64.8893 -0.00858304 60.5013 0.285424 57.4503 1.39642C55.3433 2.16442 54.4682 3.66744 53.7042 2.54144Z" fill="#F7943B"/>
<path opacity="0.55" d="M76.5032 1.82518C75.8162 1.17618 74.6062 1.96317 74.0442 2.66817C73.5132 3.33517 72.8962 3.92717 72.2952 4.13317C69.5932 5.05917 66.8811 5.77517 63.9841 5.69017C61.1061 5.60617 58.0992 5.33017 55.2432 4.94017C52.6272 4.58317 52.636 0.158183 50.271 1.00618C47.55 1.98418 49.464 10.5772 51.29 9.58818C52.849 8.74218 52.3 6.31317 54.75 6.80217C56.68 7.18717 58.4331 8.46918 63.9321 8.56218C69.4311 8.65518 69.7722 6.85818 71.7512 6.94118C74.2942 7.04818 74.265 9.53516 75.989 9.39516C77.54 9.27016 78.0442 3.28218 76.5032 1.82518Z" fill="#D19439"/>
<path d="M50.2611 3.53163C48.9491 3.35363 46.9221 3.54963 45.6881 5.42863C43.7411 8.39363 42.0242 11.6716 33.3622 12.7636C24.7002 13.8566 21.1102 19.6316 20.7982 25.4846C20.4862 31.3386 20.9801 33.4446 23.4781 38.9076C25.9751 44.3706 26.1042 47.2976 25.2472 47.6996L26.4962 49.9286C26.4962 49.9286 30.6062 48.3756 25.8192 38.0746C21.0332 27.7726 23.9983 19.8646 28.2643 17.6286C32.5303 15.3916 37.4961 15.8686 41.6871 13.5186C47.2871 10.3766 47.6243 6.00061 50.2433 6.65461C51.4283 6.95061 51.5841 3.71263 50.2611 3.53163Z" fill="url(#paint0_linear_52_215)"/>
<path d="M25.4531 44.4209C25.8901 46.3569 25.7431 47.4669 25.2461 47.6999L26.4951 49.9289C26.4951 49.9289 28.2181 49.2559 28.1201 45.9709C27.3991 45.2109 26.4711 44.7259 25.4531 44.4209Z" fill="url(#paint1_linear_52_215)"/>
<path opacity="0.75" d="M37.2991 14.0168C37.0131 13.4168 36.7262 12.8167 36.4512 12.2188C35.5302 12.4348 34.5111 12.6198 33.3621 12.7648C28.2711 13.4078 24.9432 15.6718 22.9922 18.6158C23.4342 19.1128 23.8862 19.6028 24.3352 20.0948C27.5402 16.3528 32.2371 14.1898 37.2991 14.0168Z" fill="#68C0D6"/>
<path opacity="0.75" d="M23.8301 36.8343C24.3431 37.8973 24.694 38.9803 24.925 40.0893C25.418 39.8553 25.905 39.6123 26.364 39.3323C26.191 38.9223 26.0231 38.5173 25.8171 38.0753C24.5621 35.3723 23.8521 32.8423 23.5471 30.5283C22.9771 30.6433 22.4062 30.7303 21.8352 30.8243C21.9902 32.9193 22.9191 34.9453 23.8301 36.8343Z" fill="#99D4E3"/>
<path d="M103.588 49.7576C103.588 49.7576 111.164 50.3246 110.882 44.6336C110.751 41.9916 109.367 41.1566 108.213 41.0696C106.88 40.9676 105.6 41.9786 106.084 43.1286C106.783 44.7896 108.342 43.5626 108.342 43.5626C108.342 43.5626 109.215 45.7626 107.178 46.8976C106.426 47.3156 104.935 47.4796 103.348 47.4916C103.348 47.4916 102.764 47.7166 102.686 48.3166C102.631 48.7276 102.822 49.5026 103.588 49.7576Z" fill="url(#paint2_linear_52_215)"/>
<path d="M107.527 47.4026C107.43 47.2186 107.336 47.0346 107.238 46.8516C107.215 46.8656 107.201 46.8825 107.177 46.8965C106.425 47.3145 104.934 47.4785 103.347 47.4905C103.347 47.4905 102.763 47.7156 102.685 48.3156C102.631 48.7276 102.822 49.5035 103.587 49.7575C103.587 49.7575 106.363 49.9565 108.493 48.8565C108.192 48.3645 107.795 47.9086 107.527 47.4026Z" fill="url(#paint3_linear_52_215)"/>
<path d="M23.0771 53.9923C23.0771 53.9923 26.3392 57.0283 29.1482 51.7063C29.1482 51.7063 24.4032 43.5823 20.6582 45.2213C16.9122 46.8603 23.1551 49.9663 23.0771 53.9923ZM22.687 49.1623C22.687 48.5373 23.255 48.0303 23.955 48.0303C24.656 48.0303 25.2231 48.5373 25.2231 49.1623C25.2231 49.7873 24.656 50.2943 23.955 50.2943C23.255 50.2943 22.687 49.7873 22.687 49.1623Z" fill="url(#paint4_linear_52_215)"/>
<path opacity="0.55" d="M25.1101 49.6201C24.9121 50.0161 24.4711 50.2941 23.9551 50.2941C23.7771 50.2941 23.6142 50.2511 23.4622 50.1891C23.3402 51.2091 23.2082 52.2211 22.9922 53.2191C23.0382 53.4741 23.0821 53.7301 23.0771 53.9921C23.0771 53.9921 24.4732 55.2761 26.2222 54.6881C26.2102 53.1701 26.2101 50.8651 25.1101 49.6201Z" fill="url(#paint5_linear_52_215)"/>
<path d="M106.465 44.6058C102.719 42.9658 98.3171 51.2388 98.3171 51.2388C101.127 56.5618 104.046 53.3778 104.046 53.3778C103.966 49.3498 110.211 46.2438 106.465 44.6058ZM103.167 49.6778C102.467 49.6778 101.898 49.1708 101.898 48.5458C101.898 47.9208 102.466 47.4138 103.167 47.4138C103.868 47.4138 104.436 47.9208 104.436 48.5458C104.436 49.1708 103.867 49.6778 103.167 49.6778Z" fill="url(#paint6_linear_52_215)"/>
<path d="M41.01 133.943C41.01 133.943 53.3921 143.269 63.4331 142.751C73.4741 142.233 89.55 136.302 89.55 136.302C89.55 136.302 90.9541 79.084 102.036 55.25H25.8181C25.8191 55.249 41.738 117.38 41.01 133.943Z" fill="url(#paint7_linear_52_215)"/>
<path d="M41.01 133.943C41.01 133.943 53.3921 143.269 63.4331 142.751C71.7871 142.319 84.3202 138.141 88.2942 136.75C89.0972 136.469 89.55 136.302 89.55 136.302C89.55 136.302 93.3491 83.828 102.036 55.25H25.8181C25.8191 55.249 41.738 117.38 41.01 133.943Z" fill="url(#paint8_linear_52_215)"/>
<path d="M58.053 66.1719C58.255 70.3409 58.4961 75.3589 58.7571 80.8079C59.5471 80.8199 60.3372 80.8279 61.1292 80.8289C60.9192 75.3759 60.7241 70.3909 60.5571 66.2789C59.7171 66.2499 58.882 66.2139 58.053 66.1719Z" fill="url(#paint9_linear_52_215)"/>
<path d="M58.9321 84.4736C60.1551 110.09 61.6921 142.744 61.6921 142.744C62.2781 142.777 62.8591 142.781 63.4331 142.752C63.4331 142.752 62.243 109.978 61.269 84.5106C60.488 84.5006 59.7091 84.4896 58.9321 84.4736Z" fill="url(#paint10_linear_52_215)"/>
<path opacity="0.32" d="M36.2141 71.786C37.4881 79.979 47.6431 138.1 47.6431 138.1C51.0891 139.966 55.456 141.893 59.738 142.54C59.638 141.974 59.547 141.405 59.48 140.831C59.005 136.768 52.0361 60.802 51.1021 55.248H33.0901C33.9291 60.783 35.3501 66.228 36.2141 71.786Z" fill="url(#paint11_linear_52_215)"/>
<path opacity="0.75" d="M40.9451 55.249H33.0891C33.9291 60.783 47.6421 138.101 47.6421 138.101C49.4611 139.086 51.5391 140.082 53.7231 140.905C51.6401 125.716 41.4331 59.294 40.9451 55.249Z" fill="url(#paint12_linear_52_215)"/>
<path opacity="0.55" d="M42.2341 63.969C49.2721 64.69 56.4071 64.74 63.4761 64.664C76.2671 64.527 88.6661 62.342 100.943 59.088C101.298 57.77 101.662 56.483 102.037 55.249H25.8181C25.8181 55.249 26.3191 57.208 27.1311 60.483C32.0701 62.044 37.0571 63.44 42.2341 63.969Z" fill="#687A86"/>
<path opacity="0.75" d="M31.011 62.5781C31.886 66.3421 32.9362 71.1221 34.0872 76.8601C34.5392 77.0331 34.993 77.1931 35.447 77.3521C34.522 72.4781 33.5531 67.6471 32.5601 62.9631C32.0601 62.8311 31.544 62.7021 31.011 62.5781Z" fill="#24A4C4"/>
<path opacity="0.75" d="M34.9211 81.1025C37.5611 94.7955 40.5971 113.113 43.1921 135.45C43.7071 135.788 44.2931 136.161 44.9531 136.563C44.5691 133.059 41.0262 107.511 36.2222 81.4996C35.7882 81.3686 35.3541 81.2435 34.9211 81.1025Z" fill="#24A4C4"/>
<path d="M74.0681 55.249H72.4722C72.4672 55.287 72.462 55.325 72.458 55.363L74.0681 55.249Z" fill="url(#paint13_linear_52_215)"/>
<path d="M77.113 65.5876C76.816 70.3516 76.721 75.1466 76.593 79.9396C78.295 79.7036 79.9822 79.4306 81.6472 79.1156C82.1532 73.5796 82.6321 68.5596 83.0481 64.5166C81.1111 64.9666 79.126 65.3166 77.113 65.5876Z" fill="url(#paint14_linear_52_215)"/>
<path d="M76.4761 83.7065C76.3951 85.9855 76.2901 88.2625 76.1301 90.5295C74.9511 107.197 74.8462 123.918 74.0642 140.607C74.0012 140.628 73.9361 140.648 73.8711 140.669C73.8901 140.782 73.91 140.896 73.925 141.01C74.768 140.815 75.609 140.615 76.437 140.396C76.437 140.396 79.05 107.923 81.301 82.9385C79.7 83.2135 78.0901 83.4745 76.4761 83.7065Z" fill="url(#paint15_linear_52_215)"/>
<path opacity="0.75" d="M95.2651 55.5049C92.6711 68.2509 82.7811 126.967 82.2671 138.727C83.9831 138.199 85.496 137.704 86.696 137.298C87.242 125.051 93.0771 77.3599 99.2371 55.5049H95.2651Z" fill="url(#paint16_linear_52_215)"/>
<path d="M64.04 140.396C54.589 140.865 43.151 133.307 41.019 131.836C41.039 132.599 41.038 133.308 41.01 133.943C41.01 133.943 53.3921 143.269 63.4331 142.751C71.7871 142.319 84.3202 138.141 88.2942 136.75C89.0972 136.469 89.55 136.302 89.55 136.302C89.55 136.302 89.5921 135.682 89.7351 133.94C85.2781 135.466 72.542 139.975 64.04 140.396Z" fill="url(#paint17_linear_52_215)"/>
<path opacity="0.55" d="M89.802 133.11C89.802 133.11 89.347 133.277 88.54 133.558C84.545 134.95 71.9471 139.128 63.5491 139.559C53.6421 140.069 41.477 131.099 41.03 130.767C41.03 131.154 41.024 131.525 41.009 131.87C41.009 131.87 53.4561 141.197 63.5491 140.679C71.9471 140.247 84.545 136.069 88.54 134.677C89.347 134.397 89.708 134.264 89.708 134.264L89.802 133.11Z" fill="url(#paint18_linear_52_215)"/>
<path d="M22.592 52.6438L23.9192 57.2478C23.9192 57.2478 46.4131 62.9448 67.7771 61.7808C88.9801 60.6248 97.2772 57.5038 103.597 55.3068L105.079 51.5508C105.079 51.5508 88.1452 46.8678 65.6702 46.1928C43.9622 45.5388 26.26 52.0188 22.592 52.6438Z" fill="url(#paint19_linear_52_215)"/>
<path opacity="0.55" d="M56.4912 52.6436C56.9632 55.7206 57.4881 58.7905 57.9761 61.8695C59.3881 61.9125 60.812 61.9166 62.238 61.9066V52.6436H56.4912Z" fill="#687A86"/>
<path opacity="0.55" d="M92.4031 52.6436H89.9822C89.7462 54.8866 89.4201 57.1266 89.0781 59.3686C89.9981 59.1906 90.871 59.0096 91.709 58.8246C91.877 56.7576 92.1241 54.6986 92.4031 52.6436Z" fill="#687A86"/>
<path d="M65.551 51.2381H73.0132C72.9732 49.6751 72.9441 48.1161 72.9531 46.5571C70.7001 46.4011 68.3701 46.2801 65.9761 46.2031C65.8591 47.8841 65.7 49.5601 65.551 51.2381Z" fill="#C0C8CD"/>
<path d="M40.1602 49.1733C40.4792 49.8693 40.8291 50.5523 41.1711 51.2373H51.5461C50.9451 49.8073 50.348 48.3643 49.853 46.9033C46.237 47.3133 42.8901 47.8633 39.8311 48.4573C39.9401 48.6963 40.0502 48.9333 40.1602 49.1733Z" fill="#C0C8CD"/>
<path d="M98.5042 50.0335C96.8322 49.6905 94.8821 49.3165 92.6731 48.9375C92.5911 49.3665 92.496 49.7895 92.365 50.2305C92.265 50.5665 92.1681 50.9025 92.0681 51.2375H98.3162C98.3652 50.8355 98.4412 50.4355 98.5042 50.0335Z" fill="#C0C8CD"/>
<path d="M45.8521 54.8121C43.2241 54.7891 40.6451 54.5501 38.0811 54.2461C38.2301 56.2131 38.6121 58.1971 39.0981 60.1391C43.5421 60.7931 48.6642 61.3881 54.0562 61.7021C54.0742 59.4061 54.1112 57.1101 54.1492 54.8151C51.3832 54.8281 48.6171 54.8351 45.8521 54.8121Z" fill="#C0C8CD"/>
<path d="M32.1201 55.2312C31.9531 54.6292 31.7872 54.0322 31.6272 53.4342C29.6892 53.1972 27.7451 52.9822 25.7761 52.8722C24.9881 52.8292 24.276 52.6642 23.635 52.4092C23.225 52.5122 22.859 52.5972 22.593 52.6422L23.9202 57.2462C23.9202 57.2462 27.368 58.1192 32.843 59.1102C32.675 57.7942 32.4681 56.4822 32.1201 55.2312Z" fill="#C0C8CD"/>
<path d="M84.3352 54.4385C78.8072 54.8245 73.285 54.7465 67.717 54.7465C67.353 54.7465 66.988 54.7505 66.623 54.7505C66.586 57.1115 66.5492 59.4745 66.5342 61.8355C66.9492 61.8185 67.3641 61.8035 67.7781 61.7805C73.8671 61.4485 78.8872 60.9535 83.1072 60.3665C83.5432 58.3965 83.9782 56.4225 84.3352 54.4385Z" fill="#C0C8CD"/>
<path d="M103.488 51.1436C101.358 51.5646 99.239 52.0456 97.115 52.5096C97.006 53.7076 96.8941 54.9056 96.6851 56.0836C96.5931 56.6096 96.4801 57.1315 96.3801 57.6555C99.2491 56.8405 101.53 56.0235 103.597 55.3055L105.079 51.5496C105.08 51.5506 104.524 51.3976 103.488 51.1436Z" fill="#C0C8CD"/>
<path d="M26.2861 53.3198C26.2861 53.3198 38.0611 59.3228 63.4331 58.6528C74.6651 58.3558 84.9832 58.5288 100.085 52.8778C100.085 52.8778 84.3172 48.2528 64.7332 48.0398C54.1982 47.9238 41.0881 49.9908 26.2861 53.3198Z" fill="url(#paint20_linear_52_215)"/>
<path opacity="0.75" d="M26.2861 53.3198C26.2861 53.3198 38.0611 59.3228 63.4331 58.6528C74.6651 58.3558 84.9832 58.5288 100.085 52.8778C100.085 52.8778 84.3172 48.2528 64.7332 48.0398C54.1982 47.9238 41.0881 49.9908 26.2861 53.3198Z" fill="url(#paint21_linear_52_215)"/>
<path opacity="0.32" d="M84.071 57.2202C84.183 54.7072 84.431 52.1981 84.559 49.6801C81.309 49.1941 77.6769 48.7531 73.7699 48.4521C73.7549 50.4261 74.154 56.9682 74.143 58.2992C77.332 58.1172 80.606 57.7942 84.071 57.2202Z" fill="url(#paint22_linear_52_215)"/>
<path opacity="0.32" d="M63.2461 48.0479C60.7401 48.0699 58.099 48.2069 55.334 48.4459C55.762 50.9439 56.1212 53.4639 56.6292 55.9449C56.8172 56.8599 56.9842 57.7698 57.1372 58.6808C59.0522 58.7128 61.0592 58.7069 63.1602 58.6559C63.0532 55.1159 62.9371 51.5849 63.2461 48.0479Z" fill="url(#paint23_linear_52_215)"/>
<path opacity="0.32" d="M37.7231 56.7452C39.4511 57.0902 41.3771 57.4182 43.5151 57.7032C42.9251 55.2122 42.3501 52.7173 41.7051 50.2393C39.9111 50.5443 38.0681 50.8873 36.2031 51.2483C36.8371 53.0423 37.3151 54.8822 37.7231 56.7452Z" fill="url(#paint24_linear_52_215)"/>
<path opacity="0.32" d="M64.4871 80.8925C54.4651 80.8165 40.5681 80.1384 31.0071 76.6014C31.2031 77.4444 31.4001 78.2944 31.6001 79.1594C43.4861 83.2324 57.648 83.2194 69.998 82.9954C78.279 82.8454 88.192 81.7544 95.604 78.3824C95.991 78.2054 96.403 78.0254 96.811 77.8444C96.918 77.2594 97.0341 76.6884 97.1431 76.1064C86.8211 79.7834 75.1571 80.9735 64.4871 80.8925Z" fill="#687A86"/>
<path d="M65.709 80.2637C48.75 80.6797 41.3551 78.3158 30.7891 75.6638C30.9141 76.1958 31.0381 76.7287 31.1641 77.2697C42.3461 80.2087 48.755 82.0507 65.552 81.5947C73.789 81.3707 84.9571 81.4217 97.1121 76.2407C97.1861 75.8417 97.2641 75.4498 97.3411 75.0518C85.1731 79.1988 74.074 80.0577 65.709 80.2637Z" fill="url(#paint25_linear_52_215)"/>
<path opacity="0.75" d="M37.019 77.2408C36.115 77.0158 35.2031 76.7868 34.2791 76.5508C34.3841 77.0928 34.5 77.6308 34.603 78.1728C34.604 78.1728 34.6062 78.1738 34.6072 78.1738C35.5112 78.4088 36.3982 78.6368 37.2642 78.8528C37.1882 78.3148 37.106 77.7778 37.019 77.2408Z" fill="#C0C8CD"/>
<path opacity="0.75" d="M49.8921 79.6768C49.9831 80.1818 50.05 80.6917 50.157 81.1937C50.846 81.2627 51.5542 81.3247 52.2842 81.3787C52.2872 81.3787 52.2902 81.3798 52.2932 81.3798C53.0222 81.4338 53.774 81.4807 54.55 81.5197C54.554 81.5197 54.557 81.5208 54.561 81.5208C56.121 81.5988 57.7822 81.6457 59.5742 81.6607C59.5732 81.2037 59.5871 80.7477 59.5911 80.2907C55.9351 80.2237 52.7651 80.0078 49.8921 79.6768Z" fill="#C0C8CD"/>
<path opacity="0.75" d="M76.3371 79.6006C74.8681 79.7556 73.4451 79.8766 72.0681 79.9716C72.0641 80.4486 72.05 80.9246 72.052 81.4016C73.326 81.3456 74.641 81.2716 75.997 81.1666L75.998 81.1656C76.113 80.6446 76.2231 80.1216 76.3371 79.6006Z" fill="#C0C8CD"/>
<path opacity="0.75" d="M89.3601 77.3637C89.2601 77.9087 89.1701 78.4557 89.0681 79.0007C89.7091 78.8297 90.3532 78.6467 91.0012 78.4507C91.0612 78.4327 91.1212 78.4137 91.1812 78.3947C91.7702 78.2147 92.363 78.0257 92.958 77.8247C93.186 77.7477 93.415 77.6617 93.644 77.5807C94.09 77.4237 94.538 77.2677 94.988 77.0967C95.692 76.8277 96.3991 76.5457 97.1121 76.2427C97.1861 75.8437 97.2641 75.4517 97.3401 75.0537C94.6191 75.9797 91.9551 76.7347 89.3601 77.3637Z" fill="#C0C8CD"/>
<path opacity="0.32" d="M64.6211 89.0428C55.1151 88.9668 42.0502 88.5398 32.8682 84.7518C33.0542 85.5948 33.2412 86.4448 33.4302 87.3098C44.7022 91.3828 58.1342 91.3708 69.8472 91.1458C77.7012 90.9958 87.1021 89.9048 94.1311 86.5328C94.4991 86.3568 94.8881 86.1758 95.2771 85.9948C95.3791 85.4098 95.4881 84.8388 95.5911 84.2568C85.8031 87.9348 74.7411 89.1238 64.6211 89.0428Z" fill="#687A86"/>
<path d="M65.7791 88.4141C49.6961 88.8301 42.6821 86.4661 32.6611 83.8141C32.7791 84.3461 32.8971 84.8791 33.0161 85.4201C43.6211 88.3591 49.6992 90.2011 65.6292 89.7451C73.4422 89.5211 84.0331 89.5721 95.5601 84.3911C95.6311 83.9931 95.7061 83.6001 95.7771 83.2021C84.2401 87.3501 73.7141 88.2081 65.7791 88.4141Z" fill="url(#paint26_linear_52_215)"/>
<path opacity="0.75" d="M38.5701 85.3922C37.7121 85.1672 36.8472 84.9381 35.9712 84.7031C36.0712 85.2441 36.1801 85.7831 36.2781 86.3241C36.2791 86.3251 36.28 86.3251 36.282 86.3251C37.139 86.5601 37.98 86.7882 38.801 87.0042C38.731 86.4652 38.6521 85.9282 38.5701 85.3922Z" fill="#C0C8CD"/>
<path opacity="0.75" d="M50.7791 87.8271C50.8651 88.3331 50.929 88.8421 51.03 89.3441C51.684 89.4131 52.3561 89.4751 53.0471 89.5291C53.0501 89.5301 53.0532 89.5302 53.0562 89.5302C53.7472 89.5842 54.46 89.6311 55.196 89.6701C55.199 89.6701 55.2031 89.6711 55.2061 89.6711C56.6851 89.7491 58.2612 89.7971 59.9602 89.8111C59.9592 89.3541 59.9721 88.8981 59.9761 88.4411C56.5101 88.3751 53.5041 88.1581 50.7791 87.8271Z" fill="#C0C8CD"/>
<path opacity="0.75" d="M75.8601 87.751C74.4661 87.906 73.117 88.027 71.811 88.122C71.808 88.599 71.7941 89.075 71.7961 89.552C73.0041 89.496 74.252 89.423 75.538 89.317V89.316C75.648 88.795 75.7521 88.273 75.8601 87.751Z" fill="#C0C8CD"/>
<path opacity="0.75" d="M88.2112 85.5141C88.1172 86.0591 88.0301 86.6061 87.9341 87.1511C88.5411 86.9801 89.1531 86.7971 89.7681 86.6011C89.8251 86.5831 89.881 86.5641 89.938 86.5451C90.497 86.3651 91.059 86.1761 91.624 85.9751C91.84 85.8981 92.0582 85.8121 92.2742 85.7311C92.6982 85.5741 93.1221 85.4181 93.5481 85.2471C94.2161 84.9781 94.887 84.6971 95.562 84.3931C95.633 83.9951 95.7081 83.6021 95.7791 83.2041C93.1981 84.1301 90.6722 84.8861 88.2112 85.5141Z" fill="#C0C8CD"/>
<path opacity="0.32" d="M64.895 97.1952C55.838 97.1192 43.4061 96.5792 34.6401 92.9052C34.8171 93.7472 34.995 94.5972 35.176 95.4622C45.917 99.5352 58.714 99.5232 69.874 99.2982C77.357 99.1482 86.3152 98.0572 93.0122 94.6852C93.3632 94.5092 93.734 94.3282 94.104 94.1472C94.201 93.5622 94.3061 92.9912 94.4041 92.4092C85.0771 96.0872 74.537 97.2762 64.895 97.1952Z" fill="#687A86"/>
<path d="M65.999 96.5665C50.674 96.9825 43.9921 94.6185 34.4431 91.9665C34.5551 92.4985 34.668 93.0315 34.782 93.5725C44.887 96.5115 50.6782 98.3535 65.8562 97.8975C73.3002 97.6735 83.392 97.7245 94.375 92.5435C94.443 92.1455 94.514 91.7525 94.582 91.3545C83.589 95.5015 73.558 96.3605 65.999 96.5665Z" fill="url(#paint27_linear_52_215)"/>
<path opacity="0.75" d="M40.073 93.5435C39.256 93.3185 38.4322 93.0895 37.5972 92.8545C37.6922 93.3955 37.7962 93.9345 37.8892 94.4755C37.8902 94.4765 37.8921 94.4765 37.8931 94.4765C38.7101 94.7115 39.5112 94.9395 40.2932 95.1555C40.2262 94.6165 40.152 94.0795 40.073 93.5435Z" fill="#C0C8CD"/>
<path opacity="0.75" d="M51.7061 95.9805C51.7891 96.4855 51.8491 96.9955 51.9451 97.4965C52.5681 97.5655 53.2082 97.6275 53.8672 97.6815C53.8702 97.6825 53.8732 97.6825 53.8762 97.6825C54.5352 97.7365 55.214 97.7835 55.915 97.8225C55.918 97.8235 55.921 97.8235 55.925 97.8235C57.335 97.9015 58.8361 97.9495 60.4551 97.9635C60.4541 97.5075 60.4672 97.0505 60.4702 96.5935C57.1672 96.5275 54.3021 96.3105 51.7061 95.9805Z" fill="#C0C8CD"/>
<path opacity="0.75" d="M75.603 95.9033C74.276 96.0583 72.9901 96.1793 71.7461 96.2743C71.7431 96.7513 71.7301 97.2273 71.7321 97.7043C72.8831 97.6483 74.0721 97.5753 75.2971 97.4693L75.2981 97.4683C75.4021 96.9473 75.501 96.4243 75.603 95.9033Z" fill="#C0C8CD"/>
<path opacity="0.75" d="M87.3711 93.6655C87.2811 94.2105 87.1992 94.7575 87.1072 95.3025C87.6862 95.1315 88.268 94.9485 88.853 94.7525C88.908 94.7345 88.9621 94.7155 89.0161 94.6965C89.5481 94.5165 90.0831 94.3275 90.6221 94.1265C90.8271 94.0495 91.0342 93.9635 91.2412 93.8825C91.6452 93.7255 92.0491 93.5695 92.4561 93.3985C93.0921 93.1295 93.731 92.8485 94.374 92.5445C94.442 92.1465 94.5131 91.7535 94.5811 91.3555C92.1231 92.2815 89.7161 93.0375 87.3711 93.6655Z" fill="#C0C8CD"/>
<path d="M24.3041 50.4313C24.3041 50.4313 16.7269 50.9993 17.0099 45.3073C17.1409 42.6653 18.5261 41.8303 19.6801 41.7433C21.0131 41.6423 22.293 42.6533 21.808 43.8033C21.108 45.4643 19.55 44.2363 19.55 44.2363C19.55 44.2363 18.676 46.4363 20.715 47.5713C21.466 47.9903 22.9581 48.1533 24.5441 48.1653C24.5441 48.1653 25.128 48.3913 25.206 48.9903C25.26 49.4023 25.0701 50.1773 24.3041 50.4313Z" fill="url(#paint28_linear_52_215)"/>
<path d="M77.9041 3.74487C77.9041 3.74487 81.6651 2.46389 83.6111 5.42989C85.5581 8.39489 87.275 11.6729 95.937 12.7649C104.599 13.8579 108.189 19.6329 108.501 25.4859C108.814 31.3399 108.319 33.4459 105.821 38.9089C103.325 44.3719 103.195 47.2989 104.053 47.7009C104.053 47.7009 104.672 48.2049 104.487 48.8789C104.214 49.8699 102.803 49.9309 102.803 49.9309C102.803 49.9309 98.6942 48.3779 103.481 38.0769C108.266 27.7749 105.301 19.8669 101.036 17.6309C96.7691 15.3939 91.8041 15.8709 87.6121 13.5209C81.2131 9.93087 81.9351 4.82787 77.9561 7.06487C77.9561 7.06487 78.0642 5.99688 78.0432 5.28088C78.0032 3.90188 77.9041 3.74487 77.9041 3.74487Z" fill="url(#paint29_linear_52_215)"/>
<path d="M104.054 47.6999C103.717 47.5429 103.54 46.9809 103.591 46.0459C102.78 46.1919 101.977 46.3519 101.173 46.5049C101.265 49.3349 102.804 49.9299 102.804 49.9299C102.804 49.9299 104.214 49.8689 104.488 48.8779C104.673 48.2039 104.054 47.6999 104.054 47.6999Z" fill="url(#paint30_linear_52_215)"/>
<path d="M92.0012 14.0168C92.2872 13.4168 92.5741 12.8167 92.8501 12.2188C93.7711 12.4348 94.789 12.6198 95.938 12.7648C101.03 13.4078 104.358 15.6718 106.309 18.6158C105.867 19.1128 105.414 19.6028 104.965 20.0948C101.759 16.3528 97.0622 14.1898 92.0012 14.0168Z" fill="url(#paint31_linear_52_215)"/>
<path d="M97.339 75.0521C97.334 75.0531 97.3301 75.0552 97.3241 75.0562C97.7281 72.9542 98.154 70.8981 98.591 68.8711C96.195 69.6351 93.51 70.0201 91.307 71.2851C89.686 72.2161 89.0309 73.7751 88.9459 75.5931C88.8029 78.6371 88.9989 81.7411 89.0399 84.7891C89.0799 87.7301 89.1329 90.6741 89.0499 93.6151C88.8839 99.4631 88.053 105.113 85.819 110.547C83.749 115.58 81.1939 120.476 77.9879 124.883C76.8159 126.494 75.5469 128.041 74.1449 129.459C72.6749 130.945 70.9109 132.044 69.1659 133.172C65.6379 135.449 62.5881 138.222 62.6481 142.747C67.6051 142.753 72.6479 141.428 77.4039 140.137C81.4999 139.028 85.5669 137.758 89.5519 136.301C89.5519 136.301 89.607 135.554 89.715 134.203L89.8029 133.128C90.2689 127.507 90.8119 121.893 91.4149 116.285C92.3089 107.972 93.1809 99.5981 94.5829 91.3541C94.5809 91.3541 94.579 91.3551 94.577 91.3551C95.249 86.8531 95.9891 82.3001 96.8041 77.8461C96.8071 77.8451 96.8099 77.8431 96.8119 77.8421C96.9189 77.2571 97.0359 76.6861 97.1439 76.1041C97.1419 76.1041 97.1401 76.1051 97.1381 76.1061C97.2031 75.7541 97.272 75.4051 97.339 75.0521Z" fill="url(#paint32_linear_52_215)"/>
<path d="M25.1101 49.6205C25.1221 49.5865 25.1321 49.5536 25.1421 49.5186C25.1301 49.5536 25.1261 49.5885 25.1101 49.6205Z" fill="url(#paint33_linear_52_215)"/>
<path d="M25.0991 48.6904C25.1201 48.7314 25.13 48.7764 25.145 48.8204C25.131 48.7764 25.1191 48.7294 25.0991 48.6904Z" fill="url(#paint34_linear_52_215)"/>
<path d="M25.197 49.2742C25.205 49.2042 25.2061 49.1372 25.2031 49.0762C25.2061 49.1062 25.2231 49.1322 25.2231 49.1632C25.2231 49.2012 25.202 49.2362 25.197 49.2742Z" fill="url(#paint35_linear_52_215)"/>
<path d="M143.06 125.67C143.06 125.67 141.215 130.28 136.835 128.782C132.456 127.284 126.809 129.589 117.128 135.812C107.446 142.036 97.5352 141.344 93.0402 139.961C88.5462 138.577 78.8652 135.466 78.0582 137.54C77.2512 139.615 77.7513 143.38 77.7513 143.38C77.7513 143.38 90.8122 146.914 97.2672 147.068C103.72 147.222 115.279 146.221 118.396 144.533C123.927 141.536 127.693 140.23 133.455 139.616C139.016 139.022 142.982 136.849 144.674 135.85C144.673 135.851 144.904 127.783 143.06 125.67Z" fill="#565855"/>
<path d="M143.06 125.67C143.06 125.67 141.215 130.28 136.835 128.782C132.456 127.284 126.809 129.589 117.128 135.812C107.446 142.036 97.5352 141.344 93.0402 139.961C88.5462 138.577 78.8652 135.466 78.0582 137.54C77.2512 139.615 77.7513 143.38 77.7513 143.38C77.7513 143.38 90.8122 146.914 97.2672 147.068C103.72 147.222 115.279 146.221 118.396 144.533C123.927 141.536 127.693 140.23 133.455 139.616C139.016 139.022 142.982 136.849 144.674 135.85C144.673 135.851 144.904 127.783 143.06 125.67Z" fill="#141713"/>
<path d="M143.06 125.67C143.06 125.67 141.215 130.28 136.835 128.782C132.456 127.284 126.809 129.589 117.128 135.812C107.446 142.036 97.5352 141.344 93.0402 139.961C88.5462 138.577 78.8652 135.466 78.0582 137.54C77.2512 139.615 77.7513 143.38 77.7513 143.38C77.7513 143.38 79.7282 143.914 82.5182 144.575C82.7772 143.201 83.2252 140.976 83.4362 140.844C83.7442 140.653 84.5502 140.998 84.6652 141.267C84.7482 141.459 84.7122 143.774 84.6852 145.077C86.0572 145.385 87.5313 145.697 89.0123 145.982C89.2723 144.606 89.7171 142.398 89.9281 142.266C90.2351 142.074 91.0411 142.419 91.1571 142.689C91.2371 142.876 91.2073 145.053 91.1803 146.374C92.6783 146.628 94.1312 146.833 95.4362 146.954C95.6882 145.6 96.1632 143.211 96.3812 143.073C96.6902 142.881 97.4962 143.226 97.6112 143.496C97.6882 143.678 97.6621 145.745 97.6351 147.073C99.2221 147.099 101.078 147.062 103.036 146.964C103.116 145.572 103.278 143.265 103.474 143.105C103.753 142.876 104.598 143.116 104.747 143.368C104.845 143.534 105.074 145.511 105.219 146.832C106.89 146.715 108.571 146.559 110.167 146.365C110.095 144.977 109.999 142.626 110.177 142.444C110.431 142.185 111.296 142.332 111.472 142.565C111.591 142.725 112.058 144.775 112.345 146.07C113.902 145.834 115.292 145.559 116.415 145.253C116.226 143.95 115.859 141.259 116.032 141.047C116.261 140.767 117.136 140.835 117.333 141.052C117.466 141.2 118.116 143.206 118.517 144.47C120.106 143.613 121.548 142.906 122.939 142.305C122.718 141.18 122.336 139.09 122.504 138.924C122.734 138.695 130.034 136.275 130.38 137.119C130.589 137.631 130.909 138.957 131.132 139.925C131.875 139.809 132.641 139.703 133.452 139.617C133.782 139.581 134.106 139.54 134.425 139.494C134.231 138.103 133.978 136.068 134.127 135.885C134.356 135.605 135.231 135.673 135.427 135.891C135.554 136.032 136.143 137.837 136.546 139.102C137.985 138.777 139.276 138.363 140.402 137.928C140.206 136.553 139.901 134.215 140.061 134.019C140.291 133.738 141.166 133.806 141.362 134.024C141.482 134.158 142.024 135.807 142.423 137.056C143.383 136.596 144.14 136.166 144.671 135.852C144.673 135.851 144.904 127.783 143.06 125.67Z" fill="#40423F"/>
<path d="M103.337 61.3226C103.337 61.3226 110.905 92.9396 109.752 105.848C109.752 105.848 102.147 122.704 95.1151 127.645C88.0861 132.586 85.7811 127.515 82.0931 130.166C78.4051 132.817 79.0963 137.657 79.0963 137.657C79.0963 137.657 91.8883 142.69 103.721 142.075C115.553 141.461 124.543 131.703 130.383 131.242C136.222 130.781 142.459 130.799 143.643 126.679C143.643 126.679 144.289 115.491 138.219 104.887C138.219 104.887 136.069 102.383 139.603 94.2996C143.137 86.2166 148.362 68.5446 147.325 61.3216C147.324 61.3226 131.381 47.3386 103.337 61.3226Z" fill="url(#paint36_linear_52_215)"/>
<path d="M143.406 61.5918C143.406 61.5918 144.366 77.1508 134.531 97.1268C134.531 97.1268 132.342 101.468 133.84 105.617C135.338 109.765 141.985 124.326 137.988 124.402C133.994 124.479 126.982 124.402 115.4 132.008C106.832 137.635 99.4182 137.925 96.9602 137.617C96.9602 137.617 100.889 140.895 111.141 136.375C121.393 131.855 124.082 127.782 131.381 127.014C138.68 126.246 141.965 128.321 140.928 121.29C139.891 114.259 135.496 106 135.396 102.879C135.329 100.775 135.848 99.4758 136.453 97.8948C139.454 90.0388 145.098 78.8608 145.673 62.9348C145.672 62.9358 144.596 61.8988 143.406 61.5918Z" fill="#D31F37"/>
<path d="M106.525 61.5915C106.525 61.5915 113.566 94.2834 111.14 104.886C108.714 115.49 102.952 120.56 102.952 120.56C102.952 120.56 112.638 111.034 113.251 103.196C113.862 95.3594 113.401 68.9285 111.173 59.9395C111.173 59.9395 107.332 61.0535 106.525 61.5915Z" fill="#D31F37"/>
<path d="M92.6602 132.826C91.2812 132.751 89.9121 132.501 88.5901 132.097C88.1721 131.97 87.7491 131.843 87.3941 131.74C86.2031 131.394 83.2061 131.778 85.2041 133.623C87.2021 135.467 94.0072 136.805 93.8482 134.055C93.7892 133.033 93.4652 132.871 92.6602 132.826Z" fill="#F1656C"/>
<path opacity="0.75" d="M143.658 126.714C143.653 126.701 143.647 126.692 143.642 126.679V126.677C143.642 126.677 144.288 115.489 138.218 104.886C137.298 103.652 137.508 101.631 137.731 100.234C138.361 96.2891 140.378 92.6441 141.707 88.9011C143.123 84.9081 144.347 80.8401 145.369 76.7291C146.314 72.9231 147.151 69.0331 147.401 65.1111C147.482 63.8521 147.504 62.5741 147.324 61.3221C147.324 61.3221 131.381 47.3391 103.337 61.3221C103.337 61.3221 110.905 92.9391 109.752 105.847C107.58 110.627 105.038 115.303 102.121 119.668C100.213 122.525 98.0681 125.507 95.2561 127.544C93.5351 128.79 91.5291 129.813 89.3701 129.907C87.9781 129.968 86.6692 129.569 85.3042 129.396C81.2022 128.877 78.9651 133.406 79.0481 136.934C77.5391 137.226 77.6221 139.312 77.6011 140.539C77.5851 141.485 77.6342 142.438 77.7512 143.379C79.3342 143.804 80.9271 144.185 82.5181 144.574C85.3871 145.255 88.2732 145.88 91.1812 146.372C97.3762 147.611 103.944 147.115 110.169 146.362C110.92 146.271 111.648 146.174 112.347 146.067C113.714 145.872 115.084 145.614 116.417 145.25C118.716 144.621 120.759 143.244 122.94 142.301C126.669 140.689 130.438 140.065 134.426 139.491C135.164 139.385 135.871 139.252 136.547 139.098C137.856 138.771 139.143 138.411 140.403 137.924C141.882 137.353 143.306 136.654 144.672 135.848C144.742 132.897 144.775 129.49 143.658 126.714C144.594 129.039 143.653 126.701 143.658 126.714Z" fill="#C0596C"/>
<path d="M152.636 130.451C152.636 130.451 150.792 135.06 146.413 133.562C142.032 132.064 136.386 134.369 126.704 140.592C117.023 146.816 107.112 146.124 102.617 144.741C98.1223 143.357 88.4411 140.246 87.6351 142.32C86.8281 144.395 87.3282 148.16 87.3282 148.16C87.3282 148.16 100.39 151.694 106.843 151.848C113.298 152.002 124.855 151.001 127.972 149.313C133.505 146.316 137.269 145.01 143.033 144.396C148.594 143.802 152.56 141.629 154.25 140.63C154.25 140.631 154.48 132.564 152.636 130.451Z" fill="#565855"/>
<path d="M152.636 130.451C152.636 130.451 150.792 135.06 146.413 133.562C142.032 132.064 136.386 134.369 126.704 140.592C117.023 146.816 107.112 146.124 102.617 144.741C98.1223 143.357 88.4411 140.246 87.6351 142.32C86.8281 144.395 87.3282 148.16 87.3282 148.16C87.3282 148.16 100.39 151.694 106.843 151.848C113.298 152.002 124.855 151.001 127.972 149.313C133.505 146.316 137.269 145.01 143.033 144.396C148.594 143.802 152.56 141.629 154.25 140.63C154.25 140.631 154.48 132.564 152.636 130.451Z" fill="#141713"/>
<path d="M152.636 130.451C152.636 130.451 150.792 135.06 146.413 133.562C142.032 132.064 136.386 134.369 126.704 140.592C117.023 146.816 107.112 146.124 102.617 144.741C98.1223 143.357 88.4411 140.246 87.6351 142.32C86.8281 144.395 87.3282 148.16 87.3282 148.16C87.3282 148.16 89.3043 148.694 92.0953 149.355C92.3543 147.981 92.8023 145.756 93.0133 145.624C93.3213 145.433 94.1283 145.778 94.2433 146.047C94.3253 146.239 94.2903 148.554 94.2633 149.857C95.6353 150.165 97.1092 150.477 98.5912 150.762C98.8502 149.386 99.2952 147.178 99.5052 147.046C99.8142 146.854 100.62 147.199 100.735 147.469C100.815 147.656 100.784 149.833 100.756 151.154C102.255 151.408 103.708 151.613 105.012 151.734C105.266 150.38 105.739 147.991 105.959 147.853C106.266 147.661 107.072 148.006 107.188 148.276C107.266 148.457 107.239 150.525 107.213 151.853C108.801 151.879 110.656 151.842 112.614 151.744C112.694 150.352 112.855 148.045 113.051 147.885C113.332 147.656 114.176 147.895 114.324 148.147C114.423 148.314 114.652 150.291 114.797 151.612C116.467 151.495 118.149 151.339 119.745 151.145C119.672 149.757 119.577 147.407 119.756 147.224C120.009 146.965 120.874 147.112 121.049 147.345C121.169 147.505 121.637 149.555 121.923 150.85C123.481 150.614 124.871 150.339 125.993 150.033C125.804 148.73 125.437 146.039 125.61 145.827C125.839 145.546 126.714 145.615 126.91 145.832C127.043 145.98 127.693 147.986 128.095 149.25C129.684 148.393 131.126 147.686 132.516 147.085C132.296 145.96 131.914 143.87 132.082 143.704C132.312 143.475 139.611 141.055 139.957 141.899C140.166 142.411 140.488 143.737 140.709 144.705C141.453 144.589 142.219 144.483 143.031 144.397C143.36 144.361 143.683 144.32 144.003 144.274C143.809 142.883 143.555 140.848 143.705 140.665C143.934 140.385 144.809 140.453 145.005 140.671C145.131 140.812 145.721 142.617 146.123 143.882C147.564 143.557 148.855 143.143 149.98 142.708C149.784 141.333 149.478 138.995 149.64 138.798C149.869 138.518 150.744 138.586 150.939 138.804C151.06 138.938 151.601 140.586 152.002 141.836C152.961 141.376 153.717 140.946 154.248 140.632C154.25 140.631 154.48 132.564 152.636 130.451Z" fill="#40423F"/>
<path d="M112.914 66.1028C112.914 66.1028 120.482 97.7199 119.33 110.628C119.33 110.628 111.723 127.484 104.693 132.425C97.6622 137.366 95.3572 132.295 91.6702 134.946C87.9822 137.597 88.6732 142.437 88.6732 142.437C88.6732 142.437 101.466 147.47 113.299 146.855C125.131 146.241 134.12 136.483 139.959 136.022C145.799 135.561 152.035 135.579 153.22 131.459C153.22 131.459 153.866 120.271 147.797 109.667C147.797 109.667 145.645 107.163 149.18 99.0798C152.714 90.9968 157.939 73.3249 156.901 66.1019C156.9 66.1029 140.958 52.1188 112.914 66.1028Z" fill="url(#paint37_linear_52_215)"/>
<path d="M152.982 66.3721C152.982 66.3721 153.943 81.9311 144.108 101.907C144.108 101.907 141.918 106.248 143.417 110.397C144.915 114.545 151.561 129.106 147.566 129.182C143.57 129.259 136.559 129.182 124.976 136.788C116.41 142.415 108.996 142.705 106.537 142.397C106.537 142.397 110.465 145.675 120.718 141.155C130.97 136.634 133.659 132.562 140.958 131.794C148.258 131.026 151.542 133.101 150.505 126.07C149.467 119.04 145.072 110.78 144.973 107.659C144.906 105.555 145.425 104.256 146.03 102.675C149.031 94.8201 154.675 83.6411 155.25 67.7151C155.249 67.7161 154.173 66.6791 152.982 66.3721Z" fill="#D31F37"/>
<path d="M116.102 66.3717C116.102 66.3717 123.142 99.0637 120.717 109.667C118.291 120.271 112.529 125.342 112.529 125.342C112.529 125.342 122.217 115.814 122.828 107.977C123.439 100.14 122.978 73.7087 120.751 64.7197C120.751 64.7197 116.909 65.8337 116.102 66.3717Z" fill="#D31F37"/>
<path d="M126.09 111.281C127.469 111.281 128.587 110.146 128.587 108.745C128.587 107.344 127.469 106.209 126.09 106.209C124.711 106.209 123.593 107.344 123.593 108.745C123.593 110.146 124.711 111.281 126.09 111.281Z" fill="#F1656C"/>
<path d="M107.689 138.116C108.994 138.116 110.052 137.329 110.052 136.358C110.052 135.387 108.994 134.6 107.689 134.6C106.384 134.6 105.326 135.387 105.326 136.358C105.326 137.329 106.384 138.116 107.689 138.116Z" fill="#F1656C"/>
<path d="M102.237 137.607C100.857 137.532 99.4879 137.282 98.1669 136.878C97.7479 136.751 97.3261 136.624 96.9711 136.521C95.7811 136.175 92.7829 136.559 94.7819 138.404C96.7799 140.248 103.585 141.586 103.426 138.836C103.365 137.813 103.041 137.651 102.237 137.607Z" fill="#F1656C"/>
<path d="M144.531 124.458C144.531 124.458 144.07 122.69 138.768 124.842C133.466 126.994 132.16 128.588 128.875 129.798C125.59 131.008 125.726 134.526 131.642 131.584C137.558 128.642 139.652 126.858 142.302 126.686C144.952 126.514 145.16 124.995 144.531 124.458Z" fill="#F1656C"/>
<path d="M127.435 114.124C127.435 114.124 122.21 114.124 121.519 115.199C120.828 116.275 118.657 124.544 111.992 130.451C105.326 136.357 116.102 134.196 121.577 127.627C127.05 121.058 128.732 114.088 127.435 114.124Z" fill="#F1656C"/>
<path d="M138.28 65.1511C135.944 65.2731 134.131 67.2341 134.224 69.5711C134.472 75.7891 134.819 87.7471 134.049 92.4501C132.987 98.9351 141.115 92.3301 143.681 82.3081C146.494 71.3221 148.146 64.6331 138.28 65.1511Z" fill="#F1656C"/>
<path opacity="0.5" d="M92.809 141.623C88.615 138.541 83.742 136.822 79.36 134.266C79.078 135.333 79.032 136.309 79.047 136.936C78.544 137.034 78.184 137.218 78.058 137.541C78.022 137.634 77.9921 137.734 77.9601 137.833C77.5891 138.627 77.614 139.757 77.6 140.541C77.6 140.557 77.601 140.572 77.601 140.588C77.595 141.032 77.6039 141.457 77.6229 141.838C77.6259 141.914 77.6299 141.99 77.6339 142.067C77.6789 142.844 77.7499 143.38 77.7499 143.38C77.7499 143.38 81.9131 144.506 86.7001 145.515C86.7861 145.534 86.8719 145.551 86.9589 145.569C87.0309 145.584 87.1029 145.599 87.1749 145.614C87.1739 147.001 87.327 148.161 87.327 148.161C87.327 148.161 91.549 149.303 96.379 150.317C96.383 150.318 96.388 150.319 96.393 150.32C96.96 150.439 97.5391 150.553 98.1181 150.667C97.1481 147.122 95.74 143.778 92.809 141.623Z" fill="#BD9C9A"/>
<path d="M9.955 116.495C9.955 116.495 4.33901 114.461 2.37101 117.47C0.402013 120.48 2.05805 124.321 5.00505 125.645L9.955 116.495Z" fill="#9C9C9D"/>
<path d="M7.52606 120.986L5.00506 125.645C2.21006 124.388 0.582008 120.871 2.10101 117.944C2.11801 120.735 5.36606 121.995 7.52606 120.986Z" fill="#6F6F6F"/>
<path d="M48.0542 138.47L9.95509 116.495C9.95509 116.495 3.20514 118.895 5.00514 125.644L44.063 143.123L48.0542 138.47Z" fill="#E79B4F"/>
<path opacity="0.55" d="M45.373 141.995L44.063 143.125L5.00511 125.646C4.83211 124.998 4.95916 123.048 4.93016 122.478C18.3182 129.697 45.373 141.995 45.373 141.995Z" fill="#CE934F"/>
<path opacity="0.55" d="M5.94507 119.548C6.39207 118.923 6.91318 118.403 7.43018 117.983C7.03218 117.983 46.886 139.806 46.886 139.806L45.7271 141.409C42.1931 139.709 12.0781 122.738 5.94507 119.548Z" fill="#E79B4F"/>
<path d="M48.0542 138.471C48.0542 138.471 53.6982 143.74 57.6912 142.502C61.6842 141.264 61.4602 138.789 61.7412 137.608C62.0222 136.426 61.853 132.152 65.791 132.658C69.729 133.164 87.6531 142.145 89.9031 144.171C92.1531 146.195 96.0521 154.07 101.153 167.57C101.153 167.57 92.8282 171.245 85.2532 171.695C77.6782 172.144 56.4541 165.844 44.0791 161.344C44.0791 161.344 41.041 159.207 41.041 157.125C41.041 155.044 43.3472 155.832 45.8782 155.044C48.4092 154.257 50.4342 150.15 47.8472 146.775C45.2602 143.4 44.0781 143.232 44.0781 143.232C44.0781 143.232 43.1422 138.096 48.0542 138.471Z" fill="#666866"/>
<path opacity="0.32" d="M67.0891 160.909C68.7521 160.402 70.165 159.855 71.644 158.932C72.244 158.558 72.6311 158.032 73.1421 157.606C76.5151 159.29 80.1551 160.93 83.4751 162.53C80.8611 163.466 78.2531 164.386 75.6951 165.334C71.8881 165.063 65.134 163.224 61.717 161.647C63.549 161.6 65.3781 161.433 67.0891 160.909Z" fill="url(#paint38_linear_52_215)"/>
<path d="M59.4613 141.727C61.3243 143.189 63.2412 144.8 64.8062 146.299C66.0842 147.523 67.8161 149.076 68.0831 150.95C68.5101 153.938 63.9262 153.627 62.4002 153.464C57.7472 152.966 53.3591 152.119 48.8521 151.621C49.2561 150.126 49.0722 148.371 47.8492 146.775C45.2622 143.4 44.0802 143.232 44.0802 143.232C44.0802 143.232 43.1422 138.094 48.0552 138.469C48.0552 138.469 53.6992 143.738 57.6922 142.5C58.4102 142.279 58.9883 142.015 59.4613 141.727Z" fill="#333431"/>
<path opacity="0.32" d="M71.1902 153.878C65.2662 151.23 48.502 140.728 45.521 138.966C46.115 138.598 46.9242 138.385 48.0552 138.471C48.0552 138.471 53.6991 143.74 57.6921 142.502C61.6851 141.264 61.4612 138.789 61.7422 137.608C62.0232 136.426 61.854 132.152 65.792 132.658C69.73 133.164 87.6541 142.145 89.9041 144.17C92.1541 146.195 96.0531 154.07 101.154 167.57C101.154 167.57 101.083 167.6 100.979 167.644C90.677 164.239 81.0432 158.282 71.1902 153.878Z" fill="#666866"/>
<path d="M86.7061 143.723C81.0761 140.219 75.6531 138.321 68.8401 135.377C66.2251 134.247 63.1031 134.153 62.6941 137.43C61.4541 147.352 51.994 142.747 46.698 138.535C47.094 138.464 47.5352 138.431 48.0552 138.471C48.0552 138.471 53.6991 143.74 57.6921 142.502C61.6851 141.264 61.4612 138.789 61.7422 137.608C62.0232 136.426 61.854 132.152 65.792 132.658C69.73 133.164 87.6541 142.145 89.9041 144.17C90.8481 145.02 92.0871 146.913 93.5781 149.806C90.5781 146.12 88.6031 144.904 86.7061 143.723Z" fill="#424341"/>
<path d="M42.468 155.61C45.02 156.651 47.621 158.001 50.05 159.037C53.67 160.58 57.2581 162.189 60.8691 163.753C66.0091 165.979 71.0991 168.149 76.0471 170.648C66.3691 168.722 52.9501 164.572 44.0791 161.345C44.0791 161.345 41.041 159.208 41.041 157.126C41.042 156.103 41.601 155.774 42.468 155.61Z" fill="#333532"/>
<path d="M55.6011 146.76C52.6141 144.617 49.208 142.278 46.698 139.609C48.245 140.196 49.7781 140.85 51.2971 141.547C53.7341 142.872 56.8111 144.015 59.2061 145.604C62.4981 147.789 65.157 149.944 67.636 152.57C67.569 152.64 60.8791 150.544 55.6011 146.76Z" fill="#60615F"/>
<path d="M9.95498 116.495L11.6801 117.499C9.65708 118.173 5.9989 120.958 7.0209 126.551L5.00503 125.645C4.38403 123.315 4.63011 121.207 5.41811 119.833C6.91011 117.228 9.95498 116.495 9.95498 116.495Z" fill="#424241"/>
<path opacity="0.32" d="M154.172 136.894C154.057 135.024 153.797 132.869 153.219 131.459L153.22 131.458C153.22 131.458 153.866 120.27 147.797 109.666C147.797 109.666 145.645 107.162 149.18 99.0794C152.714 90.9964 157.939 73.3245 156.902 66.1015C156.902 66.1015 153.583 63.2044 147.33 61.3654C147.328 61.3514 147.327 61.3365 147.325 61.3215C147.325 61.3215 131.382 47.3385 103.338 61.3215C103.338 61.3215 110.906 92.9385 109.753 105.846C109.392 106.643 109.003 107.432 108.62 108.222C107.581 110.33 105.903 113.578 103.888 116.892C103.322 117.813 102.747 118.729 102.15 119.625C100.943 121.434 99.66 123.167 98.353 124.641C95.78 124.382 93.201 124.176 90.625 124.03C90.874 121.458 91.1351 118.887 91.4111 116.319C91.4331 116.107 91.456 115.895 91.479 115.681C91.49 115.584 91.5 115.487 91.51 115.39C92.266 108.443 93.2491 100.352 94.4731 92.0614C94.5121 91.8264 94.541 91.5885 94.582 91.3545C94.58 91.3545 94.5782 91.3554 94.5762 91.3554L94.5771 91.3545C94.9121 89.1045 95.265 86.8415 95.636 84.5855C95.637 84.5835 95.6372 84.5814 95.6372 84.5794C96.0082 82.3224 96.397 80.0725 96.803 77.8465C96.806 77.8455 96.809 77.8434 96.811 77.8424C96.918 77.2574 97.0351 76.6865 97.1431 76.1045C97.1411 76.1045 97.1392 76.1055 97.1372 76.1065C97.2032 75.7535 97.2731 75.4045 97.3391 75.0515C97.3341 75.0525 97.3302 75.0545 97.3242 75.0555C97.7282 72.9535 98.1541 70.8975 98.5911 68.8705C98.5881 68.8715 98.584 68.8724 98.582 68.8734C99.318 65.4544 100.103 62.1674 100.937 59.0894C100.939 59.0884 100.941 59.0885 100.943 59.0875C101.236 58.0025 101.535 56.9465 101.84 55.9165C102.446 55.7075 103.03 55.5025 103.597 55.3055L105.079 51.5495C105.079 51.5495 105.04 51.5385 104.983 51.5235C104.978 51.5225 104.978 51.5224 104.973 51.5204C104.877 51.4954 104.712 51.4514 104.48 51.3914C104.737 50.8004 105.083 50.2365 105.454 49.7005C107.677 49.4645 111.071 48.4795 110.881 44.6335C110.75 41.9905 109.365 41.1565 108.212 41.0695C106.879 40.9675 105.599 41.9784 106.083 43.1284C106.782 44.7894 108.341 43.5625 108.341 43.5625C108.341 43.5625 109.116 45.5224 107.487 46.6974C107.845 45.8524 107.704 45.1484 106.464 44.6064C105.569 44.2144 104.64 44.3915 103.739 44.8815C104.015 43.4375 104.659 41.4504 105.821 38.9084C108.319 33.4454 108.813 31.3395 108.501 25.4855C108.372 23.0725 107.676 20.6784 106.308 18.6154C105.348 17.1684 104.055 15.8874 102.381 14.8824C102.294 14.8294 102.2 14.7805 102.11 14.7295C101.796 14.5505 101.469 14.3805 101.13 14.2205C100.993 14.1575 100.853 14.0944 100.712 14.0334C100.396 13.8974 100.067 13.7715 99.7312 13.6525C99.5672 13.5945 99.4051 13.5365 99.2361 13.4825C98.8821 13.3715 98.513 13.2735 98.136 13.1815C97.972 13.1415 97.8162 13.0964 97.6482 13.0594C97.1002 12.9424 96.533 12.8395 95.937 12.7645C95.365 12.6925 94.8262 12.6105 94.3142 12.5195C94.2962 12.5165 94.2812 12.5125 94.2632 12.5085C93.7672 12.4195 93.2951 12.3224 92.8491 12.2184C86.8231 10.8064 85.3001 8.00147 83.6121 5.42947C81.6651 2.46347 77.9041 3.74445 77.9041 3.74445C77.9041 3.74445 78.0022 3.90047 78.0432 5.27847C78.0452 5.35647 78.0462 5.44045 78.0452 5.52545C78.0412 4.83345 77.9822 4.14145 77.8572 3.46945C77.6412 2.30445 77.2481 0.781451 76.0981 0.249451C73.9221 -0.756549 72.7831 1.57945 72.5891 1.96845C72.1721 2.80045 70.6122 0.823471 67.7512 0.407471C64.8892 -0.00952908 60.5012 0.284447 57.4502 1.39545C55.3432 2.16345 54.4681 3.66647 53.7041 2.54047C53.7041 2.54047 51.675 -1.36155 49.386 0.719452C48.763 1.28545 48.458 2.36246 48.386 3.60046C47.417 3.80746 46.415 4.32147 45.688 5.42847C43.999 8.00047 42.4762 10.8055 36.4502 12.2175C36.0042 12.3215 35.5331 12.4184 35.0371 12.5074C35.0191 12.5114 35.0041 12.5155 34.9861 12.5185C34.4741 12.6095 33.9341 12.6915 33.3621 12.7635C32.7661 12.8385 32.1991 12.9415 31.6511 13.0585C31.4831 13.0955 31.3271 13.1405 31.1641 13.1805C30.7871 13.2725 30.4172 13.3694 30.0642 13.4814C29.8952 13.5354 29.7331 13.5935 29.5691 13.6515C29.2321 13.7705 28.9031 13.8965 28.5881 14.0325C28.4471 14.0935 28.3071 14.1555 28.1711 14.2195C27.8301 14.3795 27.5042 14.5495 27.1902 14.7285C27.1002 14.7805 27.0072 14.8295 26.9192 14.8815C25.2452 15.8875 23.9522 17.1675 22.9932 18.6145C21.6242 20.6775 20.9281 23.0715 20.7991 25.4845C20.4871 31.3385 20.981 33.4445 23.479 38.9075C24.523 41.1915 25.1481 43.0255 25.4661 44.4245C25.4621 44.4235 25.4591 44.4215 25.4551 44.4205C25.7401 45.6865 25.773 46.5915 25.625 47.1375C24.094 45.6355 22.2832 44.5115 20.6592 45.2215C19.9942 45.5125 19.6492 45.8505 19.5222 46.2305C19.1592 45.2335 19.551 44.2355 19.551 44.2355C19.551 44.2355 21.1091 45.4645 21.8091 43.8025C22.2931 42.6535 21.0132 41.6425 19.6812 41.7425C18.5272 41.8305 17.142 42.6655 17.011 45.3065C16.843 48.7075 19.4772 49.8685 21.6272 50.2555C22.1342 50.9825 22.6001 51.7615 22.8611 52.5875C22.7701 52.6065 22.67 52.6285 22.594 52.6425L23.9211 57.2465C23.9211 57.2465 23.9452 57.2534 23.9612 57.2574C23.9782 57.2614 23.999 57.2665 24.031 57.2755C24.054 57.2805 24.075 57.2865 24.105 57.2935C24.149 57.3045 24.1981 57.3155 24.2581 57.3305C24.2731 57.3345 24.288 57.3385 24.303 57.3425C24.53 57.3975 24.8561 57.4745 25.2781 57.5715C25.2871 57.5735 25.2962 57.5755 25.3052 57.5775C25.6382 57.6545 26.0292 57.7425 26.4722 57.8405C26.6602 58.5865 26.8781 59.4625 27.1321 60.4855C28.0401 64.1495 29.3411 69.4805 30.7891 75.6665C30.7891 75.6665 30.7891 75.6654 30.7881 75.6654C30.8611 75.9764 30.9341 76.2905 31.0071 76.6035V76.6024C31.2031 77.4454 31.4001 78.2954 31.6001 79.1604C31.6011 79.1604 31.6011 79.1605 31.6021 79.1615C31.9531 80.6795 32.308 82.2335 32.666 83.8185C32.665 83.8175 32.6631 83.8174 32.6621 83.8164C32.7311 84.1274 32.8001 84.4415 32.8701 84.7545V84.7534C33.0561 85.5964 33.2431 86.4464 33.4321 87.3114C33.4381 87.3134 33.4451 87.3155 33.4521 87.3185C33.7941 88.8565 34.1351 90.4115 34.4741 91.9765C34.4641 91.9735 34.4551 91.9704 34.4451 91.9674C34.5111 92.2784 34.5771 92.5925 34.6431 92.9055C34.8201 93.7475 34.9982 94.5974 35.1792 95.4624C35.1942 95.4684 35.2101 95.4735 35.2251 95.4795C37.8681 107.959 40.201 120.57 40.854 128.773C38.592 129.339 36.4171 129.935 34.3301 130.553L9.95898 116.496C9.95898 116.496 4.343 114.462 2.375 117.471C2.164 117.795 2.00209 118.129 1.87109 118.467C1.86609 118.482 1.85903 118.494 1.85303 118.509C1.79003 118.676 1.73907 118.843 1.69507 119.012C1.68907 119.036 1.68105 119.06 1.67505 119.084C1.63505 119.246 1.60603 119.407 1.58203 119.57C1.57703 119.602 1.57114 119.633 1.56714 119.666C1.54714 119.821 1.53603 119.977 1.53003 120.133C1.52903 120.172 1.52712 120.212 1.52612 120.252C1.52412 120.4 1.52904 120.548 1.54004 120.694C1.54304 120.742 1.54603 120.789 1.55103 120.837C1.56503 120.977 1.58413 121.116 1.60913 121.255C1.61813 121.309 1.62816 121.361 1.63916 121.414C1.66616 121.546 1.69813 121.676 1.73413 121.806C1.75113 121.866 1.76911 121.924 1.78711 121.983C1.82511 122.105 1.86709 122.225 1.91309 122.344C1.93809 122.408 1.96519 122.471 1.99219 122.534C2.04019 122.646 2.09004 122.757 2.14404 122.865C2.17804 122.933 2.21617 123 2.25317 123.067C2.30817 123.168 2.36407 123.267 2.42407 123.364C2.46907 123.436 2.51816 123.506 2.56616 123.576C2.62716 123.664 2.68717 123.753 2.75317 123.838C2.80917 123.912 2.87018 123.983 2.93018 124.053C2.99418 124.13 3.05822 124.207 3.12622 124.281C3.19422 124.355 3.26809 124.425 3.34009 124.496C3.40709 124.56 3.47102 124.627 3.54102 124.689C3.62402 124.762 3.71207 124.831 3.79907 124.899C3.86407 124.952 3.92712 125.006 3.99512 125.055C4.09812 125.129 4.20501 125.196 4.31201 125.264C4.37101 125.301 4.42708 125.341 4.48608 125.376C4.65508 125.475 4.83003 125.565 5.00903 125.646L7.02515 126.552C7.02515 126.551 7.02515 126.549 7.02515 126.548L23.833 134.069C20.535 135.312 17.566 136.567 14.925 137.775C14.839 137.811 14.792 137.832 14.792 137.832C14.793 137.832 14.7942 137.833 14.7952 137.834C5.15817 142.254 0.00415039 146.006 0.00415039 146.006C0.00415039 146.006 21.3531 167.086 74.9961 174.359C117.555 180.129 172.838 143.547 172.838 143.547C172.838 143.547 165.57 140.552 154.172 136.894ZM25.2031 49.0755C25.2061 49.1285 25.203 49.1855 25.198 49.2455C25.203 49.1865 25.2061 49.1285 25.2031 49.0755ZM25.1101 49.6205C25.1221 49.5865 25.1321 49.5535 25.1421 49.5185C25.1301 49.5535 25.1261 49.5885 25.1101 49.6205ZM25.0991 48.6905C25.1201 48.7315 25.13 48.7765 25.145 48.8205C25.131 48.7765 25.1191 48.7295 25.0991 48.6905ZM48.6721 6.95746C49.1661 9.24346 50.1971 11.0905 51.2861 10.4495C53.4961 9.14846 52.4561 7.37946 54.4851 7.43146C56.5141 7.48346 58.2831 9.30445 63.9541 9.40845C69.6251 9.51245 69.9891 7.32747 72.0181 7.58847C74.0471 7.84847 73.9952 10.9175 76.3882 10.3455C77.3362 10.1185 77.6661 8.67147 77.8271 7.87747C77.8891 7.57347 77.931 7.26345 77.967 6.95245C77.961 7.01645 77.957 7.06247 77.957 7.06247C81.936 4.82547 81.214 9.92846 87.613 13.5185C91.804 15.8695 96.7701 15.3914 101.037 17.6284C105.303 19.8644 108.267 27.7735 103.482 38.0745C101.433 42.4805 101.019 45.2775 101.211 47.0455C100.273 48.1165 99.484 49.2895 98.969 50.1225C92.102 48.6855 80.0201 46.6225 65.6711 46.1905C50.0221 45.7185 36.457 48.9555 28.729 51.0325C28.42 50.5545 27.9551 49.8735 27.3821 49.1345C28.2101 47.9625 28.9232 45.1615 26.1692 38.8795C26.0572 38.6155 25.9501 38.3585 25.8181 38.0745C25.5081 37.4065 25.2331 36.7505 24.9871 36.1045C24.9521 36.0125 24.9271 35.9245 24.8931 35.8335C24.6851 35.2705 24.4921 34.7124 24.3301 34.1674C24.3211 34.1374 24.3151 34.1085 24.3071 34.0785C23.9471 32.8475 23.6971 31.6605 23.5481 30.5275H23.5461C22.6881 24.0205 25.1162 19.2784 28.2632 17.6284C32.5302 15.3914 37.495 15.8685 41.686 13.5185C45.965 11.1185 47.1721 8.00446 48.6721 6.95746ZM24.521 48.1635C24.155 48.1605 23.795 48.1484 23.447 48.1284C23.603 48.0664 23.7731 48.0305 23.9541 48.0305C24.1611 48.0315 24.349 48.0855 24.521 48.1635Z" fill="url(#paint39_radial_52_215)"/>
<defs>
<linearGradient id="paint0_linear_52_215" x1="20.7142" y1="26.7049" x2="51.1937" y2="26.7049" gradientUnits="userSpaceOnUse">
<stop offset="0.4973" stop-color="#C0C8CD"/>
<stop offset="1" stop-color="#8697A0"/>
</linearGradient>
<linearGradient id="paint1_linear_52_215" x1="20.7156" y1="47.1755" x2="51.5417" y2="47.1755" gradientUnits="userSpaceOnUse">
<stop offset="0.4973" stop-color="#C0C8CD"/>
<stop offset="1" stop-color="#8697A0"/>
</linearGradient>
<linearGradient id="paint2_linear_52_215" x1="110.889" y1="45.4178" x2="102.676" y2="45.4178" gradientUnits="userSpaceOnUse">
<stop offset="0.4973" stop-color="#C0C8CD"/>
<stop offset="1" stop-color="#8697A0"/>
</linearGradient>
<linearGradient id="paint3_linear_52_215" x1="110.89" y1="48.3114" x2="102.676" y2="48.3114" gradientUnits="userSpaceOnUse">
<stop offset="0.4973" stop-color="#C0C8CD"/>
<stop offset="1" stop-color="#8697A0"/>
</linearGradient>
<linearGradient id="paint4_linear_52_215" x1="29.1483" y1="49.9293" x2="19.4598" y2="49.9293" gradientUnits="userSpaceOnUse">
<stop offset="0.4973" stop-color="#C0C8CD"/>
<stop offset="1" stop-color="#8697A0"/>
</linearGradient>
<linearGradient id="paint5_linear_52_215" x1="24.3524" y1="55.3993" x2="25.2108" y2="50.2104" gradientUnits="userSpaceOnUse">
<stop offset="0.4973" stop-color="#C0C8CD"/>
<stop offset="1" stop-color="#8697A0"/>
</linearGradient>
<linearGradient id="paint6_linear_52_215" x1="98.3162" y1="49.3565" x2="107.663" y2="49.3565" gradientUnits="userSpaceOnUse">
<stop offset="0.4973" stop-color="#C0C8CD"/>
<stop offset="1" stop-color="#8697A0"/>
</linearGradient>
<linearGradient id="paint7_linear_52_215" x1="63.6018" y1="58.0945" x2="54.1699" y2="140.252" gradientUnits="userSpaceOnUse">
<stop stop-color="#D1E0E6"/>
<stop offset="0.5027" stop-color="#E2E4E2"/>
<stop offset="1" stop-color="#CCD7DF"/>
</linearGradient>
<linearGradient id="paint8_linear_52_215" x1="63.6018" y1="58.0945" x2="54.1699" y2="140.252" gradientUnits="userSpaceOnUse">
<stop stop-color="#D1E0E6"/>
<stop offset="0.5027" stop-color="#E2E4E2"/>
<stop offset="1" stop-color="#CCD7DF"/>
</linearGradient>
<linearGradient id="paint9_linear_52_215" x1="61.39" y1="57.8415" x2="51.963" y2="139.959" gradientUnits="userSpaceOnUse">
<stop offset="0.0963" stop-color="#48616E"/>
<stop offset="0.4973" stop-color="#84959E"/>
<stop offset="1" stop-color="#8697A0"/>
</linearGradient>
<linearGradient id="paint10_linear_52_215" x1="67.5061" y1="58.5424" x2="58.0783" y2="140.663" gradientUnits="userSpaceOnUse">
<stop offset="0.0963" stop-color="#48616E"/>
<stop offset="0.4973" stop-color="#84959E"/>
<stop offset="1" stop-color="#8697A0"/>
</linearGradient>
<linearGradient id="paint11_linear_52_215" x1="51.261" y1="56.6785" x2="41.829" y2="138.836" gradientUnits="userSpaceOnUse">
<stop offset="0.0963" stop-color="#48616E"/>
<stop offset="0.4973" stop-color="#84959E"/>
<stop offset="1" stop-color="#8697A0"/>
</linearGradient>
<linearGradient id="paint12_linear_52_215" x1="44.5862" y1="119.514" x2="41.0483" y2="55.2091" gradientUnits="userSpaceOnUse">
<stop offset="0.0963" stop-color="#A6CAD3"/>
<stop offset="0.9251" stop-color="#84959E"/>
</linearGradient>
<linearGradient id="paint13_linear_52_215" x1="73.2781" y1="55.177" x2="73.2463" y2="55.454" gradientUnits="userSpaceOnUse">
<stop offset="0.0963" stop-color="#48616E"/>
<stop offset="0.4973" stop-color="#84959E"/>
<stop offset="1" stop-color="#8697A0"/>
</linearGradient>
<linearGradient id="paint14_linear_52_215" x1="80.7937" y1="60.0399" x2="71.4117" y2="141.763" gradientUnits="userSpaceOnUse">
<stop offset="0.0963" stop-color="#48616E"/>
<stop offset="0.4973" stop-color="#84959E"/>
<stop offset="1" stop-color="#8697A0"/>
</linearGradient>
<linearGradient id="paint15_linear_52_215" x1="82.4059" y1="60.2254" x2="73.024" y2="141.947" gradientUnits="userSpaceOnUse">
<stop offset="0.0963" stop-color="#48616E"/>
<stop offset="0.4973" stop-color="#84959E"/>
<stop offset="1" stop-color="#8697A0"/>
</linearGradient>
<linearGradient id="paint16_linear_52_215" x1="75.3591" y1="125.069" x2="89.3428" y2="99.4073" gradientUnits="userSpaceOnUse">
<stop offset="0.0963" stop-color="#A6CAD3"/>
<stop offset="0.9251" stop-color="#84959E"/>
</linearGradient>
<linearGradient id="paint17_linear_52_215" x1="65.0359" y1="138.693" x2="64.6458" y2="145.326" gradientUnits="userSpaceOnUse">
<stop offset="0.4973" stop-color="#C0C8CD"/>
<stop offset="1" stop-color="#8697A0"/>
</linearGradient>
<linearGradient id="paint18_linear_52_215" x1="41.0099" y1="135.732" x2="89.8024" y2="135.732" gradientUnits="userSpaceOnUse">
<stop offset="0.0963" stop-color="#48616E"/>
<stop offset="0.4973" stop-color="#84959E"/>
<stop offset="1" stop-color="#8697A0"/>
</linearGradient>
<linearGradient id="paint19_linear_52_215" x1="63.8953" y1="41.4693" x2="63.7932" y2="60.138" gradientUnits="userSpaceOnUse">
<stop offset="0.4973" stop-color="#C0C8CD"/>
<stop offset="1" stop-color="#8697A0"/>
</linearGradient>
<linearGradient id="paint20_linear_52_215" x1="63.6522" y1="63.6378" x2="62.8717" y2="46.0006" gradientUnits="userSpaceOnUse">
<stop offset="0.0802" stop-color="#D1E0E6"/>
<stop offset="1" stop-color="#AFC0CC"/>
</linearGradient>
<linearGradient id="paint21_linear_52_215" x1="63.6522" y1="63.6378" x2="62.8717" y2="46.0006" gradientUnits="userSpaceOnUse">
<stop offset="0.0802" stop-color="#D1E0E6"/>
<stop offset="1" stop-color="#B0C0C0"/>
</linearGradient>
<linearGradient id="paint22_linear_52_215" x1="79.7472" y1="62.9248" x2="78.9667" y2="45.2874" gradientUnits="userSpaceOnUse">
<stop offset="0.0963" stop-color="#48616E"/>
<stop offset="0.4973" stop-color="#84959E"/>
<stop offset="1" stop-color="#8697A0"/>
</linearGradient>
<linearGradient id="paint23_linear_52_215" x1="59.9787" y1="63.8004" x2="59.1982" y2="46.163" gradientUnits="userSpaceOnUse">
<stop offset="0.0963" stop-color="#48616E"/>
<stop offset="0.4973" stop-color="#84959E"/>
<stop offset="1" stop-color="#8697A0"/>
</linearGradient>
<linearGradient id="paint24_linear_52_215" x1="40.3103" y1="64.6699" x2="39.5298" y2="47.0324" gradientUnits="userSpaceOnUse">
<stop offset="0.0963" stop-color="#48616E"/>
<stop offset="0.4973" stop-color="#84959E"/>
<stop offset="1" stop-color="#8697A0"/>
</linearGradient>
<linearGradient id="paint25_linear_52_215" x1="64.7136" y1="69.7091" x2="63.251" y2="82.4492" gradientUnits="userSpaceOnUse">
<stop offset="0.4973" stop-color="#C0C8CD"/>
<stop offset="1" stop-color="#8697A0"/>
</linearGradient>
<linearGradient id="paint26_linear_52_215" x1="64.842" y1="78.0932" x2="63.4155" y2="90.5188" gradientUnits="userSpaceOnUse">
<stop offset="0.4973" stop-color="#C0C8CD"/>
<stop offset="1" stop-color="#8697A0"/>
</linearGradient>
<linearGradient id="paint27_linear_52_215" x1="65.1121" y1="86.4465" x2="63.7166" y2="98.6027" gradientUnits="userSpaceOnUse">
<stop offset="0.4973" stop-color="#C0C8CD"/>
<stop offset="1" stop-color="#8697A0"/>
</linearGradient>
<linearGradient id="paint28_linear_52_215" x1="17.0015" y1="46.0914" x2="25.2145" y2="46.0914" gradientUnits="userSpaceOnUse">
<stop offset="0.4973" stop-color="#C0C8CD"/>
<stop offset="1" stop-color="#8697A0"/>
</linearGradient>
<linearGradient id="paint29_linear_52_215" x1="108.586" y1="26.7004" x2="77.904" y2="26.7004" gradientUnits="userSpaceOnUse">
<stop offset="0.4973" stop-color="#C0C8CD"/>
<stop offset="1" stop-color="#8697A0"/>
</linearGradient>
<linearGradient id="paint30_linear_52_215" x1="108.586" y1="47.988" x2="77.7474" y2="47.988" gradientUnits="userSpaceOnUse">
<stop offset="0.4973" stop-color="#C0C8CD"/>
<stop offset="1" stop-color="#8697A0"/>
</linearGradient>
<linearGradient id="paint31_linear_52_215" x1="108.586" y1="16.1563" x2="77.7534" y2="16.1563" gradientUnits="userSpaceOnUse">
<stop offset="0.4973" stop-color="#C0C8CD"/>
<stop offset="1" stop-color="#8697A0"/>
</linearGradient>
<linearGradient id="paint32_linear_52_215" x1="2.0561" y1="105.81" x2="204.38" y2="105.81" gradientUnits="userSpaceOnUse">
<stop offset="0.4973" stop-color="#C0C8CD"/>
<stop offset="1" stop-color="#8697A0"/>
</linearGradient>
<linearGradient id="paint33_linear_52_215" x1="2.15542" y1="49.5701" x2="203.606" y2="49.5701" gradientUnits="userSpaceOnUse">
<stop offset="0.4973" stop-color="#C0C8CD"/>
<stop offset="1" stop-color="#8697A0"/>
</linearGradient>
<linearGradient id="paint34_linear_52_215" x1="2.16676" y1="48.755" x2="203.515" y2="48.755" gradientUnits="userSpaceOnUse">
<stop offset="0.4973" stop-color="#C0C8CD"/>
<stop offset="1" stop-color="#8697A0"/>
</linearGradient>
<linearGradient id="paint35_linear_52_215" x1="1.88994" y1="49.1748" x2="205.662" y2="49.1748" gradientUnits="userSpaceOnUse">
<stop offset="0.4973" stop-color="#C0C8CD"/>
<stop offset="1" stop-color="#8697A0"/>
</linearGradient>
<linearGradient id="paint36_linear_52_215" x1="111.095" y1="134.376" x2="117.779" y2="56.9277" gradientUnits="userSpaceOnUse">
<stop offset="0.0749" stop-color="#E6223F"/>
<stop offset="0.5134" stop-color="#EE2D42"/>
<stop offset="0.9733" stop-color="#E72239"/>
</linearGradient>
<linearGradient id="paint37_linear_52_215" x1="120.671" y1="139.156" x2="127.355" y2="61.7078" gradientUnits="userSpaceOnUse">
<stop offset="0.0749" stop-color="#E6223F"/>
<stop offset="0.5134" stop-color="#EE2D42"/>
<stop offset="0.9733" stop-color="#E72239"/>
</linearGradient>
<linearGradient id="paint38_linear_52_215" x1="79.2322" y1="164.789" x2="64.3077" y2="158.264" gradientUnits="userSpaceOnUse">
<stop offset="0.0374" stop-color="#666866"/>
<stop offset="1" stop-color="#4E4F4D"/>
</linearGradient>
<radialGradient id="paint39_radial_52_215" cx="0" cy="0" r="1" gradientUnits="userSpaceOnUse" gradientTransform="translate(124.334 84.3171) scale(86.3489)">
<stop stop-color="#FFE69C"/>
<stop offset="1" stop-color="#825C5A"/>
</radialGradient>
</defs>
</svg>
