<svg width="105" height="151" viewBox="0 0 105 151" fill="none" xmlns="http://www.w3.org/2000/svg">
<path d="M60.719 93.5311C56.116 91.8611 53.215 88.014 47.752 88.495C38.033 89.353 31.138 100.277 21.785 92.866C10.465 83.89 13.438 29.899 18.346 17.67C22.508 7.29805 30.181 17.438 41.131 13.953C53.852 9.90505 64.819 19.943 71.397 30.366C78.243 41.22 81.768 55.039 80.757 67.772C79.824 79.535 77.698 99.6961 60.719 93.5311Z" fill="#5C79BC"/>
<path d="M104.145 150.596H80.2898L76.0248 133.373C76.0248 133.373 72.5578 107.23 90.4848 106.865C90.4848 106.865 99.7888 113.388 102.325 128.731C102.325 128.731 104.332 140.994 104.145 150.596Z" fill="#46C6E6"/>
<path d="M21.2949 150.597L24.5129 137.605C24.5129 137.605 27.9809 111.463 10.0529 111.098C10.0529 111.098 -0.697093 118.929 0.243907 150.598H21.2949" fill="#46C6E6"/>
<path d="M61.078 69.0703H39.313V100.932H61.078V69.0703Z" fill="#A4DEF6"/>
<path d="M61.077 82.0743V69.0703H39.312V87.8023C46.493 87.5833 55.011 86.2843 61.077 82.0743Z" fill="#6FCFF3"/>
<path d="M10.4648 111.096C15.3488 103.541 23.0238 101.491 23.0238 101.491L41.4189 94.6777H58.9738L81.4638 101.491C81.4638 101.491 89.1418 103.541 94.0248 111.096H10.4648Z" fill="#A4DEF6"/>
<path d="M14.9698 150.597H87.4359L86.9728 136.983L97.6288 120.859C95.2608 105.16 81.4629 101.491 81.4629 101.491L63.7509 96.449C63.7509 96.449 64.8068 102.215 50.1938 102.215C50.1938 102.215 38.4538 102.215 37.0498 96.293L23.0229 101.49C23.0229 101.49 12.7458 104.632 7.13184 115.021L14.9688 136.982V150.597H14.9698Z" fill="#46C6E6"/>
<path d="M63.4478 71.6087C62.7028 73.3297 61.6678 74.9227 60.2168 76.3217C56.6098 79.7997 52.3788 82.6177 47.7398 84.5227C42.0488 86.8577 33.4568 87.1567 28.9338 82.4677C25.2688 78.6677 23.2578 72.9127 21.6668 67.9787C18.5728 58.3827 18.6118 47.8987 19.3988 37.9347C19.5788 35.6627 19.8078 33.3867 20.1868 31.1377C23.7278 9.40268 42.3238 9.45068 42.3238 9.45068C56.3668 8.83968 69.1838 15.4747 71.3428 30.2737C72.1718 35.9407 71.0788 42.0267 70.7938 47.6937C70.5848 51.8577 70.0738 56.0137 68.7408 59.9847C67.3848 64.0397 65.1408 67.6967 63.4478 71.6087Z" fill="#A4DEF6"/>
<path d="M17.896 50.7486C12.647 34.4977 16.881 15.3896 23.155 9.41165C40.924 -7.53935 73.741 -1.08835 83.768 25.4116C86.865 33.5956 85.412 64.1167 84.007 73.4977C82.128 86.0656 77.506 94.6776 67.962 94.6776C68.217 84.3136 67.422 72.8327 68.34 60.1617C69.253 47.5907 67.58 47.2816 57.119 41.4326C51.914 38.5196 48.891 35.4856 45.659 30.7636C41.659 24.9176 44.668 22.8716 36.75 23.1376C36.751 23.1376 18.347 22.5096 17.896 50.7486Z" fill="#5C79BC"/>
<path d="M65.2628 55.0376C65.2628 55.0376 67.1188 47.3036 73.0678 50.4996C73.0678 50.4996 75.7528 51.8586 73.8178 57.1686C73.8178 57.1686 70.9958 64.8086 65.2568 62.0146L65.2628 55.0376Z" fill="#A4DEF6"/>
</svg>
