<svg width="107" height="149" viewBox="0 0 107 149" fill="none" xmlns="http://www.w3.org/2000/svg">
<path d="M13.3369 22.828C13.3369 22.828 15.8149 20.554 20.5369 24.669L22.7319 21.255C22.7319 21.255 17.4289 17.061 13.3369 22.828Z" fill="#5C79BC"/>
<path d="M21.986 12.8604C21.986 12.8604 19.055 16.5004 23.276 20.6484L20.428 23.5234C20.428 23.5234 13.9 15.5234 21.986 12.8604Z" fill="#5C79BC"/>
<path d="M9.96191 110.961C15.0979 103.015 23.1699 100.861 23.1699 100.861L42.5109 93.6943H60.9729L80.3079 100.861C80.3079 100.861 88.3789 103.015 93.5159 110.961H9.96191Z" fill="#A4DEF6"/>
<path d="M76.961 148.597H106.841C106.841 143.493 106.508 136.221 106.508 136.221C104.752 105.666 82.484 100.862 82.484 100.862C65.121 96.6577 74.585 123.514 74.585 123.514C74.131 129.986 75.094 138.692 76.961 148.597Z" fill="#46C6E6"/>
<path d="M64.4158 75.5596H39.0688V100.273H64.4158V75.5596Z" fill="#A4DEF6"/>
<path d="M64.4158 87.0466V75.5596H39.0688V81.2486C46.2988 87.2666 55.0078 88.0296 64.4158 87.0466Z" fill="#6FCFF3"/>
<path d="M91.4001 148.597C91.8851 135.272 91.7371 131.612 91.6181 127.067C91.3531 116.942 89.1891 108.386 82.5151 100.87C82.5011 100.866 82.4841 100.862 82.4841 100.862L64.4141 94.9697C64.4141 94.9697 68.2141 101.62 51.6071 101.62C51.6071 101.62 40.6661 101.194 39.0691 94.9697L20.7181 100.862C20.7181 100.862 5.03106 104.72 2.34106 121.232L11.5641 138.188L11.2351 148.597H91.4001V148.597Z" fill="#5C79BC"/>
<path d="M84.1148 44.671C84.8348 38.987 83.6248 33.543 83.6838 27.941C83.7248 24.182 82.9908 18.509 78.3168 18.033C71.8398 17.371 69.8418 28.555 69.4598 33.401C68.9328 40.082 70.5898 47.303 71.8778 53.839C72.3418 56.2 72.2938 60.919 74.9518 62.059C77.2248 63.033 79.5488 60.737 80.7108 59.03C83.5118 54.91 83.5168 49.429 84.1148 44.671Z" fill="#5C79BC"/>
<path d="M79.312 72.1203C76.75 82.1443 72.239 84.9073 72.239 84.9073L66.187 86.0883C62.705 85.6473 56.7 84.2283 56.7 84.2283C42.877 79.5293 38.872 78.2603 36.729 73.0063C36.639 72.7833 25.833 35.2753 25.833 35.2753C24.065 15.9693 44.273 11.9523 47.324 11.4483C50.342 10.7523 69.583 5.40527 75.267 23.9383C75.266 23.9373 83.662 45.4123 79.312 72.1203Z" fill="#A4DEF6"/>
<path d="M85.6659 5.2576C86.7609 11.2516 85.7359 19.5476 81.0919 23.3746C76.0489 27.5276 71.7209 26.3986 65.6519 27.7466C59.3419 29.1476 52.8859 29.7036 46.5459 30.9306C42.1049 31.7906 36.9789 32.2826 34.9349 36.9936C32.2339 43.2186 31.7009 51.3426 33.5209 57.4096C35.0339 62.4626 35.4979 67.3766 37.1599 73.9556C31.4269 69.2116 26.9749 62.2926 26.9749 62.2926C24.1179 57.2656 24.1179 57.2656 20.8939 48.5206C19.0039 43.3956 17.3719 38.8866 17.1269 33.6016C16.8129 26.7856 20.1189 23.8136 23.7579 17.5546C27.1759 11.6696 31.9759 7.5966 38.2329 5.7306C38.2329 5.7306 69.9559 7.5126 69.3599 0.266602C69.3599 0.266602 76.9779 2.2116 75.5289 7.2786C75.5289 7.2786 83.4999 5.8226 81.8089 0.266602C81.8079 0.266602 85.0319 1.7846 85.6659 5.2576Z" fill="#5C79BC"/>
<path d="M34.7919 56.1067C34.7919 56.1067 31.3749 48.6617 26.0049 53.0727C26.0049 53.0727 23.5599 54.9807 26.5709 59.9627C26.5709 59.9627 30.9449 67.1247 36.1839 63.1557L34.7919 56.1067Z" fill="#A4DEF6"/>
<path d="M34.2568 38.7461C34.2568 38.7461 34.2788 52.0731 36.7278 59.1421L34.1308 59.6571C34.1308 59.6571 32.7648 50.5171 28.0598 50.4091L34.2568 38.7461Z" fill="#5C79BC"/>
<path d="M27.9749 148.596C27.9749 148.596 0.0629453 148.596 0.0439453 148.596C0.0529453 148.596 0.140945 141.966 0.155945 141.495C0.364945 134.976 0.77795 128.409 1.95295 121.983C3.63195 112.798 8.09194 104.654 17.9089 102.32C22.4019 101.252 26.3969 103.971 28.8299 107.669C28.8309 107.668 33.2749 113.148 27.9749 148.596Z" fill="#46C6E6"/>
</svg>
