<svg width="181" height="165" viewBox="0 0 181 165" fill="none" xmlns="http://www.w3.org/2000/svg">
<path d="M0.862061 126.331C0.862061 126.331 37.633 118.469 81.959 116.445C125.019 114.48 180.972 133.828 180.972 133.828C180.972 133.828 120.413 170.071 77.855 164.302C24.212 157.029 0.862061 126.331 0.862061 126.331Z" fill="#2DB14E"/>
<path opacity="0.65" d="M134.346 127.359C134.346 127.359 27.2108 116.305 19.4418 127.359C16.9858 130.852 44.8139 140.662 54.4479 144.847C54.4479 144.847 54.591 152.915 64.354 155.467C77.257 158.838 97.9639 163.366 130.158 147.842C130.158 147.842 128.145 144.248 127.033 141.733C127.033 141.733 155.171 141.072 161.377 131.974C163.981 128.155 141.696 128.224 134.346 127.359Z" fill="#2DB14E"/>
<path d="M16.7161 58.9277C16.7161 58.9277 26.6381 91.6517 28.1631 100.733C30.3091 113.509 31.6389 131.907 31.6389 131.907C31.6389 131.907 43.4939 138.449 53.9199 138.449C61.8929 138.449 76.6111 133.339 76.6111 133.339C76.6111 133.339 79.8819 71.1938 91.9419 58.9288C91.9419 58.9278 42.0851 78.4537 16.7161 58.9277Z" fill="url(#paint0_linear_11_20188)"/>
<path opacity="0.55" d="M67.2949 113.498C59.3639 113.161 52.5931 109.423 48.4131 102.565C44.6071 96.3219 42.725 89.2069 41.72 82.0189C41.142 77.8859 41.26 73.5179 40.666 69.3469C32.8 68.5369 25.2681 66.2669 19.2261 61.6169C19.2261 61.6169 28.4769 92.1279 29.8989 100.594C31.9009 112.507 33.1389 129.66 33.1389 129.66C33.1389 129.66 44.1941 135.76 53.9141 135.76C61.3481 135.76 75.0701 130.994 75.0701 130.994C75.0701 130.994 75.4989 122.846 76.6279 112.056C73.5389 113.043 70.3989 113.629 67.2949 113.498Z" fill="#D66242"/>
<path opacity="0.55" d="M58.5691 79.3008C66.2851 79.2988 85.2611 72.8637 85.5081 72.0577C87.3061 66.1967 89.4329 61.4797 91.9419 58.9277C91.9419 58.9277 39.917 67.6848 17.022 59.0988C17.022 59.0988 18.677 65.9668 21.103 73.7758C21.404 74.7438 35.5221 79.3048 58.5691 79.3008Z" fill="#C46142"/>
<path d="M11.1279 55.1119L13.854 62.8799C13.854 62.8799 42.746 68.7399 53.239 68.0589C63.733 67.3779 93.8511 61.6139 93.8511 61.6139L96.9861 52.9319L11.1279 55.1119Z" fill="#F26244"/>
<path opacity="0.65" d="M38.7119 54.4119L11.1279 55.1119L13.854 62.8799C13.854 62.8799 29.617 66.0759 42.085 67.4729C40.841 63.1499 39.7279 58.7939 38.7119 54.4119Z" fill="#D66A4C"/>
<path opacity="0.65" d="M76.6279 53.4487L67.97 53.6688C67.616 58.1258 66.4579 62.4257 64.9419 66.6227C67.6109 66.2217 70.422 65.7677 73.207 65.3027C74.59 61.4067 75.9399 57.4877 76.6279 53.4487Z" fill="#D66A4C"/>
<path d="M96.9851 52.9319C96.9851 52.9319 74.566 47.1739 49.832 47.6849C25.097 48.1969 11.1279 55.1129 11.1279 55.1129C11.1279 55.1129 44.721 60.053 57.396 59.848C70.069 59.644 96.9851 52.9319 96.9851 52.9319Z" fill="#F6906A"/>
<path d="M88.365 53.2038C88.365 53.2038 67.9231 49.4228 54.8401 49.3198C41.7571 49.2168 22.03 53.7539 22.03 53.7539C22.03 53.7539 48.1961 57.0878 55.9651 56.7808C63.7321 56.4748 88.365 53.2038 88.365 53.2038Z" fill="#D1442C"/>
<path d="M93.8511 61.2559C93.8511 61.2559 63.6661 66.8819 53.1541 67.1219C41.3651 67.3919 13.854 62.5219 13.854 62.5219L11.252 55.1089L11.1279 55.1119L13.854 62.8799C13.854 62.8799 42.746 68.7399 53.239 68.0589C63.733 67.3779 93.8511 61.6139 93.8511 61.6139L96.9861 52.9319L96.855 52.9349L93.8511 61.2559Z" fill="#F6906A"/>
<path d="M38.2479 17.9069C37.3789 15.6749 38.3419 13.6079 40.7079 13.1309C42.7709 12.7149 43.6879 14.1849 44.3869 15.8219C44.0889 13.7939 43.962 11.7359 46.289 10.9199C48.725 10.0659 53.644 11.3649 54.329 13.6829H54.1918C54.0028 13.6989 53.9419 13.7309 53.7689 13.5409C53.6829 11.2609 56.519 9.89194 58.663 10.1399C61.484 10.4659 61.0938 12.3189 61.8278 14.4589C62.2288 12.3399 62.8659 10.4929 65.4699 10.9579C68.1439 11.4349 68.0909 13.5429 68.0939 15.8209C68.1929 12.1749 71.485 10.0899 74.539 12.3189C76.416 13.6899 76.3259 17.3719 75.0299 19.2149C76.2689 17.8549 78.2858 15.2039 80.3578 17.0819C82.0898 18.6519 80.83 21.8919 79.131 22.8119H78.995C80.443 21.7969 83.7488 21.2849 84.8268 23.0839C85.9038 24.8829 84.4558 26.994 83.2338 28.215C84.5858 27.088 87.5878 25.957 88.7118 27.991C89.6678 29.72 88.343 32.6089 86.672 33.3149C88.485 32.4829 90.8539 31.3829 92.2479 33.4419C93.9769 35.9949 91.349 38.3529 89.08 39.1649L88.943 39.4369C91.502 39.0329 95.8388 37.9919 97.1268 41.3449C98.6938 45.4259 93.6978 46.1149 90.8898 46.1149C93.4818 45.8339 95.3559 49.0599 93.1749 50.7829C91.5889 52.0349 87.5569 52.3649 87.9889 49.2499L88.1259 48.978C88.1199 50.479 87.756 52.7499 86.225 53.4789C84.223 54.4299 83.5679 51.9089 82.5319 50.7969C82.5549 52.6419 80.973 54.0699 79.132 54.0209C76.995 53.9619 77.4789 52.2499 76.7099 50.8969C76.6749 52.9489 74.8399 54.5079 72.9689 54.9439C70.2439 55.5789 69.2339 53.8269 68.5019 51.4719C68.1699 53.3879 67.378 55.4479 65.194 55.7979C63.173 56.1229 62.2018 54.1129 61.8278 52.4259C61.1328 54.7989 59.8128 56.282 57.2218 56.34C54.8518 56.394 54.742 54.1839 54.466 52.2899C54.303 56.3589 46.7949 58.648 47.3859 52.978C46.5759 55.113 45.0188 56.3229 42.6388 56.3389C40.2578 56.3559 40.016 54.2109 39.883 52.2889C39.897 54.6109 37.4979 55.6749 35.4879 55.6539C32.7549 55.6259 32.2179 53.9809 32.2589 51.4769C31.4189 53.1839 30.575 54.795 28.466 55.116C26.192 55.462 25.7928 53.4779 25.8458 51.6069C25.4638 53.7259 23.2619 56.0539 20.8039 55.3879C19.7779 55.1099 19.024 53.8029 18.893 52.7989C18.701 51.3249 19.865 50.3979 21.06 49.7039C19.946 51.9799 16.2558 53.1769 14.9708 50.3459C13.5558 47.2289 17.7768 44.5749 20.4838 45.7119C18.9398 45.5559 14.9299 43.2969 14.9599 42.0189C14.8639 41.9559 18.0329 41.9009 17.9279 41.8559C18.0319 41.5189 18.191 41.8859 17.935 41.5799C18.123 39.1909 18.072 38.068 20.247 38.241C20.226 38.302 20.184 38.34 20.122 38.353C19.793 38.263 19.3469 37.9049 19.1549 37.4569C19.1189 37.5389 19.1159 37.6179 19.1469 37.6949C18.4779 36.8619 17.0759 35.0489 17.5499 34.1369C17.4879 33.9909 17.433 33.8429 17.382 33.6939C17.665 33.2519 18.154 32.6879 18.508 32.1719C19.968 31.3979 21.7789 31.2119 23.5409 31.2759C23.6079 31.1769 23.6599 31.0719 23.6969 30.9589C23.7769 31.2009 23.9448 31.1799 24.0748 31.2609L23.8029 31.6699C22.8459 30.5369 20.759 28.6069 21.37 26.8929C22.111 24.8169 25.664 24.8369 26.746 26.4439C25.783 24.8719 24.2739 23.8939 25.5709 22.0329C26.9219 20.0949 29.1909 20.1209 30.7589 21.6749C30.6859 20.6989 30.0699 20.1329 30.0709 19.1329C30.0729 17.8009 30.862 17.0809 31.83 16.5579C33.101 15.8699 35.1289 15.2869 36.5819 15.8259C37.6719 16.2299 37.9389 17.3599 38.7929 17.9069H38.2479V17.9069Z" fill="#A1B23A"/>
<path d="M61.6879 13.819C59.9729 12.952 58.938 10.273 58.52 8.50403C57.906 5.90703 58.49 3.353 58.308 0.75C60.601 2.2 62.6308 4.04902 63.0458 6.86902C63.3208 8.72902 63.7259 13.229 61.6879 13.819Z" fill="#47813C"/>
<path d="M63.732 13.5469C62.83 11.5229 62.3021 8.7269 63.1531 6.5929C64.1381 4.1239 66.2851 2.3089 67.7661 0.201904C66.4981 3.1829 68.369 5.24889 68.501 8.09589C68.662 11.5369 65.9661 12.9499 63.2371 14.1049C63.3151 14.0179 63.672 13.6459 63.732 13.5469Z" fill="#599B43"/>
<path d="M82.593 29.5618C76.711 26.8978 82.7619 20.8338 82.7229 16.6638C84.1869 18.5788 85.4251 20.7768 85.4551 23.2938C85.4871 26.0618 83.619 28.0988 82.593 29.5618Z" fill="#599B43"/>
<path d="M81.959 29.849C82.254 28.673 82.2 27.528 82.751 26.341C83.452 24.832 84.4459 23.487 85.6609 22.343C87.9349 20.2 90.114 20.203 92.8 19.395C89.719 20.845 91.0709 24.943 89.5439 27.239C88.3399 29.049 83.951 31.485 81.959 29.849Z" fill="#47813C"/>
<path d="M83.084 30.3089C85.186 28.8169 86.7659 27.0738 89.6189 27.1748C90.7379 27.2148 91.5731 27.3788 92.4951 28.0948C93.2691 28.6968 94.1729 30.1969 95.2949 29.2059C94.3939 30.1499 94.4831 31.5629 93.5811 32.4889C92.6551 33.4389 90.8699 33.7089 89.5959 33.5799C87.0649 33.3229 85.271 30.8309 83.084 30.3089Z" fill="#599B43"/>
<path d="M35.054 17.465C33.719 15.264 31.9239 13.892 31.4829 11.132C31.1299 8.92996 31.9621 5.92597 30.3611 4.16797C33.1691 4.73197 36.992 5.98591 37.333 9.17291C37.493 10.6659 37.0361 12.0339 36.5581 13.4019C36.0861 14.7479 35.51 16.341 35.054 17.465Z" fill="#599B43"/>
<path d="M35.113 15.9999C33.861 14.6459 30.936 13.3109 28.981 13.9519C26.126 14.8889 27.5591 18.1508 25.0691 19.5528C27.2961 18.6178 28.898 22.1149 31.3 20.2319C33.27 18.6879 32.337 16.0479 35.113 15.9999Z" fill="#47813C"/>
<path d="M46.425 27.038C46.178 24.946 47.3738 22.9229 49.2858 22.0989C50.7608 21.4629 52.997 21.4649 53.967 20.2429C52.482 21.8939 54.0559 24.31 52.3869 25.812C51.3289 26.764 46.609 28.604 46.425 27.038Z" fill="#599B43"/>
<path d="M45.8799 27.7198C44.0989 26.4518 41.4929 26.0829 39.7439 27.6819C38.0999 29.1839 39.7019 32.3479 37.4709 33.3139C39.6819 33.2099 41.2351 34.4749 43.0181 32.3539C44.0871 31.0799 44.0709 28.0548 45.8799 27.7198Z" fill="#599B43"/>
<path d="M46.561 27.7198C45.939 26.0048 46.668 23.8859 44.657 22.8139C43.051 21.9579 41.2999 22.6569 40.1499 20.8179C40.3479 21.8409 40.6599 22.6759 40.7019 23.7679C40.7489 25.0149 40.5089 25.8659 41.5229 26.7359C42.8989 27.9149 45.158 27.7198 46.561 27.7198Z" fill="#47813C"/>
<path d="M19.4409 48.7068C19.1769 46.6858 16.6949 43.9909 14.6699 43.8019C11.8259 43.5349 9.7081 44.3909 6.9231 43.0039C8.5121 45.3939 9.547 48.5639 12.354 49.8309C15.577 51.2849 16.5429 48.5198 19.4409 48.7068Z" fill="#599B43"/>
<path d="M35.386 54.8398C33.669 52.7298 30.3509 53.5278 28.7119 55.1088C26.9309 56.8268 27.9649 60.9628 24.9409 61.5108C27.3359 63.3608 31.2211 63.7738 33.0701 60.9458C34.4331 58.8578 31.937 55.5118 35.386 54.8398Z" fill="#599B43"/>
<path d="M35.1129 54.5669C34.1929 56.5539 34.0769 58.9639 35.4879 60.8359C36.6439 62.3679 38.6819 63.0649 39.7589 64.5979C37.5119 62.6339 40.6778 60.3499 40.1578 57.9709C39.9128 56.8529 38.902 55.9859 37.944 55.4189C37.17 54.9599 35.4169 55.0109 35.1129 54.5669Z" fill="#47813C"/>
<path d="M33.2051 52.5219C32.8661 50.3899 30.923 48.0689 28.845 47.3069C26.925 46.6029 24.738 47.2459 22.76 46.5129C23.805 47.7869 24.2761 48.418 24.5901 49.963C24.8701 51.346 25.452 52.7669 26.804 53.5129C27.923 54.1309 28.948 53.8669 30.072 53.3049C31.516 52.5849 31.6041 52.2129 33.2051 52.5219Z" fill="#47813C"/>
<path d="M49.832 51.2969C45.62 54.4909 46.9899 59.6029 48.9799 63.5219C49.7519 60.7749 52.5638 59.7289 52.4198 56.6429C52.3658 55.4739 52.1349 54.3149 51.5029 53.3109C50.9569 52.4399 50.021 52.3339 49.832 51.2969Z" fill="#599B43"/>
<path d="M67.0029 51.1597C65.8139 49.1867 63.1559 47.3118 60.7339 47.7538C59.2919 48.0168 59.009 49.1038 58.144 50.1798C57.332 51.1888 56.5761 51.5477 55.4661 52.1147C57.9201 53.3597 59.711 55.1737 62.501 53.3417C64.14 52.2647 64.7269 50.4547 67.0029 51.1597Z" fill="#47813C"/>
<path d="M66.8669 51.2969C64.7709 51.6449 63.045 52.0139 61.957 54.0229C60.997 55.7949 60.731 59.4969 58.73 60.4339C61.6 60.3879 65.405 60.9229 67.002 57.9789C67.62 56.8369 67.6831 55.3989 67.3091 54.1589C67.0241 53.2129 66.1939 52.1989 66.8669 51.2969Z" fill="#599B43"/>
<path d="M67.2749 51.1599C66.0219 52.9999 67.0649 56.588 68.9109 57.705C70.3959 58.603 73.154 57.5279 74.097 59.1599C74.278 57.3449 73.815 54.2779 72.583 52.9319C70.972 51.1699 69.3349 51.7369 67.2749 51.1599Z" fill="#47813C"/>
<path d="M69.32 42.029C67.598 41.32 65.1709 39.618 64.5089 37.798C63.9199 36.173 65.1838 34.776 65.1178 33.083C66.5458 34.362 68.5789 35.556 69.0429 37.532C69.2389 38.367 68.497 42.027 69.32 42.029Z" fill="#47813C"/>
<path d="M69.1841 42.0287C66.0691 39.3487 63.3481 41.6287 60.5171 43.1187C62.1511 44.0457 63.3321 46.0258 65.4771 45.5718C67.6651 45.1088 67.6551 43.2287 69.1841 42.0287Z" fill="#599B43"/>
<path d="M69.047 42.166C66.176 45.039 68.175 47.619 69.871 50.158C69.091 48.182 71.9069 47.298 71.9089 45.3C71.9099 44.339 71.4668 43.457 70.6798 42.874C70.0678 42.422 69.31 42.552 69.047 42.166Z" fill="#599B43"/>
<path d="M83.7662 48.979C82.1562 50.8 81.443 51.957 81.45 54.533C81.454 56.498 82.0092 58.601 82.9122 60.28C84.4452 57.835 86.345 56.528 86.223 53.375C86.154 51.65 85.1552 49.738 83.7662 48.979Z" fill="#599B43"/>
<path d="M90.988 39.9849C92.083 38.0479 92.7399 36.3819 94.7739 35.2139C96.6709 34.1239 99.1189 34.0139 100.888 32.7439C99.8089 33.6489 99.97 35.5708 99.478 36.8188C98.9 38.2848 98.2579 39.5869 96.8479 40.3919C95.7849 40.9989 94.364 41.3009 93.168 40.9669C92.251 40.7119 91.902 40.2159 90.988 39.9849Z" fill="#599B43"/>
<path d="M90.034 47.6169C90.539 50.0649 92.6052 53.43 95.4862 53.067C97.7442 52.784 99.0362 49.728 101.433 50.077C99.5652 49.001 98.106 47.3519 95.628 47.7459C94.425 47.9369 93.4112 48.7209 92.2142 48.8499C91.6372 48.9129 89.363 48.2499 90.034 47.6169Z" fill="#47813C"/>
<path d="M22.0299 33.9879C20.2649 32.7379 18.749 31.0628 18.09 28.8839C17.289 26.2349 19.0159 23.5729 18.1269 21.1719C19.8359 23.7159 22.716 24.0919 23.268 27.6509C23.535 29.3769 20.9629 33.4289 22.0299 33.9879Z" fill="#47813C"/>
<path d="M22.03 32.762C20.51 32.236 17.6909 30.6689 16.0969 31.1219C13.8589 31.7589 13.3371 34.279 10.3931 34.434C11.6671 36.275 16.0821 38.753 18.3501 37.52C20.1681 36.531 19.702 32.507 22.03 32.762Z" fill="#599B43"/>
<path opacity="0.65" d="M69.9231 91.226C72.9988 91.226 75.4919 89.2126 75.4919 86.7289C75.4919 84.2453 72.9988 82.2319 69.9231 82.2319C66.8474 82.2319 64.354 84.2453 64.354 86.7289C64.354 89.2126 66.8474 91.226 69.9231 91.226Z" fill="#D66A4C"/>
<path d="M48.6049 11.911C46.8429 10.977 45.9591 9.10501 46.1521 7.14101C46.3881 4.73301 48.9301 3.34104 51.1941 3.05904C53.4671 2.77604 55.4019 4.38504 54.8769 6.86904C54.4509 8.88304 50.2239 11.395 48.6049 11.911Z" fill="#EF507C"/>
<path d="M50.6489 11.0938C51.7609 9.30878 52.9301 7.15278 55.1421 6.45578C57.0721 5.84878 59.4479 6.17979 60.3589 8.19779C61.3369 10.3638 59.6499 12.2388 57.4629 12.5988C56.1829 12.8108 51.0489 11.9178 50.6489 11.0938Z" fill="#EF507C"/>
<path d="M51.3311 12.32C53.4881 11.78 56.404 11.502 58.311 12.961C60.13 14.354 61.0501 16.987 59.5071 18.861C57.8161 20.914 54.6499 20.812 52.4199 19.716C50.0939 18.573 49.3179 16.175 49.1489 13.788C49.1209 13.374 51.4601 12.684 51.3311 12.32Z" fill="#EF507C"/>
<path d="M49.4232 14.0918C50.4742 15.5748 49.8141 19.3858 48.8441 20.9048C47.6741 22.7378 45.1101 23.5788 43.0181 22.8498C40.5111 21.9778 41.1391 19.1888 42.3401 17.5288C44.3131 14.8038 46.4442 14.9378 49.4232 14.0918Z" fill="#EF507C"/>
<path d="M48.4689 14.5C45.8969 15.212 44.1579 16.5849 41.2419 16.5449C39.1979 16.5169 36.269 15.059 36.882 12.453C37.463 9.98197 41.4469 9.21598 43.5629 9.32198C44.5999 9.37398 45.658 9.52394 46.569 10.1049C47.659 10.8019 47.5909 13.805 48.4689 14.5Z" fill="#EF507C"/>
<path d="M67.685 23.9039C65.604 22.7939 64.016 22.313 63.079 19.679C62.196 17.2 63.45 14.915 66.186 14.908C68.372 14.903 69.5888 16.057 70.0048 18.179C70.2108 19.236 70.1679 20.285 69.8989 21.314C69.7799 21.768 69.659 22.135 69.457 22.541C69.243 22.966 67.226 23.9579 67.685 23.9039Z" fill="#EF507C"/>
<path d="M69.0471 23.3579C69.5071 19.7149 76.6349 18.4329 77.9399 22.1009C78.7049 24.2529 77.6251 25.4089 75.4221 25.6449C72.8631 25.9199 71.2311 23.9549 69.0471 23.3579Z" fill="#EF507C"/>
<path d="M67.6851 23.7679C65.5671 21.2079 59.307 18.4119 57.43 22.8109C56.505 24.9769 56.9199 27.9489 59.3379 28.8479C62.9969 30.2089 65.6691 26.1589 67.6851 23.7679Z" fill="#EF507C"/>
<path d="M67.2748 24.7219C65.7218 24.9179 63.0959 27.324 62.4069 28.674C61.3979 30.652 61.9108 32.609 63.8688 33.614C66.3018 34.863 69.6599 34.2959 70.5829 31.5349C71.6479 28.3519 67.8128 27.4439 67.2748 24.7219Z" fill="#EF507C"/>
<path d="M69.0472 25.1309C68.7662 29.1519 73.0841 34.6939 77.2281 31.1269C78.9631 29.6329 77.9011 27.1809 76.1041 26.2519C74.1871 25.2599 70.9732 25.8459 69.0472 25.1309Z" fill="#EF507C"/>
<path d="M25.165 27.1749C21.475 25.8379 19.997 19.3309 24.893 18.7259C26.984 18.4669 28.557 20.0749 28.436 22.1359C28.378 23.0969 27.921 24.0639 27.478 24.8879C27.074 25.6389 25.306 26.9489 25.165 27.1749Z" fill="#EF507C"/>
<path d="M25.9819 28.4008C24.4209 24.6748 31.9228 19.4808 35.1088 21.7558C37.0108 23.1138 35.654 25.5368 34.302 26.7718C32.349 28.5588 28.5279 28.4008 25.9819 28.4008Z" fill="#EF507C"/>
<path d="M27.6179 28.8098C29.4659 27.2758 33.4211 26.0848 35.7881 26.6338C37.5571 27.0428 39.6011 28.9868 39.0681 30.9898C37.8241 35.6658 29.1359 32.0618 27.6179 28.8098Z" fill="#EF507C"/>
<path d="M27.8911 30.0359C29.7331 31.4429 31.695 33.2449 31.843 35.6539C31.991 38.0779 31.175 39.7749 28.741 40.4269C26.802 40.9469 24.1369 40.8979 23.0869 38.8939C21.1089 35.1179 25.1761 32.0589 27.8911 30.0359Z" fill="#EF507C"/>
<path d="M25.165 30.8539C24.781 34.3899 18.836 40.8929 14.777 39.1669C11.765 37.8859 14.3109 33.7219 15.9269 32.3229C18.4679 30.1259 21.932 30.8539 25.165 30.8539Z" fill="#EF507C"/>
<path d="M25.028 28.4009C22.362 29.3329 19.9879 30.0459 17.1179 29.8999C14.9759 29.7909 11.9241 28.8119 13.1621 25.9469C14.0071 23.9939 17.2999 21.6499 19.4409 22.4389C21.7819 23.2999 22.722 26.0119 24.635 27.2109C24.521 27.4489 24.574 27.4489 24.426 27.6089C24.713 27.7649 24.761 28.2779 25.028 28.4009Z" fill="#EF507C"/>
<path d="M45.607 40.5299C43.603 36.6699 47.203 31.1649 51.875 32.2169C56.382 33.2319 50.5971 40.2129 48.0601 40.2569L45.607 40.5299Z" fill="#EF507C"/>
<path d="M48.333 40.53C50.51 38.317 53.3841 35.6039 56.5061 34.9459C58.7491 34.4739 62.157 34.0179 63.054 36.8499C64.87 42.5829 51.232 41.84 48.333 40.53Z" fill="#EF507C"/>
<path d="M49.968 40.666C54.01 40.678 60.4891 42.796 58.8601 48.162C58.1311 50.565 55.1521 51.261 53.2461 50.069C50.7751 48.524 49.6561 44.923 48.0601 42.574L49.968 40.666Z" fill="#EF507C"/>
<path d="M48.469 43.3928C50.157 46.6948 49.72 52.3408 45.198 53.0678C43.078 53.4088 41.8611 52.1768 41.4851 50.2138C40.8271 46.7798 46.018 45.0978 48.469 43.3928Z" fill="#EF507C"/>
<path d="M45.471 44.2099C43.798 45.7449 42.495 48.2789 40.429 49.2819C38.804 50.0699 36.7671 49.7719 36.3331 47.7529C35.7981 45.2589 37.104 44.0889 39.097 42.9899C42 41.3889 44.296 41.8749 47.379 41.6199L45.471 44.2099Z" fill="#EF507C"/>
<path d="M45.743 42.1659C43.528 42.2619 40.088 42.1348 38.108 41.0448C35.896 39.8268 35.7862 37.2449 37.8702 35.8979C39.9212 34.5709 42.9291 33.7468 44.6861 35.6278C46.4651 37.5308 44.373 40.2489 45.743 42.1659Z" fill="#EF507C"/>
<path d="M80.768 40.6659C79.139 36.0139 83.1699 31.8439 88.0219 33.3419C90.4299 34.0849 91.456 36.1289 89.766 38.0769C87.684 40.4779 83.549 39.7739 80.768 40.6659Z" fill="#EF507C"/>
<path d="M81.8569 41.6198C84.3109 40.8978 86.5791 39.1548 89.2471 39.8488C91.3621 40.3988 92.794 42.2558 92.896 44.3488C93.039 47.2638 90.06 47.6249 87.687 47.2409C86.399 47.0319 85.4719 46.4708 84.5859 45.5788C83.5139 44.4988 82.6719 42.8948 81.8569 41.6198Z" fill="#EF507C"/>
<path d="M82.5391 42.3018C82.8761 43.2258 84.11 44.1928 84.689 45.1638C85.229 46.0688 85.613 46.8808 85.81 47.8898C86.22 49.9878 86.2261 51.7388 83.9021 52.5568C81.4381 53.4238 79.8659 51.8458 79.2959 49.5258C79.0989 48.7248 79.031 47.6378 79.133 46.7988C79.388 44.6788 81.9161 44.1858 82.5391 42.3018Z" fill="#EF507C"/>
<path d="M81.177 43.1189C79.944 45.2999 78.7499 48.5638 76.6789 50.0688C75.1909 51.1508 72.258 51.4759 71.259 49.6329C68.119 43.8419 77.668 43.1189 81.177 43.1189Z" fill="#EF507C"/>
<path d="M80.3578 43.1188C78.1278 43.7418 75.212 44.1858 72.86 43.8068C70.922 43.4948 69.1249 41.1068 69.8549 39.0278C70.7129 36.5828 75.7438 35.7317 77.7758 36.5477C79.8128 37.3647 80.5448 41.0608 80.3578 43.1188Z" fill="#EF507C"/>
<path d="M48.81 12.0138C47.9 11.9598 47.6049 9.29585 47.5829 8.53785C47.5379 6.87785 48.853 6.14785 50.32 5.95985C54.378 5.43785 51.197 12.1528 48.81 12.0138Z" fill="#F7ADB2"/>
<path d="M49.9341 12.1148C47.5061 11.5658 42.968 9.49477 41.065 12.4228C39.825 14.3308 41.494 15.8038 43.472 15.4708C45.891 15.0628 48.2001 13.6208 49.9341 12.1148Z" fill="#F7ADB2"/>
<path d="M48.7071 13.0349C47.1871 13.4349 42.6031 17.635 45.4371 19.043C47.1931 19.915 48.6491 18.1189 48.9361 16.6119C49.2291 15.0789 48.8501 14.4459 48.7071 13.0349Z" fill="#F7ADB2"/>
<path d="M48.81 13.444C48.6 16.04 53.127 19.262 54.967 16.613C55.928 15.229 54.7039 13.8831 53.4089 13.3141C51.9599 12.6781 50.284 13.194 48.81 13.444Z" fill="#F7ADB2"/>
<path d="M49.832 12.6268C51.484 12.7698 58.76 12.0898 56.759 8.94679C55.895 7.59079 54.1 8.44776 53.125 9.17476C51.667 10.2618 50.577 11.0178 49.832 12.6268Z" fill="#F7ADB2"/>
<path d="M25.71 28.6738C26.539 27.3468 27.0041 25.8228 28.2891 24.8688C29.2091 24.1858 31.288 23.2508 32.353 24.1508C33.748 25.3298 31.648 26.8048 30.644 27.2668C29.005 28.0218 27.287 28.1948 25.71 28.6738Z" fill="#F7ADB2"/>
<path d="M25.6068 28.1629C24.4948 27.5289 23.7579 25.7708 23.3339 24.5908C22.7469 22.9588 23.1509 21.8629 24.8949 21.2859C26.3299 20.8109 27.4579 21.7659 27.4479 23.2599C27.4359 24.8909 25.6508 26.9189 25.6068 28.1629Z" fill="#F7ADB2"/>
<path d="M24.9939 27.8559C24.1949 27.0639 23.014 25.6619 21.57 25.3999C21.611 25.3939 21.6351 25.3709 21.6411 25.3289C19.8281 24.8759 16.6139 24.1739 16.9189 27.2369C17.2979 31.0199 23.1299 28.9519 24.9939 27.8559Z" fill="#F7ADB2"/>
<path d="M24.5859 28.3667C22.4809 28.2607 16.081 31.0117 17.403 33.9938C18.389 36.2188 21.6138 34.2228 22.6708 33.1678C24.5498 31.2908 23.7119 30.5607 24.5859 28.3667Z" fill="#F7ADB2"/>
<path d="M24.3811 28.5708C23.3661 29.4208 23.4389 32.3458 23.6889 33.5558C24.0329 35.2208 25.4649 36.5018 27.2739 35.8318C29.5059 35.0068 29.1359 32.2688 27.8569 30.8188C26.8239 29.6508 25.3791 29.0158 24.3811 28.5708Z" fill="#F7ADB2"/>
<path d="M24.4829 28.4699C25.9929 29.5069 27.2661 30.3449 29.1621 30.7429C30.2841 30.9789 32.8721 31.1809 33.0681 29.5939C33.2461 28.1659 31.0049 27.5699 29.9209 27.4479C28.3009 27.2659 25.6799 27.4129 24.4829 28.4699Z" fill="#F7ADB2"/>
<path d="M68.4341 24.8919C67.2721 24.2309 66.0771 24.0319 65.2891 22.8259C64.4861 21.5959 64.0881 19.7089 65.3651 18.6579C66.9021 17.3929 69.3029 17.6309 69.5569 19.7799C69.8399 22.1679 69.9331 23.2769 68.4341 24.8919Z" fill="#F7ADB2"/>
<path d="M68.229 24.6879C68.334 22.3359 74.1319 19.6509 74.5659 22.9269C75.0359 26.4729 69.95 25.6269 68.229 24.6879Z" fill="#F7ADB2"/>
<path d="M67.9231 24.8918C65.9141 23.9268 61.944 21.1348 60.076 23.9958C58.887 25.8148 60.916 27.3818 62.583 27.4478C64.526 27.5228 66.5381 26.1278 67.9231 24.8918Z" fill="#F7ADB2"/>
<path d="M67.2071 24.7898C65.7651 25.7268 65.025 26.7728 64.859 28.4938C64.723 29.8928 64.8912 31.2888 66.6962 31.2308C68.3042 31.1798 69.2682 29.4528 69.1522 27.9828C69.0792 27.0628 68.2681 24.9118 67.2071 24.7898Z" fill="#F7ADB2"/>
<path d="M67.7191 25.1978C67.4711 27.2108 71.4611 31.3978 73.4651 29.9048C74.8571 28.8688 74.1229 26.8838 72.9319 26.1128C71.2019 24.9928 69.5791 25.0908 67.7191 25.1978Z" fill="#F7ADB2"/>
<path d="M46.867 40.9389C45.22 38.6559 46.2242 33.9318 49.7572 34.2938C51.3642 34.4598 51.6352 36.2429 50.9332 37.5879C50.1362 39.1149 48.107 39.8479 46.867 40.9389Z" fill="#F7ADB2"/>
<path d="M47.3789 40.8367C48.3349 39.3227 55.421 34.9217 55.533 39.0997C55.618 42.2847 49.2379 41.8177 47.3789 40.8367Z" fill="#F7ADB2"/>
<path d="M46.9699 40.8369C46.3709 39.2929 42.2598 35.5229 40.6078 37.6629C39.6728 38.8749 40.9079 40.5339 42.0339 41.0659C43.6599 41.8349 45.3559 41.4699 46.9699 40.8369Z" fill="#F7ADB2"/>
<path d="M46.5611 40.837C44.7551 40.785 40.2452 42.684 40.6332 45.029C41.2592 48.804 47.6542 40.988 48.1962 39.917L46.5611 40.837Z" fill="#F7ADB2"/>
<path d="M47.276 40.8369C45.925 41.9939 41.4782 48.531 45.8202 48.502C49.8442 48.475 49.012 42.6559 47.276 40.8369Z" fill="#F7ADB2"/>
<path d="M47.4799 41.2459C47.5589 42.7269 49.511 45.3589 50.652 46.2599C52.156 47.4469 55.0198 47.5469 54.9418 45.0309C54.8808 43.0849 53.0078 41.8959 51.3888 41.3719C50.5528 41.1009 49.7058 41.0009 48.8368 40.9179C48.3918 40.8739 47.1129 40.8409 47.4799 41.2459Z" fill="#F7ADB2"/>
<path d="M81.0062 41.9609C80.1142 39.3079 82.7742 34.5509 85.9122 36.5409C90.1672 39.2399 81.4192 43.1899 81.0062 41.9609Z" fill="#F7ADB2"/>
<path d="M80.5979 42.1659C82.5979 42.2229 84.9131 40.4859 86.9131 41.4499C87.8721 41.9119 89.196 43.3299 88.855 44.5159C88.404 46.0889 86.1599 45.9049 84.9919 45.4599C83.0069 44.7049 81.8969 43.5359 80.5979 42.1659Z" fill="#F7ADB2"/>
<path d="M80.9031 42.574C79.9791 40.013 77.46 37.375 74.439 38.793C72.508 39.699 73.3989 42.189 75.1799 42.753C77.2489 43.408 78.8571 42.517 80.9031 42.574Z" fill="#F7ADB2"/>
<path d="M81.0061 42.778C79.0231 42.64 74.7071 43.552 74.8731 46.282C75.0021 48.39 77.4291 48.054 78.7571 47.179C80.3471 46.131 80.6311 44.506 81.0061 42.778Z" fill="#F7ADB2"/>
<path d="M81.21 42.8809C79.908 43.6869 80.156 47.0429 80.396 48.3799C80.695 50.0509 82.254 50.8049 83.792 49.9339C85.492 48.9699 85.7259 46.3419 84.5049 44.9249C83.6429 43.9259 82.516 43.0179 81.21 42.8809Z" fill="#F7ADB2"/>
<path d="M51.5348 11.2978C51.0928 10.2108 48.8121 10.1939 47.8701 10.4629C46.7141 10.7929 45.166 12.0518 46.016 13.3418C47.555 15.6768 52.6808 14.1138 51.5348 11.2978Z" fill="#FCDADC"/>
<path d="M69.3201 22.4038C67.7641 21.9178 65.145 22.7378 64.343 24.1778C63.482 25.7258 64.2169 27.2339 65.9929 27.3819C67.7759 27.5299 69.8049 26.7349 70.2219 24.8699C70.5369 23.4659 70.7391 22.8488 69.3201 22.4038Z" fill="#FCDADC"/>
<path d="M83.766 40.5988C82.382 39.6588 80.082 39.9828 78.912 41.0928C77.78 42.1658 77.0499 44.1968 79.0109 44.7048C80.5889 45.1158 82.983 44.8728 84.091 43.5328C85.073 42.3448 85.021 41.4508 83.766 40.5988Z" fill="#FCDADC"/>
<path d="M49.627 38.6219C46.842 36.4629 41.5711 42.152 45.1111 43.174C46.7681 43.653 49.1061 43.0889 49.9651 41.5349C50.2731 40.9789 50.393 40.348 50.293 39.713C50.163 38.885 50.271 39.1209 49.627 38.6219Z" fill="#FCDADC"/>
<path d="M26.8 27.1747C25.764 26.2377 24.4659 26.1367 23.2019 26.7167C21.9239 27.3027 20.9929 29.0467 22.1669 30.1727C24.4709 32.3847 29.289 29.4237 26.8 27.1747Z" fill="#FCDADC"/>
<path d="M36.9529 42.166C35.5809 41.645 34.8149 40.577 33.1709 40.633C31.2839 40.696 29.4371 42.487 27.5581 43.001C28.4461 44.686 31.2861 45.722 33.0701 45.056C34.0541 44.688 34.696 43.787 35.446 43.112C36.308 42.335 36.0699 42.511 36.9529 42.166Z" fill="#599B43"/>
<path d="M106.284 77.0771C106.284 77.0771 117.268 109.166 117.021 131.382C117.021 131.382 128.191 137.986 135.226 137.43C142.261 136.874 150.591 133.172 150.591 133.172C150.591 133.172 150.777 96.1461 162.44 78.9291L106.284 77.0771Z" fill="url(#paint1_linear_11_20188)"/>
<path opacity="0.55" d="M106.284 77.0771C106.284 77.0771 107.597 80.9181 109.305 86.8521C109.466 87.4121 120.538 91.5301 123.144 92.0031C132.679 93.7361 144.434 93.1531 153.373 89.0541C155.076 88.2731 156.746 87.4021 158.439 86.5831C159.596 83.7811 160.915 81.1791 162.44 78.9281L106.284 77.0771Z" fill="#DA8C4B"/>
<path opacity="0.55" d="M149.775 116.436C148.592 118.075 146.543 119.178 144.317 119.519C141.098 120.012 135.894 120.388 133.035 118.469C129.267 115.94 127.952 112.073 127.146 107.744C126.144 102.364 125.772 96.9289 124.982 91.5219C124.467 88.0049 123.841 84.489 123.422 80.955L108.755 80.4709C108.755 80.4709 118.752 109.675 118.527 129.893C118.527 129.893 128.692 135.902 135.094 135.397C141.496 134.891 149.077 131.522 149.077 131.522C149.077 131.522 149.109 125.06 150.037 116.482C149.951 116.466 149.863 116.456 149.775 116.436Z" fill="#DA8C4B"/>
<path d="M102.586 73.3091L104.754 79.7921C104.754 79.7921 122.576 87.691 136.275 87.444C149.974 87.197 164.662 79.7921 164.662 79.7921L166.266 74.0771L102.586 73.3091Z" fill="#F68B50"/>
<path d="M102.586 73.309C102.586 73.309 117.955 85.263 139.732 83.248C161.507 81.233 166.267 74.077 166.267 74.077C166.267 74.077 136.531 66.701 102.586 73.309Z" fill="#FAA968"/>
<path d="M108.048 74.281C108.048 74.281 120.78 83.101 138.821 81.615C156.862 80.128 160.804 74.847 160.804 74.847C160.804 74.847 136.17 69.405 108.048 74.281Z" fill="#DC6E32"/>
<path opacity="0.55" d="M144.825 99.898C146.911 100.103 148.727 98.9896 148.882 97.4122C149.037 95.8347 147.471 94.3902 145.386 94.1856C143.3 93.981 141.483 95.094 141.329 96.6714C141.174 98.2489 142.74 99.6935 144.825 99.898Z" fill="#F2706F"/>
<path d="M114.351 65.233C116.58 69.598 121.842 77.27 123.622 80.685C124.501 80.938 125.373 81.202 126.25 81.442C124.047 76.966 123.963 72.357 122.683 65.595C121.315 58.366 117.676 39.604 112.196 33.444C106.716 27.285 105.485 19.135 104.515 21.255C103.546 23.375 107.864 33.922 107.587 42.013C107.31 50.104 111.442 59.536 114.351 65.233Z" fill="#57B063"/>
<path d="M114.351 65.233C116.58 69.598 121.843 77.2701 123.622 80.6851C123.716 80.7121 123.81 80.7401 123.902 80.7671C119.404 71.1201 114.957 61.1931 113.423 50.8201C112.42 44.0351 111.521 38.2351 108.847 31.8781C107.544 28.7811 105.615 25.476 104.419 22.113C104.572 25.386 107.836 34.7041 107.586 42.0121C107.311 50.1041 111.442 59.536 114.351 65.233Z" fill="#259145"/>
<path d="M129.678 82.3319C129.703 82.3969 129.734 82.4469 129.763 82.5009C130.461 82.5219 131.159 82.536 131.859 82.547C132.199 82.329 132.439 82.119 132.439 82.119C131.52 78.585 135.227 62.99 134.547 55.903C133.867 48.815 133.903 37.309 126.345 26.754C118.785 16.198 121.456 6.27498 118.588 18.773C115.719 31.271 122.209 46.808 124.546 51.388C126.883 55.967 129.678 82.3319 129.678 82.3319Z" fill="#57B063"/>
<path d="M129.678 82.332C129.705 82.401 129.742 82.444 129.775 82.502C129.914 82.506 130.052 82.511 130.192 82.515C130.708 77.848 131.822 61.675 130.833 57.251C129.641 51.914 127.343 47.243 124.908 42.396C122.241 37.084 121.525 32.024 121.132 26.173C120.853 22.029 119.758 17.227 120.247 12.968C119.922 12.759 119.599 14.371 118.589 18.773C115.72 31.271 122.21 46.808 124.547 51.388C126.883 55.967 129.678 82.332 129.678 82.332Z" fill="#259145"/>
<path d="M143.479 81.511C142.772 77.414 142.015 73.976 141.301 72.576C138.964 67.996 132.474 52.459 135.343 39.961C138.211 27.463 135.54 37.387 143.1 47.942C150.659 58.498 150.622 70.004 151.302 77.091C151.383 77.94 151.4 78.914 151.37 79.973C148.754 80.518 146.125 81.003 143.479 81.511Z" fill="#57B063"/>
<path d="M143.479 81.511C142.772 77.414 142.015 73.976 141.301 72.576C138.964 67.996 132.474 52.459 135.343 39.961C136.353 35.56 136.676 33.947 137.001 34.156C136.512 38.415 137.606 43.218 137.886 47.361C138.28 53.212 138.995 58.272 141.662 63.584C144.097 68.432 146.394 73.103 147.588 78.439C147.714 79.004 147.805 79.772 147.867 80.673C146.41 80.953 144.946 81.229 143.479 81.511Z" fill="#259145"/>
<path d="M128.415 58.906C128.121 63.798 128.765 73.079 128.565 76.926C129.194 77.589 129.812 78.258 130.446 78.91C130.818 73.936 133.085 69.922 135.412 63.445C137.899 56.521 144.283 38.507 142.684 30.418C141.086 22.329 144.161 14.683 142.249 16.018C140.337 17.353 138.708 28.632 134.365 35.464C130.022 42.296 128.799 52.521 128.415 58.906Z" fill="#57B063"/>
<path d="M128.415 58.9059C128.121 63.7979 128.765 73.08 128.565 76.926C128.632 76.996 128.699 77.0679 128.765 77.1389C129.784 66.5419 130.987 55.7329 134.928 46.0159C137.506 39.6599 139.672 34.2039 140.594 27.3699C141.042 24.0409 141.056 20.214 141.732 16.71C140.204 19.608 138.29 29.293 134.366 35.465C130.023 42.296 128.799 52.5209 128.415 58.9059Z" fill="#259145"/>
<path d="M148.632 64.914C148.61 64.971 148.582 65.016 148.557 65.063C147.94 65.081 147.324 65.093 146.706 65.103C146.406 64.911 146.194 64.725 146.194 64.725C147.005 61.604 146.673 57.02 147.273 50.761C147.874 44.503 147.841 34.343 154.515 25.023C161.19 15.702 158.831 6.93898 161.365 17.974C163.898 29.01 158.168 42.73 156.104 46.774C154.04 50.818 148.632 64.914 148.632 64.914Z" fill="#57B063"/>
<path d="M148.632 64.9141C148.608 64.9761 148.574 65.013 148.547 65.063C148.424 65.067 148.301 65.0721 148.178 65.0751C147.723 60.9541 149.68 55.8581 150.553 51.9521C151.607 47.2391 153.635 43.115 155.785 38.834C158.139 34.145 158.772 29.6761 159.12 24.5101C159.366 20.8511 160.333 16.61 159.901 12.85C160.187 12.665 160.473 14.089 161.365 17.975C163.898 29.011 158.168 42.7311 156.104 46.7751C154.04 50.8191 148.632 64.9141 148.632 64.9141Z" fill="#259145"/>
<path d="M117.926 79.9277C118.224 79.9887 118.523 80.0447 118.822 80.0917C118.838 80.0707 120.103 80.1828 120.052 80.1818C120.692 80.1948 121.311 80.3058 121.893 80.4948C121.923 80.4808 121.953 80.4687 121.984 80.4557C119.59 75.5777 112.38 60.8068 111.172 57.4988C109.721 53.5238 109.993 51.5737 109.993 51.5737L104.207 53.7527C104.207 53.7527 108.18 57.4667 111.518 65.0317C113.625 69.8067 116.263 75.9997 117.926 79.9277Z" fill="#84C665"/>
<path d="M97.3951 34.7108C97.3951 34.7108 96.8022 29.1848 98.0892 29.3358C99.3752 29.4878 102.449 31.8058 103.023 33.0798C103.597 34.3548 103.969 41.4958 97.3951 34.7108Z" fill="#F15B63"/>
<path d="M101.385 35.7569C101.385 35.7569 95.6691 28.9229 95.0931 32.9039C94.5171 36.8849 93.858 44.8899 97.773 48.4779C101.689 52.0649 104.459 55.5099 107.667 53.9179C110.875 52.3279 104.99 40.1559 101.385 35.7569Z" fill="#EE2B2D"/>
<path d="M101.584 28.8318C101.584 28.8318 98.271 35.6699 100.096 42.6979C101.922 49.7259 103.684 56.1969 107.666 53.9189C111.649 51.6419 110.606 50.3159 110.943 45.5649C111.423 38.8059 102.583 26.1388 101.584 28.8318Z" fill="#EF3D4C"/>
<path d="M140.832 39.7251C140.832 39.7251 142.155 42.1291 141.832 44.3391C141.58 46.0641 134.765 75.5781 133.232 82.5441C133.475 82.5861 133.718 82.6281 133.961 82.6781C134.38 82.7631 134.798 82.8661 135.219 82.9441C135.292 82.9301 135.389 82.9171 135.537 82.9041C135.849 82.8761 136.155 82.8871 136.456 82.9201C137.676 75.8201 144.011 45.1281 144.616 44.2101C145.39 43.0331 146.981 41.9081 146.981 41.9081L140.832 39.7251Z" fill="#5DBB4F"/>
<path d="M142.961 28.339C142.961 28.339 146.904 18.235 147.388 18.946C147.872 19.657 151.117 29.082 151.117 29.082L144.541 34.471L142.961 28.339Z" fill="#D84667"/>
<path d="M144.268 20.26C144.268 20.26 139.29 26.985 138.654 30.558C138.018 34.132 138.402 40.17 143.192 42.422C147.982 44.674 146.974 28.996 146.875 28.261C146.773 27.525 145.307 18.994 144.268 20.26Z" fill="#D02A4A"/>
<path d="M150.365 20.26C150.365 20.26 145.072 23.708 142.85 30.736C140.627 37.763 141.632 42.871 144.889 42.548C148.146 42.224 151.938 37.126 152.314 34.852C152.69 32.578 154.148 30.072 151.846 25.962C150.953 24.365 150.365 20.26 150.365 20.26Z" fill="#E95172"/>
<path d="M135.247 50.7959C135.247 50.7959 136.569 53.1999 136.247 55.4099C135.995 57.1349 132.094 75.0869 130.561 82.0519C130.804 82.0939 131.047 82.1359 131.291 82.1859C131.71 82.2709 132.128 82.3739 132.548 82.4519C132.621 82.4379 132.719 82.4249 132.866 82.4119C133.179 82.3839 133.484 82.3949 133.786 82.4279C135.005 75.3279 138.426 56.1999 139.03 55.2819C139.804 54.1059 141.396 52.9799 141.396 52.9799L135.247 50.7959Z" fill="#5DBB4F"/>
<path d="M137.375 39.41C137.375 39.41 141.38 30.102 141.863 30.814C142.345 31.526 143.875 40.038 143.875 40.038L138.955 45.542L137.375 39.41Z" fill="#F7ACB3"/>
<path d="M138.926 32.0221C138.926 32.0221 133.704 38.0552 133.069 41.6292C132.433 45.2022 132.817 51.2401 137.606 53.4921C142.396 55.7441 141.388 40.0661 141.289 39.3311C141.19 38.5961 139.964 30.7571 138.926 32.0221Z" fill="#F8B0B5"/>
<path d="M144.584 31.958C144.584 31.958 139.486 34.779 137.265 41.807C135.043 48.835 136.048 53.942 139.304 53.619C142.561 53.295 146.353 48.198 146.729 45.923C147.106 43.649 148.107 40.243 145.805 36.134C144.911 34.537 144.584 31.958 144.584 31.958Z" fill="#FBCDD0"/>
<path d="M160.97 36.028C153.306 42.829 150.32 55.949 149.715 60.012C149.149 63.829 139.929 80.336 138.81 82.327C139.685 82.315 140.56 82.311 141.434 82.301C144.08 78.767 151.659 71.865 154.127 67.59C156.973 62.663 162.335 55.194 162.314 44.819C162.293 34.445 168.635 29.229 160.97 36.028Z" fill="#57B063"/>
<path d="M160.97 36.0279C153.306 42.8289 150.32 55.949 149.715 60.012C149.149 63.829 139.928 80.336 138.81 82.327C139.022 82.324 139.233 82.3239 139.444 82.3209C142.388 78.9389 149.759 69.8859 151.086 66.7429C152.786 62.7179 153.458 58.6129 154.123 54.3289C154.852 49.6369 156.734 46.0119 159.192 42.0219C160.933 39.1969 162.449 35.5629 164.743 33.0199C164.628 32.7339 163.669 33.6339 160.97 36.0279Z" fill="#259145"/>
<path d="M128.945 20.613C126.085 28.942 128.837 41.914 129.97 45.961C131.056 49.835 130.88 73.7 130.851 76.982C131.561 76.066 132.26 75.176 132.944 74.296C133.44 68.176 135.961 55.575 135.921 50.096C135.878 44.144 136.44 35.32 132.817 27.078C129.259 18.979 131.419 13.409 128.945 20.613Z" fill="#57B063"/>
<path d="M128.945 20.6129C123.474 36.3359 128.837 41.9139 129.97 45.9609C131.056 49.8349 130.88 73.7009 130.851 76.9819C131.024 76.7589 131.197 76.5409 131.368 76.3199C132.223 69.8829 133.889 55.0649 133.567 51.2659C133.171 46.5739 132.067 42.5549 130.915 38.4669C129.68 34.0829 129.644 30.2119 129.862 25.9879C130.01 23.1229 129.736 19.7999 130.318 17.1979C130.152 17.0129 129.856 17.9599 128.945 20.6129Z" fill="#259145"/>
<path d="M113.464 57.133C114.009 58.59 118.231 72.754 120.567 80.653C121.786 80.936 122.999 81.244 124.198 81.607C121.754 74.522 115.757 56.754 115.842 55.677C115.954 54.274 116.806 52.521 116.806 52.521L110.366 53.573C110.364 53.572 112.682 55.041 113.464 57.133Z" fill="#5DBB4F"/>
<path d="M106.741 42.5699C106.741 42.5699 105.764 32.4839 106.53 32.8759C107.297 33.2669 112.739 39.9869 112.739 39.9869L111.081 47.1809L106.741 42.5699Z" fill="#F7ACB3"/>
<path d="M104.539 35.35C104.539 35.35 102.872 43.1531 104.037 46.5911C105.202 50.0291 108.449 55.1341 113.73 54.7991C119.012 54.4631 110.574 41.2121 110.131 40.6151C109.69 40.0201 104.839 33.74 104.539 35.35Z" fill="#F59098"/>
<path d="M109.466 32.5659C109.466 32.5659 106.36 37.495 107.8 44.723C109.24 51.951 112.582 55.942 115.279 54.088C117.976 52.235 118.842 45.942 118.075 43.767C117.308 41.592 116.545 38.1259 112.548 35.6349C110.995 34.6679 109.466 32.5659 109.466 32.5659Z" fill="#F8BDC1"/>
<path d="M163.534 36.0722C163.534 36.0722 165.663 26.5131 164.846 26.5061C164.028 26.4981 159.649 29.9751 157.996 32.8321C156.343 35.6891 154.69 50.8542 163.534 36.0722Z" fill="#E8232A"/>
<path d="M145.749 81.5641C146.161 79.0441 147.137 73.479 148.815 66.225C151.128 56.223 155.454 48.4651 155.454 48.4651L152.829 47.3091C152.829 47.3091 150.582 52.6351 147.184 61.2551C144.314 68.5351 143.262 78.9571 143.004 82.0211C143.949 81.9271 144.864 81.7721 145.749 81.5641Z" fill="#5DBB4F"/>
<path d="M167.506 30.4851C167.506 30.4851 165.906 36.8612 165.831 38.4782C165.756 40.0952 160.037 50.9131 153.479 48.8181C153.479 48.8181 157.304 43.6201 157.835 41.5061C158.367 39.3951 166.397 29.2251 167.506 30.4851Z" fill="#EE2B2D"/>
<path d="M161.376 25.5041C161.376 25.5041 159.937 33.5851 159.817 36.6291C159.697 39.6731 155.137 49.618 153.05 48.813C150.964 48.007 149.6 41.399 151.882 36.207C154.166 31.013 160.345 23.7731 161.376 25.5041Z" fill="#EF3D4C"/>
<path d="M129.66 82.5821C129.679 82.6311 129.702 82.6681 129.723 82.7091C130.249 82.7251 130.776 82.7351 131.302 82.7441C131.559 82.5801 131.74 82.4211 131.74 82.4211C131.048 79.7581 131.331 75.8441 130.819 70.5021C130.306 65.1601 130.334 56.4881 124.636 48.5321C118.938 40.5761 120.951 33.0951 118.789 42.5151C116.627 51.9351 121.518 63.6461 123.28 67.0981C125.043 70.5501 129.66 82.5821 129.66 82.5821Z" fill="#57B063"/>
<path d="M129.66 82.582C129.68 82.635 129.708 82.6661 129.732 82.7101C129.836 82.7131 129.941 82.717 130.046 82.72C130.435 79.202 128.764 74.853 128.019 71.518C127.12 67.496 125.388 63.9751 123.553 60.3221C121.543 56.3191 121.003 52.505 120.706 48.094C120.496 44.971 119.67 41.351 120.039 38.141C119.795 37.984 119.551 39.199 118.789 42.516C116.627 51.936 121.518 63.647 123.28 67.099C125.043 70.55 129.66 82.582 129.66 82.582Z" fill="#259145"/>
<path d="M157.745 56.2671C157.745 56.2671 156.867 61.6331 152.434 68.6151C149.795 72.7701 146.369 78.0231 144.024 81.5991C145.417 81.4701 146.806 81.3111 148.197 81.1371C151.776 75.0111 156.926 66.298 158.504 64.139C161.001 60.723 162.774 59.8651 162.774 59.8651L157.745 56.2671Z" fill="#84C665"/>
<path d="M169.785 40.0161C169.785 40.0161 174.049 36.4521 174.638 37.6051C175.227 38.7581 175.009 42.6022 174.269 43.7882C173.529 44.9742 167.8 49.2531 169.785 40.0161Z" fill="#F15B63"/>
<path d="M171.134 43.9141C171.134 43.9141 173.637 35.3641 170.007 37.0991C166.377 38.8341 159.357 42.7361 158.552 47.9851C157.747 53.2341 156.423 57.4521 159.53 59.2341C162.637 61.0161 169.481 49.3571 171.134 43.9141Z" fill="#EE2B2D"/>
<path d="M177 40.2291C177 40.2291 169.475 41.2771 164.647 46.7021C159.819 52.1271 155.421 57.1891 159.529 59.2331C163.637 61.2771 167.3 60.1441 170.834 57.2371C176.066 52.9341 179.794 39.5631 177 40.2291Z" fill="#EF3D4C"/>
<path d="M165.065 51.3541C156.857 56.9081 148.588 63.8811 147.107 66.2261C145.713 68.4321 140.77 80.6331 140.191 82.0661C140.837 82.0101 141.485 81.9591 142.133 81.9121C142.399 81.4141 142.54 80.8951 142.54 80.8951C144.823 74.9531 156.178 68.9411 159.078 62.8931C161.979 56.8471 173.272 45.8011 165.065 51.3541Z" fill="#57B063"/>
<path d="M163.616 54.4941C160.515 57.8081 157.013 60.7421 153.885 64.0281C152.696 65.2771 150.857 66.2971 149.812 67.5461C148.482 69.1371 147.525 70.9951 146.29 72.6621C144.149 75.5531 142.859 78.8611 141.136 81.9881C141.469 81.9621 141.801 81.9351 142.134 81.9121C142.401 81.4141 142.542 80.8951 142.542 80.8951C144.825 74.9531 156.18 68.9411 159.08 62.8931C161.08 58.7251 167.065 52.1831 167.904 50.3381C166.477 51.7171 164.983 53.0311 163.616 54.4941Z" fill="#259145"/>
<path d="M139.592 82.2732C139.971 82.2342 140.351 82.2062 140.731 82.2022C141.037 82.2002 141.347 82.2152 141.659 82.2372C141.513 77.6912 141.251 71.2691 140.899 69.5631C140.34 66.8471 135.059 57.4071 129.336 49.3161C123.612 41.2261 130.287 55.5441 130.87 62.2251C131.377 68.0411 137.885 76.0882 139.592 82.2732Z" fill="#57B063"/>
<path d="M139.592 82.2733C139.881 82.2433 140.17 82.2262 140.459 82.2162C140.241 80.0842 139.991 77.9623 139.396 75.8743C138.828 73.8783 138.586 71.8022 137.903 69.8442C137.366 68.3072 136.005 66.7052 135.331 65.1172C133.561 60.9392 131.318 56.9602 129.585 52.7642C128.82 50.9132 127.888 49.1573 127.038 47.3643C127.173 49.3863 130.469 57.6182 130.87 62.2242C131.377 68.0412 137.885 76.0883 139.592 82.2733Z" fill="#259145"/>
<path d="M169.012 54.677C166.947 54.985 167.107 57.603 164.385 60.273C161.614 62.993 159.749 70.745 153.859 72.877C149.304 74.525 145.558 79.057 143.91 81.315C144.132 81.292 144.361 81.277 144.599 81.277C144.816 81.277 145.026 81.289 145.231 81.308C148.974 79.13 153.405 76.843 157.158 76.24C161.529 75.538 167.235 70.218 166.914 65.52C166.589 60.768 169.012 54.677 169.012 54.677Z" fill="#57B063"/>
<path d="M168.191 57.094C165.277 63.673 164.106 70.733 156.697 74.45C153.214 76.198 148.438 76.724 145.439 79.956C145.034 80.393 144.644 80.84 144.262 81.293C144.373 81.287 144.482 81.276 144.598 81.276C144.816 81.276 145.027 81.288 145.232 81.307C148.975 79.129 153.401 76.842 157.157 76.239C161.528 75.537 167.234 70.217 166.913 65.519C166.718 62.66 167.522 59.307 168.191 57.094Z" fill="#259145"/>
<path d="M110.824 75.165C113.259 76.873 114.942 78.2721 116.028 79.2571C116.786 79.2531 117.545 79.256 118.301 79.276C117.106 78.373 115.674 76.562 113.859 72.125C110.458 63.808 110.835 64.187 106.265 60.794C101.696 57.4 101.412 54.405 101.012 53.558C100.612 52.711 99.5419 55.683 99.8989 62.371C100.256 69.059 105.875 71.691 110.824 75.165Z" fill="#57B063"/>
<path d="M110.824 75.1651C113.259 76.8731 114.942 78.2722 116.028 79.2572C116.368 79.2552 116.708 79.2552 117.049 79.2562C116.143 78.4902 115.279 77.7212 114.54 76.9212C112.056 74.2342 109.898 71.2422 107.551 68.4352C104.129 64.3432 100.405 59.0501 101.01 53.5531C100.608 52.7241 99.5439 55.6982 99.8999 62.3692C100.256 69.0572 105.875 71.6911 110.824 75.1651Z" fill="#259145"/>
<path d="M113.717 32.2939C113.717 32.2939 112.876 21.9529 113.736 22.0639C114.595 22.1749 118.683 26.4619 120.001 29.7019C121.319 32.9419 120.84 49.0939 113.717 32.2939Z" fill="#E8232A"/>
<path d="M125.709 81.382C126.682 81.549 127.655 81.706 128.632 81.842C128.801 77.395 128.894 68.107 127.199 61.103C124.89 51.563 123.31 45.646 123.31 45.646L120.386 46.477C120.386 46.477 123.793 55.248 124.762 66.081C125.372 72.888 125.613 78.298 125.709 81.382Z" fill="#84C665"/>
<path d="M110.364 25.8519C110.364 25.8519 111.112 32.7759 110.955 34.4839C110.799 36.1919 115.221 48.3769 122.407 47.1349C122.407 47.1349 119.151 41.1219 118.902 38.8269C118.653 36.5329 111.71 24.6909 110.364 25.8519Z" fill="#EE2B2D"/>
<path d="M117.522 21.5189C117.522 21.5189 117.853 30.2079 117.535 33.4199C117.217 36.6319 120.551 47.7329 122.857 47.1909C125.165 46.6499 127.56 39.916 125.921 34.133C124.284 28.351 118.857 19.8539 117.522 21.5189Z" fill="#EF3D4C"/>
<path d="M136.008 82.128C136.083 82.119 136.156 82.117 136.231 82.108C137.287 81.977 138.393 81.871 139.522 81.76C138.717 76.386 136.316 60.125 136.166 56.608C135.986 52.38 136.836 50.604 136.836 50.604L130.662 50.929C130.662 50.929 133.324 55.671 134.216 63.892C134.882 70.046 135.659 78.343 136.008 82.128Z" fill="#84C665"/>
<path d="M129.931 30.719C129.931 30.719 131.038 25.273 132.219 25.806C133.399 26.34 135.627 29.48 135.788 30.869C135.949 32.258 134.143 39.176 129.931 30.719Z" fill="#F15B63"/>
<path d="M133.417 32.923C133.417 32.923 130.038 24.68 128.283 28.301C126.529 31.921 123.477 39.351 126.124 43.955C128.77 48.559 130.367 52.681 133.906 52.135C137.446 51.59 135.521 38.208 133.417 32.923Z" fill="#EE2B2D"/>
<path d="M135.702 26.384C135.702 26.384 130.474 31.898 130.088 39.15C129.7 46.401 129.422 53.101 133.906 52.135C138.391 51.17 137.799 49.591 139.558 45.164C142.062 38.867 137.47 24.119 135.702 26.384Z" fill="#EF3D4C"/>
<path d="M143.405 58.8891C142.88 60.7151 136.678 77.5671 134.844 82.5441C135.99 82.5641 137.157 82.5781 138.32 82.5601C140.244 76.4161 145.43 59.9961 146.181 59.1341C147.107 58.0721 148.835 57.1721 148.835 57.1721L143.034 54.1812C143.035 54.1812 144.022 56.7411 143.405 58.8891Z" fill="#84C665"/>
<path d="M146.676 43.1861C146.676 43.1861 151.896 34.5011 152.279 35.2721C152.662 36.0431 153.033 44.6821 153.033 44.6821L147.417 49.4741L146.676 43.1861Z" fill="#E8232A"/>
<path d="M149.206 36.0731C149.206 36.0731 143.22 41.3481 142.109 44.8041C140.998 48.2601 140.566 54.2941 145.009 57.1711C149.451 60.0461 150.563 44.3751 150.563 43.6331C150.563 42.8911 150.405 34.9591 149.206 36.0731Z" fill="#EF3D4C"/>
<path d="M154.821 36.771C154.821 36.771 149.39 38.881 146.244 45.545C143.097 52.21 143.405 57.406 146.676 57.524C149.947 57.642 154.39 53.1 155.069 50.897C155.748 48.693 157.198 45.454 155.47 41.072C154.799 39.37 154.821 36.771 154.821 36.771Z" fill="#EE2B2D"/>
<path d="M137.862 78.442C135.965 80.265 134.68 81.716 133.864 82.724C133.2 82.824 132.536 82.928 131.878 83.047C132.801 82.096 133.809 80.318 134.797 76.192C136.649 68.457 136.369 68.839 139.908 65.254C143.446 61.669 143.289 59.011 143.525 58.215C143.76 57.42 145.097 59.876 145.689 65.774C146.282 71.671 141.723 74.735 137.862 78.442Z" fill="#57B063"/>
<path d="M137.863 78.4421C135.965 80.2651 134.68 81.7161 133.864 82.7241C133.566 82.7681 133.268 82.8141 132.971 82.8621C133.659 82.0691 134.31 81.2791 134.849 80.4801C136.66 77.7941 138.142 74.8851 139.816 72.1121C142.256 68.0711 144.799 62.9371 143.527 58.2111C143.767 57.4321 145.098 59.8891 145.689 65.7741C146.282 71.6711 141.723 74.7351 137.863 78.4421Z" fill="#259145"/>
<path d="M120.751 76.629C121.27 77.453 123.088 79.5799 124.969 81.7119C125.979 81.7829 126.984 81.873 127.976 81.999C125.988 77.325 125.163 70.14 122.479 66.807C119.103 62.615 115.009 50.6149 116.193 58.4799C117.375 66.3449 119.565 74.745 120.751 76.629Z" fill="#57B063"/>
<path d="M121.504 70.961C121.997 72.254 122.099 73.939 122.643 75.127C123.334 76.641 124.349 77.977 125.129 79.448C125.577 80.292 126.094 81.082 126.641 81.849C127.088 81.893 127.534 81.942 127.976 81.998C125.988 77.324 125.163 70.139 122.479 66.806C120.152 63.915 117.485 57.319 116.439 56.073C116.944 57.583 117.379 59.119 117.965 60.615C119.293 64.008 120.206 67.558 121.504 70.961Z" fill="#259145"/>
<path d="M163.367 73.4541C162.715 74.2461 161.795 74.8361 160.604 75.0741C159.613 76.0961 154.63 80.3121 138.821 81.6151C120.78 83.1011 108.048 74.2802 108.048 74.2802C108.126 74.2672 108.203 74.2551 108.281 74.2421C107.475 73.8671 106.822 73.3091 106.326 72.6401C105.085 72.8461 103.84 73.0641 102.586 73.3081C102.586 73.3081 117.955 85.2621 139.732 83.2471C161.507 81.2321 166.267 74.0761 166.267 74.0761C166.267 74.0761 165.243 73.8241 163.367 73.4541Z" fill="#FAA968"/>
<path d="M66.6421 74.1399C66.6421 74.1399 54.448 109.196 54.448 141.567C54.448 141.567 59.965 143.854 62.251 143.528C62.251 143.528 63.8481 150.822 66.6431 152.455C69.4361 154.088 75.8591 88.2209 66.6421 74.1399Z" fill="#F1B61C"/>
<path d="M62.304 143.758C62.941 113.313 66.403 87.736 66.353 75.041C64.511 80.878 54.448 112.157 54.448 141.566C54.448 141.566 59.965 143.853 62.251 143.527C62.25 143.527 62.271 143.618 62.304 143.758Z" fill="#E39C25"/>
<path d="M106.679 74.1399H65.7429C65.7429 74.1399 68.9371 105.06 67.6311 121.753C66.3251 138.446 65.7429 152.454 65.7429 152.454C65.7429 152.454 85.485 155.43 95.792 153.833C106.099 152.236 123.373 147.011 123.373 147.011C123.373 147.011 121.04 95.1879 106.679 74.1399Z" fill="#F5D633"/>
<path d="M114.669 92.1409C112.542 85.2079 109.919 78.8889 106.679 74.1399H65.7439C65.7439 74.1399 66.9369 85.7129 67.5659 98.5209C79.5609 100.632 98.5039 99.5769 114.669 92.1409Z" fill="#F5D933"/>
<path opacity="0.75" d="M73.5359 94.4629C74.2839 95.0349 78.0421 93.1339 80.7261 92.9029C85.5501 92.4889 90.381 91.9069 95.136 90.9759C101.02 89.8259 107.025 88.5119 112.918 86.9129C111.145 82.0529 109.081 77.6619 106.678 74.1399H65.7429C65.7429 74.1399 66.475 80.7099 67.116 90.7919C69.689 94.0629 73.5359 94.4629 73.5359 94.4629Z" fill="#F6DC40"/>
<path d="M76.349 82.5049L69.599 84.2469C69.599 84.2469 66.75 92.7019 73.537 94.4629L79.561 92.2489L76.349 82.5049Z" fill="#F2BD1A"/>
<path d="M76.621 86.116L72.0849 87.8209C72.0849 87.8209 70.8138 86.334 70.4518 86.116C70.0888 85.898 69.0718 89.672 72.6288 91.305L77.8549 89.491L76.621 86.116Z" fill="#E7AB23"/>
<path opacity="0.35" d="M70.407 88.687C70.978 88.258 71.5521 88.029 72.1311 87.843C72.1351 87.828 72.1381 87.815 72.1421 87.8L72.085 87.821C72.085 87.821 70.8139 86.334 70.4519 86.116C70.2279 85.982 69.7641 87.352 70.2581 88.808C70.3091 88.769 70.355 88.726 70.407 88.687Z" fill="#E7AB23"/>
<path d="M65.7429 74.1399C65.7429 74.1399 78.181 69.9309 113.02 69.7859C113.02 69.7859 119.334 79.0039 118.536 87.6399C118.536 87.6399 92.6969 94.6809 73.5359 94.4629C73.5359 94.4629 77.1651 89.6359 73.2461 82.1259C69.3741 74.7069 65.7429 74.1399 65.7429 74.1399Z" fill="#F5D633"/>
<path opacity="0.75" d="M112.407 71.2068C112.711 73.6038 109.83 79.9158 107.709 81.7248C103.816 85.0418 98.559 86.4688 93.509 86.3668C87.752 86.2518 83.3051 85.1288 78.8081 81.4238C76.1461 79.2308 72.9091 75.1818 69.2671 74.9168C68.9071 74.8908 68.5531 74.8398 68.2061 74.7718C68.0691 74.8128 67.9939 74.8368 67.9939 74.8368C67.9939 74.8368 71.3869 75.3558 75.0049 82.1428C78.6669 89.0128 75.2759 93.4288 75.2759 93.4288C93.1809 93.6278 117.325 87.1878 117.325 87.1878C117.98 80.2378 113.498 72.8808 112.407 71.2068Z" fill="#F2BB1A"/>
<path d="M113.462 120.28C114.186 130.892 105.937 140.321 95.0568 141.03C84.2198 141.735 75.3689 133.483 75.2519 122.905C75.1379 112.651 83.3229 103.967 93.5649 103.229C103.845 102.488 112.761 109.995 113.462 120.28Z" fill="#6CA643"/>
<path d="M111.092 120.489C111.654 129.272 104.821 137.043 95.8459 137.633C86.9009 138.222 79.551 131.427 79.407 122.668C79.265 114.131 86.0531 106.875 94.5891 106.264C103.15 105.65 110.545 111.931 111.092 120.489Z" fill="#F8E37A"/>
<path d="M93.9991 116.927C92.7701 115.936 91.5422 118.127 92.6632 118.862C93.7832 119.595 95.0191 117.75 93.9991 116.927Z" fill="#6CA643"/>
<path d="M93.6708 116.445C93.3958 114.735 93.0669 113.083 93.9559 111.48C94.6129 110.295 96.6179 108.411 98.0429 109.557C99.3669 110.621 98.8689 112.838 98.0709 113.944C97.0599 115.345 95.0368 115.474 93.6708 116.445Z" fill="#6CA643"/>
<path d="M94.8521 117.049C96.0931 116.124 102.048 111.538 101.029 116.503C100.344 119.834 96.1781 118.726 94.8521 117.049Z" fill="#6CA643"/>
<path d="M92.517 116.735C92.511 115.013 92.3749 113.317 91.1769 112.035C90.2249 111.015 88.0939 110.272 87.0009 111.599C85.8969 112.941 86.7509 115.22 88.0859 116.037C89.5649 116.942 91.002 116.233 92.517 116.735Z" fill="#6CA643"/>
<path d="M91.967 118C90.143 115.978 84.5569 117.261 85.5239 120.65C86.1369 122.8 88.8979 122.272 90.2009 121.275C91.6349 120.175 91.967 118.074 91.967 118Z" fill="#6CA643"/>
<path d="M93.041 119.334C90.227 121.136 88.9449 125.331 92.0359 124.926C94.9409 124.545 94.547 120.515 93.041 119.334Z" fill="#6CA643"/>
<path d="M94.5669 118.651C94.6649 119.923 95.229 121.817 96.197 122.624C97.153 123.422 98.9211 123.556 99.4241 122.285C100.622 119.255 96.1459 118.18 94.5669 118.651Z" fill="#6CA643"/>
<path d="M94.123 120.433C96.026 123.919 97.3409 128.447 96.4929 132.501C96.4029 132.93 95.3721 135.42 96.6531 135.004C97.3341 134.782 97.3521 132.779 97.4041 132.246C97.6021 130.213 97.5979 128.142 96.9939 126.193C96.3859 124.229 95.589 121.747 94.123 120.433Z" fill="#6CA643"/>
<path d="M105.116 114.117C102.49 116.236 100.968 118.198 100.347 121.564C99.8629 124.195 99.7971 127.29 97.8081 129.365C101.374 129.599 104.324 127.58 104.731 123.963C105.098 120.701 103.412 117.083 105.116 114.117Z" fill="#6CA643"/>
<path d="M96.521 130.268C96.709 123.026 88.8349 127.492 85.5339 124.001C85.6169 126.418 88.377 129.746 90.592 130.523C92.927 131.343 94.562 129.252 96.521 130.268Z" fill="#6CA643"/>
<path opacity="0.35" d="M95.2051 128.596C85.4771 129.394 72.516 118.202 70.186 112.591C70.19 115.826 70.1089 118.889 69.8999 121.551C68.7049 136.837 68.1721 149.664 68.1721 149.664C68.1721 149.664 86.249 152.39 95.688 150.927C105.125 149.465 120.943 144.68 120.943 144.68C120.943 144.68 120.439 133.515 118.422 119.819C114.196 123.192 105.396 127.761 95.2051 128.596Z" fill="#E59725"/>
<path opacity="0.32" d="M150.917 125.198C151.529 115.53 153.305 98.9959 158.428 86.5889C158.432 86.5869 158.436 86.5849 158.44 86.5839C159.181 84.7889 159.998 83.0899 160.883 81.4979C163.245 80.5069 164.662 79.7919 164.662 79.7919L166.266 74.077C166.266 74.077 166.207 74.063 166.121 74.043C166.094 74.036 166.064 74.0289 166.029 74.0209C165.978 74.0089 165.927 73.9979 165.859 73.9819C165.832 73.9759 165.797 73.9679 165.767 73.9609C165.608 73.9239 165.41 73.8799 165.175 73.8289C165.146 73.8219 165.121 73.8169 165.092 73.8099C164.963 73.7819 164.822 73.7519 164.674 73.7209C164.626 73.7099 164.578 73.6999 164.528 73.6899C164.039 73.5869 163.45 73.469 162.766 73.338C163.12 73.031 163.466 72.714 163.792 72.377C164.033 72.126 164.266 71.867 164.487 71.603C164.93 71.073 165.329 70.5169 165.67 69.9449C165.841 69.6599 165.997 69.37 166.137 69.077C166.307 68.719 166.444 68.3559 166.563 67.9919C166.832 67.1679 166.966 66.3349 166.911 65.5189C166.889 65.1859 166.882 64.8439 166.885 64.4999C166.886 64.3969 166.891 64.295 166.894 64.192C166.901 63.943 166.912 63.693 166.929 63.442C166.937 63.331 166.947 63.2189 166.955 63.1089C166.978 62.8529 167.005 62.596 167.037 62.34C167.048 62.247 167.058 62.154 167.071 62.062C167.114 61.751 167.162 61.4409 167.215 61.1339C167.221 61.1029 167.226 61.0709 167.231 61.0389C167.335 60.4529 167.459 59.8879 167.587 59.3409C168.687 58.8249 169.765 58.113 170.832 57.236C176.064 52.932 179.792 39.562 176.998 40.228C176.998 40.228 176.192 40.3429 174.95 40.6799C175.023 39.4269 174.93 38.179 174.636 37.603C174.338 37.019 173.097 37.6459 171.945 38.4059C171.836 37.2099 171.333 36.4629 170.006 37.0969C168.769 37.6879 167.138 38.536 165.494 39.598C165.701 39.092 165.819 38.6969 165.83 38.4769C165.905 36.8599 167.505 30.4839 167.505 30.4839C167.101 30.0239 165.773 31.0889 164.226 32.7269C164.762 29.9679 165.337 26.509 164.845 26.504C164.432 26.5 163.112 27.385 161.693 28.629C162.139 25.064 162.149 21.39 161.365 17.973C161.27 17.559 161.185 17.1879 161.103 16.8279C160.895 15.9179 160.727 15.181 160.585 14.598C160.585 14.596 160.584 14.5939 160.584 14.5909C160.521 14.3309 160.464 14.105 160.41 13.905C160.408 13.895 160.405 13.8839 160.402 13.8749C160.297 13.4789 160.208 13.2029 160.129 13.0359C160.126 13.0289 160.123 13.023 160.12 13.017C160.041 12.857 159.97 12.8019 159.9 12.8469C159.372 13.1859 158.838 18.9829 154.514 25.0209C153.836 25.9669 153.244 26.923 152.698 27.882C152.501 27.28 152.229 26.6439 151.845 25.9579C150.951 24.3619 150.364 20.257 150.364 20.257C150.364 20.257 149.595 20.7599 148.523 21.7659C147.991 20.3239 147.543 19.1739 147.386 18.9439C147.187 18.6499 146.399 20.2 145.543 22.116C145.121 20.722 144.662 19.7739 144.266 20.2579C144.266 20.2579 143.354 21.491 142.262 23.179C142.527 18.406 143.558 15.1009 142.248 16.0159C140.936 16.9319 139.757 22.532 137.743 28.163C136.986 26.529 136.221 25.7149 135.7 26.3809C135.7 26.3809 135.142 26.9749 134.382 28.0129C133.697 27.0449 132.906 26.1909 132.322 25.8729C130.546 21.2549 130.578 17.7039 130.294 17.3239C130.303 17.2819 130.308 17.2369 130.316 17.1959C130.207 17.0739 130.037 17.4579 129.675 18.4819C129.628 18.6169 129.576 18.7629 129.521 18.9219C129.514 18.9429 129.505 18.9689 129.498 18.9899C129.413 19.2359 129.318 19.5119 129.215 19.8159C129.13 20.0639 129.042 20.3229 128.944 20.6099C128.011 23.2899 127.414 25.6539 127.036 27.7869C126.806 27.4409 126.589 27.0949 126.344 26.7509C121.447 19.9129 120.843 13.349 120.245 12.965C120.226 12.953 120.208 12.9489 120.19 12.9489C120.185 12.9489 120.179 12.9499 120.174 12.9509C120.119 12.9609 120.062 13.024 120.001 13.145C119.994 13.159 119.987 13.1709 119.98 13.1859C119.96 13.2289 119.94 13.2759 119.918 13.3309C119.917 13.3339 119.917 13.336 119.916 13.338C119.871 13.455 119.824 13.6019 119.773 13.7739C119.766 13.7959 119.76 13.817 119.753 13.84C119.728 13.927 119.701 14.0219 119.675 14.1219C119.669 14.1439 119.662 14.1679 119.656 14.1899C119.569 14.5189 119.471 14.9189 119.36 15.3909C119.351 15.4279 119.341 15.4669 119.333 15.5059C119.133 16.3579 118.892 17.4269 118.584 18.7689C118.39 19.6129 118.246 20.471 118.134 21.338C117.885 21.28 117.672 21.323 117.519 21.515C117.519 21.515 117.592 23.466 117.637 25.856C116.048 23.814 114.266 22.1289 113.732 22.0599C113.214 21.9939 113.314 25.7079 113.474 28.6799C112.089 26.7359 110.852 25.424 110.361 25.848C110.361 25.848 110.723 29.21 110.89 31.827C106.514 25.964 105.398 19.313 104.511 21.252C103.888 22.615 105.448 27.4659 106.57 32.9039C106.558 32.8959 106.538 32.8779 106.527 32.8729C106.469 32.8429 106.423 32.8919 106.384 32.9739C104.238 29.6779 102.048 27.5679 101.58 28.8289C101.58 28.8289 101.227 29.562 100.816 30.783C99.8159 30.025 98.727 29.4089 98.085 29.3329C97.433 29.2569 97.2651 30.636 97.2561 32.017C96.2001 31.443 95.3001 31.4449 95.0891 32.9019C94.9931 33.5639 94.8971 34.343 94.8181 35.189C94.8021 35.198 94.785 35.2039 94.77 35.2119C93.072 36.1879 92.332 37.513 91.498 39.049C90.575 39.152 89.6829 39.32 88.9399 39.437L89.0769 39.1649C91.3459 38.3529 93.9731 35.995 92.2451 33.442C92.2131 33.394 92.178 33.3569 92.144 33.3129C92.7 33.1319 93.2069 32.8659 93.5769 32.4869C94.4789 31.5609 94.39 30.1479 95.291 29.2039C94.169 30.1939 93.266 28.694 92.491 28.093C91.569 27.377 90.734 27.2129 89.615 27.1729C89.6 27.1719 89.589 27.1749 89.575 27.1749C91.04 24.8689 89.7409 20.8299 92.7959 19.3929C90.1099 20.2019 87.932 20.1989 85.657 22.3409C85.568 22.4249 85.4891 22.5179 85.4021 22.6039C85.1791 20.3739 84.047 18.3989 82.718 16.6619C82.733 18.2629 81.8521 20.142 81.0911 22.002C80.5701 22.099 80.0679 22.252 79.6379 22.45C81.0529 21.231 81.907 18.4889 80.354 17.0819C78.282 15.2039 76.2649 17.854 75.0259 19.215C76.3219 17.371 76.4119 13.6899 74.5349 12.3189C71.6199 10.1919 68.4969 11.9959 68.1299 15.3339C68.1169 15.3269 68.1019 15.3219 68.0879 15.3149C68.0809 13.8859 67.9949 12.5809 67.1489 11.7549C68.0259 10.8539 68.574 9.69493 68.499 8.09393C68.366 5.24793 66.4959 3.18293 67.7639 0.200928C66.2829 2.30693 64.1349 4.12292 63.1509 6.59192C63.1099 6.69592 63.087 6.80792 63.051 6.91492C63.049 6.89992 63.0459 6.88292 63.0439 6.86792C62.6289 4.04792 60.5989 2.19896 58.3059 0.748962C58.4379 2.64196 58.1701 4.50895 58.2471 6.38495C57.2691 6.08595 56.1449 6.13896 55.1399 6.45496C55.0569 6.48096 54.986 6.52192 54.905 6.55292C55.204 4.25592 53.3649 2.78796 51.1919 3.05896C48.9279 3.34096 46.3859 4.73293 46.1499 7.14093C46.0199 8.46393 46.389 9.73796 47.176 10.718C47.139 10.724 47.1039 10.7309 47.0669 10.7369C46.9289 10.4689 46.7729 10.2379 46.5659 10.1049C45.6549 9.52392 44.5971 9.37396 43.5601 9.32196C41.4451 9.21596 37.4599 9.98194 36.8789 12.4529C36.5739 13.7489 37.1471 14.7599 38.0491 15.4529C37.9121 15.9709 37.898 16.5399 38.021 17.1379C37.632 16.6309 37.2711 16.0829 36.5801 15.8259C36.3191 15.7299 36.037 15.68 35.748 15.65C36.024 14.901 36.3039 14.1189 36.5549 13.4019C37.0339 12.0339 37.4911 10.6659 37.3301 9.17291C36.9891 5.98591 33.1659 4.73297 30.3579 4.16797C31.9589 5.92597 31.128 8.92996 31.48 11.132C31.7 12.506 32.2551 13.5349 32.9221 14.4949C31.6321 13.8929 30.137 13.572 28.979 13.952C26.566 14.743 27.2081 17.193 25.9641 18.78C25.6251 18.712 25.2699 18.6779 24.8899 18.7249C21.1679 19.1859 21.1349 23.0519 22.9519 25.4689C22.9189 25.4799 22.886 25.4909 22.853 25.5029C21.874 24.3119 20.946 22.992 19.439 22.439C19.34 22.402 19.2371 22.379 19.1331 22.356C18.7741 22.009 18.43 21.627 18.124 21.171C18.26 21.538 18.321 21.9139 18.353 22.2919C16.319 22.3859 13.8719 24.3009 13.1599 25.9459C11.9219 28.8109 14.974 29.7899 17.115 29.8989C17.584 29.9219 18.035 29.9169 18.48 29.8969C18.594 30.1459 18.718 30.3879 18.854 30.6219C18.671 30.7659 18.501 30.912 18.343 31.064C18.186 31.107 18.03 31.1529 17.876 31.2069C17.216 31.0479 16.593 30.9789 16.095 31.1209C13.857 31.7579 13.3351 34.2779 10.3911 34.4329C10.9441 35.2309 12.0859 36.1479 13.3889 36.8309C13.3049 37.8129 13.6549 38.689 14.7749 39.166C15.8739 39.633 17.1089 39.4839 18.3369 38.9689C18.0609 39.5279 18.0239 40.3989 17.9319 41.5819C17.9949 41.6579 18.033 41.6919 18.053 41.7069C18.026 41.6989 17.971 41.7099 17.925 41.8579C18.03 41.9029 14.862 41.9579 14.957 42.0209C14.933 43.0939 17.7479 44.8519 19.5669 45.4839C18.9809 45.4109 18.3681 45.469 17.7781 45.642C16.8601 44.657 15.7069 43.8969 14.6689 43.7999C11.8249 43.5329 9.70712 44.388 6.92212 43.002C8.51112 45.392 9.54603 48.5619 12.353 49.8289C13.391 50.2969 14.1941 50.325 14.9031 50.158C14.9271 50.221 14.94 50.2829 14.969 50.3469C15.787 52.1499 17.578 52.316 19.061 51.614C18.975 51.814 18.908 52.0239 18.884 52.2529C13.803 53.7849 11.127 55.1089 11.126 55.1099L13.8521 62.8779C13.8521 62.8779 13.903 62.8889 13.98 62.9039C14.015 62.9109 14.0581 62.92 14.1101 62.929C14.1431 62.936 14.17 62.942 14.21 62.95C14.259 62.96 14.315 62.9709 14.374 62.9819C14.513 63.0089 14.6791 63.0429 14.8701 63.0809C14.9001 63.0859 14.927 63.092 14.957 63.098C15.067 63.119 15.1841 63.1429 15.3091 63.1669C15.3631 63.1769 15.4159 63.1879 15.4729 63.1979C16.1729 63.3349 17.0769 63.5089 18.1489 63.7109C18.3659 64.4379 18.6001 65.229 18.8511 66.077C19.4781 68.344 20.2379 70.987 21.0979 73.757C23.9639 83.662 27.3261 95.75 28.1621 100.731C29.2451 107.18 30.1199 115.059 30.7219 121.284C12.5649 123.828 0.862061 126.33 0.862061 126.33C0.862061 126.33 24.212 157.028 77.854 164.301C120.413 170.071 180.971 133.827 180.971 133.827C180.971 133.827 168.553 129.535 150.917 125.198ZM92.29 46.3149C92.366 46.2279 92.438 46.1379 92.502 46.0389C93.596 45.9339 94.7611 45.701 95.6851 45.244C96.0391 46.175 96.4991 47.033 97.1001 47.765C96.6451 47.686 96.1639 47.6609 95.6289 47.7459C95.0699 47.8349 94.555 48.0529 94.04 48.2719C93.813 47.4279 93.163 46.6699 92.29 46.3149ZM155.383 72.1359C154.822 72.0599 154.243 71.984 153.647 71.908C155.766 68.37 157.654 65.3019 158.504 64.1379C160.258 61.7389 161.638 60.6169 162.315 60.1519C163.03 60.2699 163.733 60.2939 164.425 60.2299C164.411 60.2439 164.4 60.2569 164.385 60.2719C161.87 62.7399 160.091 69.3409 155.383 72.1359ZM99.7839 50.3719C101.459 51.9629 102.942 53.3179 104.401 53.9439C105.23 54.7839 108.613 58.4469 111.518 65.0319C112.404 67.0389 113.381 69.294 114.343 71.528C114.264 71.537 114.184 71.548 114.104 71.556C113.468 70.445 113.02 69.7849 113.02 69.7849C112.981 69.7849 112.945 69.7859 112.906 69.7859C110.49 63.8629 110.353 63.828 106.265 60.793C101.696 57.399 101.412 54.4039 101.012 53.5569C100.936 53.3969 100.836 53.3739 100.727 53.4879L100.726 53.489C100.69 53.526 100.654 53.577 100.617 53.642C100.612 53.651 100.607 53.6629 100.603 53.6719C100.569 53.7329 100.536 53.8009 100.502 53.8849C100.492 53.9089 100.482 53.9429 100.473 53.9689C100.445 54.0459 100.416 54.1229 100.388 54.2159C100.372 54.2689 100.357 54.3329 100.341 54.3909C100.32 54.4709 100.298 54.5449 100.277 54.6349C100.26 54.7059 100.245 54.79 100.228 54.866C100.209 54.958 100.189 55.0439 100.17 55.1439C100.156 55.2169 100.145 55.304 100.131 55.382C100.111 55.499 100.092 55.611 100.073 55.739C100.052 55.884 100.034 56.044 100.015 56.202C100.006 56.276 99.996 56.3429 99.988 56.4199C99.971 56.5749 99.9581 56.7469 99.9431 56.9139C99.9351 57.0089 99.925 57.0969 99.918 57.1949C99.905 57.3629 99.896 57.548 99.886 57.726C99.879 57.836 99.871 57.9389 99.866 58.0529C99.856 58.2489 99.851 58.4609 99.845 58.6689C99.841 58.7809 99.836 58.8859 99.834 59.0009C99.83 59.1609 99.8311 59.3349 99.8301 59.5009C99.8291 59.6799 99.8249 59.852 99.8259 60.038C99.8269 60.18 99.832 60.335 99.835 60.481C99.838 60.705 99.8399 60.923 99.8469 61.158C99.8579 61.516 99.874 61.891 99.894 62.275C99.896 62.306 99.8959 62.3359 99.8979 62.3669C100.009 64.4569 100.634 66.151 101.593 67.598C102.157 68.452 102.839 69.2179 103.598 69.9299C96.6099 70.1239 90.7451 70.489 85.8711 70.924C86.4381 69.166 87.033 67.51 87.665 66.012C87.669 66.005 87.672 65.9959 87.675 65.9899C87.923 65.4029 88.1771 64.8399 88.4351 64.2999C88.4541 64.2609 88.4729 64.223 88.4919 64.184C88.7889 63.569 89.0941 62.9939 89.4041 62.4449C92.1361 61.9389 93.8491 61.6119 93.8491 61.6119L96.9839 52.9299C96.9839 52.9299 96.7841 52.8789 96.4021 52.7859C97.6211 52.2149 98.5999 50.9649 99.7839 50.3719ZM91.8989 51.4299C92.0369 51.5879 92.182 51.738 92.332 51.879C91.938 51.797 91.5271 51.712 91.0901 51.624C91.3661 51.58 91.6389 51.5139 91.8989 51.4299ZM87.8889 51.0079C87.9479 50.7669 87.996 50.5239 88.031 50.2819C88.126 50.6419 88.315 50.918 88.562 51.132C88.344 51.091 88.1129 51.0499 87.8889 51.0079ZM87.0979 33.1229C87.0699 33.1179 87.0419 33.119 87.0139 33.114C87.1579 33.026 87.2949 32.9289 87.4299 32.8129C87.4849 32.8439 87.538 32.8759 87.594 32.9059C87.426 32.9779 87.2609 33.0499 87.0979 33.1229ZM61.9919 13.687C61.9309 13.938 61.8779 14.1969 61.8279 14.4589C61.7489 14.2279 61.684 14.0009 61.626 13.7769C61.647 13.7889 61.666 13.8069 61.689 13.8189C61.798 13.7869 61.8959 13.739 61.9919 13.687ZM30.491 20.681C30.615 20.985 30.73 21.297 30.759 21.676C29.994 20.918 29.0641 20.531 28.1541 20.551C28.0951 20.416 28.034 20.2829 27.959 20.1599C28.761 20.5969 29.573 20.993 30.491 20.681ZM19.793 38.1949C19.814 38.2089 19.8359 38.228 19.8569 38.241C19.8129 38.241 19.7661 38.239 19.7241 38.241C19.7481 38.226 19.771 38.2099 19.793 38.1949Z" fill="url(#paint2_radial_11_20188)"/>
<defs>
<linearGradient id="paint0_linear_11_20188" x1="54.0205" y1="71.7995" x2="52.5896" y2="131.491" gradientUnits="userSpaceOnUse">
<stop offset="0.0695" stop-color="#F15D3C"/>
<stop offset="0.5187" stop-color="#F2643C"/>
<stop offset="1" stop-color="#EA4E26"/>
</linearGradient>
<linearGradient id="paint1_linear_11_20188" x1="134.274" y1="78.8087" x2="129.091" y2="126.017" gradientUnits="userSpaceOnUse">
<stop offset="0.0856" stop-color="#F68B50"/>
<stop offset="0.5294" stop-color="#F78E45"/>
<stop offset="1" stop-color="#F57F3A"/>
</linearGradient>
<radialGradient id="paint2_radial_11_20188" cx="0" cy="0" r="1" gradientUnits="userSpaceOnUse" gradientTransform="translate(108.551 71.4462) scale(86.2936)">
<stop stop-color="#FFE69C"/>
<stop offset="1" stop-color="#825C5A"/>
</radialGradient>
</defs>
</svg>
