<svg width="107" height="151" viewBox="0 0 107 151" fill="none" xmlns="http://www.w3.org/2000/svg">
<path d="M9.96191 112.528C15.0979 104.582 23.1699 102.427 23.1699 102.427L42.5109 95.2598H60.9729L80.3079 102.427C80.3079 102.427 88.3789 104.581 93.5159 112.528H9.96191Z" fill="#A4DEF6"/>
<path d="M76.961 150.163H106.841C106.841 145.059 106.508 137.787 106.508 137.787C104.752 107.231 82.484 102.428 82.484 102.428C65.121 98.2241 74.585 125.08 74.585 125.08C74.131 131.552 75.094 140.258 76.961 150.163Z" fill="#46C6E6"/>
<path d="M64.4158 77.127H39.0688V101.84H64.4158V77.127Z" fill="#A4DEF6"/>
<path d="M64.4158 88.6129V77.127H39.0688V82.8149C46.2988 88.8329 55.0078 89.5969 64.4158 88.6129Z" fill="#6FCFF3"/>
<path d="M91.4001 150.163C91.8851 136.838 91.7371 133.178 91.6181 128.633C91.3531 118.509 89.1891 109.952 82.5151 102.437C82.5011 102.432 82.4841 102.428 82.4841 102.428L64.4141 96.5361C64.4141 96.5361 68.2141 103.186 51.6071 103.186C51.6071 103.186 40.6661 102.76 39.0691 96.5361L20.7181 102.428C20.7181 102.428 5.03106 106.286 2.34106 122.798L11.5641 139.754L11.2351 150.163H91.4001Z" fill="#46C6E6"/>
<path d="M81.917 40.3123C81.917 34.4383 81.667 28.5773 81.806 22.7093C81.895 18.9593 82.241 19.9253 77.897 19.5153C71.877 18.9433 69.865 30.1243 69.443 34.9633C68.861 41.6333 70.305 48.8123 71.415 55.3133C71.814 57.6623 71.706 62.3683 74.165 63.4693C76.268 64.4093 78.462 62.0883 79.567 60.3703C82.105 56.4173 81.657 50.3733 81.824 45.8873C81.892 44.0273 81.917 42.1693 81.917 40.3123Z" fill="#5C79BC"/>
<path d="M79.312 73.6876C76.75 83.7106 72.239 86.4736 72.239 86.4736L66.187 87.6546C62.705 87.2136 56.7 85.7947 56.7 85.7947C42.877 81.0957 38.872 79.8277 36.729 74.5737C36.639 74.3497 25.833 36.8426 25.833 36.8426C24.065 17.5366 44.273 13.5197 47.324 13.0157C50.342 12.3197 69.583 6.97266 75.267 25.5057C75.266 25.5047 83.662 46.9786 79.312 73.6876Z" fill="#A4DEF6"/>
<path d="M23.757 19.1211C17.041 22.3571 16.812 28.3511 17.126 35.1681C17.37 40.4531 19.003 44.9611 20.893 50.0871C24.117 58.8311 24.117 58.8311 26.974 63.8591C26.974 63.8591 31.425 70.7771 37.159 75.5211C35.497 68.9431 35.033 64.0281 33.52 58.9751C31.7 52.9091 32.233 44.7851 34.934 38.5601C34.934 38.5601 36.464 34.4141 42.747 33.2311C49.03 32.0481 42.747 33.2311 42.747 33.2311L23.757 19.1211Z" fill="#4F69A3"/>
<path d="M34.7919 57.6722C34.7919 57.6722 31.3749 50.2282 26.0049 54.6392C26.0049 54.6392 23.5599 56.5462 26.5709 61.5292C26.5709 61.5292 30.9449 68.6902 36.1839 64.7222L34.7919 57.6722Z" fill="#A4DEF6"/>
<path d="M34.2571 40.3125C34.2571 40.3125 34.2791 53.6395 36.7281 60.7085L34.1311 61.2235C34.1311 61.2235 32.7651 52.0835 28.0601 51.9755L34.2571 40.3125Z" fill="#4F69A3"/>
<path d="M85.2389 11.7707C106.841 33.7707 41.4709 33.5467 41.4709 33.5467C41.4709 33.5467 34.6139 36.7177 23.7569 19.1197C23.7569 19.1197 20.8289 5.35572 51.7389 1.02172C51.7399 1.02272 72.1719 -1.48129 85.2389 11.7707Z" fill="#5C79BC"/>
<path d="M27.9749 150.163C27.9749 150.163 0.0629453 150.163 0.0439453 150.163C0.0529453 150.163 0.140945 143.532 0.155945 143.062C0.364945 136.542 0.77795 129.976 1.95295 123.55C3.63195 114.364 8.09194 106.22 17.9089 103.886C22.4019 102.818 26.3969 105.537 28.8299 109.235C28.8309 109.235 33.2749 114.715 27.9749 150.163Z" fill="#46C6E6"/>
</svg>
