<?xml version="1.0" encoding="utf-8"?>
<!-- Generator: Adobe Illustrator 16.0.0, SVG Export Plug-In . SVG Version: 6.00 Build 0)  -->
<!DOCTYPE svg PUBLIC "-//W3C//DTD SVG 1.1//EN" "http://www.w3.org/Graphics/SVG/1.1/DTD/svg11.dtd">
<svg version="1.1" id="Layer_1" xmlns="http://www.w3.org/2000/svg" xmlns:xlink="http://www.w3.org/1999/xlink" x="0px" y="0px"
	 width="4320px" height="1080px" viewBox="0 0 4320 1080" enable-background="new 0 0 4320 1080" xml:space="preserve">
<g>
	<g>
		<path fill="#BCBDBC" d="M2073.473,595.953c0,0,30.146-21.994,81.3-22.231c43.104-0.199,91.534,19.772,91.534,19.772
			s-55.283,36.581-97.842,30.812C2094.822,617.033,2073.473,595.953,2073.473,595.953z"/>
		<path opacity="0.65" fill="#BCBDBC" d="M2197.066,582.749c0,0-56.676-4.841-68.852-3.719c-8.991,0.829-0.375,13.026-7.221,15.463
			c-0.799,0.284-26.837-9.185-26.837-9.185c-2.854,1.181-5.896,2.471-5.896,2.471c4.982,3.507,34.095,10.716,31.626,15.318
			s-19.336,14.583,35.854,20.833c0,0,15.677-0.875,23.058-4.625c0,0,0.121-10.375-2.373-13.125c0,0,37.881-2.214,57.381-14.107
			C2233.807,592.073,2220.076,583.316,2197.066,582.749z"/>
		<g>
			<path fill="#F7943B" d="M2127.177,452.489c0,0-2.029-3.902-4.318-1.821c-2.29,2.081-0.312,11.03,1.899,9.729
				c2.21-1.301,1.17-3.07,3.199-3.018c2.029,0.052,3.798,1.873,9.469,1.977c5.671,0.104,6.035-2.081,8.064-1.82
				c2.029,0.26,1.977,3.329,4.37,2.757c0.948-0.227,1.278-1.674,1.439-2.468c0.292-1.437,0.298-2.966,0.031-4.407
				c-0.216-1.165-0.609-2.688-1.759-3.22c-2.176-1.006-3.315,1.33-3.509,1.719c-0.417,0.832-1.977-1.145-4.838-1.561
				c-2.862-0.417-7.25-0.123-10.301,0.988C2128.816,452.112,2127.941,453.615,2127.177,452.489z"/>
			<path opacity="0.55" fill="#D19439" d="M2149.976,451.773c-0.687-0.649-1.897,0.138-2.459,0.843
				c-0.531,0.667-1.148,1.259-1.749,1.465c-2.702,0.926-5.414,1.642-8.311,1.557c-2.878-0.084-5.885-0.36-8.741-0.75
				c-2.616-0.357-2.607-4.782-4.972-3.934c-2.721,0.978-0.807,9.571,1.019,8.582c1.559-0.846,1.01-3.275,3.46-2.786
				c1.93,0.385,3.683,1.667,9.182,1.76s5.84-1.704,7.819-1.621c2.543,0.107,2.514,2.594,4.238,2.454
				C2151.013,459.218,2151.517,453.23,2149.976,451.773z"/>
			<linearGradient id="SVGID_1_" gradientUnits="userSpaceOnUse" x1="2094.187" y1="476.6523" x2="2124.6665" y2="476.6523">
				<stop  offset="0.4973" style="stop-color:#C0C8CD"/>
				<stop  offset="1" style="stop-color:#8697A0"/>
			</linearGradient>
			<path fill="url(#SVGID_1_)" d="M2123.734,453.479c-1.312-0.178-3.339,0.018-4.573,1.897c-1.947,2.965-3.664,6.243-12.326,7.335
				c-8.662,1.093-12.252,6.868-12.564,12.721c-0.312,5.854,0.182,7.96,2.68,13.423c2.497,5.463,2.626,8.39,1.769,8.792l1.249,2.229
				c0,0,4.11-1.553-0.677-11.854c-4.786-10.302-1.821-18.21,2.445-20.446c4.266-2.237,9.232-1.76,13.423-4.11
				c5.6-3.142,5.937-7.518,8.556-6.864C2124.901,456.898,2125.057,453.66,2123.734,453.479z"/>
			<linearGradient id="SVGID_2_" gradientUnits="userSpaceOnUse" x1="2094.1885" y1="497.1226" x2="2125.0144" y2="497.1226">
				<stop  offset="0.4973" style="stop-color:#C0C8CD"/>
				<stop  offset="1" style="stop-color:#8697A0"/>
			</linearGradient>
			<path fill="url(#SVGID_2_)" d="M2098.926,494.368c0.437,1.936,0.29,3.046-0.207,3.279l1.249,2.229c0,0,1.723-0.673,1.625-3.958
				C2100.872,495.158,2099.944,494.673,2098.926,494.368z"/>
			<path opacity="0.75" fill="#68C0D6" d="M2110.772,463.964c-0.286-0.6-0.573-1.2-0.848-1.798c-0.921,0.216-1.94,0.401-3.089,0.546
				c-5.091,0.643-8.419,2.907-10.37,5.851c0.442,0.497,0.894,0.987,1.343,1.479C2101.013,466.3,2105.71,464.137,2110.772,463.964z"
				/>
			<path opacity="0.75" fill="#99D4E3" d="M2097.303,486.782c0.513,1.063,0.864,2.146,1.095,3.255
				c0.493-0.234,0.98-0.477,1.439-0.757c-0.173-0.41-0.341-0.815-0.547-1.257c-1.255-2.703-1.965-5.233-2.27-7.547
				c-0.57,0.115-1.141,0.202-1.712,0.296C2095.463,482.867,2096.392,484.893,2097.303,486.782z"/>
			
				<linearGradient id="SVGID_3_" gradientUnits="userSpaceOnUse" x1="2279.5322" y1="495.3652" x2="2287.7451" y2="495.3652" gradientTransform="matrix(-1 0 0 1 4463.8945 0)">
				<stop  offset="0.4973" style="stop-color:#C0C8CD"/>
				<stop  offset="1" style="stop-color:#8697A0"/>
			</linearGradient>
			<path fill="url(#SVGID_3_)" d="M2177.061,499.705c0,0,7.576,0.567,7.294-5.124c-0.131-2.642-1.515-3.477-2.669-3.564
				c-1.333-0.102-2.613,0.909-2.129,2.059c0.699,1.661,2.258,0.434,2.258,0.434s0.873,2.2-1.164,3.335
				c-0.752,0.418-2.243,0.582-3.83,0.594c0,0-0.584,0.225-0.662,0.825C2176.104,498.675,2176.295,499.45,2177.061,499.705z"/>
			
				<linearGradient id="SVGID_4_" gradientUnits="userSpaceOnUse" x1="2279.5313" y1="498.2588" x2="2287.7451" y2="498.2588" gradientTransform="matrix(-1 0 0 1 4463.8945 0)">
				<stop  offset="0.4973" style="stop-color:#C0C8CD"/>
				<stop  offset="1" style="stop-color:#8697A0"/>
			</linearGradient>
			<path fill="url(#SVGID_4_)" d="M2181,497.35c-0.097-0.184-0.191-0.368-0.289-0.551c-0.023,0.014-0.037,0.031-0.061,0.045
				c-0.752,0.418-2.243,0.582-3.83,0.594c0,0-0.584,0.225-0.662,0.825c-0.054,0.412,0.137,1.188,0.902,1.442
				c0,0,2.776,0.199,4.906-0.901C2181.665,498.312,2181.268,497.856,2181,497.35z"/>
			
				<linearGradient id="SVGID_5_" gradientUnits="userSpaceOnUse" x1="2270.5879" y1="499.877" x2="2280.2764" y2="499.877" gradientTransform="matrix(-1 0 0 1 4373.209 0)">
				<stop  offset="0.4973" style="stop-color:#C0C8CD"/>
				<stop  offset="1" style="stop-color:#8697A0"/>
			</linearGradient>
			<path fill="url(#SVGID_5_)" d="M2096.55,503.94c0,0,3.262,3.036,6.071-2.286c0,0-4.745-8.124-8.49-6.485
				C2090.385,496.808,2096.628,499.914,2096.55,503.94z M2096.16,499.11c0-0.625,0.568-1.132,1.268-1.132
				c0.701,0,1.268,0.507,1.268,1.132s-0.567,1.132-1.268,1.132C2096.728,500.242,2096.16,499.735,2096.16,499.11z"/>
			<linearGradient id="SVGID_6_" gradientUnits="userSpaceOnUse" x1="2097.8252" y1="505.3472" x2="2098.6836" y2="500.1583">
				<stop  offset="0.4973" style="stop-color:#C0C8CD"/>
				<stop  offset="1" style="stop-color:#8697A0"/>
			</linearGradient>
			<path opacity="0.55" fill="url(#SVGID_6_)" d="M2098.583,499.568c-0.198,0.396-0.639,0.674-1.155,0.674
				c-0.178,0-0.341-0.043-0.493-0.105c-0.122,1.02-0.254,2.032-0.47,3.03c0.046,0.255,0.09,0.511,0.085,0.773
				c0,0,1.396,1.284,3.145,0.696C2099.683,503.118,2099.683,500.813,2098.583,499.568z"/>
			<linearGradient id="SVGID_7_" gradientUnits="userSpaceOnUse" x1="2171.7891" y1="499.3037" x2="2181.1357" y2="499.3037">
				<stop  offset="0.4973" style="stop-color:#C0C8CD"/>
				<stop  offset="1" style="stop-color:#8697A0"/>
			</linearGradient>
			<path fill="url(#SVGID_7_)" d="M2179.938,494.553c-3.746-1.64-8.148,6.633-8.148,6.633c2.81,5.323,5.729,2.139,5.729,2.139
				C2177.439,499.297,2183.684,496.191,2179.938,494.553z M2176.64,499.625c-0.7,0-1.269-0.507-1.269-1.132s0.568-1.132,1.269-1.132
				s1.269,0.507,1.269,1.132S2177.34,499.625,2176.64,499.625z"/>
			<linearGradient id="SVGID_8_" gradientUnits="userSpaceOnUse" x1="2137.0747" y1="508.0425" x2="2127.6428" y2="590.2">
				<stop  offset="0" style="stop-color:#D1E0E6"/>
				<stop  offset="0.5027" style="stop-color:#E2E4E2"/>
				<stop  offset="1" style="stop-color:#CCD7DF"/>
			</linearGradient>
			<path fill="url(#SVGID_8_)" d="M2114.483,583.891c0,0,12.382,9.326,22.423,8.808s26.117-6.449,26.117-6.449
				s1.404-57.218,12.486-81.052h-76.218C2099.292,505.197,2115.211,567.328,2114.483,583.891z"/>
			<linearGradient id="SVGID_9_" gradientUnits="userSpaceOnUse" x1="2137.0747" y1="508.0425" x2="2127.6428" y2="590.2">
				<stop  offset="0" style="stop-color:#D1E0E6"/>
				<stop  offset="0.5027" style="stop-color:#E2E4E2"/>
				<stop  offset="1" style="stop-color:#CCD7DF"/>
			</linearGradient>
			<path fill="url(#SVGID_9_)" d="M2114.483,583.891c0,0,12.382,9.326,22.423,8.808c8.354-0.432,20.887-4.61,24.861-6.001
				c0.803-0.281,1.256-0.448,1.256-0.448s3.799-52.474,12.486-81.052h-76.218C2099.292,505.197,2115.211,567.328,2114.483,583.891z"
				/>
			<linearGradient id="SVGID_10_" gradientUnits="userSpaceOnUse" x1="2134.8628" y1="507.7886" x2="2125.4353" y2="589.906">
				<stop  offset="0.0963" style="stop-color:#48616E"/>
				<stop  offset="0.4973" style="stop-color:#84959E"/>
				<stop  offset="1" style="stop-color:#8697A0"/>
			</linearGradient>
			<path fill="url(#SVGID_10_)" d="M2131.526,516.119c0.202,4.169,0.443,9.187,0.704,14.636c0.79,0.012,1.58,0.02,2.372,0.021
				c-0.21-5.453-0.405-10.438-0.572-14.55C2133.19,516.197,2132.355,516.161,2131.526,516.119z"/>
			<linearGradient id="SVGID_11_" gradientUnits="userSpaceOnUse" x1="2140.979" y1="508.4897" x2="2131.5513" y2="590.61">
				<stop  offset="0.0963" style="stop-color:#48616E"/>
				<stop  offset="0.4973" style="stop-color:#84959E"/>
				<stop  offset="1" style="stop-color:#8697A0"/>
			</linearGradient>
			<path fill="url(#SVGID_11_)" d="M2132.405,534.421c1.223,25.616,2.76,58.27,2.76,58.27c0.586,0.033,1.167,0.037,1.741,0.008
				c0,0-1.19-32.774-2.164-58.241C2133.961,534.448,2133.182,534.437,2132.405,534.421z"/>
			<linearGradient id="SVGID_12_" gradientUnits="userSpaceOnUse" x1="2124.7339" y1="506.6265" x2="2115.302" y2="588.7841">
				<stop  offset="0.0963" style="stop-color:#48616E"/>
				<stop  offset="0.4973" style="stop-color:#84959E"/>
				<stop  offset="1" style="stop-color:#8697A0"/>
			</linearGradient>
			<path opacity="0.32" fill="url(#SVGID_12_)" d="M2109.687,521.734c1.274,8.193,11.429,66.314,11.429,66.314
				c3.446,1.866,7.813,3.793,12.095,4.44c-0.1-0.566-0.191-1.135-0.258-1.709c-0.475-4.063-7.444-80.029-8.378-85.583h-18.012
				C2107.402,510.731,2108.823,516.176,2109.687,521.734z"/>
			<linearGradient id="SVGID_13_" gradientUnits="userSpaceOnUse" x1="2118.0591" y1="569.4619" x2="2114.5212" y2="505.1571">
				<stop  offset="0.0963" style="stop-color:#A6CAD3"/>
				<stop  offset="0.9251" style="stop-color:#84959E"/>
			</linearGradient>
			<path opacity="0.75" fill="url(#SVGID_13_)" d="M2114.418,505.197h-7.856c0.84,5.534,14.553,82.852,14.553,82.852
				c1.819,0.985,3.897,1.981,6.081,2.804C2125.113,575.664,2114.906,509.242,2114.418,505.197z"/>
			<path opacity="0.55" fill="#687A86" d="M2115.707,513.917c7.038,0.721,14.173,0.771,21.242,0.695
				c12.791-0.137,25.19-2.322,37.467-5.576c0.355-1.318,0.719-2.605,1.094-3.839h-76.219c0,0,0.501,1.959,1.313,5.234
				C2105.543,511.992,2110.53,513.388,2115.707,513.917z"/>
			<path opacity="0.75" fill="#24A4C4" d="M2104.484,512.526c0.875,3.764,1.925,8.544,3.076,14.282
				c0.452,0.173,0.906,0.333,1.36,0.492c-0.925-4.874-1.894-9.705-2.887-14.389C2105.533,512.779,2105.017,512.65,2104.484,512.526z
				"/>
			<path opacity="0.75" fill="#24A4C4" d="M2108.394,531.05c2.64,13.693,5.676,32.01,8.271,54.347
				c0.515,0.338,1.101,0.711,1.761,1.113c-0.384-3.504-3.927-29.052-8.731-55.063
				C2109.261,531.316,2108.827,531.191,2108.394,531.05z"/>
			<g>
				<linearGradient id="SVGID_14_" gradientUnits="userSpaceOnUse" x1="2146.751" y1="505.125" x2="2146.7192" y2="505.402">
					<stop  offset="0.0963" style="stop-color:#48616E"/>
					<stop  offset="0.4973" style="stop-color:#84959E"/>
					<stop  offset="1" style="stop-color:#8697A0"/>
				</linearGradient>
				<path fill="url(#SVGID_14_)" d="M2147.541,505.197h-1.596c-0.005,0.038-0.01,0.076-0.014,0.114L2147.541,505.197z"/>
				<linearGradient id="SVGID_15_" gradientUnits="userSpaceOnUse" x1="2154.2666" y1="509.9883" x2="2144.8845" y2="591.711">
					<stop  offset="0.0963" style="stop-color:#48616E"/>
					<stop  offset="0.4973" style="stop-color:#84959E"/>
					<stop  offset="1" style="stop-color:#8697A0"/>
				</linearGradient>
				<path fill="url(#SVGID_15_)" d="M2150.586,515.536c-0.297,4.764-0.392,9.559-0.52,14.352c1.702-0.236,3.389-0.509,5.054-0.824
					c0.506-5.536,0.985-10.556,1.401-14.599C2154.584,514.915,2152.599,515.265,2150.586,515.536z"/>
				<linearGradient id="SVGID_16_" gradientUnits="userSpaceOnUse" x1="2155.8789" y1="510.1729" x2="2146.4971" y2="591.8943">
					<stop  offset="0.0963" style="stop-color:#48616E"/>
					<stop  offset="0.4973" style="stop-color:#84959E"/>
					<stop  offset="1" style="stop-color:#8697A0"/>
				</linearGradient>
				<path fill="url(#SVGID_16_)" d="M2149.949,533.654c-0.081,2.279-0.186,4.556-0.346,6.823
					c-1.179,16.668-1.284,33.389-2.066,50.078c-0.063,0.021-0.128,0.041-0.193,0.062c0.019,0.113,0.039,0.227,0.054,0.341
					c0.843-0.195,1.684-0.396,2.512-0.615c0,0,2.613-32.472,4.864-57.457C2153.173,533.161,2151.563,533.422,2149.949,533.654z"/>
			</g>
			<linearGradient id="SVGID_17_" gradientUnits="userSpaceOnUse" x1="2148.832" y1="575.0166" x2="2162.8157" y2="549.3544">
				<stop  offset="0.0963" style="stop-color:#A6CAD3"/>
				<stop  offset="0.9251" style="stop-color:#84959E"/>
			</linearGradient>
			<path opacity="0.75" fill="url(#SVGID_17_)" d="M2168.738,505.452c-2.594,12.746-12.484,71.462-12.998,83.222
				c1.716-0.528,3.229-1.023,4.429-1.429c0.546-12.247,6.381-59.938,12.541-81.793H2168.738z"/>
			<linearGradient id="SVGID_18_" gradientUnits="userSpaceOnUse" x1="2138.5088" y1="588.6396" x2="2138.1187" y2="595.2734">
				<stop  offset="0.4973" style="stop-color:#C0C8CD"/>
				<stop  offset="1" style="stop-color:#8697A0"/>
			</linearGradient>
			<path fill="url(#SVGID_18_)" d="M2137.513,590.343c-9.451,0.469-20.889-7.089-23.021-8.56c0.02,0.763,0.019,1.472-0.009,2.107
				c0,0,12.382,9.326,22.423,8.808c8.354-0.432,20.887-4.61,24.861-6.001c0.803-0.281,1.256-0.448,1.256-0.448
				s0.042-0.62,0.185-2.362C2158.751,585.413,2146.015,589.922,2137.513,590.343z"/>
			<g>
				<linearGradient id="SVGID_19_" gradientUnits="userSpaceOnUse" x1="2114.4829" y1="585.6797" x2="2163.2754" y2="585.6797">
					<stop  offset="0.0963" style="stop-color:#48616E"/>
					<stop  offset="0.4973" style="stop-color:#84959E"/>
					<stop  offset="1" style="stop-color:#8697A0"/>
				</linearGradient>
				<path opacity="0.55" fill="url(#SVGID_19_)" d="M2163.275,583.057c0,0-0.455,0.167-1.262,0.448
					c-3.995,1.392-16.593,5.57-24.991,6.001c-9.907,0.51-22.072-8.46-22.519-8.792c0,0.387-0.006,0.758-0.021,1.103
					c0,0,12.447,9.327,22.54,8.809c8.398-0.432,20.996-4.61,24.991-6.002c0.807-0.28,1.168-0.413,1.168-0.413L2163.275,583.057z"/>
			</g>
			<linearGradient id="SVGID_20_" gradientUnits="userSpaceOnUse" x1="2137.3682" y1="491.4165" x2="2137.2661" y2="510.0852">
				<stop  offset="0.4973" style="stop-color:#C0C8CD"/>
				<stop  offset="1" style="stop-color:#8697A0"/>
			</linearGradient>
			<path fill="url(#SVGID_20_)" d="M2096.065,502.591l1.327,4.604c0,0,22.494,5.697,43.858,4.533
				c21.203-1.156,29.5-4.277,35.82-6.474l1.482-3.756c0,0-16.934-4.683-39.409-5.358
				C2117.435,495.486,2099.733,501.966,2096.065,502.591z"/>
			<path opacity="0.55" fill="#687A86" d="M2129.964,502.591c0.472,3.077,0.997,6.147,1.485,9.226
				c1.412,0.043,2.836,0.047,4.262,0.037v-9.263H2129.964z"/>
			<path opacity="0.55" fill="#687A86" d="M2165.876,502.591h-2.421c-0.236,2.243-0.562,4.483-0.904,6.725
				c0.92-0.178,1.793-0.359,2.631-0.544C2165.35,506.705,2165.597,504.646,2165.876,502.591z"/>
			<path fill="#C0C8CD" d="M2139.024,501.186h7.462c-0.04-1.563-0.069-3.122-0.06-4.681c-2.253-0.156-4.583-0.277-6.977-0.354
				C2139.332,497.832,2139.173,499.508,2139.024,501.186z"/>
			<path fill="#C0C8CD" d="M2113.633,499.121c0.319,0.696,0.669,1.379,1.011,2.064h10.375c-0.601-1.43-1.198-2.873-1.693-4.334
				c-3.616,0.41-6.963,0.96-10.022,1.554C2113.413,498.644,2113.523,498.881,2113.633,499.121z"/>
			<path fill="#C0C8CD" d="M2171.977,499.981c-1.672-0.343-3.622-0.717-5.831-1.096c-0.082,0.429-0.177,0.852-0.308,1.293
				c-0.1,0.336-0.197,0.672-0.297,1.007h6.248C2171.838,500.783,2171.914,500.383,2171.977,499.981z"/>
			<path fill="#C0C8CD" d="M2119.325,504.76c-2.628-0.023-5.207-0.262-7.771-0.566c0.149,1.967,0.531,3.951,1.017,5.893
				c4.444,0.654,9.566,1.249,14.958,1.563c0.018-2.296,0.055-4.592,0.093-6.887C2124.856,504.776,2122.09,504.783,2119.325,504.76z"
				/>
			<path fill="#C0C8CD" d="M2105.593,505.179c-0.167-0.602-0.333-1.199-0.493-1.797c-1.938-0.237-3.882-0.452-5.851-0.562
				c-0.788-0.043-1.5-0.208-2.141-0.463c-0.41,0.103-0.776,0.188-1.042,0.233l1.327,4.604c0,0,3.448,0.873,8.923,1.864
				C2106.148,507.742,2105.941,506.43,2105.593,505.179z"/>
			<path fill="#C0C8CD" d="M2157.808,504.386c-5.528,0.386-11.05,0.308-16.618,0.308c-0.364,0-0.729,0.004-1.094,0.004
				c-0.037,2.361-0.074,4.724-0.089,7.085c0.415-0.017,0.83-0.032,1.244-0.055c6.089-0.332,11.109-0.827,15.329-1.414
				C2157.016,508.344,2157.451,506.37,2157.808,504.386z"/>
			<path fill="#C0C8CD" d="M2176.961,501.091c-2.13,0.421-4.249,0.902-6.373,1.366c-0.109,1.198-0.221,2.396-0.43,3.574
				c-0.092,0.526-0.205,1.048-0.305,1.572c2.869-0.815,5.15-1.632,7.217-2.35l1.482-3.756
				C2178.553,501.498,2177.997,501.345,2176.961,501.091z"/>
			<linearGradient id="SVGID_21_" gradientUnits="userSpaceOnUse" x1="2137.125" y1="513.585" x2="2136.3445" y2="495.9478">
				<stop  offset="0.0802" style="stop-color:#D1E0E6"/>
				<stop  offset="1" style="stop-color:#AFC0CC"/>
			</linearGradient>
			<path fill="url(#SVGID_21_)" d="M2099.759,503.267c0,0,11.775,6.003,37.147,5.333c11.232-0.297,21.55-0.124,36.652-5.775
				c0,0-15.768-4.625-35.352-4.838C2127.671,497.871,2114.561,499.938,2099.759,503.267z"/>
			<linearGradient id="SVGID_22_" gradientUnits="userSpaceOnUse" x1="2137.125" y1="513.585" x2="2136.3445" y2="495.9478">
				<stop  offset="0.0802" style="stop-color:#D1E0E6"/>
				<stop  offset="1" style="stop-color:#B0C0C0"/>
			</linearGradient>
			<path opacity="0.75" fill="url(#SVGID_22_)" d="M2099.759,503.267c0,0,11.775,6.003,37.147,5.333
				c11.232-0.297,21.55-0.124,36.652-5.775c0,0-15.768-4.625-35.352-4.838C2127.671,497.871,2114.561,499.938,2099.759,503.267z"/>
			<linearGradient id="SVGID_23_" gradientUnits="userSpaceOnUse" x1="2153.2202" y1="512.8726" x2="2152.4397" y2="495.2353">
				<stop  offset="0.0963" style="stop-color:#48616E"/>
				<stop  offset="0.4973" style="stop-color:#84959E"/>
				<stop  offset="1" style="stop-color:#8697A0"/>
			</linearGradient>
			<path opacity="0.32" fill="url(#SVGID_23_)" d="M2157.544,507.168c0.112-2.513,0.36-5.022,0.488-7.54
				c-3.25-0.486-6.882-0.927-10.789-1.228c-0.015,1.974,0.384,8.516,0.373,9.847
				C2150.805,508.065,2154.079,507.742,2157.544,507.168z"/>
			<linearGradient id="SVGID_24_" gradientUnits="userSpaceOnUse" x1="2133.4517" y1="513.7476" x2="2132.6711" y2="496.1101">
				<stop  offset="0.0963" style="stop-color:#48616E"/>
				<stop  offset="0.4973" style="stop-color:#84959E"/>
				<stop  offset="1" style="stop-color:#8697A0"/>
			</linearGradient>
			<path opacity="0.32" fill="url(#SVGID_24_)" d="M2136.719,497.995c-2.506,0.022-5.147,0.159-7.912,0.398
				c0.428,2.498,0.787,5.018,1.295,7.499c0.188,0.915,0.355,1.825,0.508,2.736c1.915,0.032,3.922,0.026,6.023-0.025
				C2136.526,505.063,2136.41,501.532,2136.719,497.995z"/>
			<linearGradient id="SVGID_25_" gradientUnits="userSpaceOnUse" x1="2113.7832" y1="514.6177" x2="2113.0027" y2="496.9801">
				<stop  offset="0.0963" style="stop-color:#48616E"/>
				<stop  offset="0.4973" style="stop-color:#84959E"/>
				<stop  offset="1" style="stop-color:#8697A0"/>
			</linearGradient>
			<path opacity="0.32" fill="url(#SVGID_25_)" d="M2111.196,506.693c1.728,0.345,3.654,0.673,5.792,0.958
				c-0.59-2.491-1.165-4.986-1.81-7.464c-1.794,0.305-3.637,0.648-5.502,1.009C2110.31,502.99,2110.788,504.83,2111.196,506.693z"/>
			<g>
				<path opacity="0.32" fill="#687A86" d="M2137.96,530.84c-10.022-0.076-23.919-0.754-33.48-4.291
					c0.196,0.843,0.393,1.693,0.593,2.558c11.886,4.073,26.048,4.06,38.398,3.836c8.281-0.15,18.194-1.241,25.606-4.613
					c0.387-0.177,0.799-0.357,1.207-0.538c0.107-0.585,0.223-1.156,0.332-1.738C2160.294,529.731,2148.63,530.921,2137.96,530.84z"
					/>
				<linearGradient id="SVGID_26_" gradientUnits="userSpaceOnUse" x1="2138.1865" y1="519.6563" x2="2136.7239" y2="532.3965">
					<stop  offset="0.4973" style="stop-color:#C0C8CD"/>
					<stop  offset="1" style="stop-color:#8697A0"/>
				</linearGradient>
				<path fill="url(#SVGID_26_)" d="M2139.182,530.211c-16.959,0.416-24.354-1.948-34.92-4.6c0.125,0.532,0.249,1.065,0.375,1.606
					c11.182,2.939,17.591,4.781,34.388,4.325c8.237-0.224,19.405-0.173,31.56-5.354c0.074-0.399,0.152-0.791,0.229-1.189
					C2158.646,529.146,2147.547,530.005,2139.182,530.211z"/>
				<path opacity="0.75" fill="#C0C8CD" d="M2110.492,527.188c-0.904-0.225-1.816-0.454-2.74-0.69
					c0.105,0.542,0.221,1.08,0.324,1.622c0.001,0,0.003,0.001,0.004,0.001c0.904,0.235,1.791,0.463,2.657,0.679l0,0
					C2110.661,528.262,2110.579,527.725,2110.492,527.188z"/>
				<path opacity="0.75" fill="#C0C8CD" d="M2123.365,529.624c0.091,0.505,0.158,1.015,0.265,1.517l0,0
					c0.689,0.069,1.397,0.131,2.127,0.185c0.003,0,0.006,0.001,0.009,0.001c0.729,0.054,1.481,0.101,2.257,0.14
					c0.004,0,0.007,0.001,0.011,0.001c1.56,0.078,3.221,0.125,5.013,0.14c-0.001-0.457,0.013-0.913,0.017-1.37
					C2129.408,530.171,2126.238,529.955,2123.365,529.624z"/>
				<path opacity="0.75" fill="#C0C8CD" d="M2149.81,529.548c-1.469,0.155-2.892,0.276-4.269,0.371
					c-0.004,0.477-0.018,0.953-0.016,1.43c1.274-0.056,2.589-0.13,3.945-0.235l0.001-0.001
					C2149.586,530.592,2149.696,530.069,2149.81,529.548z"/>
				<path opacity="0.75" fill="#C0C8CD" d="M2162.833,527.311c-0.1,0.545-0.19,1.092-0.292,1.637
					c0.641-0.171,1.285-0.354,1.933-0.55c0.06-0.018,0.12-0.037,0.18-0.056c0.589-0.18,1.182-0.369,1.777-0.57
					c0.228-0.077,0.457-0.163,0.686-0.244c0.446-0.157,0.894-0.313,1.344-0.484c0.704-0.269,1.411-0.551,2.124-0.854
					c0.074-0.399,0.152-0.791,0.228-1.189C2168.092,525.927,2165.428,526.682,2162.833,527.311z"/>
			</g>
			<g>
				<path opacity="0.32" fill="#687A86" d="M2138.094,538.991c-9.506-0.076-22.571-0.503-31.753-4.291
					c0.186,0.843,0.373,1.693,0.562,2.558c11.272,4.073,24.704,4.061,36.417,3.836c7.854-0.15,17.255-1.241,24.284-4.613
					c0.368-0.176,0.757-0.357,1.146-0.538c0.102-0.585,0.211-1.156,0.314-1.738C2159.276,537.883,2148.214,539.072,2138.094,538.991
					z"/>
				<linearGradient id="SVGID_27_" gradientUnits="userSpaceOnUse" x1="2138.3149" y1="528.041" x2="2136.8884" y2="540.4667">
					<stop  offset="0.4973" style="stop-color:#C0C8CD"/>
					<stop  offset="1" style="stop-color:#8697A0"/>
				</linearGradient>
				<path fill="url(#SVGID_27_)" d="M2139.252,538.362c-16.083,0.416-23.097-1.948-33.118-4.6c0.118,0.532,0.236,1.065,0.355,1.606
					c10.605,2.939,16.683,4.781,32.613,4.325c7.813-0.224,18.404-0.173,29.931-5.354c0.071-0.398,0.146-0.791,0.217-1.189
					C2157.713,537.298,2147.187,538.156,2139.252,538.362z"/>
				<path opacity="0.75" fill="#C0C8CD" d="M2112.043,535.34c-0.858-0.225-1.723-0.454-2.599-0.689
					c0.1,0.541,0.209,1.08,0.307,1.621c0.001,0.001,0.002,0.001,0.004,0.001c0.857,0.235,1.698,0.463,2.519,0.679h0
					C2112.204,536.413,2112.125,535.876,2112.043,535.34z"/>
				<path opacity="0.75" fill="#C0C8CD" d="M2124.252,537.775c0.086,0.506,0.15,1.015,0.251,1.517l0,0
					c0.654,0.069,1.326,0.131,2.017,0.185c0.003,0.001,0.006,0.001,0.009,0.001c0.691,0.054,1.404,0.101,2.14,0.14
					c0.003,0,0.007,0.001,0.01,0.001c1.479,0.078,3.055,0.126,4.754,0.14c-0.001-0.457,0.012-0.913,0.016-1.37
					C2129.983,538.323,2126.977,538.106,2124.252,537.775z"/>
				<path opacity="0.75" fill="#C0C8CD" d="M2149.333,537.699c-1.394,0.155-2.743,0.276-4.049,0.371
					c-0.003,0.477-0.017,0.953-0.015,1.43c1.208-0.056,2.456-0.129,3.742-0.235l0-0.001
					C2149.121,538.743,2149.225,538.221,2149.333,537.699z"/>
				<path opacity="0.75" fill="#C0C8CD" d="M2161.684,535.462c-0.094,0.545-0.181,1.092-0.277,1.637
					c0.607-0.171,1.219-0.354,1.834-0.55c0.057-0.018,0.113-0.037,0.17-0.056c0.559-0.18,1.121-0.369,1.686-0.57
					c0.216-0.077,0.434-0.163,0.65-0.244c0.424-0.157,0.848-0.313,1.274-0.484c0.668-0.269,1.339-0.55,2.014-0.854
					c0.071-0.398,0.146-0.791,0.217-1.189C2166.671,534.078,2164.145,534.834,2161.684,535.462z"/>
			</g>
			<g>
				<path opacity="0.32" fill="#687A86" d="M2138.368,547.143c-9.057-0.076-21.489-0.616-30.255-4.29
					c0.177,0.842,0.355,1.692,0.536,2.557c10.741,4.073,23.538,4.061,34.698,3.836c7.483-0.15,16.441-1.241,23.138-4.613
					c0.351-0.176,0.722-0.357,1.092-0.538c0.097-0.585,0.202-1.156,0.3-1.738C2158.55,546.035,2148.01,547.224,2138.368,547.143z"/>
				<linearGradient id="SVGID_28_" gradientUnits="userSpaceOnUse" x1="2138.585" y1="536.394" x2="2137.1895" y2="548.5502">
					<stop  offset="0.4973" style="stop-color:#C0C8CD"/>
					<stop  offset="1" style="stop-color:#8697A0"/>
				</linearGradient>
				<path fill="url(#SVGID_28_)" d="M2139.472,546.514c-15.325,0.416-22.007-1.948-31.556-4.6c0.112,0.532,0.225,1.065,0.339,1.606
					c10.105,2.939,15.896,4.781,31.074,4.325c7.444-0.224,17.536-0.173,28.519-5.354c0.068-0.398,0.139-0.791,0.207-1.189
					C2157.062,545.449,2147.031,546.308,2139.472,546.514z"/>
				<path opacity="0.75" fill="#C0C8CD" d="M2113.546,543.491c-0.817-0.225-1.641-0.454-2.476-0.689
					c0.095,0.541,0.199,1.08,0.292,1.621c0.001,0.001,0.003,0.001,0.004,0.001c0.817,0.235,1.618,0.463,2.4,0.679h0
					C2113.699,544.564,2113.625,544.027,2113.546,543.491z"/>
				<path opacity="0.75" fill="#C0C8CD" d="M2125.179,545.928c0.083,0.505,0.143,1.015,0.239,1.516l0,0
					c0.623,0.069,1.263,0.131,1.922,0.185c0.003,0.001,0.006,0.001,0.009,0.001c0.659,0.054,1.338,0.101,2.039,0.14
					c0.003,0.001,0.006,0.001,0.01,0.001c1.41,0.078,2.911,0.126,4.53,0.14c-0.001-0.456,0.012-0.913,0.015-1.37
					C2130.64,546.475,2127.775,546.258,2125.179,545.928z"/>
				<path opacity="0.75" fill="#C0C8CD" d="M2149.076,545.851c-1.327,0.155-2.613,0.276-3.857,0.371
					c-0.003,0.477-0.016,0.953-0.014,1.43c1.151-0.056,2.34-0.129,3.565-0.235l0.001-0.001
					C2148.875,546.895,2148.974,546.372,2149.076,545.851z"/>
				<path opacity="0.75" fill="#C0C8CD" d="M2160.844,543.613c-0.09,0.545-0.172,1.092-0.264,1.637
					c0.579-0.171,1.161-0.354,1.746-0.55c0.055-0.018,0.109-0.037,0.163-0.056c0.532-0.18,1.067-0.369,1.606-0.57
					c0.205-0.077,0.412-0.163,0.619-0.244c0.404-0.157,0.808-0.313,1.215-0.484c0.636-0.269,1.275-0.55,1.918-0.854
					c0.068-0.398,0.139-0.791,0.207-1.189C2165.596,542.229,2163.189,542.985,2160.844,543.613z"/>
			</g>
			<linearGradient id="SVGID_29_" gradientUnits="userSpaceOnUse" x1="2090.4746" y1="496.0391" x2="2098.6875" y2="496.0391">
				<stop  offset="0.4973" style="stop-color:#C0C8CD"/>
				<stop  offset="1" style="stop-color:#8697A0"/>
			</linearGradient>
			<path fill="url(#SVGID_29_)" d="M2097.777,500.379c0,0-7.577,0.568-7.294-5.124c0.131-2.642,1.516-3.477,2.67-3.564
				c1.333-0.101,2.613,0.91,2.128,2.06c-0.7,1.661-2.258,0.433-2.258,0.433s-0.874,2.2,1.165,3.335
				c0.751,0.419,2.243,0.582,3.829,0.594c0,0,0.584,0.226,0.662,0.825C2098.733,499.35,2098.543,500.125,2097.777,500.379z"/>
			
				<linearGradient id="SVGID_30_" gradientUnits="userSpaceOnUse" x1="2281.8359" y1="476.6475" x2="2312.5176" y2="476.6475" gradientTransform="matrix(-1 0 0 1 4463.8945 0)">
				<stop  offset="0.4973" style="stop-color:#C0C8CD"/>
				<stop  offset="1" style="stop-color:#8697A0"/>
			</linearGradient>
			<path fill="url(#SVGID_30_)" d="M2151.377,453.692c0,0,3.761-1.281,5.707,1.685c1.947,2.965,3.664,6.243,12.326,7.335
				c8.662,1.093,12.252,6.868,12.564,12.721c0.313,5.854-0.182,7.96-2.68,13.423c-2.496,5.463-2.626,8.39-1.768,8.792
				c0,0,0.619,0.504,0.434,1.178c-0.273,0.991-1.684,1.052-1.684,1.052s-4.109-1.553,0.678-11.854
				c4.785-10.302,1.82-18.21-2.445-20.446c-4.267-2.237-9.232-1.76-13.424-4.11c-6.399-3.59-5.677-8.693-9.656-6.456
				c0,0,0.108-1.068,0.087-1.784C2151.476,453.849,2151.377,453.692,2151.377,453.692z"/>
			
				<linearGradient id="SVGID_31_" gradientUnits="userSpaceOnUse" x1="2281.835" y1="497.9351" x2="2312.6746" y2="497.9351" gradientTransform="matrix(-1 0 0 1 4463.8945 0)">
				<stop  offset="0.4973" style="stop-color:#C0C8CD"/>
				<stop  offset="1" style="stop-color:#8697A0"/>
			</linearGradient>
			<path fill="url(#SVGID_31_)" d="M2177.527,497.647c-0.337-0.157-0.514-0.719-0.463-1.654c-0.811,0.146-1.614,0.306-2.418,0.459
				c0.092,2.83,1.631,3.425,1.631,3.425s1.41-0.061,1.684-1.052C2178.146,498.151,2177.527,497.647,2177.527,497.647z"/>
			
				<linearGradient id="SVGID_32_" gradientUnits="userSpaceOnUse" x1="2281.8359" y1="466.1035" x2="2312.6685" y2="466.1035" gradientTransform="matrix(-1 0 0 1 4463.8945 0)">
				<stop  offset="0.4973" style="stop-color:#C0C8CD"/>
				<stop  offset="1" style="stop-color:#8697A0"/>
			</linearGradient>
			<path fill="url(#SVGID_32_)" d="M2165.474,463.964c0.286-0.6,0.573-1.2,0.849-1.798c0.921,0.216,1.939,0.401,3.088,0.546
				c5.092,0.643,8.42,2.907,10.371,5.851c-0.442,0.497-0.895,0.987-1.344,1.479C2175.232,466.3,2170.535,464.137,2165.474,463.964z"
				/>
		</g>
		<linearGradient id="SVGID_33_" gradientUnits="userSpaceOnUse" x1="2075.5288" y1="555.7578" x2="2277.8538" y2="555.7578">
			<stop  offset="0.4973" style="stop-color:#C0C8CD"/>
			<stop  offset="1" style="stop-color:#8697A0"/>
		</linearGradient>
		<path fill="url(#SVGID_33_)" d="M2170.812,525c-0.005,0.001-0.009,0.003-0.015,0.004c0.404-2.102,0.83-4.158,1.267-6.185
			c-2.396,0.764-5.081,1.149-7.284,2.414c-1.621,0.931-2.276,2.49-2.361,4.308c-0.143,3.044,0.053,6.148,0.094,9.196
			c0.04,2.941,0.093,5.885,0.01,8.826c-0.166,5.848-0.997,11.498-3.231,16.932c-2.07,5.033-4.625,9.929-7.831,14.336
			c-1.172,1.611-2.441,3.158-3.843,4.576c-1.47,1.486-3.234,2.585-4.979,3.713c-3.528,2.277-6.578,5.05-6.518,9.575
			c4.957,0.006,10-1.319,14.756-2.61c4.096-1.109,8.163-2.379,12.148-3.836c0,0,0.055-0.747,0.163-2.098l0.088-1.075
			c0.466-5.621,1.009-11.235,1.612-16.843c0.894-8.313,1.766-16.687,3.168-24.931l0,0c-0.002,0-0.004,0.001-0.006,0.001
			c0.672-4.502,1.412-9.055,2.227-13.509c0.003-0.001,0.006-0.003,0.008-0.004c0.107-0.585,0.224-1.156,0.332-1.738
			c-0.002,0-0.004,0.001-0.006,0.002C2170.676,525.702,2170.745,525.353,2170.812,525L2170.812,525z"/>
		<linearGradient id="SVGID_34_" gradientUnits="userSpaceOnUse" x1="2075.6157" y1="499.5176" x2="2277.1768" y2="499.5176">
			<stop  offset="0.4973" style="stop-color:#C0C8CD"/>
			<stop  offset="1" style="stop-color:#8697A0"/>
		</linearGradient>
		<path fill="url(#SVGID_34_)" d="M2098.583,499.568c0.012-0.034,0.022-0.067,0.032-0.102
			C2098.603,499.501,2098.599,499.536,2098.583,499.568L2098.583,499.568z"/>
		<linearGradient id="SVGID_35_" gradientUnits="userSpaceOnUse" x1="2075.5889" y1="498.7026" x2="2277.3823" y2="498.7026">
			<stop  offset="0.4973" style="stop-color:#C0C8CD"/>
			<stop  offset="1" style="stop-color:#8697A0"/>
		</linearGradient>
		<path fill="url(#SVGID_35_)" d="M2098.572,498.638c0.021,0.041,0.031,0.086,0.046,0.13
			C2098.604,498.724,2098.592,498.677,2098.572,498.638z"/>
		<linearGradient id="SVGID_36_" gradientUnits="userSpaceOnUse" x1="2075.4727" y1="499.1226" x2="2278.2847" y2="499.1226">
			<stop  offset="0.4973" style="stop-color:#C0C8CD"/>
			<stop  offset="1" style="stop-color:#8697A0"/>
		</linearGradient>
		<path fill="url(#SVGID_36_)" d="M2098.67,499.222c0.008-0.07,0.009-0.137,0.006-0.198c0.003,0.03,0.02,0.056,0.02,0.087
			C2098.696,499.149,2098.675,499.184,2098.67,499.222z"/>
		<g>
			<g>
				<g>
					<path fill="#565855" d="M2216.533,575.617c0,0-1.845,4.61-6.225,3.112c-4.379-1.498-10.026,0.807-19.707,7.03
						c-9.682,6.224-19.593,5.532-24.088,4.149c-4.494-1.384-14.175-4.495-14.982-2.421c-0.807,2.075-0.307,5.84-0.307,5.84
						s13.061,3.534,19.516,3.688c6.453,0.154,18.012-0.847,21.129-2.535c5.531-2.997,9.297-4.303,15.059-4.917
						c5.561-0.594,9.527-2.767,11.219-3.766C2218.146,585.798,2218.377,577.73,2216.533,575.617z"/>
					<path fill="#141713" d="M2216.533,575.617c0,0-1.845,4.61-6.225,3.112c-4.379-1.498-10.026,0.807-19.707,7.03
						c-9.682,6.224-19.593,5.532-24.088,4.149c-4.494-1.384-14.175-4.495-14.982-2.421c-0.807,2.075-0.307,5.84-0.307,5.84
						s13.061,3.534,19.516,3.688c6.453,0.154,18.012-0.847,21.129-2.535c5.531-2.997,9.297-4.303,15.059-4.917
						c5.561-0.594,9.527-2.767,11.219-3.766C2218.146,585.798,2218.377,577.73,2216.533,575.617z"/>
					<path fill="#40423F" d="M2216.533,575.617c0,0-1.845,4.61-6.225,3.112c-4.379-1.498-10.026,0.807-19.707,7.03
						c-9.682,6.224-19.593,5.532-24.088,4.149c-4.494-1.384-14.175-4.495-14.982-2.421c-0.807,2.075-0.307,5.84-0.307,5.84
						s1.977,0.534,4.767,1.195c0.259-1.374,0.707-3.599,0.918-3.731c0.308-0.191,1.114,0.154,1.229,0.423
						c0.083,0.192,0.047,2.507,0.02,3.81c1.372,0.308,2.846,0.62,4.327,0.905c0.26-1.376,0.705-3.584,0.916-3.716
						c0.307-0.192,1.113,0.153,1.229,0.423c0.08,0.187,0.05,2.364,0.023,3.685c1.498,0.254,2.951,0.459,4.256,0.58
						c0.252-1.354,0.727-3.743,0.945-3.881c0.309-0.192,1.115,0.153,1.23,0.423c0.077,0.182,0.051,2.249,0.024,3.577
						c1.587,0.026,3.443-0.011,5.401-0.109c0.08-1.392,0.242-3.699,0.438-3.859c0.279-0.229,1.124,0.011,1.273,0.263
						c0.098,0.166,0.327,2.143,0.472,3.464c1.671-0.117,3.352-0.273,4.948-0.467c-0.072-1.388-0.168-3.739,0.01-3.921
						c0.254-0.259,1.119-0.112,1.295,0.121c0.119,0.16,0.586,2.21,0.873,3.505c1.557-0.236,2.947-0.511,4.07-0.817
						c-0.189-1.303-0.556-3.994-0.383-4.206c0.229-0.28,1.104-0.212,1.301,0.005c0.133,0.148,0.783,2.154,1.184,3.418
						c1.589-0.857,3.031-1.564,4.422-2.165c-0.221-1.125-0.603-3.215-0.435-3.381c0.23-0.229,7.53-2.649,7.876-1.805
						c0.209,0.512,0.529,1.838,0.752,2.806c0.743-0.116,1.509-0.222,2.32-0.308c0.33-0.036,0.654-0.077,0.973-0.123
						c-0.194-1.391-0.447-3.426-0.298-3.609c0.229-0.28,1.104-0.212,1.3,0.006c0.127,0.141,0.716,1.946,1.119,3.211
						c1.439-0.325,2.73-0.739,3.856-1.174c-0.196-1.375-0.501-3.713-0.341-3.909c0.23-0.281,1.105-0.213,1.301,0.005
						c0.12,0.134,0.662,1.783,1.061,3.032c0.96-0.46,1.717-0.89,2.248-1.204C2218.146,585.798,2218.377,577.73,2216.533,575.617z"/>
					<linearGradient id="SVGID_37_" gradientUnits="userSpaceOnUse" x1="2184.5674" y1="584.3232" x2="2191.2517" y2="506.8751">
						<stop  offset="0.0749" style="stop-color:#E6223F"/>
						<stop  offset="0.5134" style="stop-color:#EE2D42"/>
						<stop  offset="0.9733" style="stop-color:#E72239"/>
					</linearGradient>
					<path fill="url(#SVGID_37_)" d="M2176.81,511.27c0,0,7.568,31.617,6.415,44.525c0,0-7.605,16.856-14.637,21.797
						c-7.029,4.941-9.334-0.13-13.022,2.521c-3.688,2.651-2.997,7.491-2.997,7.491s12.792,5.033,24.625,4.418
						c11.832-0.614,20.822-10.372,26.662-10.833c5.839-0.461,12.076-0.443,13.26-4.563c0,0,0.646-11.188-5.424-21.792
						c0,0-2.15-2.504,1.384-10.587s8.759-25.755,7.722-32.978C2220.797,511.27,2204.854,497.286,2176.81,511.27z"/>
					<path fill="#D31F37" d="M2216.879,511.539c0,0,0.96,15.559-8.875,35.535c0,0-2.189,4.341-0.691,8.49
						c1.498,4.148,8.145,18.709,4.148,18.785c-3.994,0.077-11.006,0-22.588,7.606c-8.568,5.627-15.982,5.917-18.44,5.609
						c0,0,3.929,3.278,14.181-1.242s12.941-8.593,20.24-9.361c7.299-0.768,10.584,1.307,9.547-5.724s-5.432-15.29-5.532-18.411
						c-0.067-2.104,0.452-3.403,1.057-4.984c3.001-7.856,8.645-19.034,9.22-34.96
						C2219.145,512.883,2218.069,511.846,2216.879,511.539z"/>
					<path fill="#D31F37" d="M2179.998,511.539c0,0,7.041,32.692,4.615,43.295c-2.426,10.604-8.188,15.674-8.188,15.674
						s9.686-9.526,10.299-17.364c0.611-7.837,0.15-34.268-2.078-43.257C2184.646,509.887,2180.805,511.001,2179.998,511.539z"/>
					<path fill="#F1656C" d="M2166.133,582.773c-1.379-0.075-2.748-0.325-4.07-0.729c-0.418-0.127-0.841-0.254-1.196-0.357
						c-1.191-0.346-4.188,0.038-2.19,1.883c1.998,1.844,8.803,3.182,8.644,0.432C2167.262,582.98,2166.938,582.818,2166.133,582.773
						z"/>
				</g>
				<path opacity="0.75" fill="#C0596C" d="M2217.131,576.662c-0.005-0.013-0.011-0.022-0.016-0.035v-0.002
					c0,0,0.646-11.188-5.424-21.791c-0.92-1.234-0.71-3.255-0.487-4.652c0.63-3.945,2.647-7.59,3.976-11.333
					c1.416-3.993,2.64-8.061,3.662-12.172c0.945-3.806,1.782-7.696,2.032-11.618c0.081-1.259,0.103-2.537-0.077-3.789
					c0,0-15.943-13.983-43.987,0c0,0,7.568,31.617,6.415,44.525c-2.172,4.78-4.714,9.456-7.631,13.821
					c-1.908,2.857-4.053,5.839-6.865,7.876c-1.721,1.246-3.727,2.269-5.886,2.363c-1.392,0.061-2.701-0.338-4.066-0.511
					c-4.102-0.519-6.339,4.01-6.256,7.538c-1.509,0.292-1.426,2.378-1.447,3.605c-0.016,0.946,0.033,1.899,0.15,2.84
					c1.583,0.425,3.176,0.806,4.767,1.195l0,0c2.869,0.681,5.755,1.306,8.663,1.798l0,0c6.195,1.239,12.763,0.743,18.988-0.01l0,0
					l0,0c0.751-0.091,1.479-0.188,2.178-0.295l0,0c1.367-0.195,2.737-0.453,4.07-0.817l0,0l0,0c2.299-0.629,4.342-2.006,6.523-2.949
					l0,0c3.729-1.612,7.498-2.236,11.486-2.81l0,0c0.738-0.106,1.445-0.239,2.121-0.393l0,0c1.309-0.327,2.596-0.687,3.856-1.174
					l0,0l0,0c1.479-0.571,2.903-1.27,4.269-2.076C2218.215,582.845,2218.248,579.438,2217.131,576.662
					C2217.126,576.649,2218.067,578.987,2217.131,576.662z"/>
			</g>
			<g>
				<path fill="#565855" d="M2226.109,580.398c0,0-1.844,4.609-6.223,3.111c-4.381-1.498-10.027,0.807-19.709,7.03
					c-9.681,6.224-19.592,5.532-24.087,4.149c-4.495-1.384-14.176-4.495-14.982-2.421c-0.807,2.075-0.307,5.84-0.307,5.84
					s13.062,3.534,19.515,3.688c6.455,0.154,18.012-0.847,21.129-2.535c5.533-2.997,9.297-4.303,15.061-4.917
					c5.561-0.594,9.527-2.767,11.217-3.766C2227.723,590.578,2227.953,582.511,2226.109,580.398z"/>
				<path fill="#141713" d="M2226.109,580.398c0,0-1.844,4.609-6.223,3.111c-4.381-1.498-10.027,0.807-19.709,7.03
					c-9.681,6.224-19.592,5.532-24.087,4.149c-4.495-1.384-14.176-4.495-14.982-2.421c-0.807,2.075-0.307,5.84-0.307,5.84
					s13.062,3.534,19.515,3.688c6.455,0.154,18.012-0.847,21.129-2.535c5.533-2.997,9.297-4.303,15.061-4.917
					c5.561-0.594,9.527-2.767,11.217-3.766C2227.723,590.578,2227.953,582.511,2226.109,580.398z"/>
				<path fill="#40423F" d="M2226.109,580.398c0,0-1.844,4.609-6.223,3.111c-4.381-1.498-10.027,0.807-19.709,7.03
					c-9.681,6.224-19.592,5.532-24.087,4.149c-4.495-1.384-14.176-4.495-14.982-2.421c-0.807,2.075-0.307,5.84-0.307,5.84
					s1.976,0.534,4.767,1.195c0.259-1.374,0.707-3.599,0.918-3.731c0.308-0.191,1.115,0.154,1.23,0.423
					c0.082,0.192,0.047,2.507,0.02,3.81c1.372,0.308,2.846,0.62,4.328,0.905c0.259-1.376,0.704-3.584,0.914-3.716
					c0.309-0.192,1.115,0.153,1.23,0.423c0.08,0.187,0.049,2.364,0.021,3.685c1.499,0.254,2.952,0.459,4.256,0.58
					c0.254-1.354,0.727-3.743,0.947-3.881c0.307-0.192,1.113,0.153,1.229,0.423c0.078,0.181,0.051,2.249,0.025,3.577
					c1.588,0.026,3.443-0.011,5.401-0.109c0.08-1.392,0.241-3.699,0.437-3.859c0.281-0.229,1.125,0.01,1.273,0.262
					c0.099,0.167,0.328,2.144,0.473,3.465c1.67-0.117,3.352-0.273,4.948-0.467c-0.073-1.388-0.168-3.738,0.011-3.921
					c0.253-0.259,1.118-0.112,1.293,0.121c0.12,0.16,0.588,2.21,0.874,3.505c1.558-0.236,2.948-0.511,4.07-0.817
					c-0.189-1.303-0.556-3.994-0.383-4.206c0.229-0.281,1.104-0.212,1.3,0.005c0.133,0.148,0.783,2.154,1.185,3.418
					c1.589-0.857,3.031-1.564,4.421-2.165c-0.22-1.125-0.602-3.215-0.434-3.381c0.23-0.229,7.529-2.649,7.875-1.805
					c0.209,0.512,0.531,1.838,0.752,2.806c0.744-0.116,1.51-0.222,2.322-0.308c0.329-0.036,0.652-0.077,0.972-0.123
					c-0.194-1.391-0.448-3.426-0.298-3.609c0.229-0.28,1.104-0.212,1.3,0.006c0.126,0.141,0.716,1.946,1.118,3.211
					c1.441-0.325,2.732-0.739,3.857-1.174c-0.196-1.375-0.502-3.713-0.34-3.91c0.229-0.28,1.104-0.212,1.299,0.006
					c0.121,0.134,0.662,1.782,1.063,3.032c0.959-0.46,1.715-0.89,2.246-1.204C2227.723,590.578,2227.953,582.511,2226.109,580.398z"
					/>
				<linearGradient id="SVGID_38_" gradientUnits="userSpaceOnUse" x1="2194.1436" y1="589.1035" x2="2200.8281" y2="511.655">
					<stop  offset="0.0749" style="stop-color:#E6223F"/>
					<stop  offset="0.5134" style="stop-color:#EE2D42"/>
					<stop  offset="0.9733" style="stop-color:#E72239"/>
				</linearGradient>
				<path fill="url(#SVGID_38_)" d="M2186.387,516.05c0,0,7.568,31.617,6.416,44.525c0,0-7.607,16.856-14.637,21.797
					c-7.031,4.941-9.336-0.13-13.023,2.521c-3.688,2.651-2.997,7.491-2.997,7.491s12.793,5.033,24.626,4.418
					c11.832-0.614,20.821-10.372,26.66-10.833c5.84-0.461,12.076-0.443,13.261-4.563c0,0,0.646-11.188-5.423-21.792
					c0,0-2.152-2.504,1.383-10.587c3.534-8.083,8.759-25.755,7.721-32.978C2230.373,516.05,2214.431,502.066,2186.387,516.05z"/>
				<path fill="#D31F37" d="M2226.455,516.319c0,0,0.961,15.559-8.874,35.535c0,0-2.19,4.341-0.691,8.49
					c1.498,4.148,8.144,18.709,4.149,18.785c-3.996,0.077-11.007,0-22.59,7.606c-8.566,5.627-15.98,5.917-18.439,5.609
					c0,0,3.928,3.278,14.181-1.242c10.252-4.521,12.941-8.593,20.24-9.361c7.3-0.768,10.584,1.307,9.547-5.724
					c-1.038-7.03-5.433-15.29-5.532-18.411c-0.067-2.104,0.452-3.403,1.057-4.984c3.001-7.855,8.645-19.034,9.22-34.96
					C2228.722,517.663,2227.646,516.626,2226.455,516.319z"/>
				<path fill="#D31F37" d="M2189.575,516.319c0,0,7.04,32.692,4.615,43.295c-2.426,10.604-8.188,15.675-8.188,15.675
					s9.688-9.528,10.299-17.365s0.15-34.268-2.077-43.257C2194.224,514.667,2190.382,515.781,2189.575,516.319z"/>
				<ellipse fill="#F1656C" cx="2199.563" cy="558.692" rx="2.497" ry="2.536"/>
				<ellipse fill="#F1656C" cx="2181.162" cy="586.305" rx="2.363" ry="1.758"/>
				<path fill="#F1656C" d="M2175.71,587.554c-1.38-0.075-2.749-0.325-4.07-0.729c-0.419-0.127-0.841-0.254-1.196-0.357
					c-1.19-0.346-4.188,0.038-2.189,1.883c1.998,1.844,8.803,3.182,8.644,0.432C2176.838,587.76,2176.514,587.598,2175.71,587.554z"
					/>
				<path fill="#F1656C" d="M2218.004,574.405c0,0-0.461-1.768-5.763,0.384s-6.608,3.746-9.893,4.956s-3.149,4.728,2.767,1.786
					s8.01-4.726,10.66-4.898S2218.633,574.942,2218.004,574.405z"/>
				<path fill="#F1656C" d="M2200.908,564.071c0,0-5.225,0-5.916,1.075c-0.691,1.076-2.862,9.345-9.527,15.252
					c-6.666,5.906,4.11,3.745,9.585-2.824C2200.523,571.005,2202.205,564.035,2200.908,564.071z"/>
				<path fill="#F1656C" d="M2211.753,515.098c-2.336,0.122-4.149,2.083-4.056,4.42c0.248,6.218,0.595,18.176-0.175,22.879
					c-1.062,6.485,7.066-0.12,9.632-10.142C2219.967,521.269,2221.619,514.58,2211.753,515.098z"/>
			</g>
		</g>
		<path opacity="0.5" fill="#BD9C9A" d="M2166.282,591.57c-4.194-3.082-9.067-4.801-13.449-7.357
			c-0.282,1.067-0.328,2.043-0.313,2.67l0,0c-0.503,0.098-0.863,0.282-0.989,0.605c-0.036,0.093-0.066,0.193-0.098,0.292
			c-0.371,0.794-0.346,1.924-0.36,2.708c0,0.016,0.001,0.031,0.001,0.047c-0.006,0.444,0.003,0.869,0.022,1.25
			c0.003,0.076,0.007,0.152,0.011,0.229c0.045,0.777,0.116,1.313,0.116,1.313s4.163,1.126,8.95,2.135
			c0.086,0.019,0.172,0.036,0.259,0.054c0.072,0.015,0.144,0.03,0.216,0.045c-0.001,1.387,0.152,2.547,0.152,2.547
			s4.222,1.142,9.052,2.156c0.004,0.001,0.009,0.002,0.014,0.003c0.567,0.119,1.146,0.233,1.725,0.347
			C2170.621,597.069,2169.213,593.725,2166.282,591.57z"/>
		<g>
			<path fill="#9C9C9D" d="M2083.428,566.443c0,0-5.616-2.034-7.584,0.975c-1.969,3.01-0.313,6.851,2.634,8.175L2083.428,566.443z"
				/>
			<path fill="#6F6F6F" d="M2080.999,570.934l-2.521,4.659c-2.795-1.257-4.423-4.774-2.904-7.701
				C2075.591,570.683,2078.839,571.943,2080.999,570.934z"/>
			<path fill="#E79B4F" d="M2121.527,588.418l-38.099-21.975c0,0-6.75,2.4-4.95,9.149l39.058,17.479L2121.527,588.418z"/>
			<path opacity="0.55" fill="#CE934F" d="M2118.846,591.942l-1.31,1.13l-39.058-17.479c-0.173-0.648-0.046-2.598-0.075-3.168
				C2091.791,579.644,2118.846,591.942,2118.846,591.942z"/>
			<path opacity="0.55" fill="#E79B4F" d="M2079.418,569.496c0.447-0.625,0.968-1.145,1.485-1.565
				c-0.398,0,39.456,21.823,39.456,21.823l-1.159,1.603C2115.666,589.657,2085.551,572.686,2079.418,569.496z"/>
			<path fill="#666866" d="M2121.527,588.418c0,0,5.644,5.269,9.637,4.031s3.769-3.713,4.05-4.894
				c0.281-1.182,0.112-5.456,4.05-4.95s21.862,9.487,24.112,11.513c2.25,2.024,6.149,9.899,11.25,23.399c0,0-8.325,3.675-15.9,4.125
				c-7.575,0.449-28.799-5.851-41.174-10.351c0,0-3.038-2.137-3.038-4.219c0-2.081,2.306-1.293,4.837-2.081
				c2.531-0.787,4.556-4.894,1.969-8.269s-3.769-3.543-3.769-3.543S2116.615,588.043,2121.527,588.418z"/>
			
				<linearGradient id="SVGID_39_" gradientUnits="userSpaceOnUse" x1="1850.6533" y1="614.7363" x2="1865.5778" y2="608.2115" gradientTransform="matrix(-1 0 0 1 4003.3584 0)">
				<stop  offset="0.0374" style="stop-color:#666866"/>
				<stop  offset="1" style="stop-color:#4E4F4D"/>
			</linearGradient>
			<path opacity="0.32" fill="url(#SVGID_39_)" d="M2140.562,610.857c1.663-0.507,3.076-1.054,4.555-1.977
				c0.6-0.374,0.987-0.9,1.498-1.326c3.373,1.684,7.013,3.324,10.333,4.924c-2.614,0.936-5.222,1.856-7.78,2.804
				c-3.807-0.271-10.561-2.11-13.978-3.687C2137.022,611.548,2138.851,611.381,2140.562,610.857z"/>
			<path fill="#333431" d="M2132.934,591.675c1.863,1.462,3.78,3.073,5.345,4.572c1.278,1.224,3.01,2.777,3.277,4.651
				c0.427,2.988-4.157,2.677-5.683,2.514c-4.653-0.498-9.041-1.345-13.548-1.843c0.404-1.495,0.22-3.25-1.003-4.846
				c-2.587-3.375-3.769-3.543-3.769-3.543s-0.938-5.138,3.975-4.763c0,0,5.644,5.269,9.637,4.031
				C2131.883,592.227,2132.461,591.963,2132.934,591.675z"/>
			<path opacity="0.32" fill="#666866" d="M2144.663,603.825c-5.924-2.648-22.688-13.15-25.669-14.912
				c0.594-0.368,1.403-0.581,2.534-0.495c0,0,5.644,5.269,9.637,4.031s3.769-3.713,4.05-4.894c0.281-1.182,0.112-5.456,4.05-4.95
				s21.862,9.487,24.112,11.512c2.25,2.025,6.149,9.9,11.25,23.4c0,0-0.071,0.03-0.175,0.074
				C2164.15,614.186,2154.516,608.229,2144.663,603.825z"/>
			<path fill="#424341" d="M2160.179,593.67c-5.63-3.504-11.053-5.402-17.866-8.346c-2.615-1.13-5.737-1.224-6.146,2.053
				c-1.24,9.922-10.7,5.317-15.996,1.105c0.396-0.071,0.837-0.104,1.357-0.064c0,0,5.644,5.269,9.637,4.031s3.769-3.713,4.05-4.894
				c0.281-1.182,0.112-5.456,4.05-4.95s21.862,9.487,24.112,11.512c0.944,0.85,2.183,2.743,3.674,5.636
				C2164.051,596.067,2162.076,594.851,2160.179,593.67z"/>
			<path fill="#333532" d="M2115.941,605.558c2.552,1.041,5.153,2.391,7.582,3.427c3.62,1.543,7.208,3.152,10.819,4.716
				c5.14,2.226,10.23,4.396,15.178,6.895c-9.678-1.926-23.097-6.076-31.968-9.303c0,0-3.038-2.137-3.038-4.219
				C2114.515,606.051,2115.074,605.722,2115.941,605.558z"/>
			<path fill="#60615F" d="M2129.074,596.708c-2.987-2.143-6.393-4.482-8.903-7.151c1.547,0.587,3.08,1.241,4.599,1.938
				c2.437,1.325,5.514,2.468,7.909,4.057c3.292,2.185,5.951,4.34,8.43,6.966C2141.042,602.588,2134.352,600.492,2129.074,596.708z"
				/>
			<g>
				<path fill="#424241" d="M2083.428,566.443l1.725,1.004c-2.023,0.674-5.681,3.459-4.659,9.052l-2.016-0.906
					c-0.621-2.33-0.375-4.438,0.413-5.812C2080.383,567.176,2083.428,566.443,2083.428,566.443z"/>
			</g>
		</g>
	</g>
	<radialGradient id="SVGID_40_" cx="2197.8066" cy="534.2646" r="86.3489" gradientUnits="userSpaceOnUse">
		<stop  offset="0" style="stop-color:#FFE69C"/>
		<stop  offset="1" style="stop-color:#825C5A"/>
	</radialGradient>
	<path opacity="0.32" fill="url(#SVGID_40_)" d="M2227.645,586.842c-0.115-1.87-0.375-4.025-0.953-5.435l0.001-0.001
		c0,0,0.646-11.188-5.423-21.792c0,0-2.152-2.504,1.383-10.587c3.534-8.083,8.759-25.755,7.722-32.978c0,0-3.319-2.897-9.572-4.736
		c-0.002-0.014-0.003-0.029-0.005-0.044c0,0-15.943-13.983-43.987,0c0,0,7.568,31.617,6.415,44.525
		c-0.361,0.797-0.75,1.586-1.133,2.376c-1.039,2.108-2.717,5.356-4.732,8.67c-0.566,0.921-1.141,1.837-1.738,2.733
		c-1.207,1.809-2.49,3.542-3.797,5.016c-2.573-0.259-5.152-0.465-7.728-0.611c0.249-2.572,0.51-5.143,0.786-7.711
		c0.022-0.212,0.045-0.424,0.068-0.638c0.011-0.097,0.021-0.194,0.031-0.291c0.756-6.947,1.739-15.038,2.963-23.329
		c0.039-0.235,0.068-0.473,0.109-0.707l0,0c-0.002,0-0.004,0.001-0.006,0.001l0.001-0.001c0.335-2.25,0.688-4.513,1.059-6.769
		c0.001-0.002,0.001-0.004,0.001-0.006c0.371-2.257,0.76-4.507,1.166-6.733l0,0c0.003-0.001,0.006-0.003,0.008-0.004
		c0.107-0.585,0.224-1.156,0.332-1.738c-0.002,0-0.004,0.001-0.006,0.002c0.066-0.353,0.136-0.702,0.202-1.055l0,0
		c-0.005,0.001-0.009,0.003-0.015,0.004c0.404-2.102,0.83-4.158,1.267-6.185c-0.003,0.001-0.007,0.002-0.009,0.003
		c0.736-3.419,1.521-6.706,2.355-9.784c0.002-0.001,0.004-0.001,0.006-0.002c0.293-1.085,0.592-2.141,0.897-3.171
		c0.606-0.209,1.19-0.414,1.757-0.611l1.482-3.756c0,0-0.039-0.011-0.096-0.026c-0.005-0.001-0.005-0.001-0.01-0.003
		c-0.096-0.025-0.261-0.069-0.493-0.129c0.257-0.591,0.603-1.155,0.974-1.691c2.223-0.236,5.617-1.221,5.427-5.067
		c-0.131-2.643-1.516-3.477-2.669-3.564c-1.333-0.102-2.613,0.909-2.129,2.059c0.699,1.661,2.258,0.434,2.258,0.434
		s0.775,1.96-0.854,3.135c0.358-0.845,0.217-1.549-1.023-2.091c-0.895-0.392-1.824-0.215-2.725,0.275
		c0.276-1.444,0.92-3.431,2.082-5.973c2.498-5.463,2.992-7.569,2.68-13.423c-0.129-2.413-0.825-4.807-2.193-6.87l0,0l0,0
		c-0.96-1.447-2.253-2.728-3.927-3.733c-0.087-0.053-0.181-0.102-0.271-0.153c-0.314-0.179-0.641-0.349-0.98-0.509
		c-0.137-0.063-0.277-0.126-0.418-0.187c-0.316-0.136-0.645-0.262-0.981-0.381c-0.164-0.058-0.326-0.116-0.495-0.17
		c-0.354-0.111-0.723-0.209-1.1-0.301c-0.164-0.04-0.32-0.085-0.488-0.122c-0.548-0.117-1.115-0.22-1.711-0.295
		c-0.572-0.072-1.111-0.154-1.623-0.245c-0.018-0.003-0.033-0.007-0.051-0.011c-0.496-0.089-0.968-0.186-1.414-0.29
		c-6.026-1.412-7.549-4.217-9.237-6.789c-1.947-2.966-5.708-1.685-5.708-1.685s0.098,0.156,0.139,1.534
		c0.002,0.078,0.003,0.162,0.002,0.247c-0.004-0.692-0.063-1.384-0.188-2.056c-0.216-1.165-0.609-2.688-1.759-3.22
		c-2.176-1.006-3.315,1.33-3.509,1.719c-0.417,0.832-1.977-1.145-4.838-1.561c-2.862-0.417-7.25-0.123-10.301,0.988
		c-2.107,0.768-2.982,2.271-3.746,1.145c0,0-2.029-3.902-4.318-1.821c-0.623,0.566-0.928,1.643-1,2.881
		c-0.969,0.207-1.971,0.721-2.698,1.828c-1.689,2.572-3.212,5.377-9.238,6.789c-0.446,0.104-0.917,0.201-1.413,0.29
		c-0.018,0.004-0.033,0.008-0.051,0.011c-0.512,0.091-1.052,0.173-1.624,0.245c-0.596,0.075-1.163,0.178-1.711,0.295
		c-0.168,0.037-0.324,0.082-0.487,0.122c-0.377,0.092-0.747,0.189-1.1,0.301c-0.169,0.054-0.331,0.112-0.495,0.17
		c-0.337,0.119-0.666,0.245-0.981,0.381c-0.141,0.061-0.281,0.123-0.417,0.187c-0.341,0.16-0.667,0.33-0.981,0.509
		c-0.09,0.052-0.183,0.101-0.271,0.153c-1.674,1.006-2.967,2.286-3.926,3.733l0,0l0,0c-1.369,2.063-2.065,4.457-2.194,6.87
		c-0.312,5.854,0.182,7.96,2.68,13.423c1.044,2.284,1.669,4.118,1.987,5.517c-0.004-0.001-0.007-0.003-0.011-0.004
		c0.285,1.266,0.318,2.171,0.17,2.717c-1.531-1.502-3.342-2.626-4.966-1.916c-0.665,0.291-1.01,0.629-1.137,1.009
		c-0.363-0.997,0.029-1.995,0.029-1.995s1.558,1.229,2.258-0.433c0.484-1.149-0.796-2.16-2.128-2.06
		c-1.154,0.088-2.539,0.923-2.67,3.564c-0.168,3.401,2.466,4.562,4.616,4.949c0.507,0.727,0.973,1.506,1.234,2.332
		c-0.091,0.019-0.191,0.041-0.267,0.055l1.327,4.604c0,0,0.024,0.007,0.04,0.011c0.017,0.004,0.038,0.009,0.07,0.018
		c0.023,0.005,0.044,0.011,0.074,0.018c0.044,0.011,0.093,0.022,0.153,0.037c0.015,0.004,0.03,0.008,0.045,0.012
		c0.227,0.055,0.553,0.132,0.975,0.229c0.009,0.002,0.018,0.004,0.027,0.006c0.333,0.077,0.724,0.165,1.167,0.263
		c0.188,0.746,0.406,1.622,0.66,2.645h0c0.908,3.664,2.209,8.995,3.657,15.181c0,0,0-0.001-0.001-0.001
		c0.073,0.311,0.146,0.625,0.219,0.938l0-0.001c0.196,0.843,0.393,1.693,0.593,2.558c0.001,0,0.001,0,0.002,0.001
		c0.351,1.518,0.706,3.072,1.064,4.657c-0.001-0.001-0.003-0.001-0.004-0.002c0.069,0.311,0.138,0.625,0.208,0.938l0-0.001
		c0.186,0.843,0.373,1.693,0.562,2.558c0.006,0.002,0.013,0.004,0.02,0.007c0.342,1.538,0.683,3.093,1.022,4.658
		c-0.01-0.003-0.019-0.006-0.029-0.009c0.066,0.311,0.132,0.625,0.198,0.938h0c0.177,0.842,0.355,1.692,0.536,2.557
		c0.015,0.006,0.031,0.011,0.046,0.017c2.643,12.48,4.976,25.091,5.629,33.294c-2.262,0.566-4.437,1.162-6.524,1.78l-24.371-14.057
		c0,0-5.616-2.034-7.584,0.975c-0.211,0.324-0.373,0.658-0.504,0.996c-0.005,0.015-0.012,0.027-0.018,0.042
		c-0.063,0.167-0.114,0.334-0.158,0.503c-0.006,0.024-0.014,0.048-0.02,0.072c-0.04,0.162-0.069,0.323-0.093,0.486
		c-0.005,0.032-0.011,0.063-0.015,0.096c-0.02,0.155-0.031,0.311-0.037,0.467c-0.001,0.039-0.003,0.079-0.004,0.119
		c-0.002,0.148,0.003,0.296,0.014,0.442c0.003,0.048,0.006,0.095,0.011,0.143c0.014,0.14,0.033,0.279,0.058,0.418
		c0.009,0.054,0.019,0.106,0.03,0.159c0.027,0.132,0.059,0.262,0.095,0.392c0.017,0.06,0.035,0.118,0.053,0.177
		c0.038,0.122,0.08,0.242,0.126,0.361c0.025,0.064,0.052,0.127,0.079,0.19c0.048,0.112,0.098,0.223,0.152,0.331
		c0.034,0.068,0.072,0.135,0.109,0.202c0.055,0.101,0.111,0.2,0.171,0.297c0.045,0.072,0.094,0.142,0.142,0.212
		c0.061,0.088,0.121,0.177,0.187,0.262c0.056,0.074,0.117,0.145,0.177,0.215c0.064,0.077,0.128,0.154,0.196,0.228
		c0.068,0.074,0.142,0.144,0.214,0.215c0.067,0.064,0.131,0.131,0.201,0.193c0.083,0.073,0.171,0.142,0.258,0.21
		c0.065,0.053,0.128,0.107,0.196,0.156c0.103,0.074,0.21,0.141,0.317,0.209c0.059,0.037,0.115,0.077,0.174,0.112
		c0.169,0.099,0.344,0.189,0.523,0.27l2.016,0.906c0-0.001,0-0.003,0-0.004l16.808,7.521c-3.298,1.243-6.267,2.498-8.908,3.706
		c-0.086,0.036-0.133,0.057-0.133,0.057c0.001,0,0.002,0.001,0.003,0.002c-9.637,4.42-14.791,8.172-14.791,8.172
		s21.349,21.08,74.992,28.353c42.559,5.77,97.842-30.812,97.842-30.812S2239.043,590.5,2227.645,586.842z M2098.676,499.023
		c0.003,0.053,0,0.11-0.005,0.17C2098.676,499.134,2098.679,499.076,2098.676,499.023L2098.676,499.023z M2098.583,499.568
		L2098.583,499.568c0.012-0.034,0.022-0.067,0.032-0.102C2098.603,499.501,2098.599,499.536,2098.583,499.568z M2098.572,498.638
		c0.021,0.041,0.031,0.086,0.046,0.13C2098.604,498.724,2098.592,498.677,2098.572,498.638z M2122.145,456.905
		c0.494,2.286,1.525,4.133,2.614,3.492c2.21-1.301,1.17-3.07,3.199-3.018c2.029,0.052,3.798,1.873,9.469,1.977
		c5.671,0.104,6.035-2.081,8.064-1.82c2.029,0.26,1.977,3.329,4.37,2.757c0.948-0.227,1.278-1.674,1.439-2.468
		c0.062-0.304,0.104-0.614,0.14-0.925c-0.006,0.064-0.01,0.11-0.01,0.11c3.979-2.237,3.257,2.866,9.656,6.456
		c4.191,2.351,9.157,1.873,13.424,4.11c4.266,2.236,7.23,10.145,2.445,20.446c-2.049,4.406-2.463,7.203-2.271,8.971
		c-0.938,1.071-1.727,2.244-2.242,3.077c-6.867-1.437-18.949-3.5-33.298-3.932c-15.649-0.472-29.214,2.765-36.942,4.842
		c-0.309-0.478-0.774-1.159-1.347-1.898c0.828-1.172,1.541-3.973-1.213-10.255c-0.112-0.264-0.219-0.521-0.351-0.805
		c-0.31-0.668-0.585-1.324-0.831-1.97c-0.035-0.092-0.06-0.18-0.094-0.271c-0.208-0.563-0.401-1.121-0.563-1.666
		c-0.009-0.03-0.015-0.059-0.023-0.089c-0.36-1.231-0.61-2.418-0.759-3.551h-0.002c-0.858-6.507,1.57-11.249,4.717-12.899
		c4.267-2.237,9.232-1.76,13.423-4.11C2119.438,461.066,2120.645,457.952,2122.145,456.905z M2097.994,498.111
		c-0.366-0.003-0.726-0.015-1.074-0.035c0.156-0.062,0.326-0.098,0.507-0.098C2097.634,497.979,2097.822,498.033,2097.994,498.111z"
		/>
</g>
</svg>
